<svg width="389" height="377" viewBox="0 0 389 377" fill="none" xmlns="http://www.w3.org/2000/svg">
<path d="M388.76 14.0061H0V4.76837e-06H388.76V14.0061Z" fill="#D3D4EE"/>
<path d="M388.76 245.328H0V19.181H388.76V245.328Z" fill="#EBEFF9"/>
<path d="M215.595 224.511H211.124V71.6808H215.595V224.511Z" fill="white"/>
<path d="M233.371 224.511H228.9V57.3751H233.371V224.511Z" fill="white"/>
<path d="M20.0614 224.511H15.5908V126.271H20.0614V224.511Z" fill="white"/>
<path d="M37.8368 224.511H33.3662V89.1812H37.8368V224.511Z" fill="white"/>
<path d="M55.6122 224.511H51.1416V103.488H55.6122V224.511Z" fill="white"/>
<path d="M73.3876 224.511H68.917V73.6578H73.3876V224.511Z" fill="white"/>
<path d="M91.164 224.511H86.6934V87.0513H91.164V224.511Z" fill="white"/>
<path d="M108.94 224.511H104.47V62.5486H108.94V224.511Z" fill="white"/>
<path d="M126.716 224.511H122.245V75.1796H126.716V224.511Z" fill="white"/>
<path d="M144.49 224.511H140.02V84.6158H144.49V224.511Z" fill="white"/>
<path d="M162.267 224.511H157.797V61.9405H162.267V224.511Z" fill="white"/>
<path d="M180.043 224.511H175.572V72.7457H180.043V224.511Z" fill="white"/>
<path d="M197.818 224.511H193.348V59.6578H197.818V224.511Z" fill="white"/>
<path d="M18.6709 116.222L35.7008 74.4325L53.5404 94.0659L71.3449 63.4256L89.0836 81.1934L106.874 53.476L123.978 69.8763L142.566 77.1965L160.185 53.9649L177.869 68.4982L195.629 50.7075L213.402 66.0765L231.779 47.8259C232.137 47.4714 232.138 46.8923 231.784 46.5348C231.428 46.1773 230.85 46.1742 230.491 46.5302L213.316 63.5876L195.538 48.2139L177.747 66.0352L159.878 51.3492L141.947 74.9902L124.983 68.3087L106.535 50.6204L88.7734 78.2981L70.9598 60.4539L53.2134 90.9917L35.1018 71.0589L16.9796 115.533C16.7901 116 17.0132 116.532 17.4807 116.723C17.9482 116.912 18.4815 116.689 18.6709 116.222Z" fill="white"/>
<path d="M19.4888 115.757C19.4888 116.778 18.6622 117.604 17.6431 117.604C16.6225 117.604 15.7959 116.778 15.7959 115.757C15.7959 114.738 16.6225 113.912 17.6431 113.912C18.6622 113.912 19.4888 114.738 19.4888 115.757Z" fill="white"/>
<path d="M37.3242 72.7778C37.3242 73.7984 36.4976 74.625 35.4785 74.625C34.4579 74.625 33.6328 73.7984 33.6328 72.7778C33.6328 71.7587 34.4579 70.9321 35.4785 70.9321C36.4976 70.9321 37.3242 71.7587 37.3242 72.7778Z" fill="white"/>
<path d="M55.2226 92.2263C55.2226 93.2469 54.396 94.0735 53.3769 94.0735C52.3578 94.0735 51.5312 93.2469 51.5312 92.2263C51.5312 91.2072 52.3578 90.3806 53.3769 90.3806C54.396 90.3806 55.2226 91.2072 55.2226 92.2263Z" fill="white"/>
<path d="M72.9995 61.942C72.9995 62.9611 72.173 63.7877 71.1523 63.7877C70.1332 63.7877 69.3066 62.9611 69.3066 61.942C69.3066 60.9214 70.1332 60.0963 71.1523 60.0963C72.173 60.0963 72.9995 60.9214 72.9995 61.942Z" fill="white"/>
<path d="M90.7749 79.3676C90.7749 80.3867 89.9483 81.2133 88.9292 81.2133C87.9086 81.2133 87.082 80.3867 87.082 79.3676C87.082 78.347 87.9086 77.5204 88.9292 77.5204C89.9483 77.5204 90.7749 78.347 90.7749 79.3676Z" fill="white"/>
<path d="M108.551 52.1254C108.551 53.146 107.724 53.9726 106.705 53.9726C105.686 53.9726 104.859 53.146 104.859 52.1254C104.859 51.1063 105.686 50.2797 106.705 50.2797C107.724 50.2797 108.551 51.1063 108.551 52.1254Z" fill="white"/>
<path d="M126.325 69.0177C126.325 70.0383 125.499 70.8649 124.479 70.8649C123.46 70.8649 122.634 70.0383 122.634 69.0177C122.634 67.9986 123.46 67.172 124.479 67.172C125.499 67.172 126.325 67.9986 126.325 69.0177Z" fill="white"/>
<path d="M144.102 75.6747C144.102 76.6938 143.276 77.5204 142.255 77.5204C141.236 77.5204 140.409 76.6938 140.409 75.6747C140.409 74.6556 141.236 73.829 142.255 73.829C143.276 73.829 144.102 74.6556 144.102 75.6747Z" fill="white"/>
<path d="M161.878 52.6188C161.878 53.6379 161.052 54.4645 160.033 54.4645C159.012 54.4645 158.186 53.6379 158.186 52.6188C158.186 51.5982 159.012 50.7731 160.033 50.7731C161.052 50.7731 161.878 51.5982 161.878 52.6188Z" fill="white"/>
<path d="M179.653 67.172C179.653 68.1911 178.827 69.0177 177.808 69.0177C176.788 69.0177 175.962 68.1911 175.962 67.172C175.962 66.1529 176.788 65.3263 177.808 65.3263C178.827 65.3263 179.653 66.1529 179.653 67.172Z" fill="white"/>
<path d="M197.43 49.6471C197.43 50.6662 196.603 51.4927 195.584 51.4927C194.565 51.4927 193.738 50.6662 193.738 49.6471C193.738 48.628 194.565 47.8014 195.584 47.8014C196.603 47.8014 197.43 48.628 197.43 49.6471Z" fill="white"/>
<path d="M215.206 64.8649C215.206 65.8855 214.379 66.7121 213.358 66.7121C212.339 66.7121 211.513 65.8855 211.513 64.8649C211.513 63.8458 212.339 63.0192 213.358 63.0192C214.379 63.0192 215.206 63.8458 215.206 64.8649Z" fill="white"/>
<path d="M232.981 47.1781C232.981 48.1972 232.154 49.0238 231.135 49.0238C230.115 49.0238 229.288 48.1972 229.288 47.1781C229.288 46.159 230.115 45.3324 231.135 45.3324C232.154 45.3324 232.981 46.159 232.981 47.1781Z" fill="white"/>
<path d="M286.976 77.5204H254.786V45.3324H286.976V77.5204Z" fill="white"/>
<path d="M286.976 126.261H254.786V94.0735H286.976V126.261Z" fill="white"/>
<path d="M286.976 175.003H254.786V142.813H286.976V175.003Z" fill="white"/>
<path d="M286.976 223.744H254.786V191.554H286.976V223.744Z" fill="white"/>
<path d="M373.472 49.0238H294.031V45.3324H373.472V49.0238Z" fill="white"/>
<path d="M366.091 58.5226H294.031V54.8313H366.091V58.5226Z" fill="white"/>
<path d="M370.505 68.0215H294.031V64.3301H370.505V68.0215Z" fill="white"/>
<path d="M346.916 77.5204H294.031V73.829H346.916V77.5204Z" fill="white"/>
<path d="M373.472 97.7649H294.031V94.0735H373.472V97.7649Z" fill="white"/>
<path d="M366.091 107.264H294.031V103.572H366.091V107.264Z" fill="white"/>
<path d="M370.505 116.763H294.031V113.07H370.505V116.763Z" fill="white"/>
<path d="M346.916 126.261H294.031V122.569H346.916V126.261Z" fill="white"/>
<path d="M373.472 146.506H294.031V142.813H373.472V146.506Z" fill="white"/>
<path d="M366.091 156.005H294.031V152.312H366.091V156.005Z" fill="white"/>
<path d="M370.505 165.504H294.031V161.811H370.505V165.504Z" fill="white"/>
<path d="M346.916 175.003H294.031V171.31H346.916V175.003Z" fill="white"/>
<path d="M373.472 195.247H294.031V191.554H373.472V195.247Z" fill="white"/>
<path d="M366.091 204.746H294.031V201.053H366.091V204.746Z" fill="white"/>
<path d="M370.505 214.245H294.031V210.552H370.505V214.245Z" fill="white"/>
<path d="M346.916 223.744H294.031V220.051H346.916V223.744Z" fill="white"/>
<path d="M289.487 288.537L310.714 374.008C310.922 374.846 311.674 375.432 312.535 375.432C313.71 375.432 314.597 374.364 314.38 373.211L298.117 286.45" fill="#3B46A2"/>
<path d="M253.036 288.537L231.81 374.008C231.602 374.846 230.85 375.432 229.988 375.432C228.813 375.432 227.927 374.364 228.144 373.211L244.407 286.45" fill="#3B46A2"/>
<path d="M305.356 286.897C297.756 294.199 246.336 301.81 243.485 291.967C240.634 282.124 266.116 270.195 266.116 270.195L271.653 194.52C271.653 194.52 280.397 193.184 289.488 193.936C295.86 194.472 302.41 196.036 306.251 199.805C316.2 209.541 305.058 244.091 304.162 256.844C303.268 269.599 315.676 276.983 305.356 286.897Z" fill="#D3D4EE"/>
<path d="M305.356 286.897C310.033 280.132 300.084 268.609 299.488 260.853C298.89 253.099 304.505 233.806 304.259 221.602C303.865 202.043 298.05 203.385 293.057 201.201C290.597 200.126 290.301 196.442 289.489 193.936C295.861 194.472 302.411 196.036 306.252 199.805C316.201 209.541 305.058 244.091 304.163 256.844C303.269 269.599 315.677 276.983 305.356 286.897Z" fill="#C7CAEA"/>
<path d="M254.344 351.267L257.806 359.283C257.806 359.283 264.484 360.998 266.079 357.296L262.584 348.06" fill="#F57A8B"/>
<path d="M186.344 355.828L185.283 365.81C185.283 365.81 190.179 368.818 193.427 366.959L195.075 357.223" fill="#F57A8B"/>
<path d="M293.057 273.44C291.864 280.789 283.118 286.396 274.027 290.297C264.221 291.525 251.17 292.803 239.477 293.113C234.98 293.244 230.685 293.232 226.867 293.006C225.555 292.934 224.218 292.838 222.907 292.719C218.193 292.302 213.744 291.716 211.477 291.525C209.688 291.383 210.581 289.391 210.581 289.391L203.495 271.209C204.855 270.636 206.192 270.147 207.48 269.718L207.527 269.706L216.63 267.415L245.431 261.379L289.526 259.23C289.526 259.23 293.844 264.683 293.057 273.44Z" fill="#4D53AD"/>
<path d="M263.143 193.695C263.143 193.695 254.698 237.961 249.676 240.683L240.579 236.735C240.579 236.735 240.649 213.308 241.432 205.045C243.261 185.738 259.78 185.528 263.143 193.695Z" fill="#F7AF10"/>
<path d="M195.953 235.414C195.953 235.414 191.512 238.664 191.755 238.934C191.996 239.203 192.535 239.229 193.451 238.934C194.366 238.638 196.922 236.969 197.649 236.78C198.375 236.592 201.498 235.857 201.498 235.857L201.33 234.439" fill="#F36377"/>
<path d="M198.993 235.435C198.993 235.435 194.148 238.664 194.391 238.934C194.632 239.203 195.17 239.229 196.085 238.934C197 238.638 199.558 236.969 200.284 236.78C201.011 236.592 204.132 235.857 204.132 235.857L203.966 234.439" fill="#F36377"/>
<path d="M201.065 235.435C201.065 235.435 196.22 238.664 196.462 238.934C196.705 239.203 197.243 239.229 198.158 238.934C199.073 238.638 201.631 236.969 202.356 236.78C203.084 236.592 206.205 235.857 206.205 235.857L206.037 234.439" fill="#F36377"/>
<path d="M210.137 234.143C210.137 234.143 207.498 234.196 206.205 233.927C204.914 233.658 201.538 232.35 200.085 232.188C198.632 232.026 194.823 234.008 193.745 234.601C192.67 235.192 189.645 238.23 189.655 238.395C189.68 238.783 190.462 238.809 191.391 238.433C192.32 238.055 194.862 236.36 195.509 236.077C196.155 235.796 199.38 235.438 200.031 235.437C201.202 235.435 201.403 236.344 201.081 237.119C200.757 237.894 197.99 237.667 197.406 238.176C196.916 238.606 197.124 239.105 198.053 239.388C198.982 239.67 200.783 239.709 202.519 239.628C204.254 239.547 206.114 238.92 206.719 238.8C207.324 238.677 210.137 238.638 210.137 238.638" fill="#F57A8B"/>
<path d="M246.642 228.485C246.642 228.485 232.651 230.832 220.366 232.836C217.354 233.327 208.089 233.472 208.089 233.472C208.089 233.472 207.677 234.832 207.565 236.566C207.507 237.452 207.77 240.089 207.77 240.089L241.397 242.529C241.397 242.529 251.166 243.172 251.748 240.353L245.832 231.828L246.642 228.485Z" fill="#F7AF10"/>
<path d="M246.546 202.043C246.546 202.043 245.952 236.952 245.344 242.425H248.613C248.613 242.425 247.535 204.877 246.546 202.043Z" fill="#F79115"/>
<path d="M261.002 185.058C261.002 185.058 254.332 187.359 249.222 190.161C244.722 192.627 247.15 220.289 247.047 225.307C246.959 229.603 248.29 254.089 245.506 260.352C244.979 261.541 245.871 261.791 246.29 261.915C253.087 263.932 291.093 261.915 291.093 261.915C291.093 261.915 291.908 261.44 291.737 259.904C291.431 257.163 290.044 252.523 289.946 251.703C289.272 245.999 288.772 237.481 290.397 224.732C292.386 209.123 295.278 194.304 293.688 191.123C292.097 187.942 274.467 184.413 274.467 184.413" fill="#F7AF10"/>
<path d="M258.056 137.363C258.056 137.363 254.337 139.635 249.914 139.728C245.49 139.82 243.168 138.148 240.474 141.028C238.007 143.666 240.137 150.648 244.297 153.499C245.739 154.489 246.763 156.029 247.116 157.744C247.224 158.263 247.269 158.801 247.209 159.33C246.931 161.791 246.558 163.927 250.506 165.32" fill="#1A2A4C"/>
<path d="M278.642 186.35C278.642 186.35 275.627 193.006 264.822 192.663C253.957 192.321 260.083 186.202 260.083 186.202C260.083 186.202 260.44 184.567 260.857 182.408C261.264 180.297 261.728 177.695 261.979 175.667L265.641 171.968L273.409 164.13C273.409 164.13 273.87 181.281 278.642 186.35Z" fill="#F57A8B"/>
<path d="M270.845 171.504C270.845 171.504 268.148 179.258 260.858 182.408C261.265 180.297 261.729 177.695 261.98 175.667L265.642 171.968L270.845 171.504Z" fill="#EA4859"/>
<path d="M247.534 154.034C247.534 154.034 248.37 177.815 255.802 179.767C255.802 179.767 263.93 180.731 270.162 172.517C271.957 170.15 273.18 167.408 273.939 164.537C275.172 159.872 276.934 151.264 274.847 146.045C271.873 138.613 247.999 136.011 247.534 154.034Z" fill="#F57A8B"/>
<path d="M248.416 144.257C248.416 144.257 249.747 141.462 254.22 143.053C258.694 144.643 257.343 153.394 261.001 156.575C264.66 159.756 277.087 155.282 277.087 155.282C277.087 155.282 280.369 147.145 274.602 138.19C268.836 129.235 252.851 132.833 248.416 144.257Z" fill="#1A2A4C"/>
<path d="M266.578 154.592C266.578 154.592 270.109 154.819 271.594 160.094C273.081 165.368 272.839 174.772 274.586 174.622C276.332 174.471 274.567 168.433 276.518 164.624C278.469 160.816 283.857 157.843 283.764 153.569C283.672 149.296 278.19 149.296 279.305 143.351C280.421 137.406 270.205 128.77 258.055 134.537C252.089 137.368 266.578 154.592 266.578 154.592Z" fill="#1A2A4C"/>
<path d="M266.922 158.016C266.922 158.016 267.272 153.803 270.476 154.314C274.702 154.984 272.875 165.823 268.433 164.023" fill="#F57A8B"/>
<path d="M279.251 206.503C279.251 206.503 283.261 223.791 284.155 226.923C284.155 226.923 278.19 229.235 273.642 230.726C269.093 232.217 254.028 234.942 254.028 234.942L274.387 236.691C274.387 236.691 285.348 234.945 285.572 234.737C285.796 234.529 290.717 228.265 290.717 227.892C290.717 227.519 288.406 220.436 288.033 219.467C287.66 218.497 279.251 206.503 279.251 206.503Z" fill="#F79115"/>
<path d="M295.353 194.353C297.079 203.51 303.244 234.9 301.701 238.746L291.391 239.664C291.391 239.664 282.101 216.21 279.747 208.251C275.25 193.05 284.632 187.452 291.538 189.43C293.385 189.961 294.995 192.465 295.353 194.353Z" fill="#F7AF10"/>
<path d="M253.611 235.097C252.902 235.114 252.193 235 251.527 234.76C250.502 234.39 248.858 233.837 247.194 233.441C244.476 232.796 240.007 233.693 239.107 233.638C238.205 233.583 232.578 238.664 232.555 239.035C232.532 239.406 233.495 239.758 234.373 239.305C235.252 238.855 237.434 237.073 238.045 236.659C238.363 236.442 239.602 236.13 240.764 235.903C239.802 236.181 238.881 236.488 238.671 236.691C238.199 237.151 235.837 239.214 235.936 239.412C236.036 239.611 236.98 239.797 237.652 239.536C238.323 239.276 240.187 238.095 240.734 237.846C240.829 237.803 241.038 237.744 241.311 237.678C240.463 238.453 239.015 239.765 239.093 239.923C239.192 240.121 240.136 240.308 240.809 240.046C241.052 239.952 241.454 239.736 241.89 239.487C241.681 239.71 241.554 239.874 241.579 239.923C241.678 240.121 242.624 240.308 243.295 240.046C243.669 239.901 244.418 239.467 245.099 239.07C245.832 238.644 246.725 238.68 247.463 239.099L247.753 239.246C249.046 239.803 250.787 240.016 251.895 240.164C253.003 240.311 255.108 238.925 256.416 238.844C257.658 238.769 259.75 234.963 253.611 235.097Z" fill="#F57A8B"/>
<path d="M289.238 227.892C289.238 227.892 271.53 232.541 265.687 233.51C260.742 234.33 254.028 234.942 254.028 234.942C254.028 234.942 253.409 236.095 253.409 237.921C253.409 239.872 254.028 241.582 254.028 241.582H291.51C291.51 241.582 301.301 241.597 301.701 238.746L295.252 230.618L289.238 227.892Z" fill="#F7AF10"/>
<path d="M249.438 270.517L239.476 293.113C234.98 293.244 230.685 293.232 226.867 293.006C225.554 292.934 224.217 292.838 222.906 292.719C226.46 278.772 249.438 270.517 249.438 270.517Z" fill="#394498"/>
<path d="M293.054 273.438C291.868 280.787 283.114 286.396 274.024 290.303C263.439 294.841 250.576 297.084 250.576 297.084C250.576 297.084 258.024 307.823 259.945 328.233C261.325 342.879 264.096 350.531 264.096 350.531C261.242 353.802 254.895 354.479 254.895 354.479C254.895 354.479 231.375 307.979 228.229 300.578C226.399 296.259 226.695 292.765 227.262 290.6C227.674 289.04 228.229 288.163 228.229 288.163C234.481 275.605 256.142 267.533 256.142 267.533L293.054 273.438Z" fill="#4D53AD"/>
<path d="M213.325 286.873C213.377 287.762 213.33 288.679 213.377 289.632C214.292 307.985 206.44 325.049 202.572 336.794C198.447 349.327 194.851 360.94 194.851 360.94C189.855 361.536 185.493 359.38 185.493 359.38C185.493 359.38 190.22 300.566 189.744 286.795C189.473 279.033 196.552 274.135 203.501 271.208C204.855 270.641 206.196 270.15 207.484 269.713L207.524 269.7C212.526 268.049 216.625 267.417 216.625 267.417L213.325 286.873Z" fill="#4D53AD"/>
<path d="M293.054 269.243C293.054 269.243 294.705 279.205 289.773 284.959C284.404 291.221 250.576 297.084 250.576 297.084L267.925 281.92L293.054 269.243Z" fill="#4D53AD"/>
<path d="M256.742 360.924C256.178 359.898 256.542 358.603 257.584 358.068C258.433 357.633 259.596 357.203 260.737 357.315C262.93 357.529 263.467 358.031 264.054 358.088C265.552 358.23 266.08 357.296 266.08 357.296C266.08 357.296 266.888 357.582 267.691 358.652C268.493 359.721 269.604 363.199 269.604 364.108C269.604 365.017 265.947 366.503 264.343 367.894C262.737 369.284 261.165 373.2 259.775 374.484C258.384 375.767 250.682 375.313 249.238 374.939C247.793 374.565 247.044 371.354 248.916 369.643C250.789 367.932 252.633 368.38 253.437 367.898C254.239 367.417 255.984 362.93 256.465 362.021C256.665 361.642 256.896 361.203 256.742 360.924Z" fill="#4D53AD"/>
<path d="M185.283 364.997C185.283 364.997 186.947 365.141 187.842 365.637C188.736 366.135 189.234 366.83 190.179 367.327C191.123 367.825 193.427 366.959 193.427 366.959C193.427 366.959 194.304 368.024 194.553 369.217C194.8 370.41 194.205 372.448 194.055 372.994C193.907 373.541 194.205 374.238 194.105 374.635C194.006 375.032 187.593 375.182 186.451 374.983C185.306 374.785 183.766 374.833 182.822 374.884C181.876 374.933 177.052 375.197 174.272 375.38C171.922 375.536 169.45 375.342 169.251 374.795C169.051 374.25 169.077 371.031 171.065 370.335C173.052 369.639 177.254 369.167 178.794 368.471C180.336 367.775 183.573 365.246 185.283 364.997Z" fill="#4D53AD"/>
<path d="M54.7988 355.852L55.7186 366.598C55.7186 366.598 59.737 369.079 64.313 366.598L64.5437 353.707" fill="#F57A8D"/>
<path d="M55.7182 366.598C55.7182 366.598 54.0773 368.248 53.7106 370.717C53.3454 373.185 54.0314 375.243 54.0314 375.791C54.0314 376.34 56.2209 376.838 59.2385 376.882C62.2561 376.928 63.8099 376.198 65.0444 376.014C66.279 375.831 71.5808 376.795 74.1858 376.885C76.7924 376.974 80.4486 376.655 81.5456 376.152C82.6426 375.649 82.8718 371.992 77.3409 371.535C74.143 371.27 70.5708 369.325 67.8878 368.014C65.9306 367.058 64.3126 366.598 64.3126 366.598C64.3126 366.598 57.3607 367.272 55.7182 366.598Z" fill="#2E3797"/>
<path d="M13.0938 355.067V366.598C13.0938 366.598 17.1106 369.079 21.6881 366.598L23.0892 353.707" fill="#F57A8D"/>
<path d="M13.0944 366.598C13.0944 366.598 11.4519 368.248 11.0867 370.717C10.7216 373.185 11.406 375.243 11.406 375.791C11.406 376.34 13.597 376.838 16.6146 376.882C19.6307 376.928 21.1861 376.198 22.4206 376.014C23.6536 375.831 28.9569 376.795 31.562 376.885C34.1685 376.974 37.8248 376.655 38.9218 376.152C40.0188 375.649 40.248 371.992 34.7155 371.535C31.5192 371.27 27.9469 369.325 25.264 368.014C23.3052 367.058 21.6887 366.598 21.6887 366.598C21.6887 366.598 14.7368 367.272 13.0944 366.598Z" fill="#2E3797"/>
<path d="M69.982 294.282C69.5236 304.76 67.4702 336.267 65.49 357.799C59.9468 358.583 56.0461 358.051 54.2127 357.652C53.6076 348.74 52.4097 339.888 51.1981 330.636C49.3219 316.257 47.4747 302.424 52.0263 293.557C51.4502 291.813 50.7551 289.744 50.0018 287.483L49.9865 287.469L49.9132 287.261C49.7054 286.612 49.4838 285.932 49.2623 285.252L49.218 285.104C46.0705 275.66 42.095 263.542 39.8184 255.059C38.784 269.852 37.3799 291.075 36.642 296.114C36.5534 296.705 36.4494 297.252 36.3455 297.77C34.6465 308.749 27.2134 334.997 23.8429 356.942C17.1935 357.593 13.9864 356.869 12.2859 356.499C12.5227 348.858 12.3745 341.513 12.1973 333.504C11.9024 319.967 11.6962 306.563 17.5327 296.69C15.9513 285.208 11.7695 262.758 11.0453 251.201C10.1881 247.965 4.11478 221.837 24.6419 204.605C24.6419 204.605 42.3318 209.91 53.6367 210.546C62.5488 211.049 67.0713 210.28 67.0713 210.28C67.0713 210.28 67.8246 233.113 67.8536 245.438C68.4739 259.493 69.4503 283.05 69.8781 288.561C69.9972 289.863 69.982 291.03 69.8781 292.08C69.9667 292.758 70.0263 293.483 69.982 294.282Z" fill="#2E3797"/>
<path d="M49.2179 285.104C46.0705 275.66 42.0949 263.542 39.8184 255.059L41.2225 235.921C41.2225 235.921 44.8879 270.754 49.2179 285.104Z" fill="#293072"/>
<path d="M77.7452 148.404L94.9552 178.33C94.9552 178.33 96.4342 186.712 87.0729 185.05C77.713 183.386 64.9766 159.267 64.9766 159.267" fill="#F57A8B"/>
<path d="M73.5146 172.938C73.5146 172.938 80.0097 181.557 82.8256 183.683C85.0914 185.392 88.7935 187.239 91.996 185.126C95.1969 183.015 110.871 169.848 122.922 156.019C122.922 156.019 121.062 154.216 119.302 151.942C119.302 151.942 112.725 157.546 104.152 162.081C95.5789 166.618 88.4849 172.564 88.4849 172.564" fill="#F57A8B"/>
<path d="M85.929 160.196C85.929 160.196 81.1696 166.121 73.5149 169.062C72.1704 169.58 70.7356 170.008 69.2139 170.289L69.6279 150.057L69.9671 133.594C69.9671 133.594 82.4852 153.042 85.929 160.196Z" fill="#A9E3F7"/>
<path d="M73.5149 169.062C72.1704 169.58 70.7356 170.008 69.2139 170.289L69.6279 150.057C70.8243 154.654 72.5982 162.043 73.5149 169.062Z" fill="#8CDAEF"/>
<path d="M66.7744 204.162C67.0998 207.576 68.533 209.985 67.2618 211.669C65.8882 213.502 55.4833 214.758 48.1984 214.758C39.9951 214.758 22.5574 213.945 18.3603 211.521C17.9615 211.299 16.9852 210.502 16.9852 209.733C16.9852 208.639 17.9905 207.383 17.9905 204.605C17.9905 200.333 16.646 181.551 16.2029 174.249C16.1143 172.728 15.9951 171.146 15.8622 169.536C15.0203 158.925 13.5428 146.659 13.2617 139.831C14.5329 137.643 15.937 135.855 17.3106 134.391C21.4191 130.003 25.3794 128.524 25.9707 128.333L26.0455 128.303C32.1342 126.648 38.9761 125.629 43.2022 125.496C55.3504 125.126 67.0999 130.491 69.9662 133.594C72.834 136.683 66.4642 200.734 66.7744 204.162Z" fill="#A9E3F7"/>
<path d="M16.802 183.479C16.802 183.479 15.6729 207.936 12.6553 216.473C12.6553 216.473 45.1198 225.586 69.184 217.826C69.184 217.826 69.9633 175.036 69.8288 161.354" fill="#A9E3F7"/>
<path d="M65.5143 85.2423C65.5143 85.2423 66.9918 97.1583 63.1125 98.3577C59.2332 99.5586 59.6961 94.3867 59.6961 94.3867L59.6777 88.6602" fill="#1A2A4C"/>
<path d="M35.8076 128.199C35.8076 128.199 39.4104 134.553 50.1407 133.236C60.9307 131.913 54.2767 126.373 54.2767 126.373C54.2767 126.373 53.7725 124.778 53.1614 122.665C52.567 120.598 51.8688 118.049 51.4364 116.052L47.4547 112.7L39.0101 105.597C39.0101 105.597 40.101 122.718 35.8076 128.199Z" fill="#F57A8B"/>
<path d="M42.2324 112.708C42.2324 112.708 45.6182 120.187 53.1614 122.665C52.5671 120.598 51.8688 118.049 51.4364 116.052L47.4547 112.7L42.2324 112.708Z" fill="#EA4859"/>
<path d="M63.8673 93.2026C63.8673 93.2026 65.1843 116.963 57.9589 119.577C57.9589 119.577 49.9513 121.273 43.0009 113.655C40.9994 111.459 39.5342 108.841 38.5196 106.049C36.8695 101.514 34.3378 93.1002 35.9452 87.7144C38.2339 80.0444 61.7756 75.2957 63.8673 93.2026Z" fill="#F57A8B"/>
<path d="M62.1064 83.5448C62.1064 83.5448 56.412 83.0391 52.1003 85.0269C47.7886 87.0147 50.6534 94.3363 47.2966 97.8352C43.9414 101.334 32.6854 97.5892 32.6854 97.5892C32.6854 97.5892 29.5624 89.386 35.4325 81.0865C42.7374 70.7565 56.6564 72.5685 62.1064 83.5448Z" fill="#1A2A4C"/>
<path d="M44.9524 95.4792C44.9524 95.4792 41.4566 96.0246 40.4528 101.412C39.449 106.798 40.5979 114.445 38.8454 114.452C37.0929 114.462 38.2465 109.986 35.9592 106.368C34.8286 104.581 30.4619 96.1652 33.015 88.1988C35.6277 80.0475 45.2457 72.3867 51.6262 74.7351C57.8248 77.0162 44.9524 95.4792 44.9524 95.4792Z" fill="#1A2A4C"/>
<path d="M44.9184 99.1965C44.9184 99.1965 44.1896 94.7565 41.0437 95.554C36.897 96.6037 39.6961 107.233 43.9574 105.039" fill="#F57A8B"/>
<path d="M48.4668 88.1055C48.4668 88.1055 67.68 93.8321 70.7587 79.9772C70.7587 79.9772 71.2659 76.7915 70.2957 76.4218C69.327 76.052 58.8885 76.4447 50.6272 74.4523" fill="#1A2A4C"/>
<path d="M9.54725 151.313C9.54725 151.313 5.02012 183.589 5.75809 186.176C6.49758 188.763 15.4877 190.549 19.1821 186.731C22.8765 182.913 26.6947 158.405 26.6947 158.405" fill="#F57A8B"/>
<path d="M29.8285 148.86C29.8285 155.689 27.8927 169.093 27.8927 169.093C24.6108 170.482 19.9553 170.216 15.8621 169.536C10.9561 168.692 6.12793 167.087 6.12793 167.087C6.12793 167.087 6.86285 159.356 8.62145 152.216C10.0317 146.491 12.4137 141.264 13.2617 139.831C14.5329 137.643 15.937 135.855 17.3106 134.391L29.8285 148.86Z" fill="#A9E3F7"/>
<path d="M64.7155 200.352L32.8545 204.628C32.2143 204.714 31.626 204.265 31.5405 203.626L25.7605 160.566C25.6749 159.925 26.1241 159.337 26.7643 159.252L58.6253 154.975C59.264 154.889 59.8522 155.339 59.9393 155.977L65.7178 199.038C65.8033 199.678 65.3541 200.266 64.7155 200.352Z" fill="#4D53AD"/>
<path d="M5.99399 180.141C5.99399 180.141 5.04211 190.98 5.67771 192.087C6.31331 193.197 7.72965 195.044 11.5478 194.674C15.366 194.304 35.3783 189.994 52.4967 183.404C52.4967 183.404 51.6961 180.942 51.2026 178.109C51.2026 178.109 42.7672 179.988 33.0681 179.988C23.3706 179.988 14.3179 181.927 14.3179 181.927" fill="#F57A8B"/>
<path d="M25.9712 128.333C25.9712 128.333 17.2226 130.97 14.781 134.605C12.3898 138.165 8.62207 152.216 8.62207 152.216L18.3303 148.029" fill="#A9E3F7"/>
<path d="M49.9521 178.361C49.9521 178.361 52.2103 178.109 53.5319 176.573C54.2638 175.724 54.3417 175.097 54.8994 174.491C55.4571 173.884 57.0109 172.359 57.5411 171.293C58.0728 170.226 58.3677 169.925 58.991 170.801C59.6144 171.678 58.5021 173.698 58.2286 174.281C57.9551 174.867 57.9643 176.06 57.975 176.202C57.9857 176.344 61.9842 175.652 62.5205 174.761C62.5205 174.761 63.2752 175.275 63.4387 175.757C63.6022 176.24 63.1179 176.825 63.2203 177.053C63.3226 177.279 63.8039 177.536 63.9124 177.939C64.0193 178.344 63.4953 178.746 63.6649 179.404C63.833 180.065 64.0728 179.895 64.3158 180.531C64.5587 181.168 63.9659 181.768 64.0453 182.132C64.1248 182.495 64.4304 182.758 64.2928 183.155C64.1569 183.553 60.9575 184.694 59.7122 185.009C58.4685 185.325 53.2034 183.637 49.4922 184.529" fill="#F57A8B"/>
<path d="M118.468 152.585C118.468 152.585 122.399 144.387 125.099 142.477C125.099 142.477 126.04 142.634 125.916 143.779C125.794 144.923 124.153 146.309 124.067 147.38C123.982 148.451 124.703 148.31 125.592 148.118C126.482 147.924 133.079 144.349 133.722 144.676C134.378 145.009 133.693 145.682 133.227 146.046C132.761 146.411 129.238 148.572 129.238 148.572C129.238 148.572 135.582 145.183 136.04 146.391C136.336 147.175 130.44 150.119 130.44 150.119C130.44 150.119 135.508 147.354 135.727 148.404C135.913 149.299 131.623 151.253 131.623 151.253C131.623 151.253 134.277 149.902 134.468 150.511C134.711 151.282 131.025 153.229 129.956 153.91C128.886 154.592 126.288 155.673 125.262 155.634C124.237 155.595 123.481 155.485 122.911 156.052" fill="#F57A8B"/>
<path d="M358.638 246.179H51.6559C50.1051 246.179 48.8477 244.922 48.8477 243.371C48.8477 241.82 50.1051 240.564 51.6559 240.564H358.638C360.188 240.564 361.446 241.82 361.446 243.371C361.446 244.922 360.188 246.179 358.638 246.179Z" fill="#4D53AD"/>
<path d="M56.6371 242.196L30.5011 375.102C30.3743 375.749 30.7945 376.377 31.4408 376.503C32.0871 376.63 32.715 376.21 32.8418 375.562L58.9779 242.656C59.1047 242.01 58.6845 241.382 58.0382 241.255C57.3904 241.128 56.764 241.55 56.6371 242.196Z" fill="#4D53AD"/>
<path d="M349.939 242.665L377.093 375.571C377.224 376.218 377.854 376.633 378.5 376.502C379.145 376.369 379.562 375.739 379.431 375.093L352.277 242.187C352.146 241.542 351.515 241.125 350.87 241.256C350.224 241.389 349.808 242.019 349.939 242.665Z" fill="#4D53AD"/>
<path d="M98.7717 230.789H79.0039V194.01H98.7717V230.789Z" fill="#787FC7"/>
<path d="M74.8802 240.573H63.7969V192.175H74.8802V240.573Z" fill="#F7AF10"/>
<path d="M74.8809 192.175H81.1605L87.6249 215.579H100.765V240.573H74.8809V192.175Z" fill="#E69813"/>
<path d="M72.7866 201.191C72.7866 203.094 71.2419 204.639 69.3381 204.639C67.4329 204.639 65.8896 203.094 65.8896 201.191C65.8896 199.287 67.4329 197.742 69.3381 197.742C71.2419 197.742 72.7866 199.287 72.7866 201.191Z" fill="#FCCD68"/>
<path d="M72.2942 227.649H66.3828V206.619H72.2942V227.649Z" fill="#FCCD68"/>
<path d="M72.2942 230.789H66.3828V228.631H72.2942V230.789Z" fill="#FCCD68"/>
<path d="M72.2942 233.837H66.3828V231.68H72.2942V233.837Z" fill="#FCCD68"/>
<path d="M114.669 230.789H94.9023V194.01H114.669V230.789Z" fill="#787FC7"/>
<path d="M90.7786 240.573H79.6953V192.175H90.7786V240.573Z" fill="#4D53AD"/>
<path d="M90.7783 192.175H97.058L103.522 215.579H116.662V240.573H90.7783V192.175Z" fill="#3D479E"/>
<path d="M88.684 201.191C88.684 203.094 87.1393 204.639 85.2355 204.639C83.3302 204.639 81.7871 203.094 81.7871 201.191C81.7871 199.287 83.3302 197.742 85.2355 197.742C87.1393 197.742 88.684 199.287 88.684 201.191Z" fill="#787FC7"/>
<path d="M88.1917 227.649H82.2803V206.619H88.1917V227.649Z" fill="#787FC7"/>
<path d="M88.1917 230.789H82.2803V228.631H88.1917V230.789Z" fill="#787FC7"/>
<path d="M88.1917 233.837H82.2803V231.68H88.1917V233.837Z" fill="#787FC7"/>
<path d="M138.013 239.258H108.311C106.859 239.258 105.683 238.08 105.683 236.628C105.683 235.177 106.859 234 108.311 234H138.013V239.258Z" fill="#787FC7"/>
<path d="M105.681 236.63C105.681 238.078 106.863 239.261 108.312 239.261H138.634V240H108.15C106.287 240 104.779 238.492 104.779 236.63C104.779 235.699 105.149 234.858 105.769 234.251C106.376 233.644 107.218 233.261 108.15 233.261H138.634V234H108.312C106.863 234 105.681 235.181 105.681 236.63Z" fill="#A9E3F7"/>
<path d="M139.208 240.573H108.149C105.976 240.573 104.207 238.804 104.207 236.63C104.207 235.563 104.621 234.573 105.371 233.84C106.112 233.099 107.101 232.688 108.149 232.688H139.208V234.573H108.312C107.179 234.573 106.254 235.496 106.254 236.63C106.254 237.765 107.179 238.688 108.312 238.688H139.208V240.573Z" fill="#A9E3F7"/>
<path d="M135.38 231.334H105.679C104.226 231.334 103.05 230.158 103.05 228.706C103.05 227.253 104.226 226.077 105.679 226.077H135.38V231.334Z" fill="#787FC7"/>
<path d="M103.048 228.708C103.048 230.156 104.231 231.339 105.679 231.339H136.001V232.077H105.517C103.655 232.077 102.146 230.57 102.146 228.708C102.146 227.776 102.516 226.934 103.137 226.329C103.743 225.722 104.585 225.339 105.517 225.339H136.001V226.077H105.679C104.231 226.077 103.048 227.259 103.048 228.708Z" fill="#F7AF10"/>
<path d="M136.576 232.651H105.518C103.344 232.651 101.576 230.88 101.576 228.708C101.576 227.64 101.989 226.65 102.737 225.918C103.48 225.177 104.469 224.764 105.518 224.764H136.576V226.65H105.68C104.546 226.65 103.624 227.573 103.624 228.708C103.624 229.842 104.546 230.764 105.68 230.764H136.576V232.651Z" fill="#F7AF10"/>
<path d="M256.362 240.564H187.306V238.598H256.362V240.564Z" fill="#B0B4E1"/>
<path d="M251.956 240.564H182.9V238.598H251.956V240.564Z" fill="#D3D4EE"/>
<path d="M231.978 224.566L225.887 156.532C225.773 155.252 224.699 154.271 223.414 154.271H123.071C122.52 154.271 122.014 154.451 121.603 154.752L119.096 156.738L118.999 156.813L118.967 156.839H118.97C118.35 157.34 117.971 158.126 118.049 158.987L124.139 227.023C124.254 228.303 125.326 229.284 126.613 229.284H226.954C227.582 229.284 228.143 229.044 228.577 228.665L230.859 226.858C231.597 226.375 232.063 225.518 231.978 224.566Z" fill="#99A0D8"/>
<path d="M226.954 229.284H126.613C125.326 229.284 124.254 228.303 124.139 227.023L118.049 158.987C117.919 157.534 119.064 156.283 120.521 156.283H220.864C222.15 156.283 223.223 157.264 223.337 158.544L229.427 226.58C229.557 228.033 228.413 229.284 226.954 229.284Z" fill="#C0C6E9"/>
<path d="M184.407 189.534L173.616 240.442H155.463L166.907 186.492L183.781 182.604L184.407 189.534Z" fill="#909AD1"/>
<path d="M171.543 240.445H153.401L165.641 182.61H183.783L171.543 240.445Z" fill="#B0B4E1"/>
<path d="M188.348 240.564H149.811V236.632H188.348V240.564Z" fill="#909AD1"/>
<path d="M179.896 240.564H141.358V236.632H179.896V240.564Z" fill="#B0B4E1"/>
<path d="M347.397 347.043L350.303 356.775C350.303 356.775 347.326 360.441 342.187 359.602L337.257 347.669" fill="#F57A8D"/>
<path d="M350.304 356.775C350.304 356.775 345.719 359.565 342.188 359.602C342.188 359.602 338.935 364.073 337.595 366.383C336.256 368.691 335.147 370.908 333.346 371.509C331.546 372.109 328.866 372.71 328.544 374.279C328.22 375.85 330.021 377.304 336.994 376.901C336.994 376.901 339.905 376.911 342.675 374.973C345.447 373.032 346.693 369.892 348.032 368.922C349.372 367.952 353.793 366.059 354.747 365.089C355.699 364.12 354.145 358.115 350.304 356.775Z" fill="#2C3485"/>
<path d="M367.88 356.45L367.423 366.598C367.423 366.598 363.407 369.079 358.829 366.598L358.099 353.707" fill="#F57A8D"/>
<path d="M367.423 366.598C367.423 366.598 369.065 368.248 369.43 370.717C369.797 373.185 369.111 375.243 369.111 375.791C369.111 376.34 366.92 376.838 363.904 376.882C360.886 376.928 359.332 376.198 358.098 376.014C356.863 375.831 351.562 376.795 348.955 376.885C346.35 376.974 342.692 376.655 341.595 376.152C340.498 375.649 340.27 371.992 345.801 371.535C348.999 371.27 352.57 369.325 355.253 368.014C357.212 367.058 358.828 366.598 358.828 366.598C358.828 366.598 365.78 367.272 367.423 366.598Z" fill="#2E3797"/>
<path d="M374.714 219.751C374.714 219.751 378.827 224.416 379.082 235.087C379.336 245.759 373.864 272.65 372.229 277.625C370.596 282.6 369.331 286.541 365.421 290.042C361.511 293.544 352.067 290.306 350.572 284.237C347.742 272.754 341.629 223.472 341.629 223.472C341.629 223.472 365.166 217.431 374.714 219.751Z" fill="#2E3797"/>
<path d="M360.408 243.104C359.152 247.182 356.197 253.403 352.915 259.684C349.841 265.538 346.487 271.434 343.916 275.675C342.348 278.291 341.077 280.271 340.354 281.232C337.205 285.429 334.753 288.754 329.934 290.823C325.117 292.893 317.196 286.818 317.713 280.581C318.689 268.803 328.62 220.152 328.62 220.152C328.62 220.152 352.857 221.926 361.161 227.172C361.161 227.172 363.571 232.906 360.408 243.104Z" fill="#2E3797"/>
<path d="M352.915 259.684C349.841 265.538 346.487 271.434 343.916 275.675C343.117 259.803 342.866 233.201 342.866 233.201L352.915 259.684Z" fill="#293072"/>
<path d="M368.306 357.793C368.306 357.793 362.563 358.531 357.454 358.123C357.454 358.123 355.052 342.274 353.866 332.619C352.787 323.837 342.827 235.469 342.865 230.943C342.904 226.418 361.437 257.797 376.03 260.34L370.671 297.932C370.671 297.932 370.024 310.81 370.491 320.415C370.959 330.017 368.282 353.552 368.306 357.793Z" fill="#2E3797"/>
<path d="M319.009 168.688C319.009 168.688 315.006 180.567 312.866 188.763C312.132 191.577 309.833 199.994 309.833 199.994C309.833 199.994 305.477 206.266 303.553 210.068C300.389 216.32 291.853 235.539 291.853 235.539L296.902 236.916C296.902 236.916 316.036 215.984 320.1 210.746C324.166 205.508 330.092 190.055 330.092 190.055" fill="#F57A8D"/>
<path d="M306.174 134.775L306.194 134.786C308.465 135.116 310.309 136.213 311.741 137.56C314.55 140.132 315.849 143.525 315.849 143.525C315.849 143.525 315.838 145.453 317.348 147.088C318.873 148.72 328.996 146.833 332.19 144.352C335.383 141.872 336.595 138.862 334.741 137.543C332.89 136.225 325.951 134.017 323.783 131.598C321.631 129.174 321.811 119.572 321.811 119.572L316.185 119.482C316.185 119.482 299.464 133.792 306.174 134.775Z" fill="#F57A8D"/>
<path d="M306.194 134.786C308.465 135.116 310.309 136.213 311.741 137.56C318.43 130.867 317.999 124.902 317.999 124.902L307.059 132.593C307.059 132.593 306.644 133.53 306.194 134.786Z" fill="#E24558"/>
<path d="M291.674 109.491C291.674 109.491 294.467 132.611 298.777 138.168C298.777 138.168 308.349 139.16 318.482 127.333C328.615 115.505 317.388 103.864 313.587 101.42C309.784 98.975 293.901 97.4532 291.674 109.491Z" fill="#F57A8D"/>
<path d="M330.088 135.304C330.088 135.304 326.659 143.076 316.123 144.96C316.123 144.96 314.23 152.984 314.697 162.63C315.165 172.275 318.94 182.94 321.111 190.638C322.687 196.223 325.353 212.88 326.931 219.826C327.423 221.988 328.57 221.976 328.57 221.976C328.57 221.976 357.114 231.463 376.311 220.674C376.311 220.674 378.601 219.293 377.142 216.682C370.021 206.263 358.208 172.747 354.836 163.595C350.771 152.563 341.043 137.961 330.088 135.304Z" fill="#F7AF10"/>
<path d="M325.9 116.752C324.68 118.731 323.833 120.911 323.387 123.193C323.152 124.394 322.739 125.368 322.02 125.253C320.237 124.969 320.44 122.281 319.593 120.268C318.75 118.255 317.87 118.867 316.631 117.334C315.395 115.802 315.96 113.481 314.483 112.162C313.004 110.845 310.814 111.588 310.994 113.632C311.175 115.675 311.861 118.478 310.942 118.13C310.027 117.78 308.764 113.673 307.989 112.744C307.214 111.817 306.006 113.149 303.951 113.84C301.896 114.529 301.885 112.738 299 110.83C296.116 108.923 294.747 112.058 292.107 112.7C289.466 113.34 283.376 107.145 285.304 103.782C287.233 100.419 291.994 103.09 293.653 101.219C295.314 99.3493 292.805 92.8542 300.288 90.3026C307.169 87.9558 311.167 95.5998 313.728 96.7733C316.288 97.9482 319.418 94.5318 323.424 97.1827C327.431 99.8336 323.754 106.734 324.586 110.151C324.898 111.43 326.421 114.353 326.316 115.563C326.276 116.003 326.12 116.397 325.9 116.752Z" fill="#2E3797"/>
<path d="M342.066 161.609C342.066 161.609 340.769 172.068 326.433 185.803C326.433 185.803 324.711 184.751 321.485 181.562C318.26 178.372 334.934 163.074 334.934 163.074" fill="#F79115"/>
<path d="M337.785 160.909C337.785 160.909 315.654 190.211 309.302 193.299C302.951 196.385 297.975 188.752 299.982 183.313C301.988 177.874 322.377 151.624 322.377 151.624" fill="#F57A8D"/>
<path d="M301.842 180.558C301.842 180.558 293.439 183.987 285.529 187.733C277.619 191.479 262.965 195.861 262.965 195.861C262.965 195.861 262.473 200.439 264.383 202.364C264.383 202.364 267.608 201.864 276.539 200.359C285.469 198.854 305.511 197.07 310.371 192.636" fill="#F57A8D"/>
<path d="M335.316 146.09C335.316 146.09 340.372 146.567 342.313 155.43C344.255 164.294 335.555 173.466 325.686 182.453C325.686 182.453 314.407 174.85 309.13 167.187C309.13 167.187 322.013 143.284 335.316 146.09Z" fill="#F7AF10"/>
<path d="M320.091 264.676C320.091 264.676 316.443 286.45 316.567 289.38C316.866 296.508 338.056 352.158 338.056 352.158C338.056 352.158 344.8 350.957 348.771 348.555C348.771 348.555 343.268 323.773 342.49 315.212C341.54 304.751 341.48 293.506 336.124 283.53" fill="#2E3797"/>
<path d="M294.211 230.265C294.211 230.265 292.081 234.499 291.017 235.284C289.956 236.069 286.431 237.409 285.784 237.777C285.137 238.147 280.134 238.641 278.888 239.009C277.641 239.379 278.348 240.564 280.981 240.564C283.613 240.564 289.473 240.564 291.853 240.564C294.235 240.564 295.963 240.369 296.591 239.533C297.884 237.81 298.14 235.56 299.045 234.566" fill="#F57A8D"/>
<path d="M262.965 195.861C262.965 195.861 260.167 196.367 255.976 195.279C252.939 194.491 251.257 196.04 248.008 197.258C244.762 198.477 241.697 199.333 241.665 199.846C241.633 200.359 241.361 200.929 242.884 200.963C244.406 200.997 249.446 199.372 250.056 199.339C250.664 199.305 251.037 200.557 251.848 201.166C252.661 201.774 252.288 202.333 252.999 202.917C253.709 203.501 253.535 204.278 254.45 204.685C255.367 205.09 255.608 205.855 257.686 205.423C259.766 204.989 261.122 202.894 264.383 202.364" fill="#F57A8D"/>
<path d="M274.93 240.564H262.183V223.085H274.93V240.564Z" fill="white"/>
<path d="M274.93 240.564H271.558V223.085H274.93V240.564Z" fill="#EDEDF6"/>
<path d="M274.839 238.46L274.156 237.586C274.21 237.545 279.373 233.463 279.573 229.971C279.66 228.401 279.289 227.185 278.499 226.454C277.939 225.941 277.177 225.699 276.453 225.794C275.29 225.958 273.976 227.145 273.964 227.157L273.217 226.34C273.279 226.28 274.794 224.908 276.3 224.697C277.35 224.55 278.451 224.903 279.249 225.64C279.978 226.309 280.817 227.617 280.677 230.036C280.451 234.028 275.069 238.28 274.839 238.46Z" fill="#EDEDF6"/>
<path d="M123.947 335.481C123.947 335.481 116.279 264.231 141.813 262.034C167.347 259.839 139.137 313.415 137.958 335.481" fill="#87D0E2"/>
<path d="M141.822 267.146C141.816 267.166 132.029 299.723 129.799 341.762C129.787 342.001 129.969 342.204 130.207 342.218C130.446 342.23 130.649 342.047 130.663 341.808C131.773 320.843 134.771 302.234 137.491 288.87C138.851 282.187 140.142 276.817 141.09 273.116C141.566 271.267 141.955 269.836 142.227 268.867C142.498 267.898 142.649 267.397 142.649 267.396C142.718 267.166 142.588 266.925 142.36 266.858C142.131 266.789 141.891 266.917 141.822 267.146Z" fill="white"/>
<path d="M133.071 269.272C133.076 269.281 135.537 274.166 138.842 279.238C138.972 279.438 139.24 279.495 139.44 279.365C139.64 279.234 139.696 278.966 139.566 278.768C137.929 276.254 136.497 273.781 135.475 271.938C134.965 271.015 134.555 270.251 134.275 269.718C133.994 269.185 133.843 268.884 133.843 268.884C133.735 268.67 133.475 268.584 133.262 268.693C133.05 268.8 132.965 269.059 133.071 269.272Z" fill="white"/>
<path d="M126.265 288.939C126.275 288.954 129.866 294.311 134.889 299.04C135.064 299.203 135.337 299.195 135.501 299.021C135.664 298.847 135.656 298.574 135.482 298.41C133.012 296.088 130.883 293.594 129.375 291.686C128.621 290.731 128.022 289.923 127.611 289.353C127.201 288.784 126.983 288.459 126.983 288.457C126.85 288.26 126.581 288.207 126.382 288.34C126.185 288.473 126.132 288.74 126.265 288.939Z" fill="white"/>
<path d="M124.214 307.321C124.223 307.33 127.058 310.121 132.532 314.557C132.717 314.707 132.989 314.677 133.139 314.493C133.288 314.308 133.261 314.036 133.076 313.884C130.35 311.678 128.285 309.88 126.902 308.636C126.21 308.014 125.689 307.532 125.34 307.203C124.994 306.876 124.822 306.706 124.821 306.706C124.651 306.538 124.378 306.54 124.21 306.711C124.043 306.881 124.045 307.154 124.214 307.321Z" fill="white"/>
<path d="M138.679 282.474C138.685 282.471 140.662 281.565 143.09 280.242C145.518 278.917 148.389 277.189 150.217 275.493C150.392 275.331 150.402 275.058 150.239 274.882C150.077 274.708 149.803 274.699 149.629 274.861C147.915 276.456 145.074 278.179 142.676 279.484C141.476 280.138 140.385 280.69 139.596 281.078C138.806 281.466 138.32 281.687 138.318 281.689C138.101 281.788 138.007 282.045 138.106 282.262C138.205 282.477 138.462 282.574 138.679 282.474Z" fill="white"/>
<path d="M134.797 301.874C134.823 301.863 141.066 300.743 144.837 298.219C145.035 298.086 145.087 297.817 144.954 297.619C144.821 297.422 144.552 297.37 144.355 297.503C142.601 298.684 140.161 299.576 138.17 300.16C137.174 300.451 136.29 300.668 135.656 300.812C135.021 300.956 134.643 301.024 134.643 301.024C134.407 301.067 134.251 301.293 134.294 301.527C134.337 301.762 134.563 301.917 134.797 301.874Z" fill="white"/>
<path d="M132.309 319.254C132.33 319.247 137.171 318.256 141.678 315.865C141.889 315.753 141.968 315.492 141.857 315.281C141.745 315.07 141.484 314.991 141.273 315.102C139.088 316.262 136.798 317.092 135.058 317.628C134.187 317.897 133.453 318.092 132.94 318.219C132.425 318.347 132.136 318.407 132.136 318.407C131.903 318.454 131.751 318.684 131.8 318.917C131.848 319.151 132.075 319.301 132.309 319.254Z" fill="white"/>
<path d="M128.338 307.312C128.347 307.321 130.538 309.8 132.937 311.652C133.125 311.799 133.396 311.764 133.542 311.574C133.688 311.385 133.653 311.114 133.464 310.969C132.31 310.079 131.186 309.018 130.353 308.182C129.937 307.764 129.594 307.402 129.355 307.145C129.115 306.888 128.984 306.739 128.984 306.739C128.825 306.56 128.553 306.543 128.374 306.702C128.195 306.859 128.179 307.133 128.338 307.312Z" fill="white"/>
<path d="M132.886 281.282C132.888 281.284 133.392 281.819 134.203 282.699C135.015 283.579 136.13 284.803 137.346 286.173C137.504 286.352 137.777 286.367 137.956 286.21C138.135 286.051 138.15 285.779 137.993 285.6C135.553 282.847 133.516 280.691 133.514 280.69C133.351 280.515 133.077 280.508 132.903 280.671C132.731 280.835 132.723 281.108 132.886 281.282Z" fill="white"/>
<path d="M132.061 321.448C132.075 321.441 135.725 320.629 138.136 319.529C138.353 319.429 138.449 319.173 138.35 318.956C138.251 318.739 137.994 318.644 137.777 318.743C136.645 319.263 135.16 319.732 133.966 320.066C132.773 320.402 131.873 320.603 131.872 320.604C131.639 320.656 131.493 320.887 131.545 321.121C131.597 321.353 131.827 321.499 132.061 321.448Z" fill="white"/>
<path d="M128.309 332.974C128.309 332.974 129.244 273.771 108.069 273.891C86.8957 274.01 114.147 315.966 116.783 334.031" fill="#72C1CF"/>
<path d="M107.787 278.364C107.787 278.366 107.949 278.768 108.245 279.544C110.317 284.978 118.894 308.645 123.263 338.687C123.292 338.882 123.472 339.017 123.668 338.988C123.862 338.96 123.998 338.778 123.969 338.584C118.963 304.161 108.454 278.114 108.448 278.097C108.375 277.915 108.167 277.826 107.984 277.9C107.8 277.975 107.713 278.182 107.787 278.364Z" fill="white"/>
<path d="M115.144 278.925C115.144 278.928 114.733 279.967 114.032 281.561C113.33 283.156 112.339 285.298 111.181 287.489C111.089 287.663 111.156 287.878 111.33 287.972C111.505 288.063 111.72 287.996 111.812 287.822C114.148 283.4 115.806 279.194 115.809 279.186C115.88 279.003 115.79 278.797 115.607 278.723C115.424 278.651 115.217 278.742 115.144 278.925Z" fill="white"/>
<path d="M122.265 294.512C122.265 294.514 122.109 294.798 121.815 295.298C120.932 296.795 118.807 300.196 116.022 303.344C115.892 303.49 115.906 303.716 116.052 303.846C116.2 303.978 116.425 303.964 116.556 303.816C120.335 299.545 122.883 294.867 122.891 294.855C122.986 294.682 122.922 294.465 122.749 294.37C122.576 294.276 122.359 294.34 122.265 294.512Z" fill="white"/>
<path d="M125.42 309.363C125.42 309.365 125.292 309.516 125.031 309.813C124.246 310.7 122.284 312.861 119.17 315.894C119.029 316.031 119.026 316.257 119.164 316.398C119.301 316.54 119.527 316.543 119.668 316.406C123.838 312.343 125.958 309.833 125.966 309.825C126.093 309.674 126.073 309.449 125.923 309.322C125.772 309.195 125.547 309.214 125.42 309.363Z" fill="white"/>
<path d="M112.427 289.799C112.425 289.797 112.01 289.652 111.33 289.392C109.296 288.618 104.905 286.813 102.605 285.033C102.45 284.913 102.225 284.942 102.106 285.098C101.985 285.253 102.014 285.478 102.17 285.599C105.423 288.101 112.173 290.462 112.19 290.471C112.376 290.537 112.579 290.439 112.645 290.254C112.711 290.068 112.613 289.865 112.427 289.799Z" fill="white"/>
<path d="M116.911 305.431C116.91 305.431 116.593 305.402 116.062 305.331C114.465 305.125 110.952 304.528 108.654 303.264C108.48 303.169 108.265 303.234 108.17 303.406C108.075 303.579 108.138 303.796 108.311 303.891C111.603 305.684 116.826 306.134 116.847 306.141C117.044 306.16 117.217 306.014 117.235 305.817C117.252 305.622 117.107 305.448 116.911 305.431Z" fill="white"/>
<path d="M120.285 319.544C120.283 319.544 120.04 319.516 119.608 319.449C118.311 319.25 115.345 318.699 112.517 317.513C112.335 317.437 112.126 317.522 112.05 317.704C111.975 317.886 112.06 318.095 112.242 318.172C116.13 319.799 120.187 320.25 120.205 320.253C120.401 320.274 120.577 320.134 120.6 319.938C120.621 319.742 120.48 319.565 120.285 319.544Z" fill="white"/>
<path d="M121.997 309.706C121.996 309.707 121.6 310.245 120.978 310.995C120.356 311.747 119.511 312.703 118.63 313.524C118.485 313.657 118.477 313.883 118.612 314.028C118.746 314.172 118.971 314.181 119.116 314.046C120.949 312.341 122.564 310.137 122.572 310.127C122.688 309.969 122.654 309.745 122.495 309.629C122.337 309.512 122.113 309.547 121.997 309.706Z" fill="white"/>
<path d="M116.305 288.613C116.303 288.616 114.79 290.543 112.991 292.992C112.873 293.151 112.908 293.374 113.067 293.492C113.226 293.608 113.449 293.574 113.565 293.415C114.462 292.195 115.287 291.105 115.889 290.32C116.489 289.533 116.865 289.055 116.865 289.055C116.988 288.899 116.96 288.674 116.806 288.554C116.65 288.431 116.425 288.459 116.305 288.613Z" fill="white"/>
<path d="M120.667 321.331C120.665 321.331 119.91 321.234 118.902 321.047C117.895 320.862 116.639 320.587 115.667 320.245C115.481 320.181 115.278 320.279 115.212 320.464C115.148 320.65 115.246 320.853 115.431 320.919C117.498 321.643 120.563 322.036 120.575 322.039C120.771 322.065 120.949 321.927 120.974 321.732C121 321.536 120.862 321.357 120.667 321.331Z" fill="white"/>
<path d="M119.54 336.12C119.54 336.12 107.049 338.56 102.329 322.48C97.8129 307.087 87.7594 312.244 84.6196 299.197C82.1139 288.781 102.148 290.917 115.032 313.973C118.215 319.668 126.096 317.709 124.339 332.76" fill="#A9E3F7"/>
<path d="M87.6651 297.469C87.6651 297.469 87.7416 297.5 87.8989 297.57C90.261 298.627 109.933 308.213 120.603 340.253C120.671 340.456 120.891 340.566 121.094 340.499C121.295 340.43 121.405 340.212 121.338 340.008C109.876 305.576 88.0196 296.772 87.9539 296.751C87.7553 296.671 87.5292 296.768 87.4497 296.966C87.3703 297.163 87.4665 297.39 87.6651 297.469Z" fill="white"/>
<path d="M88.4844 303.238C88.4844 303.238 88.6387 303.206 88.9183 303.156C89.7586 303.006 91.7036 302.703 93.6868 302.703C94.602 302.703 95.5248 302.768 96.3453 302.936C96.5546 302.98 96.7594 302.844 96.8037 302.635C96.8465 302.425 96.7105 302.221 96.5012 302.178C95.6074 301.995 94.6387 301.929 93.6868 301.929C90.9412 301.93 88.3392 302.479 88.3255 302.48C88.1162 302.525 87.9817 302.731 88.026 302.94C88.0688 303.15 88.2751 303.283 88.4844 303.238Z" fill="white"/>
<path d="M96.9762 296.809C96.9839 296.83 97.2681 301.906 98.5026 304.766C98.5882 304.963 98.8158 305.053 99.0129 304.968C99.2085 304.882 99.2986 304.655 99.2131 304.457C98.6447 303.154 98.2689 301.214 98.0473 299.617C97.9358 298.818 97.8624 298.103 97.8151 297.588C97.7692 297.073 97.7509 296.763 97.7493 296.761C97.7371 296.549 97.5538 296.386 97.3399 296.398C97.1275 296.412 96.964 296.595 96.9762 296.809Z" fill="white"/>
<path d="M96.5419 310.349C96.5419 310.349 97.1026 310.236 97.9475 310.123C98.7909 310.008 99.9109 309.894 101.002 309.894C102.255 309.889 103.477 310.059 104.14 310.474C104.323 310.586 104.562 310.528 104.673 310.346C104.785 310.163 104.727 309.924 104.545 309.813C103.627 309.261 102.319 309.125 101.002 309.119C98.7161 309.121 96.4013 309.588 96.3891 309.591C96.1783 309.632 96.0422 309.837 96.085 310.046C96.1278 310.256 96.331 310.392 96.5419 310.349Z" fill="white"/>
<path d="M106.518 304.87C106.517 304.884 105.667 308.567 105.664 311.137C105.664 311.564 105.687 311.962 105.747 312.318C105.782 312.529 105.98 312.673 106.191 312.638C106.404 312.603 106.546 312.402 106.511 312.192C106.462 311.897 106.439 311.535 106.439 311.137C106.439 309.932 106.645 308.398 106.854 307.177C107.064 305.953 107.273 305.044 107.273 305.043C107.32 304.833 107.19 304.626 106.981 304.578C106.773 304.531 106.565 304.661 106.518 304.87Z" fill="white"/>
<path d="M104.713 320.916C104.713 320.916 105.209 320.853 105.954 320.789C106.701 320.726 107.694 320.662 108.675 320.662C109.374 320.662 110.064 320.694 110.648 320.778C111.233 320.859 111.711 321.004 111.953 321.171C112.131 321.29 112.371 321.241 112.49 321.064C112.608 320.885 112.561 320.645 112.382 320.526C111.959 320.248 111.4 320.106 110.759 320.011C110.118 319.92 109.396 319.888 108.675 319.888C106.648 319.888 104.623 320.147 104.614 320.147C104.403 320.175 104.252 320.369 104.28 320.581C104.307 320.794 104.501 320.943 104.713 320.916Z" fill="white"/>
<path d="M116.542 318.279C116.54 318.283 116.031 319.408 115.489 320.82C114.948 322.234 114.371 323.918 114.233 325.118C114.209 325.33 114.361 325.522 114.574 325.547C114.786 325.57 114.979 325.417 115.002 325.205C115.118 324.16 115.678 322.48 116.212 321.096C116.745 319.709 117.246 318.601 117.248 318.598C117.335 318.404 117.249 318.175 117.054 318.086C116.859 317.998 116.63 318.085 116.542 318.279Z" fill="white"/>
<path d="M106.127 318.76L106.32 318.716C106.702 318.633 107.611 318.467 108.637 318.467C109.233 318.467 109.867 318.523 110.459 318.678C110.666 318.733 110.877 318.609 110.932 318.401C110.986 318.195 110.862 317.982 110.656 317.929C109.977 317.752 109.282 317.692 108.637 317.692C107.158 317.694 105.953 318.007 105.933 318.01C105.727 318.063 105.601 318.276 105.655 318.482C105.71 318.69 105.921 318.813 106.127 318.76Z" fill="white"/>
<path d="M99.369 301.221C99.3705 301.237 99.5401 303.875 100.278 306.384C100.338 306.589 100.553 306.706 100.759 306.645C100.964 306.586 101.082 306.37 101.021 306.166C100.668 304.965 100.446 303.712 100.315 302.761C100.183 301.811 100.142 301.172 100.142 301.171C100.128 300.957 99.9434 300.795 99.7295 300.809C99.5172 300.824 99.3552 301.007 99.369 301.221Z" fill="white"/>
<path d="M142.364 336.286C142.364 336.286 156.427 334.354 155.606 315.683C154.821 297.81 167.29 299.623 165.897 284.722C164.784 272.826 144.411 282.308 139.131 311.287C137.826 318.445 128.803 319.221 136.087 334.471" fill="#A9E3F7"/>
<path d="M161.495 283.344C161.432 283.391 141.862 300.291 141.863 340.068C141.863 340.39 141.865 340.714 141.868 341.038C141.869 341.276 142.065 341.469 142.303 341.467C142.542 341.464 142.734 341.27 142.731 341.032C142.73 340.71 142.728 340.387 142.728 340.068C142.728 320.326 147.578 306.302 152.418 297.212C154.838 292.668 157.255 289.357 159.064 287.186C159.969 286.101 160.722 285.301 161.246 284.774C161.509 284.509 161.714 284.314 161.853 284.185C161.99 284.057 162.059 283.999 162.059 283.998C162.239 283.843 162.261 283.57 162.105 283.389C161.949 283.208 161.675 283.188 161.495 283.344Z" fill="white"/>
<path d="M163.171 289.525C163.145 289.535 157.831 290.167 154.431 292.155C154.226 292.276 154.158 292.54 154.278 292.746C154.399 292.951 154.663 293.02 154.87 292.899C156.436 291.976 158.549 291.336 160.26 290.94C161.116 290.742 161.873 290.601 162.414 290.511C162.955 290.422 163.275 290.383 163.276 290.383C163.513 290.354 163.681 290.138 163.652 289.901C163.623 289.664 163.407 289.496 163.171 289.525Z" fill="white"/>
<path d="M151.16 286.89C151.16 286.891 151.238 287.172 151.357 287.652C151.713 289.09 152.425 292.305 152.422 294.723C152.422 295.009 152.413 295.283 152.391 295.541C152.373 295.778 152.55 295.985 152.789 296.005C153.025 296.024 153.233 295.846 153.253 295.609C153.276 295.325 153.287 295.029 153.287 294.723C153.282 291.298 151.996 286.679 151.993 286.659C151.928 286.43 151.692 286.295 151.461 286.358C151.232 286.422 151.097 286.661 151.16 286.89Z" fill="white"/>
<path d="M157.226 299.936C157.215 299.938 155.591 300.152 153.725 300.644C151.857 301.148 149.753 301.874 148.699 303.114C148.547 303.298 148.572 303.57 148.755 303.723C148.939 303.874 149.212 303.849 149.363 303.666C150.118 302.728 152.14 301.943 153.945 301.478C154.848 301.24 155.699 301.069 156.324 300.957C156.948 300.844 157.337 300.794 157.339 300.794C157.576 300.762 157.742 300.545 157.71 300.309C157.68 300.072 157.463 299.906 157.226 299.936Z" fill="white"/>
<path d="M144.099 299.064C144.099 299.064 144.284 299.362 144.571 299.856C145.431 301.319 147.197 304.564 147.482 306.334C147.521 306.569 147.744 306.728 147.98 306.69C148.215 306.65 148.374 306.427 148.334 306.192C148.099 304.807 147.223 302.949 146.409 301.391C145.595 299.839 144.837 298.615 144.834 298.609C144.707 298.406 144.441 298.343 144.238 298.47C144.036 298.595 143.973 298.861 144.099 299.064Z" fill="white"/>
<path d="M152.352 314.047C152.344 314.048 150.711 314.383 148.901 314.937C147.995 315.214 147.046 315.545 146.225 315.923C145.403 316.306 144.71 316.713 144.291 317.247C144.146 317.437 144.182 317.709 144.372 317.854C144.56 317.999 144.832 317.962 144.977 317.773C145.212 317.454 145.82 317.055 146.586 316.708C147.735 316.178 149.228 315.72 150.427 315.399C151.625 315.078 152.523 314.893 152.526 314.893C152.76 314.844 152.91 314.616 152.862 314.383C152.814 314.149 152.586 313.999 152.352 314.047Z" fill="white"/>
<path d="M138.462 316.968C138.463 316.968 138.692 317.214 139.059 317.62C140.153 318.832 142.463 321.526 143.215 323.13C143.317 323.345 143.574 323.438 143.789 323.336C144.005 323.234 144.098 322.977 143.996 322.762C143.417 321.544 142.2 319.976 141.119 318.678C140.037 317.383 139.096 316.381 139.091 316.377C138.929 316.202 138.656 316.195 138.482 316.357C138.307 316.52 138.298 316.794 138.462 316.968Z" fill="white"/>
<path d="M150.19 312.266C150.156 312.274 147.323 312.471 145.177 313.883C144.978 314.014 144.923 314.283 145.056 314.482C145.187 314.68 145.455 314.735 145.653 314.603C146.592 313.981 147.75 313.603 148.671 313.391C149.131 313.284 149.53 313.218 149.814 313.179C150.097 313.139 150.255 313.128 150.255 313.127C150.492 313.11 150.671 312.902 150.653 312.664C150.634 312.425 150.427 312.248 150.19 312.266Z" fill="white"/>
<path d="M150.226 292.406C150.226 292.406 150.272 292.574 150.345 292.879C150.562 293.793 151.01 295.901 151.1 297.993C151.111 298.231 151.312 298.416 151.551 298.406C151.789 298.396 151.974 298.195 151.963 297.956C151.836 295.043 151.063 292.196 151.06 292.179C150.998 291.95 150.761 291.813 150.53 291.875C150.301 291.938 150.163 292.175 150.226 292.406Z" fill="white"/>
<path d="M127.444 337.515H106.208L112.729 377H142.159L148.68 337.515H127.444Z" fill="#EBEFF9"/>
<path d="M150.743 337.515H104.144V332.222H150.743V337.515Z" fill="#EBEFF9"/>
<path d="M106.208 337.515L106.709 340.555L147.398 345.275L148.68 337.515H106.208Z" fill="#D6DCF2"/>
</svg>
