<svg width="30" height="30" viewBox="0 0 30 30" fill="none" xmlns="http://www.w3.org/2000/svg">
<path d="M29.8607 4.25583L25.6747 1.11639C25.6153 1.07089 25.5421 1.04656 25.4654 1.04656H17.4421V0.34894C17.4421 0.157196 17.2852 0 17.0932 0H13.9537C13.762 0 13.6048 0.156947 13.6048 0.34894V1.04656H8.72116C8.59219 1.04656 8.47344 1.11639 8.41407 1.23149C8.3547 1.34659 8.36176 1.48261 8.43159 1.59089L10.3955 4.53497L8.43159 7.48267C8.36176 7.59071 8.35494 7.72698 8.41407 7.84207C8.47345 7.95352 8.59219 8.02335 8.72116 8.02335H13.6048V9.41859H4.53496C4.4583 9.41859 4.38507 9.44292 4.32569 9.48842L0.139673 12.6279C0.0523199 12.6943 0 12.7989 0 12.907C0 13.015 0.0523163 13.1196 0.13943 13.1861L4.32545 16.3255C4.38482 16.3708 4.45806 16.3953 4.53471 16.3953H13.6045V29.3024H11.8603C11.6686 29.3024 11.5114 29.4594 11.5114 29.6513C11.5114 29.8431 11.6684 30.0003 11.8603 30.0003H18.9698C19.1616 30.0003 19.3188 29.8433 19.3188 29.6513C19.3188 29.4596 19.1618 29.3024 18.9698 29.3024L17.442 29.3027V16.3956H21.2793C21.4083 16.3956 21.527 16.3257 21.5864 16.2106C21.6458 16.0955 21.6387 15.9595 21.5689 15.8512L19.605 12.9072L21.5689 9.95947C21.6387 9.85142 21.6456 9.71516 21.5864 9.60007C21.527 9.48862 21.4083 9.41878 21.2793 9.41878H17.442V8.02355H25.4653C25.5419 8.02355 25.6152 7.99921 25.6746 7.95371L29.8606 4.81428C29.9477 4.74809 30 4.64686 30 4.53517C30.0002 4.42348 29.9479 4.3225 29.8606 4.25607L29.8607 4.25583ZM14.3024 0.697599H16.7443V1.04654H14.3024V0.697599ZM16.7443 29.3025H14.3024V16.3954H16.7443V29.3025ZM20.6268 10.1163L18.8965 12.7151C18.8199 12.8336 18.8199 12.9837 18.8965 13.1022L20.6268 15.6976H4.64999L0.931415 12.9068L4.65366 10.116L13.9534 10.1163L20.6268 10.1163ZM14.3023 9.41841V8.02317H16.7441V9.41841H14.3023ZM25.3499 7.32549H9.37303L11.1033 4.7267C11.18 4.6082 11.18 4.45806 11.1033 4.33956L9.37303 1.74394H25.3499L29.0721 4.53472L25.3499 7.32549Z" fill="white"/>
</svg>
