<svg width="107" height="23" viewBox="0 0 107 23" fill="none" xmlns="http://www.w3.org/2000/svg">
<path d="M5.43299 19.0153C5.43299 17.515 4.21678 16.2988 2.7165 16.2988C1.21622 16.2988 0 17.515 0 19.0153C0 20.5156 1.21622 21.7318 2.7165 21.7318C4.21678 21.7318 5.43299 20.5156 5.43299 19.0153Z" fill="white"/>
<path fill-rule="evenodd" clip-rule="evenodd" d="M101.557 16.0161V20.0978C101.557 20.6254 101.401 21.1165 101.075 21.4737L101.071 21.478C100.753 21.8172 100.308 22.015 99.7594 22.015C99.2568 22.015 98.8472 21.8308 98.5414 21.5508C98.1815 21.2214 98.0069 20.7329 97.9534 20.2624L97.9023 19.8126L98.8021 19.7104L98.8532 20.1602C98.8923 20.5046 99.0109 20.753 99.1528 20.8829C99.2997 21.0175 99.4938 21.1095 99.7594 21.1095C100.073 21.1095 100.273 21.0045 100.408 20.8612C100.547 20.7071 100.651 20.4527 100.651 20.0978V16.0161H101.557Z" fill="black"/>
<path fill-rule="evenodd" clip-rule="evenodd" d="M102.879 16.5676C103.274 16.1992 103.83 16.0161 104.369 16.0161C104.986 16.0161 105.638 16.2694 106.012 16.7199C106.259 17.0155 106.444 17.3581 106.48 17.8273L105.577 17.8962C105.559 17.6589 105.474 17.4888 105.316 17.2994L105.315 17.2982L105.315 17.2982C105.149 17.0977 104.777 16.9216 104.369 16.9216C104.018 16.9216 103.697 17.0432 103.498 17.2288C103.324 17.3932 103.223 17.5716 103.223 17.8271C103.223 17.963 103.28 18.0708 103.386 18.1631C103.5 18.2625 103.66 18.3305 103.807 18.3545C103.939 18.376 104.08 18.3925 104.23 18.4101C104.569 18.4497 104.955 18.4948 105.384 18.6153C105.692 18.7015 105.983 18.9037 106.197 19.1557C106.412 19.4092 106.582 19.7528 106.582 20.1417C106.582 20.7044 106.37 21.0982 106.076 21.3999L106.073 21.4033L106.073 21.4033C105.637 21.8415 105.025 22.015 104.396 22.015C103.752 22.015 103.147 21.8012 102.727 21.3418C102.425 21.0143 102.221 20.5752 102.178 20.0992L103.08 20.0179C103.104 20.29 103.223 20.5437 103.393 20.729L103.394 20.73C103.608 20.9632 103.947 21.1095 104.396 21.1095C104.872 21.1095 105.217 20.9788 105.429 20.7666C105.579 20.6114 105.677 20.4371 105.677 20.1417C105.677 20.0202 105.621 19.8768 105.506 19.7417C105.39 19.6052 105.248 19.5174 105.14 19.4872C104.775 19.385 104.513 19.3553 104.216 19.3216C104.05 19.3028 103.873 19.2828 103.661 19.2481C103.373 19.201 103.051 19.0714 102.792 18.8462C102.525 18.614 102.318 18.2702 102.318 17.8271C102.318 17.2653 102.567 16.8617 102.878 16.5689L102.879 16.5676L102.879 16.5676Z" fill="black"/>
<path fill-rule="evenodd" clip-rule="evenodd" d="M16.2976 5.43299C13.2971 5.43299 10.8646 7.86543 10.8646 10.866C10.8646 13.8665 13.2971 16.299 16.2976 16.299V21.732C10.2965 21.732 5.43164 16.8671 5.43164 10.866C5.43164 4.86487 10.2965 0 16.2976 0C22.2987 0 27.1636 4.86487 27.1636 10.866V21.732H21.7306V10.866C21.7306 7.86543 19.2982 5.43299 16.2976 5.43299Z" fill="#206EFF"/>
<path fill-rule="evenodd" clip-rule="evenodd" d="M21.7305 0H27.1635V1.45368C28.7617 0.529142 30.6173 0 32.5965 0C38.5976 0 43.4624 4.86487 43.4624 10.866V21.732H38.0295V10.866C38.0295 7.86543 35.597 5.43299 32.5965 5.43299C29.5959 5.43299 27.1635 7.86543 27.1635 10.866V21.732H21.7305V0Z" fill="#FF324A"/>
<path fill-rule="evenodd" clip-rule="evenodd" d="M43.4629 0H48.8959V1.45368C50.4941 0.529142 52.3497 0 54.3289 0C60.33 0 65.1949 4.86487 65.1949 10.866V21.732H59.7619V10.866C59.7619 7.86543 57.3294 5.43299 54.3289 5.43299C51.3283 5.43299 48.8959 7.86543 48.8959 10.866V21.732H43.4629V0Z" fill="#206EFF"/>
<path fill-rule="evenodd" clip-rule="evenodd" d="M70.6277 5.43299C67.6271 5.43299 65.1947 7.86543 65.1947 10.866V21.732H59.7617V10.866C59.7617 4.86487 64.6266 0 70.6277 0C76.6288 0 81.4937 4.86487 81.4937 10.866V21.732H76.0607V10.866C76.0607 7.86543 73.6283 5.43299 70.6277 5.43299Z" fill="#FF324A"/>
<path fill-rule="evenodd" clip-rule="evenodd" d="M38.0293 10.8659V8.14941H43.4623V10.8659C43.4623 13.8665 45.8947 16.2989 48.8953 16.2989V21.7319C42.8942 21.7319 38.0293 16.867 38.0293 10.8659Z" fill="#31FFA6"/>
<path fill-rule="evenodd" clip-rule="evenodd" d="M76.0605 10.866C76.0605 4.86487 80.9254 0 86.9265 0C92.9277 0 97.7925 4.86487 97.7925 10.866V16.299H86.9265V10.866H92.3595C92.3595 7.86543 89.9271 5.43299 86.9265 5.43299C83.926 5.43299 81.4935 7.86543 81.4935 10.866C81.4935 13.8665 83.926 16.299 86.9265 16.299V21.732C80.9254 21.732 76.0605 16.8671 76.0605 10.866Z" fill="#31FFA6"/>
<path fill-rule="evenodd" clip-rule="evenodd" d="M16.2976 5.43299C13.2971 5.43299 10.8646 7.86543 10.8646 10.866C10.8646 13.8665 13.2971 16.299 16.2976 16.299V21.732C10.2965 21.732 5.43164 16.8671 5.43164 10.866C5.43164 4.86487 10.2965 0 16.2976 0C22.2987 0 27.1636 4.86487 27.1636 10.866V21.732H21.7306V10.866C21.7306 7.86543 19.2982 5.43299 16.2976 5.43299Z" fill="url(#paint0_radial_182_509)"/>
<path fill-rule="evenodd" clip-rule="evenodd" d="M38.0295 10.866C38.0295 7.86543 35.597 5.43299 32.5965 5.43299C29.5959 5.43299 27.1635 7.86543 27.1635 10.866V21.732H21.7305V10.866C21.7305 4.86487 26.5953 0 32.5965 0C38.5976 0 43.4624 4.86487 43.4624 10.866V21.732H38.0295V10.866Z" fill="url(#paint1_radial_182_509)"/>
<path d="M27.1635 0H21.7305V21.732H27.1635V0Z" fill="url(#paint2_radial_182_509)"/>
<path fill-rule="evenodd" clip-rule="evenodd" d="M48.8959 10.866C48.8959 7.86543 51.3283 5.43299 54.3289 5.43299C57.3294 5.43299 59.7619 7.86543 59.7619 10.866V21.732H65.1949V10.866C65.1949 4.86487 60.33 0 54.3289 0C48.3278 0 43.4629 4.86487 43.4629 10.866H48.8959Z" fill="url(#paint3_radial_182_509)"/>
<path d="M48.8959 0H43.4629V21.732H48.8959V0Z" fill="url(#paint4_radial_182_509)"/>
<path fill-rule="evenodd" clip-rule="evenodd" d="M76.0607 10.866C76.0607 7.86543 73.6283 5.43299 70.6277 5.43299C67.6271 5.43299 65.1947 7.86543 65.1947 10.866V21.732H59.7617V10.866C59.7617 4.86487 64.6266 0 70.6277 0C76.6288 0 81.4937 4.86487 81.4937 10.866V21.732H76.0607V10.866Z" fill="url(#paint5_radial_182_509)"/>
<path fill-rule="evenodd" clip-rule="evenodd" d="M43.4623 10.8659C43.4623 13.8665 45.8947 16.2989 48.8953 16.2989V21.7319C42.8942 21.7319 38.0293 16.867 38.0293 10.8659V8.14941H43.4623V10.8659Z" fill="url(#paint6_radial_182_509)"/>
<path d="M40.7458 5.43299C42.2461 5.43299 43.4623 4.21678 43.4623 2.7165C43.4623 1.21622 42.2461 0 40.7458 0C39.2455 0 38.0293 1.21622 38.0293 2.7165C38.0293 4.21678 39.2455 5.43299 40.7458 5.43299Z" fill="url(#paint7_radial_182_509)"/>
<path fill-rule="evenodd" clip-rule="evenodd" d="M92.3595 10.866C92.3595 7.86543 89.9271 5.43299 86.9265 5.43299C83.926 5.43299 81.4935 7.86543 81.4935 10.866C81.4935 13.8665 83.926 16.299 86.9265 16.299V21.732C80.9254 21.732 76.0605 16.8671 76.0605 10.866C76.0605 4.86487 80.9254 0 86.9265 0C92.9277 0 97.7925 4.86487 97.7925 10.866V16.299H92.3595H86.9265V10.866H92.3595Z" fill="url(#paint8_radial_182_509)"/>
<defs>
<radialGradient id="paint0_radial_182_509" cx="0" cy="0" r="1" gradientUnits="userSpaceOnUse" gradientTransform="translate(1092.03) scale(1086.6)">
<stop stop-color="#329FFF"/>
<stop offset="1" stop-color="#206EFF"/>
</radialGradient>
<radialGradient id="paint1_radial_182_509" cx="0" cy="0" r="1" gradientUnits="userSpaceOnUse" gradientTransform="translate(1108.33) scale(1086.6)">
<stop stop-color="#FF7894"/>
<stop offset="1" stop-color="#FF324A"/>
</radialGradient>
<radialGradient id="paint2_radial_182_509" cx="0" cy="0" r="1" gradientUnits="userSpaceOnUse" gradientTransform="translate(293.38) scale(543.299 2173.2)">
<stop stop-color="#FF7894"/>
<stop offset="1" stop-color="#FF324A"/>
</radialGradient>
<radialGradient id="paint3_radial_182_509" cx="0" cy="0" r="1" gradientUnits="userSpaceOnUse" gradientTransform="translate(1130.06) scale(1086.6)">
<stop stop-color="#329FFF"/>
<stop offset="1" stop-color="#206EFF"/>
</radialGradient>
<radialGradient id="paint4_radial_182_509" cx="0" cy="0" r="1" gradientUnits="userSpaceOnUse" gradientTransform="translate(315.113) scale(543.299 2173.2)">
<stop stop-color="#359FFC"/>
<stop offset="1" stop-color="#206EFF"/>
</radialGradient>
<radialGradient id="paint5_radial_182_509" cx="0" cy="0" r="1" gradientUnits="userSpaceOnUse" gradientTransform="translate(1146.36) scale(1086.6)">
<stop stop-color="#FF7894"/>
<stop offset="1" stop-color="#FF324A"/>
</radialGradient>
<radialGradient id="paint6_radial_182_509" cx="0" cy="0" r="1" gradientUnits="userSpaceOnUse" gradientTransform="translate(581.329 8.14941) scale(543.299 679.124)">
<stop stop-color="#5FFFD2"/>
<stop offset="1" stop-color="#31FFA6"/>
</radialGradient>
<radialGradient id="paint7_radial_182_509" cx="0" cy="0" r="1" gradientUnits="userSpaceOnUse" gradientTransform="translate(309.679) scale(271.65)">
<stop stop-color="#5FFFD2"/>
<stop offset="1" stop-color="#31FFA6"/>
</radialGradient>
<radialGradient id="paint8_radial_182_509" cx="0" cy="0" r="1" gradientUnits="userSpaceOnUse" gradientTransform="translate(1162.66) scale(1086.6)">
<stop stop-color="#5FFFD2"/>
<stop offset="1" stop-color="#31FFA6"/>
</radialGradient>
</defs>
</svg>
