<svg width="164" height="56" viewBox="0 0 164 56" fill="none" xmlns="http://www.w3.org/2000/svg">
<path d="M17.0852 34.6086L8.94381 42.75L0.797852 50.8914H17.0852L25.2266 42.75L17.0852 34.6086Z" fill="url(#paint0_linear_8_5627)"/>
<path d="M25.2266 26.4675L17.0852 18.3215H0.797852L8.94381 26.4675L17.0852 34.6089L25.2266 42.7502L33.3679 34.6089L25.2266 26.4675Z" fill="url(#paint1_linear_8_5627)"/>
<path d="M44.0152 24.4287L35.8738 16.2874L27.7324 24.4287L35.8738 32.5701H52.1611L44.0152 24.4287Z" fill="url(#paint2_linear_8_5627)"/>
<path d="M52.1616 0H35.8742L27.7329 8.14596L19.5869 16.2873L27.7329 24.4287V8.14596V24.4287L35.8742 16.2873L44.0156 8.14596L52.1616 0Z" fill="url(#paint3_linear_8_5627)"/>
<path d="M33.3271 37.9761H43.828V38.7504H35.9524V45.6043H41.189V46.3923H35.9524V54.8178H43.828V55.6058H33.3271V37.9761Z" fill="#1D1D1B"/>
<path d="M46.7925 37.9761L58.8969 51.5191V37.9761H59.5887V55.6058H58.819L46.7283 42.0491V55.6058H46.0273V37.9761H46.7925Z" fill="#1D1D1B"/>
<path d="M62.9927 37.9761L75.097 51.5191V37.9761H75.7889V55.6058H75.0192L62.9285 42.0491V55.6058H62.2275V37.9761H62.9927Z" fill="#1D1D1B"/>
<path d="M78.4189 37.9761H88.9198V38.7504H81.0442V45.6043H86.2808V46.3923H81.0442V54.8178H88.9198V55.6058H78.4189V37.9761Z" fill="#1D1D1B"/>
<path d="M101.317 40.4366C100.927 40.093 100.524 39.7906 100.098 39.5387C99.5346 39.2042 98.9436 38.9522 98.3296 38.7873C97.7295 38.6407 97.1201 38.5674 96.5062 38.5674H96.2405C95.8694 38.5674 95.4937 38.6178 95.1271 38.714C94.756 38.8102 94.4078 38.966 94.078 39.1813C93.8214 39.3462 93.5923 39.5478 93.3907 39.7952C93.1892 40.0426 93.0471 40.3267 92.9555 40.6565C92.9097 40.8627 92.8914 41.0643 92.8914 41.2613C92.8914 41.3575 92.9051 41.5087 92.928 41.7057C92.9555 41.9027 93.0334 42.1364 93.1663 42.4067C93.3587 42.7824 93.5969 43.1306 93.8901 43.4421C94.1834 43.7537 94.4903 44.024 94.811 44.253C95.4249 44.6883 96.0572 45.0915 96.6986 45.4717C96.7857 45.5313 96.8727 45.5817 96.9506 45.6321C97.4179 45.9116 97.8806 46.1956 98.3342 46.4888C98.7878 46.7821 99.2276 47.0982 99.6537 47.4418C99.9973 47.7213 100.318 48.0328 100.62 48.381C100.923 48.7292 101.175 49.1141 101.376 49.531C101.67 50.1128 101.816 50.7313 101.816 51.3865C101.816 51.469 101.812 51.556 101.807 51.6431C101.77 52.1837 101.637 52.6968 101.413 53.1824C101.202 53.6314 100.927 54.03 100.588 54.3691C100.249 54.7081 99.8782 54.9921 99.4704 55.2121C98.994 55.4824 98.49 55.6794 97.9585 55.8031C97.4271 55.9268 96.8956 55.9909 96.3596 56.0001H96.1076C95.5807 56.0001 95.0584 55.9588 94.5361 55.8764C93.9497 55.7847 93.377 55.629 92.8226 55.4091C91.8559 55.0242 90.99 54.4515 90.2295 53.6864L90.7243 53.1321C91.1046 53.4757 91.5123 53.778 91.943 54.03C92.4974 54.3645 93.0884 54.6165 93.7115 54.7814C94.3391 54.9372 94.976 55.0151 95.622 55.0151H95.7961C96.1717 55.0059 96.5428 54.9555 96.9094 54.8547C97.2805 54.7585 97.6287 54.6027 97.9585 54.3874C98.2151 54.2225 98.4396 54.0209 98.6412 53.7735C98.8382 53.5261 98.9848 53.242 99.081 52.9121C99.1314 52.7243 99.1589 52.541 99.1589 52.3578C99.1589 52.2432 99.1452 52.0829 99.1131 51.8767C99.081 51.6705 99.0031 51.4323 98.8703 51.162C98.6778 50.7863 98.4396 50.4427 98.1464 50.1357C97.8532 49.8288 97.5416 49.5539 97.2117 49.3156C96.6024 48.8804 95.9793 48.4772 95.3333 48.097C95.2463 48.042 95.1546 47.9824 95.0584 47.9228C94.5957 47.6525 94.1421 47.3731 93.6931 47.0799C93.2441 46.7866 92.8043 46.4705 92.3828 46.1269C92.0392 45.8474 91.7185 45.5359 91.4161 45.1877C91.1137 44.8395 90.8617 44.4546 90.6602 44.0377C90.3761 43.4559 90.2341 42.8374 90.2341 42.1822C90.2341 42.0997 90.2341 42.0127 90.2341 41.9256C90.2707 41.385 90.399 40.8719 90.6189 40.3862C90.8388 39.9373 91.1137 39.5387 91.4482 39.1996C91.7826 38.8606 92.1537 38.5765 92.5615 38.3566C93.0426 38.0863 93.5511 37.8893 94.078 37.7656C94.6049 37.6419 95.1409 37.5778 95.6815 37.5686H95.9472C96.465 37.5686 96.9827 37.6098 97.4958 37.6923C98.0822 37.7839 98.6549 37.9397 99.2185 38.1596C100.176 38.5445 101.042 39.1172 101.812 39.8823L101.317 40.4366Z" fill="#1D1D1B"/>
<path d="M114.672 40.4366C114.283 40.093 113.879 39.7906 113.453 39.5387C112.89 39.2042 112.299 38.9522 111.685 38.7873C111.085 38.6407 110.475 38.5674 109.861 38.5674H109.596C109.22 38.5674 108.849 38.6178 108.482 38.714C108.116 38.8102 107.763 38.966 107.433 39.1813C107.177 39.3462 106.947 39.5478 106.746 39.7952C106.544 40.0426 106.402 40.3267 106.311 40.6565C106.265 40.8627 106.247 41.0643 106.247 41.2613C106.247 41.3575 106.26 41.5087 106.283 41.7057C106.306 41.9027 106.389 42.1364 106.521 42.4067C106.714 42.7824 106.952 43.1306 107.245 43.4421C107.539 43.7537 107.845 44.024 108.166 44.253C108.78 44.6883 109.412 45.0915 110.054 45.4717C110.141 45.5313 110.228 45.5817 110.306 45.6321C110.773 45.9116 111.236 46.1956 111.689 46.4888C112.143 46.7821 112.583 47.0982 113.009 47.4418C113.352 47.7213 113.673 48.0328 113.976 48.381C114.278 48.7292 114.53 49.1141 114.732 49.531C115.025 50.1128 115.171 50.7313 115.171 51.3865C115.171 51.469 115.167 51.556 115.162 51.6431C115.126 52.1837 114.993 52.6968 114.768 53.1824C114.557 53.6314 114.283 54.03 113.943 54.3691C113.604 54.7081 113.233 54.9921 112.821 55.2121C112.345 55.4824 111.841 55.6794 111.309 55.8031C110.778 55.9268 110.246 55.9909 109.71 56.0001H109.458C108.931 56.0001 108.409 55.9588 107.887 55.8764C107.3 55.7847 106.728 55.629 106.173 55.4091C105.207 55.0242 104.341 54.4515 103.58 53.6864L104.075 53.1321C104.455 53.4757 104.863 53.778 105.294 54.03C105.848 54.3645 106.439 54.6165 107.062 54.7814C107.69 54.9372 108.327 55.0151 108.973 55.0151H109.147C109.518 55.0059 109.893 54.9555 110.26 54.8547C110.626 54.7539 110.979 54.6027 111.309 54.3874C111.566 54.2225 111.79 54.0209 111.992 53.7735C112.193 53.5261 112.335 53.242 112.432 52.9121C112.482 52.7243 112.509 52.541 112.509 52.3578C112.509 52.2432 112.496 52.0829 112.464 51.8767C112.436 51.6705 112.354 51.4323 112.221 51.162C112.028 50.7863 111.79 50.4427 111.497 50.1357C111.204 49.8288 110.892 49.5539 110.562 49.3156C109.953 48.8804 109.33 48.4772 108.684 48.097C108.597 48.042 108.505 47.9824 108.409 47.9228C107.946 47.6525 107.493 47.3731 107.044 47.0799C106.595 46.7866 106.155 46.4705 105.733 46.1269C105.39 45.8474 105.069 45.5359 104.767 45.1877C104.464 44.8395 104.212 44.4546 104.011 44.0377C103.727 43.4559 103.58 42.8374 103.58 42.1822C103.58 42.0997 103.58 42.0127 103.58 41.9256C103.617 41.385 103.745 40.8719 103.965 40.3862C104.185 39.9373 104.46 39.5387 104.794 39.1996C105.129 38.8606 105.5 38.5765 105.907 38.3566C106.389 38.0863 106.897 37.8893 107.424 37.7656C107.951 37.6419 108.487 37.5778 109.028 37.5686H109.293C109.811 37.5686 110.329 37.6098 110.842 37.6923C111.428 37.7839 112.001 37.9397 112.564 38.1596C113.522 38.5445 114.388 39.1172 115.158 39.8823L114.672 40.4366Z" fill="#1D1D1B"/>
<path d="M119.359 49.5263L116.834 55.6014H116.064L123.399 37.9717H124.169L131.504 55.6014H128.604L126.08 49.5263H119.359ZM122.721 41.4582L119.688 48.752H125.75L122.721 41.4582Z" fill="#1D1D1B"/>
<path d="M136.558 49.5263L134.033 55.6014H133.264L140.599 37.9717H141.368L148.703 55.6014H145.803L143.279 49.5263H136.558ZM139.921 41.4582L136.888 48.752H142.949L139.921 41.4582Z" fill="#1D1D1B"/>
<path d="M150.683 55.6058V37.9761H158.173C158.994 37.9761 159.74 38.2006 160.414 38.6541C161.087 39.1077 161.623 39.7079 162.026 40.4638C162.43 41.2198 162.631 42.0536 162.631 42.9745C162.631 43.8954 162.43 44.7292 162.026 45.4852C161.623 46.2411 161.087 46.8413 160.414 47.2949C159.74 47.7439 158.994 47.973 158.173 47.973L163.135 55.6104H159.887L154.925 47.973H153.312V55.6104H150.683V55.6058ZM153.308 47.1895H156.249C157.289 47.1895 158.178 46.7772 158.911 45.9479C159.649 45.1187 160.015 44.1291 160.015 42.9699C160.015 41.8062 159.649 40.812 158.911 39.9874C158.173 39.1627 157.289 38.7504 156.249 38.7504H153.308V47.1895Z" fill="#1D1D1B"/>
<defs>
<linearGradient id="paint0_linear_8_5627" x1="0.799363" y1="42.7505" x2="25.2276" y2="42.7505" gradientUnits="userSpaceOnUse">
<stop stop-color="#4258A4"/>
<stop offset="0.2691" stop-color="#506EB3"/>
<stop offset="1" stop-color="#9ED7ED"/>
</linearGradient>
<linearGradient id="paint1_linear_8_5627" x1="0.799363" y1="30.5367" x2="33.3698" y2="30.5367" gradientUnits="userSpaceOnUse">
<stop stop-color="#698DC8"/>
<stop offset="0.583" stop-color="#4956A2"/>
<stop offset="0.7998" stop-color="#49519E"/>
<stop offset="1" stop-color="#484697"/>
</linearGradient>
<linearGradient id="paint2_linear_8_5627" x1="27.7316" y1="24.4296" x2="52.1598" y2="24.4296" gradientUnits="userSpaceOnUse">
<stop stop-color="#DBAACF"/>
<stop offset="0.1571" stop-color="#C891C0"/>
<stop offset="0.4396" stop-color="#A867A7"/>
<stop offset="0.585" stop-color="#9C579E"/>
<stop offset="0.7374" stop-color="#96529B"/>
<stop offset="0.944" stop-color="#854393"/>
<stop offset="1" stop-color="#7F3E90"/>
</linearGradient>
<linearGradient id="paint3_linear_8_5627" x1="19.5888" y1="12.2155" x2="52.1602" y2="12.2155" gradientUnits="userSpaceOnUse">
<stop stop-color="#4E368D"/>
<stop offset="0.1185" stop-color="#574495"/>
<stop offset="0.2716" stop-color="#5D4D9B"/>
<stop offset="0.4998" stop-color="#5F4F9C"/>
<stop offset="1" stop-color="#8F7EBA"/>
</linearGradient>
</defs>
</svg>
