<svg width="641" height="658" viewBox="0 0 641 658" fill="none" xmlns="http://www.w3.org/2000/svg">
<g clip-path="url(#clip0_61_4615)">
<path d="M987 658H0V6.10352e-05H987V658Z" fill="white"/>
<path d="M779.064 537.366H249.541C183.616 544.906 142.928 555.246 142.928 566.656C142.928 589.727 309.198 608.43 514.303 608.43C719.407 608.43 885.677 589.727 885.677 566.656C885.677 555.246 844.989 544.906 779.064 537.366Z" fill="#A0B1BE"/>
<path d="M895.568 538.244C898.725 528.186 895.534 515.697 890.299 505.919C883.392 493.016 873.445 481.041 871.793 466.464C868.655 438.773 896.46 415.351 895.307 387.503C893.932 354.303 852.777 332.936 852.627 299.707C852.486 268.589 889.06 244.58 883.965 213.891C879.4 186.394 846.181 176.401 826.046 157.349C806.266 138.633 802.693 106.32 781.808 88.7813C765.274 74.8975 746.917 64.817 724.837 64.2484C710.323 63.8747 698.196 68.3346 684.458 71.8246C649.071 80.8142 612.875 56.1761 579.119 49.1644C552.854 43.7083 524.585 44.1097 498.436 50.1778C479.536 54.564 461.295 61.294 442.55 66.2435C423.491 71.2772 408.087 71.3101 388.878 67.116C344.004 57.3184 275.044 85.54 243.46 112.518C208.444 142.427 206.88 181.024 190.347 224.324C174.346 266.231 170.247 312.279 151.881 353.183C141.754 375.734 127.478 396.262 118.311 419.23C103.27 456.915 103.099 500.412 117.753 538.244H895.568Z" fill="#C6D8E0"/>
<path d="M689.288 578.394C693.37 578.398 696.281 574.275 694.743 570.493C690.307 559.579 677.776 552.091 665.859 548.517C644.881 542.222 622.616 542.33 600.736 541.347C578.857 540.366 556.322 538.033 537.102 527.533C530.851 524.117 525.03 519.632 520.077 514.394V382.731H488.171V514.394C483.216 519.632 477.396 524.117 471.145 527.533C451.925 538.033 429.39 540.366 407.51 541.347C385.632 542.33 363.366 542.222 342.388 548.517C330.472 552.091 317.939 559.579 313.503 570.493C311.966 574.275 314.876 578.398 318.959 578.394C321.844 578.392 324.73 578.39 327.616 578.387L327.154 578.309C327.512 574.767 330.322 571.853 333.554 570.357C336.785 568.86 340.414 566.418 343.962 566.105C361.41 564.562 646.838 564.562 664.286 566.105C667.834 566.418 671.463 568.86 674.694 570.357C677.926 571.853 680.736 574.767 681.094 578.309L680.632 578.387L689.288 578.394Z" fill="#13263C"/>
<path d="M505.354 526.863H505.169C500.133 526.863 496.051 522.78 496.051 517.743V479.395C496.051 474.357 500.133 470.275 505.169 470.275H505.354C510.391 470.275 514.475 474.357 514.475 479.395V517.743C514.475 522.78 510.391 526.863 505.354 526.863Z" fill="#2F2C6D"/>
<path d="M836.297 510.969C612.382 477.546 386.361 477.55 162.445 510.97C156.487 511.858 151.127 507.265 151.127 501.241V93.6229C151.127 87.5982 156.487 83.0041 162.446 83.8937C386.361 117.315 612.382 117.316 836.297 83.8937C842.256 83.0041 847.616 87.5982 847.616 93.6229V501.241C847.616 507.265 842.256 511.858 836.297 510.969Z" fill="#13263C"/>
<path d="M828.999 508.439C606.104 474.036 380.971 474.039 158.076 508.439C158.076 370.203 158.076 231.966 158.076 93.7308C380.97 128.131 606.104 128.132 828.999 93.7308C828.999 231.966 828.999 370.203 828.999 508.439Z" fill="#A0B1BE"/>
<path d="M163.91 90.0776C163.91 228.313 163.91 366.549 163.91 504.786C181.688 502.042 199.482 499.542 217.287 497.236L321.27 108.598C268.732 104.314 216.259 98.1565 163.91 90.0776Z" fill="#C6D8E0"/>
<path d="M276.781 388.856C258.408 390.268 238.623 387.442 221.664 380.375C196.022 369.227 180.933 346.648 163.91 326.509C163.91 385.934 163.91 445.361 163.91 504.786C386.804 470.386 611.938 470.383 834.832 504.786C834.832 394.625 834.832 284.463 834.832 174.302C673.563 243.156 513.024 305.667 348.858 369.07C324.832 378.962 302.22 387.442 276.781 388.856Z" fill="#89A1AD"/>
<path d="M356.906 113.858V394.483H638.56V113.858H356.906Z" fill="#628394"/>
<path d="M163.162 172.313V326.609H351.283V172.313H163.162Z" fill="#89A1AD"/>
<path d="M634.173 377.155H362.389V72.8314H634.173V377.155Z" fill="white"/>
<path d="M481.942 90.6251H412.725V82.7238H481.942V90.6251Z" fill="#EBECEE"/>
<path d="M613.074 90.6251H582.719V82.7238H613.074V90.6251Z" fill="#EBECEE"/>
<path d="M613.074 103.698H582.719V101.096H613.074V103.698Z" fill="#EBECEE"/>
<path d="M404.426 278.048C397.699 278.048 392.244 272.595 392.244 265.868C392.244 259.14 397.699 253.687 404.426 253.687C411.154 253.687 416.607 259.14 416.607 265.868C416.607 272.595 411.154 278.048 404.426 278.048ZM404.426 245.75C393.315 245.75 384.309 254.757 384.309 265.868C384.309 276.979 393.315 285.985 404.426 285.985C415.537 285.985 424.544 276.979 424.544 265.868C424.544 254.757 415.537 245.75 404.426 245.75Z" fill="#50C4C0"/>
<path d="M404.427 272.946C400.517 272.946 397.347 269.777 397.347 265.868C397.347 261.958 400.517 258.789 404.427 258.789C408.337 258.789 411.506 261.958 411.506 265.868C411.506 269.777 408.337 272.946 404.427 272.946ZM404.427 257.833C399.989 257.833 396.393 261.43 396.393 265.868C396.393 270.305 399.989 273.902 404.427 273.902C408.863 273.902 412.461 270.305 412.461 265.868C412.461 261.43 408.863 257.833 404.427 257.833Z" fill="#50C4C0"/>
<path d="M449.028 278.048C442.299 278.048 436.846 272.595 436.846 265.868C436.846 259.14 442.299 253.687 449.028 253.687C455.755 253.687 461.209 259.14 461.209 265.868C461.209 272.595 455.755 278.048 449.028 278.048ZM449.028 245.75C437.917 245.75 428.91 254.757 428.91 265.868C428.91 276.979 437.917 285.985 449.028 285.985C460.138 285.985 469.146 276.979 469.146 265.868C469.146 254.757 460.138 245.75 449.028 245.75Z" fill="#50C4C0"/>
<path d="M449.028 272.946C445.118 272.946 441.948 269.777 441.948 265.868C441.948 261.958 445.118 258.789 449.028 258.789C452.938 258.789 456.107 261.958 456.107 265.868C456.107 269.777 452.938 272.946 449.028 272.946ZM449.028 257.833C444.591 257.833 440.994 261.43 440.994 265.868C440.994 270.305 444.591 273.902 449.028 273.902C453.465 273.902 457.061 270.305 457.061 265.868C457.061 261.43 453.465 257.833 449.028 257.833Z" fill="#50C4C0"/>
<path d="M390.615 327.829L390.119 326.61L458.921 298.592L473.872 305.199L492.293 278.63L504.66 286.404L518.082 267.134L519.161 267.885L505.023 288.186L492.658 280.413L474.335 306.841L458.9 300.022L390.615 327.829Z" fill="#50C4C0"/>
<path d="M423.254 361.041H411.184V312.759H423.254V361.041Z" fill="#7593D2"/>
<path d="M442.816 361.041H430.746V320.251H442.816V361.041Z" fill="#7593D2"/>
<path d="M462.379 361.041H450.309V311.51H462.379V361.041Z" fill="#7593D2"/>
<path d="M481.941 361.041H469.871V325.245H481.941V361.041Z" fill="#7593D2"/>
<path d="M501.504 361.041H489.434V291.532H501.504V361.041Z" fill="#7593D2"/>
<path d="M521.066 361.041H508.996V284.872H521.066V361.041Z" fill="#7593D2"/>
<path d="M431.52 235.028H415.795V115.441H431.52V235.028Z" fill="#EBECEE"/>
<path d="M454.364 235.028H438.639V115.441H454.364V235.028Z" fill="#EBECEE"/>
<path d="M477.206 235.028H461.482V115.441H477.206V235.028Z" fill="#EBECEE"/>
<path d="M500.05 235.028H484.326V115.441H500.05V235.028Z" fill="#EBECEE"/>
<path d="M522.895 235.028H507.17V115.441H522.895V235.028Z" fill="#EBECEE"/>
<path d="M545.737 235.028H530.012V115.441H545.737V235.028Z" fill="#EBECEE"/>
<path d="M568.58 235.028H552.855V115.441H568.58V235.028Z" fill="#EBECEE"/>
<path d="M591.424 235.028H575.699V115.441H591.424V235.028Z" fill="#EBECEE"/>
<path d="M614.266 235.028H598.541V115.441H614.266V235.028Z" fill="#EBECEE"/>
<path d="M420.641 234.309V123.445H422.615V234.309H420.641Z" fill="white"/>
<path d="M443.668 234.309V123.445H445.642V234.309H443.668Z" fill="white"/>
<path d="M466.697 234.309V123.445H468.67V234.309H466.697Z" fill="white"/>
<path d="M489.725 234.309V123.445H491.699V234.309H489.725Z" fill="white"/>
<path d="M512.754 234.309V123.445H514.727V234.309H512.754Z" fill="white"/>
<path d="M535.781 234.309V123.445H537.755V234.309H535.781Z" fill="white"/>
<path d="M558.809 234.309V123.445H560.783V234.309H558.809Z" fill="white"/>
<path d="M581.836 234.309V123.445H583.81V234.309H581.836Z" fill="white"/>
<path d="M604.865 234.309V123.445H606.839V234.309H604.865Z" fill="white"/>
<path d="M425.246 234.309H418.01V179.042H425.246V234.309Z" fill="#006C71"/>
<path d="M448.275 234.309H441.037V179.042H448.275V234.309Z" fill="#006C71"/>
<path d="M471.301 234.309H464.064V196.971H471.301V234.309Z" fill="#006C71"/>
<path d="M494.33 234.309H487.092V159.632H494.33V234.309Z" fill="#006C71"/>
<path d="M494.33 175.235H487.092V159.632H494.33V175.235Z" fill="#50C4C0"/>
<path d="M517.358 234.309H510.121V148.118H517.358V234.309Z" fill="#006C71"/>
<path d="M540.386 234.309H533.148V179.042H540.386V234.309Z" fill="#006C71"/>
<path d="M563.414 234.309H556.178V156.342H563.414V234.309Z" fill="#006C71"/>
<path d="M563.414 161.644H556.178V156.342H563.414V161.644Z" fill="#50C4C0"/>
<path d="M586.443 234.309H579.205V164.896H586.443V234.309Z" fill="#006C71"/>
<path d="M609.469 234.309H602.232V179.042H609.469V234.309Z" fill="#006C71"/>
<path d="M408.16 233.853H393.367V229.57H408.16V233.853Z" fill="#EBECEE"/>
<path d="M408.16 216.166H393.367V211.883H408.16V216.166Z" fill="#EBECEE"/>
<path d="M408.16 198.478H393.367V194.196H408.16V198.478Z" fill="#EBECEE"/>
<path d="M408.16 180.791H393.367V176.507H408.16V180.791Z" fill="#EBECEE"/>
<path d="M408.16 163.104H393.367V158.82H408.16V163.104Z" fill="#EBECEE"/>
<path d="M408.16 145.415H393.367V141.133H408.16V145.415Z" fill="#EBECEE"/>
<path d="M408.16 127.728H393.367V123.445H408.16V127.728Z" fill="#EBECEE"/>
<path d="M431.52 111.467H415.795V109.783H431.52V111.467Z" fill="#A0B1BE"/>
<path d="M454.364 111.467H438.639V109.783H454.364V111.467Z" fill="#A0B1BE"/>
<path d="M477.206 111.467H461.482V109.783H477.206V111.467Z" fill="#A0B1BE"/>
<path d="M500.05 111.467H484.326V109.783H500.05V111.467Z" fill="#A0B1BE"/>
<path d="M522.895 111.467H507.17V109.783H522.895V111.467Z" fill="#A0B1BE"/>
<path d="M545.737 111.467H530.012V109.783H545.737V111.467Z" fill="#A0B1BE"/>
<path d="M568.58 111.467H552.855V109.783H568.58V111.467Z" fill="#A0B1BE"/>
<path d="M591.424 111.467H575.699V109.783H591.424V111.467Z" fill="#A0B1BE"/>
<path d="M614.266 111.467H598.541V109.783H614.266V111.467Z" fill="#A0B1BE"/>
<path d="M338.122 314.107H81.8496V159.811H338.122V314.107Z" fill="white"/>
<path d="M334.91 214.205C334.91 235.378 317.745 252.544 296.571 252.544C275.397 252.544 258.232 235.378 258.232 214.205C258.232 193.031 275.397 175.866 296.571 175.866C317.745 175.866 334.91 193.031 334.91 214.205Z" fill="#006C71"/>
<path d="M296.426 175.866C285.742 175.906 276.098 180.317 269.172 187.396L294.676 214.766L312.601 179.373C307.682 177.103 302.202 175.844 296.426 175.866Z" fill="#50C4C0"/>
<path d="M329.514 194.598C325.557 187.964 319.656 182.629 312.601 179.373L294.676 214.766L295.046 215.162L329.514 194.598Z" fill="#2F2C6D"/>
<path d="M269.173 187.396C262.373 194.343 258.193 203.86 258.233 214.349C258.259 221.493 260.245 228.171 263.669 233.883L294.229 215.65L294.677 214.766L269.173 187.396Z" fill="#7593D2"/>
<path d="M294.676 214.766L294.229 215.65L295.046 215.162L294.676 214.766Z" fill="#006C71"/>
<path d="M321.382 243.424L295.046 215.162L294.229 215.65L277.98 247.733C283.527 250.818 289.917 252.569 296.715 252.543C306.128 252.507 314.73 249.078 321.382 243.424Z" fill="#2F2C6D"/>
<path d="M263.668 233.884C267.134 239.666 272.081 244.454 277.979 247.733L294.228 215.65L263.668 233.884Z" fill="#EBECEE"/>
<path d="M329.514 194.598L295.045 215.162L321.381 243.424C329.691 236.36 334.953 225.822 334.908 214.061C334.882 206.946 332.911 200.295 329.514 194.598Z" fill="#7593D2"/>
<path d="M323.331 214.205C323.331 228.984 311.35 240.965 296.571 240.965C281.791 240.965 269.811 228.984 269.811 214.205C269.811 199.425 281.791 187.444 296.571 187.444C311.35 187.444 323.331 199.425 323.331 214.205Z" fill="white"/>
<path d="M296.571 192.328C284.508 192.328 274.695 202.143 274.695 214.205C274.695 226.268 284.508 236.081 296.571 236.081C308.633 236.081 318.448 226.268 318.448 214.205C318.448 202.143 308.633 192.328 296.571 192.328ZM296.571 237.397C283.783 237.397 273.379 226.993 273.379 214.205C273.379 201.416 283.783 191.012 296.571 191.012C309.36 191.012 319.764 201.416 319.764 214.205C319.764 226.993 309.36 237.397 296.571 237.397Z" fill="#006C71"/>
<path d="M307.069 260.979H295.686V263.599H307.069V260.979Z" fill="#006C71"/>
<path d="M312.554 267.965H295.686V270.587H312.554V267.965Z" fill="#A0B1BE"/>
<path d="M314.797 267.965V270.587H323.107V267.965H314.797Z" fill="#A0B1BE"/>
<path d="M323.771 267.965V270.587H329.089V267.965H323.771Z" fill="#A0B1BE"/>
<path d="M303.746 274.953H295.686V277.573H303.746V274.953Z" fill="#A0B1BE"/>
<path d="M326.603 274.953H305.906V277.573H326.603V274.953Z" fill="#A0B1BE"/>
<path d="M319.617 281.941V284.561H329.09V281.941H319.617Z" fill="#A0B1BE"/>
<path d="M318.702 281.941H295.686V284.561H318.702V281.941Z" fill="#A0B1BE"/>
<path d="M310.227 288.929H295.686V291.549H310.227V288.929Z" fill="#A0B1BE"/>
<path d="M312.469 288.929V291.549H318.701V288.929H312.469Z" fill="#A0B1BE"/>
<path d="M323.231 288.929H319.617V291.549H323.231V288.929Z" fill="#A0B1BE"/>
<path d="M140.53 283.072H111.361V284.861H140.53V283.072Z" fill="#006C71"/>
<path d="M146.451 287.843H111.361V289.633H146.451V287.843Z" fill="#A0B1BE"/>
<path d="M146.451 292.615H124.775V294.405H146.451V292.615Z" fill="#A0B1BE"/>
<path d="M121.581 292.615H111.361V294.405H121.581V292.615Z" fill="#A0B1BE"/>
<path d="M146.451 297.387H111.361V299.177H146.451V297.387Z" fill="#A0B1BE"/>
<path d="M146.451 302.159H111.361V303.949H146.451V302.159Z" fill="#A0B1BE"/>
<path d="M112.021 270.712H110.705V184.927H112.021V270.712Z" fill="#13263C"/>
<path d="M136.421 270.712H135.105V184.927H136.421V270.712Z" fill="#13263C"/>
<path d="M160.82 270.712H159.504V184.927H160.82V270.712Z" fill="#13263C"/>
<path d="M185.218 270.712H183.902V184.927H185.218V270.712Z" fill="#13263C"/>
<path d="M209.615 270.712H208.299V184.927H209.615V270.712Z" fill="#13263C"/>
<path d="M234.013 270.712H232.697V184.927H234.013V270.712Z" fill="#13263C"/>
<path d="M115.329 270.712H107.395V219.011H115.329V270.712Z" fill="#A0B1BE"/>
<path d="M139.956 270.712H132.021V236.739H139.956V270.712Z" fill="#A0B1BE"/>
<path d="M164.157 270.712H156.225V221.838H164.157V270.712Z" fill="#A0B1BE"/>
<path d="M188.526 270.712H180.592V203.205H188.526V270.712Z" fill="#A0B1BE"/>
<path d="M212.924 270.712H204.99V231.712H212.924V270.712Z" fill="#A0B1BE"/>
<path d="M238.125 273.433H94.6406V272.337H238.125V273.433Z" fill="#EBECEE"/>
<path d="M241.76 203.614L233.356 189.059L224.953 203.614H229.389V270.712H237.322V203.614H241.76Z" fill="#50C4C0"/>
<path d="M104.887 266.508C104.887 267.061 104.439 267.509 103.886 267.509H95.6416C95.089 267.509 94.6406 267.061 94.6406 266.508C94.6406 265.956 95.089 265.507 95.6416 265.507H103.886C104.439 265.507 104.887 265.956 104.887 266.508Z" fill="#EBECEE"/>
<path d="M104.887 252.213C104.887 252.765 104.439 253.214 103.886 253.214H95.6416C95.089 253.214 94.6406 252.765 94.6406 252.213C94.6406 251.66 95.089 251.211 95.6416 251.211H103.886C104.439 251.211 104.887 251.66 104.887 252.213Z" fill="#EBECEE"/>
<path d="M104.887 237.918C104.887 238.471 104.439 238.919 103.886 238.919H95.6416C95.089 238.919 94.6406 238.471 94.6406 237.918C94.6406 237.364 95.089 236.917 95.6416 236.917H103.886C104.439 236.917 104.887 237.364 104.887 237.918Z" fill="#EBECEE"/>
<path d="M104.887 223.623C104.887 224.175 104.439 224.624 103.886 224.624H95.6416C95.089 224.624 94.6406 224.175 94.6406 223.623C94.6406 223.07 95.089 222.621 95.6416 222.621H103.886C104.439 222.621 104.887 223.07 104.887 223.623Z" fill="#EBECEE"/>
<path d="M104.887 209.328C104.887 209.881 104.439 210.328 103.886 210.328H95.6416C95.089 210.328 94.6406 209.881 94.6406 209.328C94.6406 208.774 95.089 208.327 95.6416 208.327H103.886C104.439 208.327 104.887 208.774 104.887 209.328Z" fill="#EBECEE"/>
<path d="M104.887 195.033C104.887 195.585 104.439 196.034 103.886 196.034H95.6416C95.089 196.034 94.6406 195.585 94.6406 195.033C94.6406 194.48 95.089 194.031 95.6416 194.031H103.886C104.439 194.031 104.887 194.48 104.887 195.033Z" fill="#EBECEE"/>
<path d="M104.887 180.738C104.887 181.291 104.439 181.738 103.886 181.738H95.6416C95.089 181.738 94.6406 181.291 94.6406 180.738C94.6406 180.184 95.089 179.737 95.6416 179.737H103.886C104.439 179.737 104.887 180.184 104.887 180.738Z" fill="#EBECEE"/>
<path d="M222.232 371.354C222.743 372.761 222.377 374.422 223.104 375.73C223.734 376.868 225.082 377.464 226.383 377.524C227.683 377.581 228.958 377.187 230.189 376.76C232.459 375.976 234.688 375.071 236.864 374.051C238.44 373.311 240.056 372.453 241.029 371.007C242.075 369.449 242.203 367.472 242.33 365.599C242.904 357.191 244.157 348.831 246.072 340.624C246.546 338.596 247.063 336.537 246.906 334.461C246.75 332.386 245.786 330.248 243.961 329.246C242.788 328.603 241.396 328.493 240.059 328.542C238.265 328.607 236.399 328.967 235.002 330.092C232.96 331.739 232.402 334.554 231.731 337.088C230.122 343.158 227.1 348.848 222.973 353.58C221.323 355.473 219.475 357.245 218.309 359.468C217.142 361.692 216.778 364.549 218.163 366.643C219.319 368.388 221.519 369.387 222.232 371.354Z" fill="#006C71"/>
<path d="M235.269 369.708C235.204 371.507 234.653 373.361 233.37 374.622C232.015 375.954 230.066 376.439 228.216 376.872C226.659 377.237 224.957 377.587 223.52 376.889C221.92 376.114 221.158 374.301 220.529 372.639C219.837 370.811 219.138 368.956 218.95 367.011C218.761 365.065 219.143 362.984 220.402 361.491C221.459 360.237 223.052 359.505 224.677 359.282C227.472 358.898 230.397 359.985 232.373 362C234.349 364.015 235.373 366.888 235.269 369.708Z" fill="#13263C"/>
<path d="M227.769 376.937C224.801 378.013 221.528 376.86 218.791 375.222C215.467 373.232 212.52 370.512 210.186 367.276C213.241 365.953 215.613 362.929 216.313 359.46C218.733 360.81 221.52 361.093 224.188 361.691C226.855 362.288 229.636 363.358 231.234 365.737C232.476 367.592 232.81 370.105 232.129 372.271C231.448 374.438 229.779 376.206 227.769 376.937Z" fill="#F89C7A"/>
<path d="M231.233 365.737C229.636 363.358 226.855 362.288 224.188 361.691C221.52 361.093 218.733 360.81 216.313 359.46C215.759 362.205 214.148 364.658 211.988 366.223C217.54 370.063 226.5 369.405 228.9 374.207C229.231 374.757 229.45 375.318 229.623 375.884C230.77 374.982 231.673 373.72 232.128 372.271C232.81 370.105 232.476 367.592 231.233 365.737Z" fill="#F17058"/>
<path d="M232.992 384.758L224.266 387.003L207.674 322.503L216.399 320.258L232.992 384.758Z" fill="#13263C"/>
<path d="M208.346 356.352C208.392 355.524 208.45 354.691 208.66 353.893C209.463 350.867 212.586 344.441 212.76 341.298C215.701 345.287 213.701 348.408 213.873 349.951C215.398 349.926 216.941 349.901 218.432 350.253C218.919 350.369 219.48 350.617 219.571 351.146C219.636 351.517 219.421 351.892 219.132 352.105C218.842 352.318 218.491 352.404 218.149 352.484C218.642 352.776 219.145 353.076 219.521 353.525C219.899 353.974 220.135 354.608 219.987 355.194C219.841 355.778 219.223 356.225 218.697 356.012C219.136 356.402 219.603 356.836 219.723 357.436C219.844 358.035 219.387 358.782 218.833 358.646C219.404 359.055 219.4 360.001 219.063 360.645C218.726 361.289 218.157 361.745 217.704 362.3C216.889 363.299 216.472 364.593 215.879 365.759C215.285 366.924 214.388 368.056 213.17 368.268C211.9 368.488 210.688 367.65 209.718 366.742C209.272 366.323 208.835 365.87 208.572 365.301C208.234 364.573 208.209 363.729 208.2 362.916C208.175 360.726 208.223 358.536 208.346 356.352Z" fill="#F89C7A"/>
<path d="M219.52 353.525C219.143 353.076 218.641 352.776 218.147 352.484C218.489 352.404 218.841 352.318 219.13 352.105C219.42 351.892 219.634 351.517 219.57 351.146C219.479 350.617 218.917 350.369 218.43 350.253C217.194 349.961 215.923 349.93 214.656 349.941C216.642 356.308 216.828 362.645 213.162 368.268C213.163 368.268 213.166 368.268 213.169 368.268C214.386 368.056 215.284 366.924 215.877 365.759C216.471 364.593 216.888 363.299 217.702 362.3C218.155 361.745 218.725 361.289 219.062 360.645C219.399 360.001 219.403 359.055 218.831 358.646C219.385 358.781 219.842 358.035 219.721 357.436C219.601 356.836 219.134 356.402 218.696 356.012C219.221 356.225 219.839 355.778 219.986 355.194C220.133 354.608 219.897 353.974 219.52 353.525Z" fill="#F17058"/>
<path d="M219.256 356.568C217.743 355.74 216.032 355.274 214.307 355.22L214.326 354.562C216.154 354.619 217.969 355.113 219.573 355.99L219.256 356.568Z" fill="#13263C"/>
<path d="M219.249 358.967C217.62 358.305 215.901 357.935 214.139 357.866L214.165 357.208C216.002 357.281 217.796 357.665 219.497 358.357L219.249 358.967Z" fill="#13263C"/>
<path d="M218.091 362.874C217.363 362.584 216.805 361.899 216.668 361.127C216.643 360.974 216.622 360.85 216.592 360.824C216.572 360.805 216.505 360.792 216.392 360.784C215.748 360.738 215.107 360.766 214.48 360.873L214.369 360.226C215.048 360.108 215.744 360.073 216.441 360.129C216.577 360.138 216.837 360.156 217.033 360.335C217.233 360.516 217.275 360.766 217.305 360.949C217.413 361.564 217.814 362.055 218.336 362.263L218.091 362.874Z" fill="#13263C"/>
<path d="M249.089 298.113C251.859 297.788 255.232 295.979 257.919 295.184C258.67 298.75 260.392 307.829 262.753 312.091L263.669 313.442C257.177 318.401 250.514 320.851 242.801 322.956C251.707 317.976 248.711 306.757 249.089 298.113Z" fill="#F89C7A"/>
<path d="M256.595 295.631C254.178 296.518 251.421 297.84 249.089 298.113C248.711 306.757 251.707 317.976 242.801 322.956C245.992 322.086 248.995 321.142 251.889 320.001C255.232 312.53 256.907 304.229 256.595 295.631Z" fill="#F17058"/>
<path d="M256.654 295.459C254.126 296.336 251.152 297.821 248.662 298.113C248.837 301.813 249.336 305.995 249.229 309.984C255.238 308.727 256.194 301.739 256.654 295.459Z" fill="#13263C"/>
<path d="M246.595 314.995C244.978 315.801 243.362 316.756 242.317 318.231C240.578 320.687 240.79 323.987 239.877 326.855C243.43 323.215 247.985 320.668 252.765 318.93C257.543 317.19 262.565 316.22 267.584 315.398C267.855 314.153 267.059 312.861 265.971 312.197C264.881 311.535 263.562 311.379 262.288 311.33C256.864 311.12 251.455 312.578 246.595 314.995Z" fill="#2F2C6D"/>
<path d="M258.438 283.516C255.823 280.399 252.32 278.41 248.476 277.7L245.955 277.646C244.385 279.455 243.467 279.574 242.237 281.671L241.855 283.307C241.567 284.364 240.926 285.658 239.779 286.135C238.381 286.718 237.116 287.628 235.89 288.555C235.427 288.904 234.927 289.373 234.954 289.981C234.975 290.448 235.306 290.822 235.619 291.143C236.318 291.861 237.039 292.553 237.776 293.227C237.522 295.61 237.898 298.082 238.001 300.507C238.059 301.864 238.063 303.343 238.85 304.404C239.584 305.395 240.821 305.759 241.984 305.944C246.615 306.679 251.456 305.432 255.397 302.71C257.995 300.915 260.287 298.377 261.197 295.199C262.347 291.182 261.054 286.634 258.438 283.516Z" fill="#F89C7A"/>
<path d="M258.438 283.516C255.824 280.399 252.32 278.41 248.476 277.7L245.955 277.646C244.385 279.455 243.468 279.574 242.237 281.671L242.037 282.531C242.488 289.764 250.059 297.407 251.985 304.588C253.173 304.075 254.319 303.454 255.396 302.71C257.995 300.915 260.287 298.377 261.197 295.199C262.347 291.182 261.055 286.634 258.438 283.516Z" fill="#F17058"/>
<path d="M241.855 283.307C241.962 282.919 242.024 282.561 242.042 282.29L241.855 283.307Z" fill="white"/>
<path d="M275.086 277.107C274.117 275.277 273.06 273.492 271.919 271.763C271.39 270.96 270.738 270.101 269.786 269.955C268.861 269.813 267.999 270.401 267.248 270.96C266.469 271.539 265.69 272.12 264.91 272.699C263.746 272.063 262.398 271.31 261.307 270.916C257.551 269.558 253.339 269.725 249.686 271.379L246.184 270.258C243.993 271.696 242.983 274.579 242.694 277.327C242.195 282.067 243.423 286.942 245.83 290.945C248.235 294.95 252.524 299.945 256.501 302.039C258.691 303.192 260.603 302.564 262.826 301.736C263.025 301.661 263.209 301.552 263.402 301.465C264.514 301.085 265.575 300.531 266.545 299.864C269.526 297.813 271.841 294.938 273.872 291.947C275.627 289.363 277.26 286.463 277.148 283.341C277.068 281.134 276.119 279.059 275.086 277.107Z" fill="#13263C"/>
<path d="M246.561 280.94C246.59 282.678 247.083 284.405 247.976 285.896C248.097 284.671 248.218 283.445 248.339 282.22C249.125 282.994 250.087 283.588 251.131 283.939C251.308 283.156 251.483 282.373 251.659 281.59C252.034 282.296 252.687 282.852 253.445 283.108C253.675 282.61 253.904 282.111 254.135 281.612C254.346 282.071 254.891 282.35 255.386 282.253C255.509 281.806 255.63 281.358 255.751 280.912C255.828 281.557 256.561 282.037 257.184 281.849C257.806 281.661 258.152 280.855 257.859 280.275C258.351 280.605 258.845 280.937 259.337 281.267C259.578 281.036 259.562 280.591 259.304 280.378C261.187 280.904 263.206 280.938 265.106 280.478C263.354 279.216 262.016 277.393 261.336 275.345C261.432 276.135 261.025 276.964 260.342 277.372C259.658 277.78 258.735 277.744 258.085 277.285C257.583 277.834 257.08 278.384 256.577 278.933C256.105 278.364 255.295 278.183 254.558 278.246C253.823 278.309 253.121 278.576 252.404 278.755C250.162 279.316 247.709 278.988 245.694 277.856C244.837 280.902 245.19 284.268 246.658 287.07C246.157 285.071 246.123 282.955 246.561 280.94Z" fill="#186EBC"/>
<path d="M265.423 272.891C265.664 275.185 266.152 277.454 266.878 279.642C265.095 278.731 264.256 276.69 263.557 274.815C263.375 274.327 263.192 273.785 263.379 273.299C263.841 272.1 264.771 273.999 265.423 272.891Z" fill="#50C4C0"/>
<path d="M210.096 548.1C216.368 544.608 220.434 538.604 223.894 532.423C228.076 480.558 223.864 483.905 226.063 461.401L242.7 461.409C243.381 475.533 243.034 488.331 239.92 501.705C237.509 512.06 235.388 520.021 233.031 532.423C232.59 534.74 232.103 538.096 232.697 540.426C233.134 542.136 233.384 543.731 232.563 545.048C230.603 548.121 228.676 547.379 225.168 548.669C221.073 550.175 221.913 553.28 213.631 553.517C212.049 553.562 210.372 553.606 208.961 552.621C208.465 552.275 207.994 551.761 207.859 551.089C207.559 549.596 208.998 548.711 210.096 548.1Z" fill="#F89C7A"/>
<path d="M235.584 520.108C237.003 513.787 238.406 508.219 239.922 501.705C243.035 488.331 243.383 475.533 242.701 461.409L226.064 461.401C224.035 482.159 227.462 480.923 224.725 521.304C230.301 524.496 233.426 522.411 235.584 520.108Z" fill="#F17058"/>
<path d="M223.384 546.052C221.711 547.341 219.875 548.405 217.899 548.878C215.923 549.353 213.794 549.206 211.984 548.185C211.732 548.041 211.487 547.884 211.242 547.726C211.688 547.362 212.133 546.999 212.579 546.636C212.738 546.507 212.908 546.373 213.103 546.363C213.306 546.352 213.491 546.476 213.673 546.575C214.455 547.002 215.352 547.021 216.218 547.032C218.641 547.065 221.136 547.082 223.384 546.052Z" fill="#13263C"/>
<path d="M210.096 548.1C210.714 547.756 211.296 547.369 211.872 546.978C213.483 548.465 215.784 548.997 218.187 548.695C223.566 548.019 228.326 544.071 232.784 540.786C233.161 542.361 233.325 543.824 232.563 545.048C230.603 548.121 228.676 547.379 225.168 548.669C221.073 550.175 221.913 553.279 213.631 553.517C212.049 553.562 210.372 553.606 208.961 552.621C208.465 552.275 207.994 551.761 207.859 551.089C207.559 549.596 208.998 548.711 210.096 548.1Z" fill="#50C4C0"/>
<path d="M225.201 411.29C225.512 419.191 224.573 428.795 224.268 436.698C223.958 444.745 223.01 452.757 222.942 460.812C222.781 479.721 227.438 498.94 223.501 517.312C230.49 519.633 238.135 519.315 244.958 516.421C247.507 486.388 250.754 446.154 255.753 413.674C246.584 414.257 233.753 415.107 225.201 411.29Z" fill="#2F2C6D"/>
<path d="M253.312 418.556C251.794 418.654 250.238 418.613 248.665 418.479C248.983 420.19 249.004 421.891 248.402 423.944C243.723 437.265 235.095 456.914 235.095 468.903C235.095 486.426 235.123 500.163 234.803 518.855C238.355 518.678 241.625 517.834 244.957 516.421C247.506 486.388 248.314 451.038 253.312 418.556Z" fill="#13263C"/>
<path d="M248.444 553.295C248.467 553.282 251.804 550.509 251.819 550.49C254.215 547.107 255.028 543.461 254.503 539.243C251.657 516.364 244.062 488 240.514 465.388H261.098C264.132 489.21 267.57 517.584 262.99 540.098C262.435 542.831 262.376 545.656 262.761 548.423C263.011 550.222 263.228 552.025 263.41 553.829C263.582 555.555 263.667 557.51 262.734 558.658C261.974 559.592 259.145 559.114 256.927 560.154C251.126 562.874 244.567 563.504 240.443 561.298C237.993 559.446 243.238 556.309 248.444 553.295Z" fill="#F89C7A"/>
<path d="M261.099 465.388H240.516C243.94 487.211 251.12 514.378 254.177 536.815C258.492 538.604 262.276 536.199 264.027 533.805C266.929 512.448 263.858 487.044 261.099 465.388Z" fill="#F17058"/>
<path d="M261.955 552.375C262.091 551.904 262.127 551.4 262.059 550.912C261.674 551.584 261.364 552.306 261.139 553.057C261.318 553.14 261.533 553.065 261.676 552.921C261.818 552.777 261.898 552.577 261.955 552.375Z" fill="#13263C"/>
<path d="M250.82 559.312C249.791 559.632 248.739 559.924 247.669 559.912C245.662 559.89 243.698 558.717 242.613 556.896C243.195 556.477 243.777 556.059 244.358 555.64C246.73 557.559 249.983 557.622 252.898 557.042C255.813 556.461 258.641 555.322 261.598 555.11C258.049 556.638 254.492 558.168 250.82 559.312Z" fill="#13263C"/>
<path d="M243.52 556.297C244.273 557.359 245.476 558.151 247.133 558.567C249.491 559.159 252.868 558.11 255.078 557.256C257.76 556.221 260.58 554.447 263.412 553.849C263.583 555.569 263.663 557.514 262.734 558.658C261.975 559.592 259.145 559.114 256.928 560.154C251.127 562.874 244.568 563.504 240.444 561.298C238.81 560.063 240.604 558.256 243.52 556.297Z" fill="#50C4C0"/>
<path d="M267.322 415.078C270.837 428.236 266.126 442.083 264.454 455.656C261.504 479.632 274.499 507.297 269.886 530.965C262.788 534.43 255.112 537.172 247.1 532.889C248.462 518.672 244.249 499.987 241.842 485.933C240.606 478.717 238.731 471.611 238.087 464.307C236.51 446.392 242.368 427.85 237.674 410.581C246.073 410.17 254.471 409.756 262.87 409.343L267.322 415.078Z" fill="#2F2C6D"/>
<path d="M258.814 420.767C260.353 420.521 261.932 420.245 263.258 419.428C264.585 418.61 265.613 417.117 265.419 415.57C252.495 414.751 239.601 413.446 226.774 411.662C226.067 412.771 226.254 414.279 226.939 415.402C227.625 416.525 228.727 417.326 229.856 418.001C234.106 420.542 239.084 421.683 244.03 421.925C248.976 422.166 253.923 421.545 258.814 420.767Z" fill="#13263C"/>
<path d="M264.454 455.656C266.126 442.083 270.837 428.236 267.322 415.078L262.87 409.343C261.346 409.418 259.821 409.493 258.297 409.568C261.48 414.712 263.891 420.12 263.117 425.531C257.853 455.799 263.117 482.119 267.065 511.071C268.437 518.201 268.595 525.158 267.827 531.932C268.518 531.619 269.205 531.298 269.886 530.965C274.499 507.297 261.504 479.632 264.454 455.656Z" fill="#13263C"/>
<path d="M271.744 315.985C275.062 319.445 275.95 324.895 275.398 329.834C274.636 336.628 272.175 343.156 268.964 349.057C265.999 354.503 263.615 360.985 265.159 368.856C265.925 372.757 267.445 376.415 268.848 380.104C272.431 389.531 274.272 399.723 274.234 409.912C274.229 411.574 274.12 413.387 273.089 414.624C271.934 416.011 270.018 416.214 268.29 416.305C256.087 416.943 238.848 417.596 224.811 412.34C225.515 393.219 233.088 377.085 233.792 357.965C234.128 348.849 229.561 342.542 233.17 334.29C236.395 326.918 247.119 317.781 254.043 314.504C259.796 311.781 267.228 311.275 271.744 315.985Z" fill="#50C4C0"/>
<path d="M237.489 385.849C237.921 375.84 241.366 366.044 240.887 356.037C250.563 352.309 259.552 346.8 267.265 339.87C262.871 350.156 258.382 361.129 260.11 372.179C261.212 379.226 264.762 385.608 267.454 392.213C270.147 398.819 271.935 408.122 269.534 414.839C257.854 416.155 247.219 416.351 236.627 413.2C239.201 404.409 237.094 395 237.489 385.849Z" fill="#006C71"/>
<path d="M235.985 363.129C236.265 360.534 236.749 357.845 238.302 355.748C239.71 353.845 241.844 352.634 243.924 351.504C252.26 346.979 260.812 342.854 269.543 339.146C263.48 353.536 253.772 366.37 241.576 376.121C240.52 376.966 239.217 377.837 237.917 377.462C236.249 376.981 235.791 374.865 235.703 373.132C235.533 369.797 235.627 366.449 235.985 363.129Z" fill="#13263C"/>
<path d="M227.911 413.548C226.407 405.003 228.739 396.409 230.994 388.098C231.883 384.826 232.801 381.443 233.47 378.116C234.613 372.424 235.085 366.527 235.54 360.824C235.947 355.737 236.366 350.477 237.263 345.363C238.869 336.175 242.929 323.832 253.133 317.206L253.493 317.757C243.486 324.256 239.496 336.417 237.91 345.476C237.019 350.559 236.601 355.804 236.195 360.876C235.739 366.599 235.266 372.516 234.115 378.243C233.442 381.594 232.521 384.988 231.63 388.271C229.394 396.512 227.081 405.035 228.558 413.435L227.911 413.548Z" fill="#13263C"/>
<path d="M268.115 317.361C264.195 316.519 260.068 318.435 256.716 320.453C251.653 323.499 246.883 327.047 241.991 330.406C237.101 333.763 231.697 336.655 225.906 336.955C217.735 327.792 212.665 325.471 204.677 316.709C203.8 315.431 203.165 313.923 202.643 312.424C201.815 310.05 201.165 307.561 199.833 305.471C199.574 305.063 199.263 304.653 198.825 304.505C198.453 304.38 198.05 304.468 197.66 304.45C196.752 304.408 195.96 303.805 195.226 303.225C192.479 301.053 189.732 298.882 186.985 296.711C185.856 298.945 188.029 300.053 191.663 303.546C190.89 303.46 189.487 304.758 189.501 305.596C189.514 306.435 189.788 307.297 189.545 308.093C189.339 308.76 188.784 309.421 189.049 310.063C189.195 310.421 189.562 310.626 189.722 310.976C189.942 311.463 189.703 312.034 189.678 312.574C189.638 313.476 190.204 314.263 190.74 314.96C191.561 316.026 192.408 317.115 193.532 317.79C194.343 318.277 195.263 318.523 196.077 319.002C197.542 319.862 198.217 320.784 199.026 322.39C199.173 322.694 199.988 324.358 200.095 324.594C200.099 324.59 208.091 340.368 216.503 351.546C217.641 353.057 219.478 353.843 221.366 353.707C235.274 352.695 248.904 348.356 261.534 341.96C264.486 340.465 267.42 338.836 269.889 336.538C272.732 333.892 275.122 330.399 274.852 326.15C274.589 322.029 271.942 318.183 268.115 317.361Z" fill="#F89C7A"/>
<path d="M268.116 317.361C264.195 316.519 260.068 318.435 256.717 320.453C251.654 323.499 246.883 327.047 241.992 330.405C237.102 333.763 231.698 336.655 225.906 336.955C224.804 335.718 223.76 334.614 222.756 333.594C222.229 334.024 221.648 334.406 221.006 334.727C211.794 339.991 202.582 328.147 198.634 318.935C197.361 316.389 192.4 316.295 189.695 312.717C189.718 313.559 190.234 314.302 190.74 314.96C191.561 316.026 192.409 317.115 193.533 317.79C194.343 318.277 195.263 318.523 196.078 319.002C197.543 319.862 198.218 320.784 199.027 322.39C199.173 322.694 199.989 324.358 200.096 324.594C200.1 324.59 208.092 340.368 216.504 351.546C217.642 353.057 219.479 353.843 221.366 353.707C235.275 352.695 248.905 348.356 261.534 341.96C264.486 340.465 267.421 338.836 269.89 336.538C272.732 333.892 275.122 330.399 274.852 326.15C274.589 322.029 271.943 318.183 268.116 317.361Z" fill="#F17058"/>
<path d="M264.319 316.064C260.886 316.465 257.995 318.701 255.164 320.684C248.253 325.527 240.605 329.313 232.564 331.874C230.724 332.46 228.829 332.998 227.236 334.086C225.641 335.176 224.368 336.951 224.444 338.881C224.513 340.61 225.631 342.207 225.508 343.934C225.373 345.82 223.835 347.244 222.615 348.689C221.395 350.134 220.403 352.252 221.435 353.837C222.074 354.817 223.284 355.231 224.405 355.565C226.146 356.085 227.92 356.583 229.464 357.539C231.009 358.494 232.321 359.992 232.596 361.787C232.769 362.912 232.529 364.054 232.506 365.193C232.485 366.33 232.752 367.585 233.662 368.268C234.213 368.681 234.928 368.824 235.616 368.817C239.028 368.781 241.413 365.614 243.696 363.078C251.304 354.624 262.953 350.664 270.532 342.184C273.111 339.299 275.183 335.875 276.018 332.097C276.854 328.318 276.361 324.164 274.214 320.944C272.068 317.723 268.163 315.614 264.319 316.064Z" fill="#50C4C0"/>
<path d="M226.126 335.881L225.57 335.529C226.923 333.401 229.377 331.915 232.866 331.114C233.968 330.858 235.098 330.678 236.192 330.503C237.845 330.238 239.555 329.965 241.157 329.436C244.702 328.267 247.78 325.831 250.387 323.639L251.36 322.817C253.843 320.711 256.412 318.534 259.376 317.053C263.197 315.141 267.202 314.789 270.363 316.082L270.113 316.691C267.13 315.47 263.322 315.816 259.669 317.642C256.777 319.088 254.239 321.238 251.785 323.319L250.811 324.143C248.157 326.375 245.019 328.855 241.364 330.061C239.711 330.606 237.975 330.883 236.296 331.153C235.213 331.325 234.093 331.506 233.014 331.753C229.699 332.516 227.382 333.905 226.126 335.881Z" fill="#13263C"/>
<path d="M238.876 338.442C235.874 339.979 232.507 340.797 229.134 340.806C228.173 340.807 227.085 340.795 226.423 341.491C226.972 343.169 226.727 345.088 225.775 346.575C227.202 344.783 229.587 344.148 231.703 343.272C234.383 342.161 236.838 340.508 238.876 338.442Z" fill="#006C71"/>
<path d="M253.601 342.661C247.171 348.748 240.304 354.37 233.069 359.471C230.81 357.12 227.724 355.581 224.488 355.191C229.826 354.871 235.01 353.179 239.829 350.861C244.648 348.545 249.14 345.609 253.601 342.661Z" fill="#006C71"/>
<path d="M238.379 366.794C242.004 364.502 244.783 360.942 247.982 358.086C251.385 355.049 255.211 352.938 259.141 350.622C263.07 348.306 266.883 345.184 268.245 340.831C265.539 345.287 261.104 348.411 256.547 350.943C251.988 353.475 247.158 355.563 242.933 358.618C239.706 360.95 236.888 363.806 234.277 366.811C234.704 367.439 235.53 367.704 236.286 367.631C237.041 367.559 237.738 367.2 238.379 366.794Z" fill="#006C71"/>
<path d="M237.499 291.49C237.79 291.58 238.086 291.681 238.316 291.88C238.546 292.08 238.695 292.401 238.605 292.693C238.517 292.984 238.133 293.171 237.884 292.996C237.159 292.442 236.51 291.789 235.959 291.061C236.475 291.197 236.989 291.332 237.499 291.49Z" fill="#F17058"/>
<path d="M429.464 316.014C430.014 319.389 429.108 322.996 427.042 325.649C425.745 332.011 420.637 337.333 414.559 338.653C408.845 336.204 404.946 329.73 405.291 323.27C405.637 316.81 410.203 310.834 416.141 309.069C419.436 308.09 423.353 308.49 425.735 311.068L429.464 316.014Z" fill="#F89C7A"/>
<path d="M419.959 308.591C418.674 308.535 417.365 308.706 416.141 309.069C410.203 310.834 405.637 316.81 405.291 323.27C404.946 329.73 408.845 336.204 414.559 338.653C415.138 338.526 415.707 338.354 416.266 338.157C414.182 327.951 413.989 316.832 419.959 308.591Z" fill="#F17058"/>
<path d="M392.204 342.85C391.562 342.124 392.164 341.011 392.743 340.235C397.422 333.959 400.804 327.052 401.959 319.309C406.722 321.3 411.448 322.166 416.55 322.946C414.405 331.421 412.912 340.061 412.091 348.764C405.809 346.967 399.526 345.17 393.242 343.373C392.865 343.265 392.464 343.143 392.204 342.85Z" fill="#F89C7A"/>
<path d="M433.56 315.291C436.369 314.413 438.589 311.878 439.089 308.977C437.222 310.001 434.972 310.302 432.9 309.806C433.496 309.83 434.098 309.569 434.487 309.118C432.026 308.963 429.767 307.708 427.79 306.235C425.815 304.761 424.023 303.038 421.942 301.714C419.863 300.391 417.385 299.476 414.95 299.868C414.653 299.916 414.366 300.007 414.079 300.091C412.664 299.927 411.238 299.976 409.854 300.334C405.146 301.552 401.807 306.042 400.748 310.79C399.688 315.537 399.157 321.113 400.437 325.806C405.229 328.081 412.251 327.906 417.337 326.4C418.044 326.19 418.734 325.93 419.414 325.647C419.722 324.719 419.825 323.728 419.984 322.76C420.169 321.628 420.481 320.459 421.267 319.625C422.054 318.79 423.436 318.422 424.373 319.083C424.986 319.514 425.285 320.288 425.323 321.037C425.34 321.376 425.307 321.713 425.252 322.049C426.251 321.193 427.184 320.262 428.017 319.243C431.454 319.522 435.016 317.84 436.888 314.929C435.814 315.252 434.68 315.375 433.56 315.291Z" fill="#2F2C6D"/>
<path d="M423.174 322.927C423.345 322.679 423.624 322.535 423.85 322.336C424.338 321.908 424.567 321.175 424.325 320.572C424.084 319.97 423.342 319.591 422.735 319.825C422.148 320.051 421.851 320.732 421.831 321.361C421.81 322.033 422.03 322.687 422.246 323.325C421.986 323.116 421.584 323.111 421.318 323.311C421.052 323.511 420.948 323.899 421.076 324.206C421.167 324.422 421.351 324.582 421.497 324.766C421.642 324.951 421.755 325.198 421.668 325.415C421.615 325.549 421.497 325.646 421.431 325.773C421.365 325.901 421.385 326.1 421.523 326.136C421.61 326.161 421.7 326.107 421.772 326.054C422.377 325.599 422.792 324.899 422.897 324.151C422.956 323.731 422.931 323.273 423.174 322.927Z" fill="#F17058"/>
<path d="M420.828 306.669C421.403 307 421.326 307.882 421.757 308.386C422.257 308.97 423.169 308.822 423.938 308.83C425.347 308.844 426.672 309.573 427.69 310.548C428.708 311.522 429.462 312.733 430.206 313.929C430.701 313.149 431.194 312.368 431.688 311.587C426.653 308.656 421.618 305.725 416.584 302.794C416.834 304.034 417.085 305.275 417.335 306.516C417.381 306.741 417.433 306.978 417.584 307.152C417.971 307.595 418.697 307.356 419.198 307.045C419.698 306.735 420.319 306.374 420.828 306.669Z" fill="#186EBC"/>
<path d="M363.586 576.13C362.422 575.458 360.525 575.229 359.185 575.102C357.847 574.976 356.728 574.562 355.561 573.893C354.394 573.226 353.504 571.873 353.811 570.564C350.327 570.261 347.775 569.175 344.709 567.495C344.717 570 343.094 572.24 342.406 574.65C342.243 575.222 342.24 575.937 342.294 576.617C341.978 578.244 342.072 579.952 342.607 581.521C345.463 583.154 348.856 583.825 352.117 583.402C352.191 582.866 352.329 582.342 352.5 581.829C354.255 581.405 355.521 581.168 357.13 581.437C358.856 581.723 359.472 582.044 360.584 581.93C361.543 581.83 362.043 581.368 362.928 580.984C363.812 580.598 364.879 579.576 365.107 578.64C365.427 577.333 364.75 576.804 363.586 576.13Z" fill="#13263C"/>
<path d="M353.176 572.784C350.627 571.584 348.052 570.374 345.301 569.766C344.958 570.311 344.609 570.865 344.439 571.486C344.271 572.107 344.302 572.817 344.679 573.339C345.042 573.847 345.662 574.101 346.266 574.259C348.629 574.874 351.269 574.31 353.176 572.784Z" fill="#EBECEE"/>
<path d="M348.786 541.951C347.525 545.17 345.81 556.701 344.128 560.842C342.827 564.044 341.542 565.743 343.481 568.606C345.419 571.468 351.524 574.583 354.673 573.156C363.456 550.469 373.851 528.415 382.034 505.506C390.218 482.596 396.201 458.551 395.701 434.229C382.538 430.054 369.377 425.88 356.214 421.706C343.869 451.205 352.022 459.976 353.185 481.569C354.348 503.162 356.672 521.815 348.786 541.951Z" fill="#186EBC"/>
<path d="M395.7 434.229C386.046 431.166 376.391 428.105 366.737 425.043C353.594 454.442 365.666 487.265 363.133 517.651C361.368 537.076 356.699 555.446 349.965 573C351.703 573.565 353.421 573.724 354.672 573.156C363.455 550.469 373.85 528.415 382.033 505.506C390.217 482.596 396.2 458.551 395.7 434.229Z" fill="#1D5FA4"/>
<path d="M365.778 424.739C375.752 427.903 385.726 431.065 395.7 434.229C396.2 458.551 390.217 482.596 382.033 505.506C376.693 520.458 370.413 535.046 364.25 549.684C365.275 544.284 365.784 538.801 366.64 533.669C374.556 496.071 346.567 460.363 365.778 424.739Z" fill="#13263C"/>
<path d="M404.201 589.759C403.572 588.298 401.965 587.476 400.393 587.239C398.82 587.002 397.22 587.231 395.629 587.246C389.367 587.306 383.25 584.07 377.065 585.046C377.048 587.715 376.639 590.393 376.936 593.046C376.99 593.532 377.085 594.019 377.199 594.501C377.252 595.857 377.48 597.208 377.715 598.547C377.839 599.247 377.973 599.974 378.388 600.551C378.919 601.292 379.821 601.666 380.701 601.904C384.077 602.816 387.839 602.178 390.725 600.204C391.07 599.968 391.413 599.702 391.603 599.332C391.74 599.067 391.782 598.775 391.796 598.473C392.736 598.086 393.681 597.714 394.659 597.435C396.917 596.793 397.864 596.559 399.94 595.46C402.015 594.361 405.13 591.916 404.201 589.759Z" fill="#13263C"/>
<path d="M392.114 588.687C392.622 588.507 393.209 588.92 393.329 589.446C393.449 589.972 393.186 590.527 392.786 590.889C392.386 591.25 391.868 591.45 391.354 591.61C389.098 592.317 386.703 592.438 384.34 592.413C382.925 592.397 381.48 592.325 380.163 591.806C378.847 591.288 377.662 590.245 377.32 588.872C376.978 587.499 377.71 585.844 379.07 585.457L392.114 588.687Z" fill="#EBECEE"/>
<path d="M358.609 427.133L359.395 418.254C371.605 423.839 385.601 429.869 398.873 431.902C398.873 460.921 401.665 485.655 400.8 512.278C399.998 537.013 395.68 563.666 392.086 589.669C386.18 591.119 382.038 591.508 376.636 587.613C376.345 565.629 375.052 548.549 376.345 538.845C377.634 529.186 373.017 505.32 370.135 495.889C361.12 466.388 352.495 461.902 358.609 427.133Z" fill="#186EBC"/>
<path d="M385.506 508.439C383.088 481.847 370.696 453.037 377.867 426.083C371.484 423.694 365.234 420.925 359.395 418.255L358.609 427.133C352.495 461.902 361.12 466.388 370.135 495.889C373.017 505.32 377.634 529.186 376.345 538.845C375.052 548.549 376.345 565.629 376.636 587.613C379.173 589.44 381.432 590.317 383.725 590.592C385.943 563.315 387.631 536.067 385.506 508.439Z" fill="#1D5FA4"/>
<path d="M389.016 588.934C398.834 539.944 395.45 488.779 390.88 440.774L391.882 440.631C395.572 489.439 399.369 539.795 389.739 588.677C389.375 588.752 389.38 588.856 389.016 588.934Z" fill="#17B4E7"/>
<path d="M383.316 340.304C378.81 339.5 374.375 342.951 372.671 347.199C370.965 351.447 371.409 356.239 372.272 360.733C374.667 373.206 380.08 384.998 387.287 395.455C390.138 399.59 393.303 403.565 397.189 406.744C407.004 414.773 420.222 416.909 432.767 418.758C433.997 416.056 435.229 413.354 436.46 410.651C422.286 403.055 410.581 390.938 403.478 376.51C398.531 366.461 395.822 355.486 393.146 344.609L383.316 340.304Z" fill="#13263C"/>
<path d="M451.98 431.878H426.768L437.088 389.815H462.3L451.98 431.878Z" fill="#13263C"/>
<path d="M450.816 425.298H429.547L438.254 389.815H459.521L450.816 425.298Z" fill="white"/>
<path d="M438.254 389.815L430.221 422.556C437.044 414.558 444.859 408.564 454.972 408.359L459.521 389.815H438.254Z" fill="#C6D8E0"/>
<path d="M385.146 339.748C387.996 337.983 390.293 335.343 391.648 332.277C401.875 332.869 411.595 339.116 416.382 348.174C412.168 346.578 407.953 344.983 403.739 343.387C398.43 341.377 392.964 339.337 387.288 339.421L385.146 339.748Z" fill="#2F2C6D"/>
<path d="M403.618 450.264C403.985 446.096 402.253 436.954 402.987 422.941C403.319 411.646 403.838 415.882 404.093 412.396C404.717 403.87 407.476 401.031 411.697 393.596C414.91 387.934 419.833 378.37 423.183 372.787C426.532 367.203 428.273 359.872 424.921 354.291C422.854 350.847 419.223 348.682 415.649 346.849C410.374 344.142 404.892 341.842 399.267 339.97C392.965 337.875 385.535 336.471 380.081 340.264C376.444 342.793 372.115 347.606 369.839 351.406C357.366 372.224 359.036 379.8 352.585 415.769C352.054 418.725 342.417 439.161 340.955 445.659C344.091 446.887 347.285 447.914 350.53 448.749C352.036 440.101 354.326 431.739 357.595 424.111C357.595 433.847 354.83 440.602 355.394 449.852C370.845 452.944 387.272 452.249 403.618 450.264Z" fill="#2F2C6D"/>
<path d="M388.129 340.419C395.194 340.939 402.193 342.369 408.895 344.664C403.01 340.727 395.998 338.494 388.921 338.303C388.38 338.287 387.806 338.294 387.344 338.574C386.882 338.854 386.607 339.512 386.917 339.956C387.173 340.323 387.681 340.386 388.129 340.419Z" fill="#282A65"/>
<path d="M384.47 339.157C380.203 340.507 376.486 343.518 374.277 347.411C377.674 344.659 381.072 341.909 384.47 339.157Z" fill="#1D5FA4"/>
<path d="M418.325 352.377C416.447 354.963 414.567 357.549 412.689 360.137C413.386 356.92 415.482 354.034 418.325 352.377Z" fill="#1D5FA4"/>
<path d="M395.189 451.156C397.997 450.905 400.808 450.605 403.618 450.264C403.985 446.096 402.253 436.954 402.988 422.941C403.319 411.646 403.838 415.882 404.093 412.396C404.717 403.87 407.477 401.031 411.697 393.596C414.911 387.934 419.834 378.37 423.183 372.787C426.293 367.605 428.009 360.916 425.558 355.519C391.267 373.749 391.66 414.075 395.189 451.156Z" fill="#282A65"/>
<path d="M440.65 357.133C442.62 356.041 444.729 355.196 446.91 354.626C445.843 352.447 445.348 349.99 445.487 347.567C445.566 346.179 445.781 344.58 444.807 343.588C444.261 343.031 443.462 342.819 442.705 342.63C440.956 342.193 439.207 341.756 437.458 341.32C435.727 340.887 435.215 341.43 434.28 339.908C433.913 339.311 432.337 337.505 431.89 336.963C431.443 336.421 430.251 334.069 429.099 335.138C428.571 335.627 429.773 337.959 430.057 338.62C430.784 340.31 431.511 341.998 432.238 343.688C432.82 345.038 433.191 345.955 432.101 346.941C431.713 347.292 430.81 347.309 430.373 347.599C429.937 347.889 430.077 349.423 430.251 349.916C430.359 350.224 430.647 350.427 430.918 350.609C434.162 352.784 437.406 354.958 440.65 357.133Z" fill="#F89C7A"/>
<path d="M448.7 354.869C448.017 353.596 447.333 352.322 446.65 351.05C443.686 350.957 440.703 352.066 438.517 354.07C438.165 354.391 437.811 354.794 437.835 355.27C437.848 355.517 437.964 355.745 438.079 355.965C438.963 357.677 439.847 359.389 440.733 361.101C443.272 358.443 445.631 357.035 449.234 356.306L448.7 354.869Z" fill="#97A9DD"/>
<path d="M459.665 406.169C461.987 405.342 463.532 403.088 464.331 400.755C465.832 396.371 465.205 391.511 463.75 387.112C462.295 382.713 460.054 378.62 458.255 374.351C455.804 368.535 454.165 362.379 451.32 356.748C450.709 355.537 450.034 354.19 448.793 353.643C447.232 352.955 445.303 353.774 443.373 354.02C442.03 354.192 440.835 355.574 439.504 356.169C438.621 356.564 438.173 357.553 438.407 358.49C440.468 366.731 442.182 374.697 443.18 383.189C443.71 387.684 444.107 392.264 445.736 396.488C447.365 400.711 450.458 404.624 454.756 406.044C456.339 406.568 458.093 406.728 459.665 406.169Z" fill="#2F2C6D"/>
<path d="M439.504 356.169C438.621 356.564 438.173 357.553 438.407 358.49C440.468 366.731 442.182 374.697 443.18 383.189C443.71 387.684 444.107 392.264 445.736 396.488C447.365 400.711 450.458 404.624 454.756 406.044C454.832 406.069 454.913 406.082 454.989 406.106C453.889 388.325 448.964 370.754 441.984 354.576C441.163 355.078 440.362 355.786 439.504 356.169Z" fill="#282A65"/>
<path d="M411.111 368.342C412.042 362.317 415.503 356.724 420.48 353.205C421.518 352.471 422.745 351.798 423.997 352.017C425.015 352.194 425.833 352.926 426.578 353.641C436.024 362.708 443.126 373.993 452.609 383.023C455.202 385.495 457.984 387.807 460.153 390.659C462.322 393.512 463.856 397.046 463.485 400.61C463.114 404.174 460.432 407.622 456.874 408.049C454.139 408.377 451.508 406.97 449.242 405.404C445.213 402.617 441.673 399.194 437.967 395.988C431.946 390.78 425.453 386.118 418.593 382.08C416.446 380.816 414.195 379.552 412.739 377.53C410.873 374.942 410.624 371.496 411.111 368.342Z" fill="#2F2C6D"/>
<path d="M454.99 385.009C458.788 388.281 461.011 393.305 460.879 398.316C461.706 395.791 461.564 392.962 460.488 390.532C459.413 388.103 457.414 386.095 454.99 385.009Z" fill="#1D5FA4"/>
<path d="M453.938 404.475C442.882 387.891 423.47 381.522 411.302 367.426C411.241 367.731 411.159 368.033 411.111 368.342C410.624 371.496 410.873 374.94 412.739 377.53C414.195 379.551 416.446 380.816 418.593 382.08C425.453 386.118 431.946 390.78 437.967 395.988C441.673 399.194 445.213 402.617 449.242 405.404C451.301 406.827 453.661 408.102 456.126 408.082C455.385 406.916 454.648 405.721 453.938 404.475Z" fill="#282A65"/>
<path d="M358.307 418.959C359.315 395.084 366.058 371.471 377.811 350.665C365.438 371.175 358.632 395.008 358.307 418.959Z" fill="#282A65"/>
<path d="M613.739 572.327C611.939 576.225 614.669 579.7 614.681 583.221C618.536 583.432 621.484 583.312 625.338 583.524C625.338 582.687 625.338 581.851 625.337 581.014C632.572 584.166 640.837 584.795 648.45 582.775C648.685 580.909 647.244 579.182 645.563 578.412C643.881 577.642 641.987 577.579 640.158 577.353C637.372 577.007 634.59 576.229 632.233 574.675C629.874 573.121 627.97 570.724 627.371 567.924C623.855 568.263 620.34 568.603 616.824 568.944C615.906 569.032 614.893 569.17 614.3 569.889C613.76 570.541 614.097 571.552 613.739 572.327Z" fill="#13263C"/>
<path d="M617.647 574.075C620.433 574.868 623.373 575.089 626.243 574.721C626.691 574.663 627.2 574.549 627.416 574.143C627.577 573.838 627.517 573.464 627.451 573.122C627.222 571.941 626.995 570.759 626.767 569.578C622.777 570.178 618.826 571.065 614.957 572.228C615.406 573.275 616.57 573.768 617.647 574.075Z" fill="white"/>
<path d="M573.785 392.409C573.533 405.012 576.806 417.147 579.207 428.612C589.55 477.984 600.644 524.576 612.056 574.626C616.242 573.185 624.94 571.653 629.126 570.212C625.828 509.621 618.787 451.98 608.584 392.409H573.785Z" fill="#2F2C6D"/>
<path d="M573.785 392.409C573.533 405.012 576.806 417.147 579.207 428.612C589.55 477.984 600.644 524.576 612.056 574.626C614.277 573.861 617.769 573.072 621.182 572.282C611.906 510.674 594.897 451.513 574.945 392.409H573.785Z" fill="#282A65"/>
<path d="M615.586 573.362C613.748 564.367 612.015 556.67 610.295 548.178C601.96 507.043 595.091 471.707 584.66 429.04L585.118 428.657C595.554 471.34 602.753 506.873 611.088 548.018C612.809 556.508 614.186 564.148 616.024 573.142L615.586 573.362Z" fill="#7593D2"/>
<path d="M560.527 590.821C561.829 589.942 561.879 588.045 561.787 586.454C561.659 584.241 561.531 582.026 561.405 579.813C561.364 579.119 561.304 578.37 560.858 577.845C560.271 577.154 559.255 577.108 558.359 577.115C554.087 577.144 549.814 577.174 545.542 577.204C543.29 582.923 541.039 588.644 538.788 594.365C538.342 595.498 537.93 596.905 538.698 597.843C539.277 598.551 541.395 599.322 542.297 599.371C546.159 599.58 545.837 599.543 549.703 599.474C550.981 599.451 555.39 597.588 556.082 596.49C557.078 594.91 555.866 593.598 557.125 592.228C557.974 591.305 559.494 591.518 560.527 590.821Z" fill="#13263C"/>
<path d="M548.331 583.404C549.476 583.484 550.619 583.566 551.764 583.646C553.378 583.761 555.027 583.871 556.59 583.447C558.154 583.022 559.645 581.957 560.158 580.392C556.361 579.024 552.272 578.512 548.265 578.903C547.499 578.977 546.714 579.092 546.052 579.493C545.391 579.893 544.878 580.644 544.967 581.423C545.05 582.139 545.617 582.718 546.262 583.009C546.907 583.3 547.627 583.354 548.331 583.404Z" fill="white"/>
<path d="M552.35 392.409L551.902 396.798C547.933 434.008 544.567 458.417 544.343 489.091C544.12 519.765 545.442 550.57 542.047 581.021C549.126 580.294 556.294 580.617 563.292 581.978C568.194 524.098 578.637 474.294 587.738 420.883C589.09 412.953 588.407 402.68 587.387 392.409H552.35Z" fill="#2F2C6D"/>
<path d="M559.876 441.323C568.188 418.762 578.958 439.02 586.046 392.409H552.35L551.902 396.798C547.933 434.008 544.567 458.417 544.343 489.091C544.12 519.765 545.442 550.57 542.047 581.021C543.87 580.834 545.699 580.719 547.528 580.671C547.187 540.04 545.584 479.432 559.876 441.323Z" fill="#282A65"/>
<path d="M559.767 580.49L559.229 580.239C563.484 527.363 572.562 480.165 584.883 425.567L585.429 425.86C573.116 480.426 564.02 527.662 559.767 580.49Z" fill="#7593D2"/>
<path d="M578.305 404.354C578.267 403.163 578.348 401.806 578.24 400.534C570.654 400.834 563.073 401.335 555.516 402.071C554.859 404.195 554.201 406.319 553.543 408.444C561.761 407.111 570.052 406.233 578.367 405.796C578.347 405.316 578.321 404.836 578.305 404.354Z" fill="white"/>
<path d="M579.83 400.473C579.926 401.771 579.858 403.121 579.9 404.354C579.916 404.811 579.941 405.265 579.959 405.721C580.792 405.683 581.624 405.644 582.456 405.615C582.445 403.869 582.471 402.122 582.498 400.373C581.608 400.4 580.72 400.442 579.83 400.473Z" fill="white"/>
<path d="M599.252 405.649C602.477 405.766 605.7 405.943 608.918 406.199C608.583 404.279 608.25 402.36 607.917 400.44C605.001 400.339 602.084 400.286 599.166 400.253C599.207 402.055 599.192 403.855 599.252 405.649Z" fill="white"/>
<path d="M597.663 405.596C597.608 403.816 597.615 402.03 597.572 400.24C596.552 400.234 595.534 400.217 594.514 400.215C594.916 401.951 594.931 403.734 594.903 405.527C595.823 405.544 596.743 405.57 597.663 405.596Z" fill="white"/>
<path d="M592.908 400.221C589.971 400.232 587.034 400.264 584.097 400.338C584.07 402.08 584.043 403.821 584.053 405.562C587.175 405.474 590.297 405.47 593.419 405.508C593.453 403.7 593.406 401.906 592.908 400.221Z" fill="#50C4C0"/>
<path d="M573.673 318.343C573.857 318.798 573.752 319.313 573.644 319.792C573.058 322.383 572.474 324.976 571.888 327.567C567.349 324.158 567.199 317.182 563.262 313.092C566.267 314.467 569.274 315.841 572.28 317.217C572.837 317.472 573.444 317.776 573.673 318.343Z" fill="#2F2C6D"/>
<path d="M596.75 311.085C580.779 304.613 565.974 304.007 548.672 305.831C544.356 306.286 539.672 307.214 536.961 310.38C533.811 314.059 534.461 319.348 535.432 323.97C540.862 349.815 551.308 375.173 550.354 401.495C569.952 398.483 589.926 397.612 609.739 398.903C605.06 377.113 604.193 357.348 608.115 335.429C609.027 330.332 608.367 323.152 605.015 319.039C603.195 316.806 599.507 312.203 596.75 311.085Z" fill="#EBECEE"/>
<path d="M576.086 289.054C571.026 289.95 563.059 290.398 558.001 289.492C559.421 296.638 560.218 299.764 557.746 306.619C589.517 314.883 580.735 313.075 581.326 311.063C576.945 304.682 576.922 296.75 576.086 289.054Z" fill="#F89C7A"/>
<path d="M581.325 311.063C576.944 304.682 576.921 296.75 576.085 289.054C571.643 289.84 564.965 290.281 559.979 289.763C561.091 296.064 562.825 302.276 564.777 308.456C588.108 314.578 580.783 312.909 581.325 311.063Z" fill="#F17058"/>
<path d="M578.464 305.066C576.868 300.028 576.676 294.484 576.086 289.054C571.753 289.821 565.294 290.257 560.35 289.799C561.158 299.426 569.517 304.328 578.464 305.066Z" fill="#2F2C6D"/>
<path d="M571.163 267.867C568.445 266.653 565.354 266.583 562.491 267.393C559.307 268.293 555.362 269.304 553.218 272.157C551.154 274.903 551.251 278.766 552.351 282.02C554.406 288.1 558.828 293.319 564.715 295.875C570.746 298.494 574.956 298.256 579.922 297.355C581.482 297.074 582.571 295.655 582.431 294.076C582.091 290.296 581.917 286.689 580.609 283.264C580.17 282.112 579.025 281.262 578.687 280.168C578.323 278.993 578.848 277.933 578.405 276.746C576.905 272.721 574.964 269.562 571.163 267.867Z" fill="#F89C7A"/>
<path d="M568.422 297.184C572.609 298.337 576.04 298.058 579.921 297.355C581.481 297.074 582.57 295.655 582.429 294.076C582.375 293.484 582.325 292.897 582.275 292.314C578.15 296.613 573.375 297.721 568.422 297.184Z" fill="#F17058"/>
<path d="M561.851 276.823C566.621 276.603 567.937 276.494 571.885 275.178C574.242 274.849 575.718 273.935 576.601 272.874C575.304 270.685 573.613 268.947 571.118 267.845C567.639 266.31 563.592 266.99 559.962 268.127C557.421 268.925 554.817 270.027 553.218 272.157C551.154 274.903 551.251 278.766 552.351 282.02C554.056 287.064 557.409 291.493 561.859 294.323C561.909 288.476 558.561 282.47 561.851 276.823Z" fill="#F17058"/>
<path d="M579.302 259.468C578.495 261.139 577.104 262.522 575.428 263.318C576.085 262.6 576.474 261.643 576.51 260.671C574.901 262.889 572.166 264.023 569.468 264.499C566.77 264.974 564.004 264.898 561.287 265.257C558.571 265.615 555.784 266.49 553.905 268.482C551.817 270.695 548.821 273.704 549.808 277.073C548.65 278.641 548.055 280.586 548.458 282.475C548.976 284.909 550.946 286.756 552.986 288.182C555.026 289.606 557.278 290.815 558.878 292.721C559.428 290.994 559.611 289.179 559.666 287.339C560.398 287.903 561.087 288.522 561.769 289.148C562.259 289.246 562.717 288.771 562.776 288.275C562.835 287.779 562.265 286.023 562.013 285.593C561.344 284.452 560.795 284.725 560.144 283.574C559.956 283.241 559.794 282.886 559.661 282.522C559.653 280.19 559.749 277.897 560.411 275.769C560.639 275.74 560.864 275.705 561.094 275.682C564.722 275.334 568.454 275.273 571.851 273.946C575.246 272.619 578.311 269.634 578.426 265.99C577.837 266.508 577.249 267.027 576.662 267.544C578.286 265.177 579.214 262.337 579.302 259.468Z" fill="#2F2C6D"/>
<path d="M563.044 288.816C562.941 288.005 558.95 285.612 558.173 285.862C557.395 286.113 556.893 286.918 556.801 287.73C556.708 288.541 556.958 289.353 557.29 290.1C557.743 291.122 558.353 292.072 559.094 292.909C559.651 293.536 560.314 294.119 561.126 294.333C561.938 294.545 562.92 294.289 563.336 293.56L563.044 288.816Z" fill="#F89C7A"/>
<path d="M608.114 335.429C609.026 330.332 608.366 323.152 605.014 319.039C603.194 316.806 599.506 312.203 596.749 311.085C593.828 309.902 590.948 308.919 588.084 308.107C598.77 336.978 596.31 367.952 597.464 398.386C601.56 398.468 605.653 398.637 609.737 398.903C605.059 377.113 604.192 357.348 608.114 335.429Z" fill="#2F2C6D"/>
<path d="M590.02 398.739C589.913 398.739 589.81 398.684 589.755 398.584C589.672 398.437 589.725 398.252 589.871 398.17L594.599 395.522C594.241 395.084 593.649 394.825 593.096 394.871C592.923 394.888 592.788 394.766 592.77 394.604C592.75 394.442 592.863 394.293 593.024 394.268C594.324 394.066 595.14 392.646 595.249 391.414C595.359 390.178 594.978 388.924 594.611 387.712L594.493 387.32C592.236 379.761 592.036 371.782 591.841 364.066C591.703 358.535 591.03 352.188 590.381 346.049C589.73 339.899 589.058 333.539 588.918 327.984C588.914 327.816 589.046 327.677 589.213 327.672C589.217 327.672 589.219 327.672 589.221 327.672C589.385 327.672 589.521 327.804 589.525 327.968C589.663 333.499 590.335 339.846 590.985 345.986C591.636 352.137 592.308 358.496 592.449 364.052C592.641 371.727 592.841 379.665 595.074 387.146L595.191 387.536C595.576 388.803 595.973 390.114 595.855 391.467C595.755 392.605 595.164 393.83 594.175 394.464C594.648 394.674 595.056 395.03 595.301 395.482C595.381 395.628 595.328 395.811 595.184 395.892L590.168 398.701C590.121 398.727 590.07 398.739 590.02 398.739Z" fill="#2F2C6D"/>
<path d="M587.663 317.961C586.752 319.355 586.864 322.332 585.381 323.087C588.73 342.397 589.076 358.668 585.728 377.976C589.521 380.97 592.461 382.352 595.01 384.164C595.309 379.074 597.129 378.675 597.105 376.18C597.084 373.889 596.418 370.745 595.808 365.701C593.911 350.019 592.308 333.06 587.663 317.961Z" fill="#2F2C6D"/>
<path d="M553.758 303.026C553.031 303.079 552.164 305.357 551.428 305.421C549.997 305.546 550.138 305.729 548.671 305.895C544.355 306.382 539.671 307.376 536.96 310.769C533.81 314.714 534.886 320.317 535.431 325.335C539.225 360.263 555.445 373.912 547.137 427.32C553.691 426.241 562.31 424.332 570.083 423.148C574.973 422.403 578.493 418.079 578.216 413.14C576.773 387.601 575.872 351.637 572.727 328.574C571.315 317.98 562.65 308.356 553.758 303.026Z" fill="#7593D2"/>
<path d="M552.068 403.236C559.142 402.218 565.634 397.735 569.09 391.48C563.752 395.851 557.901 399.549 552.068 403.236Z" fill="#C6D8E0"/>
<path d="M534.967 321.154C535.098 322.561 535.284 323.969 535.431 325.335C536.237 332.748 537.603 339.2 539.174 345.28C546.198 361.518 560.239 373.732 576.658 380.889C576.169 370.621 575.619 360.173 574.901 350.463C557.741 344.933 542.097 336.746 534.967 321.154Z" fill="#2F2C6D"/>
<path d="M575.918 420.044C575.756 420.044 575.622 419.917 575.614 419.753C574.522 393.83 570.358 368.034 563.241 343.083C563.216 343 563.229 342.911 563.274 342.838C563.32 342.765 563.394 342.715 563.477 342.7C565.577 342.311 567.617 341.511 569.428 340.372L563.775 339.643C563.691 339.632 563.616 339.586 563.567 339.517C563.519 339.448 563.5 339.361 563.517 339.279C566.176 326.744 561.093 313.262 550.869 305.727C550.734 305.628 550.706 305.438 550.806 305.303C550.905 305.169 551.094 305.138 551.23 305.238C561.554 312.847 566.73 326.411 564.178 339.082L570.313 339.874C570.437 339.89 570.54 339.981 570.57 340.103C570.599 340.224 570.551 340.352 570.449 340.424C568.498 341.786 566.247 342.754 563.915 343.233C570.992 368.133 575.131 393.866 576.222 419.728C576.229 419.895 576.098 420.037 575.931 420.044C575.927 420.044 575.922 420.044 575.918 420.044Z" fill="#2F2C6D"/>
<path d="M547.445 426.868C547.336 426.868 547.231 426.81 547.177 426.706C547.098 426.559 547.153 426.376 547.302 426.296C551.18 424.232 555.662 423.818 559.997 423.418C560.651 423.357 561.305 423.297 561.955 423.231C566.681 422.753 571.988 421.787 575.526 418.254C575.646 418.134 575.838 418.135 575.956 418.254C576.075 418.372 576.073 418.564 575.955 418.684C572.283 422.352 566.848 423.347 562.017 423.835C561.364 423.901 560.709 423.963 560.052 424.023C555.778 424.418 551.358 424.826 547.587 426.833C547.542 426.858 547.492 426.868 547.445 426.868Z" fill="#2F2C6D"/>
<path d="M552.231 402.227C552.13 402.227 552.03 402.176 551.973 402.084C551.885 401.941 551.929 401.754 552.072 401.666C557.773 398.152 563.42 394.391 568.858 390.486C568.993 390.389 569.184 390.418 569.281 390.556C569.38 390.691 569.348 390.881 569.212 390.98C563.763 394.892 558.105 398.661 552.391 402.183C552.342 402.213 552.287 402.227 552.231 402.227Z" fill="#2F2C6D"/>
<path d="M598.958 312.396C607.513 319.681 607.055 325.481 611.466 335.816C614.347 342.563 617.502 352.22 618.386 359.502C619.135 365.661 617.642 373.358 616.524 379.462C614.094 392.704 614.125 404.316 610.402 417.254C606.756 412.861 602.879 409.916 602.386 404.229C602.187 401.933 602.552 399.628 602.952 397.358C604.344 389.474 606.198 381.547 605.639 373.56C605.085 365.656 602.195 358.134 600.294 350.442C597.537 339.295 596.851 327.755 596.176 316.293L598.958 312.396Z" fill="#97A9DD"/>
<path d="M597.041 329.095C597.649 336.288 598.562 343.443 600.294 350.442C602.196 358.134 605.086 365.656 605.64 373.56C606.199 381.547 604.345 389.474 602.953 397.358C602.552 399.628 602.188 401.933 602.387 404.229C602.88 409.916 606.757 412.861 610.402 417.254C610.667 416.336 610.908 415.427 611.135 414.522C611.743 384.679 612.89 354.915 597.041 329.095Z" fill="#2F2C6D"/>
<path d="M585.36 356.066C586.434 349.557 584.265 347.773 580.24 342.547C576.214 337.321 572.459 337.657 567.173 333.711C560.461 328.703 553.717 316.516 547.005 311.508C545.401 310.309 543.731 309.081 541.776 308.651C537.933 307.805 533.936 310.431 532.202 313.963C530.468 317.496 530.596 321.669 531.388 325.523C533.21 334.38 538.303 342.328 544.712 348.708C551.12 355.088 558.816 360.022 566.698 364.456C571.103 366.932 576.374 369.32 581.019 367.328C584.588 365.798 584.728 359.898 585.36 356.066Z" fill="#97A9DD"/>
<path d="M534.259 328.362C533.081 322.232 535.241 315.565 539.79 311.292C538.392 310.527 536.676 311.537 535.595 312.705C533.678 314.775 532.478 317.494 532.239 320.304C531.998 323.113 532.722 325.997 534.259 328.362Z" fill="#C6D8E0"/>
<path d="M543.856 314.652C544.237 313.963 543.756 312.964 542.981 312.833C542.313 312.718 541.607 313.258 541.54 313.932C541.474 314.607 542.063 315.273 542.739 315.291C543.191 315.303 543.639 315.046 543.856 314.652Z" fill="#C6D8E0"/>
<path d="M565.995 334.123C563.467 338.649 562.649 344.102 563.74 349.17C564.829 354.237 567.817 358.873 571.982 361.959C568.856 354.147 568.725 345.182 571.617 337.282C569.743 336.229 567.869 335.176 565.995 334.123Z" fill="#2F2C6D"/>
<path d="M579.125 294.958C580.294 294.396 581.607 294.226 582.893 294.064C584.628 293.847 586.404 293.631 588.106 294.029C589.955 294.462 591.189 295.641 592.822 296.209C593.501 296.446 593.879 297.167 593.654 297.85C593.404 298.61 593.175 299.319 592.874 300.199C592.699 300.711 592.926 301.634 592.408 301.785C591.867 301.943 591.297 301.506 591.101 300.977C590.906 300.448 590.986 299.864 591.068 299.306C589.846 300.536 588.387 301.532 586.798 302.227C586.457 303.983 586.431 305.8 586.719 307.565C583.912 307.294 581.116 306.894 578.346 306.366C577.663 306.237 576.896 306.04 576.559 305.432C576.368 305.086 576.358 304.672 576.353 304.276C576.324 302.148 576.924 300.407 576.895 298.279C577.469 297.009 577.87 295.564 579.125 294.958Z" fill="#F89C7A"/>
<path d="M576.647 301.107C576.496 302.131 576.337 303.15 576.353 304.276C576.358 304.672 576.368 305.086 576.559 305.432C576.896 306.04 577.663 306.237 578.346 306.366C581.117 306.894 583.912 307.294 586.719 307.565C586.521 306.354 586.483 305.119 586.582 303.895C583.27 303.355 579.958 302.427 576.647 301.107Z" fill="#F17058"/>
<path d="M579.613 368.698C582.302 368.04 584.306 365.673 585.274 363.08C586.243 360.488 586.346 357.665 586.437 354.899C586.948 339.371 588.192 321.59 588.705 306.062C585.298 305.001 577.317 304.572 573.911 303.512C572.125 320.857 565.777 338.887 568.172 356.235C568.609 359.397 569.372 362.625 571.288 365.178C573.203 367.731 576.513 369.456 579.613 368.698Z" fill="#97A9DD"/>
<path d="M573.725 313.867C571.637 321.758 569.543 329.675 568.489 337.768C567.436 345.862 567.448 354.187 569.537 362.078C568.725 345.917 570.138 329.646 573.725 313.867Z" fill="#C6D8E0"/>
<path d="M588.356 311.166C583.241 311.166 578.21 310.277 573.401 308.526C573.243 308.469 573.163 308.294 573.219 308.136C573.277 307.978 573.454 307.898 573.609 307.955C578.35 309.682 583.312 310.558 588.356 310.558C588.431 310.558 588.526 310.552 588.577 310.558C588.744 310.558 588.88 310.692 588.881 310.859C588.881 311.027 588.747 311.164 588.578 311.164C588.505 311.166 588.431 311.166 588.356 311.166Z" fill="#2F2C6D"/>
<path d="M609.388 421.079C610.754 421.296 612.104 421.492 613.402 421.583C608.723 398.232 604.192 361.105 608.114 337.615C609.026 332.152 609.222 324.186 605.869 319.779C604.049 317.386 600.036 312.182 597.279 310.984C594.5 309.777 590.595 308.64 587.867 307.795C590.231 311.455 593.082 316.086 593.648 320.05C598.246 345.334 598.208 385.087 601.335 412.657C601.823 416.957 605.113 420.401 609.388 421.079Z" fill="#7593D2"/>
<path d="M604.856 418.167C604.7 418.167 604.569 418.05 604.554 417.893C602.632 398.428 601.704 365.253 603.361 346.544L599.181 347.224C599.036 347.249 598.903 347.17 598.849 347.038C598.797 346.908 598.842 346.757 598.957 346.677L604.092 343.084C601.629 331.362 597.353 320.156 591.38 309.776C591.297 309.631 591.347 309.446 591.492 309.361C591.638 309.278 591.823 309.328 591.908 309.473C597.945 319.968 602.259 331.3 604.728 343.156C604.753 343.275 604.704 343.397 604.604 343.467L600.396 346.411L603.649 345.882C603.744 345.865 603.836 345.896 603.906 345.959C603.974 346.024 604.01 346.116 604 346.209C602.299 364.808 603.225 398.26 605.158 417.833C605.174 418 605.053 418.148 604.886 418.166C604.875 418.167 604.865 418.167 604.856 418.167Z" fill="#2F2C6D"/>
<path d="M612.271 420.513C609.359 420.513 606.487 419.586 604.125 417.871C603.99 417.772 603.959 417.581 604.058 417.446C604.157 417.31 604.346 417.281 604.483 417.379C606.89 419.126 609.845 420.02 612.825 419.893C613.006 419.903 613.134 420.017 613.141 420.184C613.148 420.353 613.017 420.494 612.85 420.501C612.657 420.509 612.463 420.513 612.271 420.513Z" fill="#2F2C6D"/>
<path d="M608.598 397.124C608.529 397.124 608.461 397.102 608.406 397.056L605.654 394.808C605.525 394.701 605.505 394.509 605.612 394.38C605.718 394.25 605.91 394.231 606.038 394.337L608.79 396.586C608.919 396.691 608.939 396.883 608.832 397.012C608.773 397.086 608.686 397.124 608.598 397.124Z" fill="#2F2C6D"/>
<path d="M557.983 287.439C558.967 287.716 559.875 288.257 560.588 288.988C560.687 289.088 560.786 289.2 560.809 289.34C560.856 289.609 560.609 289.829 560.482 290.071C560.24 290.531 560.494 291.178 560.983 291.349C561.237 291.439 561.608 291.503 561.596 291.772C561.59 291.923 561.448 292.026 561.337 292.128C560.998 292.445 560.873 292.974 561.034 293.41C560.484 293.055 559.92 292.686 559.554 292.144C559.187 291.602 559.07 290.836 559.447 290.303C559.5 290.228 559.563 290.131 559.512 290.057C559.475 290.003 559.401 289.996 559.338 289.991C558.767 289.944 558.231 289.59 557.964 289.084C557.696 288.579 557.702 287.938 557.983 287.439Z" fill="#F17058"/>
</g>
<defs>
<clipPath id="clip0_61_4615">
<rect width="987" height="658" fill="white"/>
</clipPath>
</defs>
</svg>
