<svg width="1438" height="557" viewBox="0 0 1438 557" fill="none" xmlns="http://www.w3.org/2000/svg">
<g clip-path="url(#clip0_81_2475)">
<path d="M937.5 421.275C905.919 421.275 880.226 447.169 880.226 479C880.226 510.83 905.919 536.725 937.5 536.725C969.081 536.725 994.774 510.83 994.774 479C994.774 447.169 969.081 421.275 937.5 421.275ZM937.5 543C902.487 543 874 514.289 874 479C874 443.71 902.487 415 937.5 415C972.514 415 1001 443.71 1001 479C1001 514.289 972.514 543 937.5 543Z" fill="#DCDCDB"/>
<path d="M1469 287.253C1446.1 287.253 1424.57 296.172 1408.37 312.367C1392.18 328.563 1383.25 350.095 1383.25 373C1383.25 395.904 1392.18 417.437 1408.37 433.633C1424.57 449.828 1446.1 458.748 1469 458.748C1491.91 458.748 1513.43 449.828 1529.63 433.633C1545.82 417.437 1554.75 395.904 1554.75 373C1554.75 350.095 1545.82 328.563 1529.63 312.367C1513.43 296.172 1491.91 287.253 1469 287.253ZM1469 465C1444.43 465 1421.32 455.43 1403.94 438.054C1386.57 420.677 1377 397.574 1377 373C1377 348.426 1386.57 325.322 1403.94 307.946C1421.32 290.57 1444.43 281 1469 281C1493.57 281 1516.68 290.57 1534.06 307.946C1551.43 325.322 1561 348.426 1561 373C1561 397.574 1551.43 420.677 1534.06 438.054C1516.68 455.43 1493.57 465 1469 465Z" fill="#DCDCDB"/>
<path d="M567.415 411L564 408.867L602.585 348L606 350.133L567.415 411Z" fill="#595A5C"/>
<path d="M173.846 411L171 408.044L195.154 385L198 387.956L173.846 411Z" fill="#595A5C"/>
<path d="M233.991 358.754L230.893 357.239L233.902 351L237 352.514L233.991 358.754ZM229.478 368.114L226.378 366.598L229.388 360.359L232.486 361.874L229.478 368.114ZM224.963 377.472L221.866 375.958L224.874 369.718L227.973 371.233L224.963 377.472ZM220.449 386.832L217.351 385.317L220.361 379.077L223.459 380.593L220.449 386.832ZM215.936 396.191L212.838 394.676L215.846 388.437L218.945 389.951L215.936 396.191ZM214.099 400L211 398.485L211.332 397.796L214.432 399.311L214.099 400Z" fill="#595A5C"/>
<path d="M167.462 407L121 361.415L123.538 359L170 404.585L167.462 407Z" fill="#595A5C"/>
<path d="M-32.9866 471L-33 467.293L63.9855 467L64 470.707L-32.9866 471Z" fill="#595A5C"/>
<path d="M260.679 464L187 458.056L187.321 454L261 459.943L260.679 464Z" fill="#595A5C"/>
<path d="M229.239 179.728L226.323 177.843L230.084 172L233 173.884L229.239 179.728ZM223.597 188.494L220.681 186.609L224.442 180.766L227.358 182.649L223.597 188.494ZM139.928 194.843L134.33 190.732L136.381 187.928L141.979 192.039L139.928 194.843ZM217.955 197.259L215.039 195.375L218.8 189.532L221.716 191.416L217.955 197.259ZM132.301 198.011L129.131 196.6L131.948 190.245L135.119 191.656L132.301 198.011ZM148.325 201.009L142.727 196.898L144.778 194.093L150.376 198.204L148.325 201.009ZM212.313 206.025L209.397 204.141L213.158 198.297L216.074 200.181L212.313 206.025ZM156.722 207.174L151.123 203.063L153.175 200.259L158.773 204.37L156.722 207.174ZM128.075 207.544L124.904 206.133L127.721 199.777L130.892 201.189L128.075 207.544ZM165.118 213.339L159.521 209.228L161.571 206.424L167.169 210.534L165.118 213.339ZM206.671 214.791L203.755 212.907L207.516 207.063L210.432 208.947L206.671 214.791ZM123.848 217.076L120.678 215.665L123.495 209.31L126.667 210.721L123.848 217.076ZM173.515 219.504L167.917 215.395L169.968 212.589L175.567 216.699L173.515 219.504ZM201.029 223.557L198.113 221.672L201.875 215.828L204.791 217.713L201.029 223.557ZM181.912 225.67L176.314 221.559L178.366 218.755L183.963 222.866L181.912 225.67ZM119.623 226.608L116.452 225.197L119.269 218.842L122.44 220.254L119.623 226.608ZM190.309 231.835L184.711 227.724L186.762 224.92L192.36 229.031L190.309 231.835ZM195.387 232.323L192.471 230.438L196.233 224.594L199.149 226.478L195.387 232.323ZM115.396 236.141L112.225 234.729L115.043 228.374L118.214 229.786L115.396 236.141ZM111.171 245.673L107.999 244.261L110.816 237.907L113.988 239.318L111.171 245.673ZM106.945 255.205L103.773 253.794L106.591 247.439L109.762 248.851L106.945 255.205ZM102.718 264.737L99.547 263.326L102.364 256.971L105.535 258.383L102.718 264.737ZM98.4926 274.269L95.3204 272.858L98.1385 266.503L101.31 267.915L98.4926 274.269ZM7.43924 283.681L4.26808 282.269L6.16022 278.003L8.22124 277.037L10.4156 277.664L9.46381 281.008L8.71923 280.794L7.43924 283.681ZM94.2659 283.802L91.0948 282.391L93.9119 276.036L97.083 277.447L94.2659 283.802ZM19.4753 283.866L12.8019 281.96L13.7528 278.617L20.4271 280.522L19.4753 283.866ZM29.4877 286.724L22.8125 284.819L23.7643 281.475L30.4386 283.38L29.4877 286.724ZM39.4992 289.582L32.8249 287.678L33.7758 284.334L40.4501 286.239L39.4992 289.582ZM49.5107 292.441L42.8364 290.536L43.7873 287.192L50.4616 289.098L49.5107 292.441ZM3.21262 293.212L0.0414505 291.801L2.85952 285.446L6.03069 286.858L3.21262 293.212ZM90.0393 293.335L86.8691 291.923L89.6862 285.569L92.8574 286.979L90.0393 293.335ZM59.5222 295.3L52.8479 293.394L53.7988 290.05L60.4731 291.956L59.5222 295.3ZM69.5337 298.158L62.8594 296.252L63.8102 292.909L70.4846 294.814L69.5337 298.158ZM79.5452 301.017L72.8709 299.111L73.8217 295.768L80.4961 297.673L79.5452 301.017ZM84.3878 302.399L82.8823 301.97L83.4187 300.084L83.2777 300.022L83.72 299.024L83.8332 298.626L83.8898 298.641L85.4596 295.101L88.6307 296.512L86.4488 301.433L84.3878 302.399ZM-1.01401 302.744L-4.18517 301.333L-1.3671 294.979L1.80406 296.391L-1.01401 302.744ZM-5.24062 312.277L-8.4118 310.865L-5.59373 304.511L-2.42255 305.922L-5.24062 312.277ZM-9.46821 321.809L-12.6384 320.397L-9.82132 314.043L-6.65014 315.454L-9.46821 321.809ZM-13.6948 331.341L-16.866 329.928L-14.0479 323.574L-10.8768 324.986L-13.6948 331.341ZM-17.9215 340.873L-21.0928 339.46L-18.2746 333.106L-15.1034 334.518L-17.9215 340.873ZM-22.1483 350.405L-25.3199 348.993L-22.5018 342.638L-19.33 344.05L-22.1483 350.405ZM-26.3754 359.937L-29.5463 358.525L-26.7289 352.17L-23.5572 353.582L-26.3754 359.937ZM-30.6025 369.469L-33.7734 368.057L-30.9555 361.702L-27.7843 363.113L-30.6025 369.469ZM-34.8291 379L-38 377.589L-35.1822 371.234L-32.011 372.645L-34.8291 379Z" fill="#595A5C"/>
<path d="M118 276C118 324.049 79.0497 363 31.0007 363C-17.0483 363 -56 324.049 -56 276C-56 227.951 -17.0483 189 31.0007 189C79.0497 189 118 227.951 118 276Z" fill="#E5E6E7"/>
<path d="M1221 19H901V-140H1221V19Z" fill="#E5E6E7"/>
<path d="M118.003 -60C105.059 -47.5198 97 -30.0506 97 -10.6947C97 4.09966 101.719 17.7921 109.718 29L166 -10.6947L118.003 -60Z" fill="#A6A7AA"/>
<path d="M319.996 54.3326C319.989 51.6881 319.798 49.0888 319.466 46.5365C319.338 45.5681 319.189 44.6064 319.016 43.6544C318.646 41.5935 318.172 39.5683 317.599 37.5873C317.353 36.7333 317.089 35.89 316.806 35.0524C316.188 33.2185 315.485 31.4259 314.701 29.6776C314.361 28.9141 314.008 28.1621 313.637 27.4168C312.818 25.7714 311.929 24.1683 310.97 22.6114C310.549 21.9286 310.122 21.2496 309.676 20.5851C308.567 18.9436 307.382 17.3558 306.125 15.8345C305.627 15.2315 305.117 14.6354 304.594 14.0487C303.421 12.7361 302.188 11.4792 300.905 10.2713C300.337 9.73663 299.754 9.21257 299.164 8.69904C297.829 7.53639 296.446 6.43338 295.011 5.39286C294.371 4.92358 293.724 4.46773 293.064 4.02729C291.562 3.02043 290.015 2.07605 288.422 1.21152C287.705 0.820122 286.976 0.444138 286.241 0.0806274C284.361 -0.84449 282.427 -1.67252 280.442 -2.39762C279.628 -2.69477 278.809 -2.98032 277.979 -3.24189C276.049 -3.85255 274.079 -4.36708 272.072 -4.78252C271.146 -4.97196 270.213 -5.1412 269.273 -5.28833C267.05 -5.63453 264.785 -5.84607 262.491 -5.93839C261.692 -5.9682 260.893 -5.99999 260.086 -5.99999C259.439 -5.99999 258.919 -5.47205 258.919 -4.82196V-2.33122V5.16879V8.50182V16.0018V19.3359V27.6716V31.0037V38.5056V41.8388V49.3378V52.6728V53.8951L254.767 56.8628L243.433 64.9735L217.925 83.2296L211.492 87.836C211.24 88.0149 211.068 88.2899 211.016 88.5967C210.965 88.9054 211.037 89.2237 211.215 89.4785C211.288 89.5805 211.368 89.6775 211.44 89.7775C212.476 91.2306 213.581 92.6193 214.728 93.9618C215.239 94.5571 215.751 95.1494 216.285 95.7235C217.483 97.0198 218.736 98.2556 220.035 99.4327C220.617 99.9616 221.207 100.475 221.805 100.979C223.32 102.249 224.879 103.46 226.503 104.57C227.164 105.022 227.845 105.441 228.524 105.865C230.071 106.835 231.655 107.736 233.28 108.563C234.019 108.933 234.759 109.301 235.512 109.643C237.252 110.436 239.038 111.129 240.85 111.753C241.68 112.036 242.511 112.309 243.353 112.555C245.32 113.139 247.314 113.636 249.341 114.013C250.289 114.187 251.246 114.325 252.203 114.452C254.747 114.796 257.323 114.986 259.921 114.994L260.086 115C261.167 115 262.239 114.966 263.306 114.91C266.197 114.755 269.033 114.387 271.804 113.83C273.274 113.533 274.722 113.175 276.15 112.774C280.521 111.544 284.7 109.839 288.611 107.693C292.588 105.508 296.287 102.87 299.657 99.8692C301.554 98.1806 303.343 96.3746 305.014 94.4599C307.99 91.0547 310.601 87.3224 312.763 83.3017C314.891 79.3551 316.577 75.1353 317.795 70.7232C318.193 69.2779 318.549 67.8161 318.842 66.3294C319.392 63.5357 319.756 60.6701 319.911 57.7514C319.968 56.6724 320 55.5905 320 54.4991L319.996 54.3326Z" fill="#DCDCDB"/>
<path d="M332.065 248.489C315.179 240.817 307.692 220.854 315.375 203.99C323.057 187.126 343.044 179.648 359.931 187.32C376.819 194.994 384.306 214.955 376.623 231.82C368.941 248.683 348.953 256.163 332.065 248.489ZM397.259 253.586L408.656 258.763L417.625 239.072L406.23 233.892C406.23 233.892 402.903 230.842 402.473 222.829C402.613 221.222 402.687 219.615 402.687 218.012C403.525 209.465 407.274 206.471 407.274 206.471L419 202.086L411.4 181.826L399.674 186.212C399.674 186.212 394.68 186.423 388.241 180.154C387.787 179.646 387.324 179.144 386.852 178.652C380.736 171.639 381.307 166.522 381.307 166.522L386.492 155.139L366.773 146.18L361.589 157.562C361.589 157.562 358.102 161.355 348.789 161.357C348.091 161.324 347.394 161.307 346.696 161.299L346.684 161.298C346.492 161.295 346.298 161.291 346.106 161.292C337.549 160.454 334.551 156.71 334.551 156.71L330.159 145L309.874 152.588L314.266 164.298C314.266 164.298 314.476 169.286 308.201 175.716C307.691 176.172 307.187 176.635 306.692 177.11C299.671 183.215 294.549 182.643 294.549 182.643L283.152 177.465L274.181 197.158L285.578 202.335C285.578 202.335 289.374 205.818 289.378 215.116C289.346 215.814 289.327 216.513 289.318 217.211V217.222C289.316 217.414 289.312 217.607 289.312 217.799C288.473 226.344 284.725 229.338 284.725 229.338L273 233.723L280.599 253.983L292.324 249.597C292.324 249.597 297.316 249.387 303.754 255.651C304.684 256.692 305.656 257.699 306.666 258.675C311.613 264.999 311.112 269.478 311.112 269.478L305.926 280.861L325.644 289.819L330.829 278.438C330.829 278.438 334.835 274.076 345.734 274.702L345.69 274.655C354.723 275.367 357.867 279.291 357.867 279.291L362.258 291L382.544 283.41L378.153 271.702C378.153 271.702 377.897 265.788 386.047 258.533L385.816 258.527C392.476 253.051 397.259 253.586 397.259 253.586Z" fill="#A5A7A9"/>
<path d="M416.269 157.497C409.32 151.043 408.928 140.15 415.397 133.214C421.865 126.28 432.781 125.889 439.73 132.344C446.68 138.799 447.071 149.691 440.604 156.626C434.135 163.561 423.219 163.952 416.269 157.497ZM447.083 170.522L451.774 174.878L459.326 166.78L454.636 162.425C454.636 162.425 453.517 160.406 454.61 156.45C454.939 155.694 455.235 154.926 455.496 154.149C457.29 150.14 459.598 149.295 459.598 149.295L466 149.067L465.603 138.01L459.199 138.24C459.199 138.24 456.742 137.533 454.634 133.451C454.497 133.131 454.354 132.813 454.204 132.497C452.374 128.106 453.483 125.718 453.483 125.718L457.848 121.037L449.733 113.499L445.369 118.18C445.369 118.18 443.06 119.455 438.54 117.949C438.206 117.82 437.871 117.698 437.533 117.581L437.528 117.579C437.434 117.547 437.342 117.514 437.248 117.483C433.231 115.691 432.384 113.39 432.384 113.39L432.155 107L421.077 107.397L421.306 113.786C421.306 113.786 420.598 116.24 416.508 118.341C416.186 118.48 415.866 118.623 415.549 118.774C411.15 120.597 408.757 119.491 408.757 119.491L404.066 115.136L396.514 123.233L401.204 127.589C401.204 127.589 402.482 129.892 400.973 134.402C400.843 134.735 400.72 135.071 400.602 135.408L400.601 135.414C400.57 135.506 400.536 135.599 400.504 135.693C398.709 139.7 396.403 140.545 396.403 140.545L390 140.775L390.397 151.829L396.801 151.601C396.801 151.601 399.258 152.307 401.365 156.387C401.647 157.043 401.955 157.688 402.286 158.325C403.661 162.192 402.689 164.284 402.689 164.284L398.325 168.964L406.439 176.5L410.805 171.821C410.805 171.821 413.457 170.354 418.645 172.422L418.632 172.391C422.899 174.199 423.789 176.611 423.789 176.611L424.018 183L435.097 182.603L434.867 176.215C434.867 176.215 435.703 173.305 440.838 171.106L440.727 171.066C444.848 169.489 447.083 170.522 447.083 170.522Z" fill="#4674B7"/>
<path d="M1371 218H1025V-7H1371V218Z" fill="#A6A7AA"/>
<path d="M1341 187H1055V23H1341V187Z" fill="white"/>
<path d="M1214.34 172L1193.83 52.0122L1167.35 107.989H1106V103.177H1164.25L1196.03 36L1215.38 149.164L1231.39 88.9307H1290V93.7431H1235.15L1214.34 172Z" fill="#50C4C0"/>
<path d="M1249 248H1147V218H1249V248Z" fill="#595A5C"/>
<path d="M1279 263H1116V248H1279V263Z" fill="#A6A7AA"/>
<path d="M1045.74 200.253H1351.27V11.7463H1045.74V200.253ZM1353 202H1044V10H1353V202Z" fill="#E6E6E6"/>
<path d="M118.375 521.999H118.278V499.171C92.6766 499.171 71.9225 478.5 71.9225 453C71.9225 427.502 92.6766 406.83 118.278 406.83V384.001C153.55 384.001 182.665 410.255 187 444.213C182.665 410.255 153.55 384 118.278 384C80.0165 384 49 414.893 49 453C49 491.108 80.0165 522 118.278 522C138.604 522 156.887 513.281 169.559 499.394C156.907 513.259 138.663 521.971 118.375 521.999Z" fill="#4674B7"/>
<path d="M118 384V406.83C143.869 406.83 164.839 427.502 164.839 453C164.839 478.5 143.869 499.171 118 499.171V522H118.098C138.597 521.972 157.031 513.26 169.815 499.395C170.192 498.986 170.564 498.574 170.931 498.156C181.565 486.054 188 470.268 188 453C188 450.024 187.809 447.09 187.438 444.213C183.058 410.254 153.64 384 118 384Z" fill="#2C436D"/>
<path d="M267.885 463.999C267.885 456.161 274.275 449.807 282.158 449.807C290.043 449.807 296.432 456.161 296.432 463.999C296.432 471.839 290.043 478.193 282.158 478.193C274.275 478.193 267.885 471.839 267.885 463.999ZM301 463.999C301 453.654 292.565 445.265 282.159 445.265V436H282.158C266.607 436 254 448.536 254 463.999C254 479.464 266.607 492 282.158 492H282.159V482.736C292.565 482.736 301 474.348 301 463.999Z" fill="#4674B7"/>
<path d="M310.612 459.437C310.393 458.152 310.091 456.894 309.696 455.674L309.687 455.644C309.406 454.778 309.084 453.93 308.722 453.101C308.635 452.903 308.538 452.709 308.446 452.512C308.345 452.295 308.247 452.075 308.14 451.861C303.458 442.477 293.512 436 282 436V436.001V445.266C292.717 445.266 301.404 453.654 301.404 463.999C301.404 474.347 292.717 482.736 282 482.736V491.999V492C292.171 492 301.113 486.941 306.289 479.29C308.5 476.023 310.03 472.286 310.666 468.264C310.887 466.873 311 465.45 311 463.999C311 463.034 310.95 462.079 310.851 461.138C310.791 460.564 310.706 459.998 310.612 459.437Z" fill="#2C436D"/>
<path d="M244.5 358C255.821 358 265 348.598 265 337.001C265 325.402 255.821 316 244.5 316C233.178 316 224 325.402 224 337.001C224 348.598 233.178 358 244.5 358Z" fill="#50C4C0"/>
<path d="M556 402C538.879 402 525 415.879 525 432.999C525 450.12 538.879 464 556 464C573.121 464 587 450.12 587 432.999C587 415.879 573.121 402 556 402Z" fill="#A6A7AA"/>
<path d="M137 363.501C137 357.149 132.075 352 126 352C119.925 352 115 357.149 115 363.501C115 369.852 119.925 375 126 375C132.075 375 137 369.852 137 363.501Z" fill="#A6A7AA"/>
<path d="M198.001 370C190.821 370 185 375.82 185 383C185 390.18 190.821 396 198.001 396C205.18 396 211 390.18 211 383C211 375.82 205.18 370 198.001 370Z" fill="#A6A7AA"/>
<path d="M542 94H517V44H542V94Z" fill="#4F4F50"/>
<path d="M524.127 15.1826H501.375V0.167768H524.127V15.1826Z" fill="#DCDCDB"/>
<path d="M511 94H487V44H511V94Z" fill="#4F4F50"/>
<path d="M600 94H577V78H600V94Z" fill="#4F4F50"/>
<path d="M573 94H549V65H573V94Z" fill="#4F4F50"/>
<path d="M3.52173 269.482C-1.45905 271.125 -4.16238 276.497 -2.51899 281.477C-0.873692 286.458 4.49668 289.164 9.47745 287.518C14.4592 285.874 17.1635 280.503 15.5182 275.522C13.8738 270.541 8.50345 267.837 3.52173 269.482Z" fill="#A6A7AA"/>
<path d="M81.5214 291.481C76.5417 293.126 73.8365 298.497 75.4817 303.478C77.1261 308.459 82.4973 311.163 87.478 309.519C92.4587 307.873 95.1629 302.502 93.5186 297.522C91.8734 292.541 86.5031 289.837 81.5214 291.481Z" fill="#A6A7AA"/>
<path d="M131.522 180.456C126.541 182.014 123.837 187.103 125.481 191.822C127.125 196.539 132.497 199.102 137.478 197.544C142.459 195.987 145.163 190.897 143.519 186.178C141.873 181.46 136.503 178.898 131.522 180.456Z" fill="#50C4C0"/>
<path d="M190.208 221.481C184.703 223.126 181.714 228.497 183.533 233.478C185.35 238.459 191.286 241.164 196.791 239.518C202.297 237.874 205.285 232.503 203.468 227.522C201.651 222.541 195.715 219.837 190.208 221.481Z" fill="#A6A7AA"/>
<path d="M240.519 170.522C238.874 165.542 233.503 162.836 228.522 164.482C223.542 166.126 220.838 171.497 222.481 176.478C224.127 181.459 229.498 184.163 234.478 182.519C239.459 180.873 242.162 175.502 240.519 170.522Z" fill="#A6A7AA"/>
<path d="M421.188 440C409.667 440 403.562 440 400.325 440C396.675 440 396.675 440 396.675 440C393.438 440 387.333 440 375.812 440C351.3 440 351.821 443.146 353.907 454.679C355.994 466.213 383.636 481.001 383.636 481.001L395.214 494L413.364 481.001C413.364 481.001 441.007 466.213 443.093 454.679C445.179 443.146 445.7 440 421.188 440Z" fill="#A6A7AA"/>
<path d="M375.914 440.4C362.53 440.4 356.746 441.369 354.575 443.973C352.752 446.16 353.369 449.565 354.305 454.717C356.342 465.925 383.522 480.524 383.797 480.67L383.852 480.713L395.258 493.465L413.181 480.684C413.477 480.524 440.659 465.924 442.695 454.717C443.63 449.565 444.248 446.16 442.425 443.973C440.253 441.369 434.47 440.4 421.085 440.4H375.914ZM395.199 494L383.576 481.006C383.061 480.729 376.39 477.119 369.568 472.251C360.05 465.458 354.783 459.583 353.912 454.788C352.955 449.525 352.325 446.048 354.267 443.716C356.555 440.972 362.22 440 375.914 440H421.085C434.779 440 440.444 440.972 442.732 443.716C444.676 446.048 444.044 449.525 443.088 454.788C442.217 459.583 436.95 465.458 427.432 472.251C420.364 477.294 413.46 480.987 413.391 481.024L395.199 494Z" fill="white"/>
<path d="M572 502.618C572 529.891 546.704 552 515.5 552C484.296 552 459 529.891 459 502.618C459 475.344 484.296 438 515.5 438C546.704 438 572 475.344 572 502.618Z" fill="#A6A7AA"/>
<path d="M515.5 444.385C508.149 444.385 493.725 446.969 479.721 464.272C470.261 475.961 464.385 490.81 464.385 503.026C464.385 527.061 487.315 546.614 515.5 546.614C543.685 546.614 566.614 527.061 566.614 503.026C566.614 490.81 560.738 475.961 551.279 464.272C537.275 446.969 522.851 444.385 515.5 444.385ZM515.5 557C499.211 557 483.863 551.475 472.284 541.444C460.493 531.229 454 517.584 454 503.026C454 488.323 460.598 471.393 471.649 457.739C477.403 450.627 483.911 444.955 490.992 440.877C498.916 436.314 507.162 434 515.5 434C523.838 434 532.083 436.314 540.009 440.877C547.088 444.955 553.596 450.627 559.351 457.739C570.402 471.393 577 488.323 577 503.026C577 517.584 570.506 531.229 558.716 541.444C547.136 551.475 531.789 557 515.5 557Z" fill="white"/>
<path d="M521.265 512.415C520.728 512.602 520.131 512.755 519.484 512.879V500.916C521.227 501.422 522.594 501.974 523.575 502.573C525.052 503.497 525.792 504.802 525.792 506.489C525.792 509.377 524.283 511.352 521.265 512.415ZM507.087 487.324C505.442 486.424 504.621 485.061 504.621 483.234C504.621 481.248 505.454 479.7 507.122 478.592C508.069 477.961 509.205 477.517 510.516 477.244V488.589C508.9 488.126 507.755 487.704 507.087 487.324ZM531.47 495.261C529.525 493.713 526.605 492.477 522.708 491.552L519.484 490.785V477.915C519.703 478.008 519.917 478.105 520.124 478.21C522.66 479.504 524.024 481.688 524.211 484.759H534.385C534.198 479.33 532.198 475.19 528.383 472.336C525.784 470.394 522.817 469.113 519.484 468.493V461H510.516V468.28C506.005 468.799 502.441 470.235 499.835 472.596C496.495 475.623 494.825 479.423 494.825 483.997C494.825 489.011 496.532 492.695 499.947 495.052C501.894 496.414 505.42 497.678 510.516 498.846V512.731C508.579 512.224 507.082 511.348 506.036 510.093C505.077 508.939 504.433 507.194 504.105 504.86H494C494 510.174 495.911 514.35 499.732 517.388C502.551 519.63 506.147 521.041 510.516 521.628V529H519.484V521.726C524.106 521.204 527.826 519.737 530.632 517.319C534.211 514.234 536 510.358 536 505.691C536 501.14 534.49 497.663 531.47 495.261Z" fill="white"/>
<path d="M1473.68 207.488C1472.73 207.822 1471.66 208.093 1470.5 208.313V187.027C1473.62 187.928 1476.06 188.91 1477.8 189.975C1480.45 191.619 1481.77 193.942 1481.77 196.943C1481.77 202.082 1479.08 205.597 1473.68 207.488ZM1448.37 162.842C1445.43 161.237 1443.96 158.812 1443.96 155.565C1443.96 152.029 1445.45 149.274 1448.43 147.301C1450.12 146.181 1452.15 145.388 1454.49 144.904V165.091C1451.6 164.267 1449.56 163.517 1448.37 162.842ZM1491.91 176.963C1488.44 174.209 1483.22 172.009 1476.26 170.364L1470.5 169V146.099C1470.9 146.262 1471.28 146.437 1471.64 146.622C1476.18 148.926 1478.61 152.811 1478.94 158.277H1497.11C1496.78 148.617 1493.21 141.247 1486.4 136.17C1481.75 132.713 1476.45 130.436 1470.5 129.333V116H1454.49V128.952C1446.43 129.876 1440.07 132.431 1435.41 136.633C1429.45 142.018 1426.48 148.78 1426.48 156.921C1426.48 165.842 1429.52 172.399 1435.61 176.593C1439.09 179.015 1445.39 181.264 1454.49 183.342V208.05C1451.03 207.149 1448.36 205.588 1446.49 203.356C1444.77 201.301 1443.62 198.197 1443.04 194.044H1425C1425 203.501 1428.41 210.932 1435.23 216.336C1440.27 220.325 1446.69 222.837 1454.49 223.883V237H1470.5V224.055C1478.76 223.126 1485.4 220.519 1490.41 216.213C1496.8 210.725 1500 203.829 1500 195.525C1500 187.426 1497.3 181.238 1491.91 176.963Z" fill="#A6A7AA"/>
<path d="M52.2891 91.2127C51.5109 97.445 49.3715 102.467 45.8699 106.275C42.3683 110.086 37.5055 111.989 31.2816 111.989C26.6977 111.989 22.8075 111.103 19.6099 109.327C16.4104 107.554 13.816 105.194 11.8285 102.25C11.4851 101.742 11.1638 101.219 10.8531 100.69H28.8824V85.4612H6.33179C6.24618 84.5317 6.1875 83.5945 6.15575 82.6505H28.8824V67.4225H7.9431C8.8512 64.3035 10.1431 61.4745 11.8285 58.945C13.816 55.9579 16.4104 53.5777 19.6099 51.8025C22.8075 50.0291 26.6977 49.1401 31.2816 49.1401C33.7875 49.1401 36.1867 49.5523 38.4781 50.374C40.7676 51.1975 42.8224 52.3447 44.6376 53.8146C46.4538 55.2884 47.9651 56.9963 49.1772 58.945C50.3864 60.8927 51.1646 63.0349 51.5109 65.3717H71.2227C70.6167 60.0055 69.1477 55.2432 66.813 51.0887C64.4793 46.9332 61.5174 43.4492 57.9302 40.6356C54.342 37.8229 50.2796 35.6806 45.74 34.2078C41.2014 32.7369 36.381 32 31.2816 32C24.1908 32 17.8149 33.2561 12.1527 35.7653C6.48956 38.2775 1.71432 41.7385 -2.17687 46.154C-6.06709 50.5686 -9.05017 55.7421 -11.1242 61.6719C-11.7783 63.5387 -12.3276 65.4565 -12.7759 67.4225H-25V82.6505H-14.2121C-14.1871 83.5964 -14.1419 84.5346 -14.0746 85.4612H-25V100.69H-10.8154C-8.75677 106.181 -5.87854 110.987 -2.17687 115.105C1.71432 119.435 6.48956 122.831 12.1527 125.298C17.8149 127.766 24.1908 129 31.2816 129C36.987 129 42.2163 128.133 46.9723 126.402C51.7264 124.672 55.8764 122.162 59.4212 118.872C62.9661 115.582 65.8184 111.6 67.9809 106.925C70.1405 102.25 71.4825 97.0134 72 91.2127H52.2891Z" fill="#A6A7AA"/>
<path d="M765.487 501.3C753.134 498.083 740.643 504.275 736 515.322C736.492 515.454 754.3 520.16 762.931 511.113C762.931 511.113 765.952 523.082 784.387 527.921C785.724 516.013 777.838 504.516 765.487 501.3Z" fill="#50C4C0"/>
<path d="M761.257 4H662V-140H781V-17.715L761.257 4Z" fill="#DCDCDB"/>
<path d="M781 -17H761V4L781 -17Z" fill="#A6A7AA"/>
<path d="M736.708 26.3708H685.875V1.36964H736.708V26.3708Z" fill="#4674B7"/>
<path d="M764.249 26.3708H741.23V1.36964H764.249V26.3708Z" fill="#50C4C0"/>
<path d="M1269 365H1235C1235.14 365.7 1235.22 366.43 1235.22 367.182C1235.22 367.805 1235.17 368.412 1235.07 369H1268.92C1268.81 368.414 1268.74 367.808 1268.74 367.182C1268.74 366.424 1268.84 365.694 1269 365Z" fill="#595A5C"/>
<path d="M1325 343H1306C1306.14 343.48 1306.22 343.981 1306.22 344.5C1306.22 345.019 1306.14 345.52 1306 346H1325C1324.86 345.52 1324.77 345.019 1324.77 344.5C1324.77 343.981 1324.86 343.48 1325 343Z" fill="#595A5C"/>
<path d="M1293.58 347L1279 360.684C1280.08 361.233 1280.99 362.034 1281.66 363L1296 349.545C1294.99 348.905 1294.16 348.028 1293.58 347Z" fill="#595A5C"/>
<path d="M1351 360.751L1337.55 348C1336.92 348.954 1336.04 349.747 1335 350.296L1348.39 363C1349.05 362.057 1349.94 361.282 1351 360.751Z" fill="#595A5C"/>
<path d="M1392 369.533L1387.55 365H1381.26C1381.09 365.552 1381 366.137 1381 366.744C1381 367.351 1381.09 367.937 1381.26 368.489H1386.13L1389.58 372C1390.61 371.442 1391.45 370.581 1392 369.533Z" fill="#595A5C"/>
<path d="M1380 365H1361C1361.15 365.64 1361.24 366.308 1361.24 366.999C1361.24 367.692 1361.15 368.36 1361 369H1380C1379.87 368.355 1379.8 367.686 1379.8 366.999C1379.8 366.313 1379.87 365.645 1380 365Z" fill="#595A5C"/>
<path d="M1227 369H1232.79C1232.92 368.419 1233 367.812 1233 367.182C1233 366.418 1232.89 365.687 1232.69 365H1227V369Z" fill="#595A5C"/>
<path d="M1462 403.614L1434.36 386C1433.82 387.247 1433.01 388.355 1432 389.251L1459.86 407C1460.27 405.694 1461.02 404.537 1462 403.614Z" fill="#595A5C"/>
<path d="M1183 385.487L1166.23 365C1165.72 366.117 1164.95 367.075 1164 367.783L1180.55 388C1181.15 386.959 1181.99 386.092 1183 385.487Z" fill="#595A5C"/>
<path d="M1152 360H1092.07C1092.19 360.445 1092.25 360.906 1092.25 361.382C1092.25 361.944 1092.16 362.485 1092 363H1151.67C1151.62 362.695 1151.58 362.384 1151.58 362.066C1151.58 361.338 1151.73 360.645 1152 360Z" fill="#595A5C"/>
<path d="M1416.7 381H1264.35C1264.41 381.438 1264.47 381.885 1264.47 382.344C1264.47 383.276 1264.3 384.167 1264 385H1417C1416.74 384.157 1416.6 383.267 1416.6 382.344C1416.6 381.887 1416.64 381.439 1416.7 381Z" fill="#595A5C"/>
<path d="M1432 384.69L1426.57 381H1419.14C1419.05 381.446 1419 381.907 1419 382.379C1419 383.345 1419.2 384.267 1419.53 385.106H1425.41L1429.67 388C1430.73 387.172 1431.56 386.025 1432 384.69Z" fill="#595A5C"/>
<path d="M1078.81 364L1051.78 390.233L1052.23 390.673L1049.74 393.13L1049.28 392.666L1022 419.154C1023.19 419.494 1024.26 420.138 1025.11 421L1081 366.73C1080.06 366.022 1079.29 365.087 1078.81 364Z" fill="#595A5C"/>
<path d="M1051 390.562L1050.59 390.126L1027.06 365C1026.6 366.066 1025.88 366.984 1025 367.67L1048.29 392.54L1048.72 393L1051 390.562Z" fill="#595A5C"/>
<path d="M1113.46 419L1134 397.728C1132.84 397.083 1131.85 396.142 1131.13 395L1111 415.86C1112.02 416.703 1112.87 417.774 1113.46 419Z" fill="#595A5C"/>
<path d="M1146 393H1177C1176.83 392.2 1176.73 391.365 1176.73 390.499C1176.73 389.635 1176.83 388.8 1177 388H1146C1146.17 388.8 1146.26 389.635 1146.26 390.499C1146.26 391.365 1146.17 392.2 1146 393Z" fill="#595A5C"/>
<path d="M1189 397.8L1210.11 418C1210.86 416.892 1211.84 415.947 1213 415.24L1191.84 395C1191.16 396.148 1190.17 397.111 1189 397.8Z" fill="#595A5C"/>
<path d="M1326.7 446L1343 429.75C1341.79 429.098 1340.77 428.147 1340.03 427L1324 442.978C1325.14 443.738 1326.07 444.78 1326.7 446Z" fill="#595A5C"/>
<path d="M1098.25 420.848C1098.09 421.45 1098 422.08 1098 422.735C1098 423.528 1098.13 424.288 1098.36 425H1106.6L1111 420.351C1110.54 418.994 1109.7 417.831 1108.61 417L1104.97 420.848H1098.25Z" fill="#595A5C"/>
<path d="M1227 425H1248C1247.84 424.36 1247.75 423.692 1247.75 423C1247.75 422.309 1247.84 421.64 1248 421H1227C1227.13 421.645 1227.21 422.313 1227.21 423C1227.21 423.687 1227.13 424.356 1227 425Z" fill="#595A5C"/>
<path d="M1260 430.697L1275.12 446C1275.83 444.854 1276.83 443.902 1278 443.244L1262.93 428C1262.19 429.131 1261.18 430.062 1260 430.697Z" fill="#595A5C"/>
<path d="M1290 452H1312C1311.83 451.359 1311.73 450.692 1311.73 449.999C1311.73 449.308 1311.83 448.64 1312 448H1290C1290.17 448.64 1290.27 449.308 1290.27 449.999C1290.27 450.692 1290.17 451.359 1290 452Z" fill="#595A5C"/>
<path d="M1355 425H1396C1395.81 424.305 1395.7 423.575 1395.7 422.817C1395.7 422.191 1395.78 421.585 1395.91 421H1355.1C1355.24 421.585 1355.31 422.191 1355.31 422.817C1355.31 423.575 1355.2 424.305 1355 425Z" fill="#595A5C"/>
<path d="M1055.91 421H1037.09C1037.23 421.585 1037.33 422.191 1037.33 422.817C1037.33 423.575 1037.2 424.305 1037 425H1056C1055.79 424.305 1055.67 423.575 1055.67 422.817C1055.67 422.191 1055.75 421.585 1055.91 421Z" fill="#595A5C"/>
<path d="M1071 425H1096C1095.83 424.301 1095.74 423.57 1095.74 422.817C1095.74 422.196 1095.8 421.587 1095.92 421H1071.1C1071.24 421.585 1071.32 422.191 1071.32 422.817C1071.32 423.575 1071.2 424.305 1071 425Z" fill="#595A5C"/>
<path d="M1212 419.82L1217.26 425H1224.69C1224.89 424.369 1225 423.7 1225 423.007C1225 422.313 1224.89 421.644 1224.69 421.013H1218.93L1214.85 417C1213.64 417.638 1212.65 418.623 1212 419.82Z" fill="#595A5C"/>
<path d="M1105 416.342C1106.45 416.342 1107.79 416.815 1108.88 417.609C1109.96 418.391 1110.81 419.484 1111.26 420.759C1111.51 421.46 1111.66 422.213 1111.66 422.999C1111.66 426.672 1108.67 429.658 1105 429.658C1102.08 429.658 1099.58 427.758 1098.7 425.128C1098.47 424.459 1098.34 423.745 1098.34 422.999C1098.34 422.384 1098.43 421.792 1098.59 421.227C1099.37 418.414 1101.94 416.342 1105 416.342ZM1096.25 425.128C1097.21 429.067 1100.77 432 1105 432C1109.96 432 1114 427.962 1114 422.999C1114 421.553 1113.65 420.186 1113.04 418.975C1112.45 417.789 1111.59 416.752 1110.57 415.936C1109.04 414.725 1107.09 414 1105 414C1100.64 414 1097 417.111 1096.17 421.227C1096.05 421.8 1096 422.393 1096 422.999C1096 423.733 1096.09 424.446 1096.25 425.128Z" fill="#595A5C"/>
<path d="M1134.25 398.003C1135.37 398.638 1136.65 399 1138.01 399C1141.73 399 1144.85 396.287 1145.75 392.619C1145.91 391.941 1146 391.233 1146 390.5C1146 389.768 1145.91 389.06 1145.75 388.382C1144.85 384.715 1141.73 382 1138.01 382C1133.58 382 1130 385.805 1130 390.5C1130 392.213 1130.49 393.804 1131.3 395.137C1132.04 396.337 1133.05 397.326 1134.25 398.003Z" fill="#50C4C0"/>
<path d="M1177.26 392.619C1178.15 396.287 1181.28 399 1185.01 399C1186.53 399 1187.96 398.537 1189.17 397.746C1190.32 396.999 1191.28 395.954 1191.95 394.707C1192.61 393.466 1193 392.032 1193 390.5C1193 385.805 1189.43 382 1185.01 382C1181.28 382 1178.15 384.715 1177.26 388.382C1177.1 389.06 1177 389.768 1177 390.5C1177 391.233 1177.1 391.941 1177.26 392.619Z" fill="#A6A7AA"/>
<path d="M1218 416.472C1221 416.472 1223.54 418.567 1224.37 421.441C1224.56 422.092 1224.67 422.784 1224.67 423.5C1224.67 424.216 1224.56 424.908 1224.37 425.559C1223.54 428.433 1221 430.528 1218 430.528C1214.33 430.528 1211.34 427.376 1211.34 423.5C1211.34 422.311 1211.63 421.19 1212.13 420.208C1212.76 418.972 1213.72 417.954 1214.88 417.295C1215.82 416.772 1216.88 416.472 1218 416.472ZM1210.41 418.403C1209.53 419.877 1209 421.625 1209 423.5C1209 428.738 1213.05 433 1218 433C1222.3 433 1225.9 429.811 1226.8 425.559C1226.92 424.896 1227 424.207 1227 423.5C1227 422.793 1226.92 422.105 1226.8 421.441C1225.9 417.19 1222.3 414 1218 414C1216.23 414 1214.57 414.549 1213.18 415.491C1212.06 416.237 1211.13 417.233 1210.41 418.403Z" fill="#595A5C"/>
<path d="M1248.25 424.993C1249.15 428.445 1252.27 431 1255.99 431C1257.34 431 1258.62 430.663 1259.73 430.072C1260.92 429.439 1261.94 428.512 1262.69 427.385C1263.51 426.126 1264 424.621 1264 423C1264 418.582 1260.42 415 1255.99 415C1252.27 415 1249.15 417.555 1248.25 421.007C1248.09 421.645 1248 422.311 1248 423C1248 423.69 1248.09 424.355 1248.25 424.993Z" fill="#4674B7"/>
<path d="M1275.23 445.747C1274.46 446.979 1274 448.435 1274 449.999C1274 454.419 1277.58 458 1282 458C1285.72 458 1288.84 455.445 1289.74 451.994C1289.9 451.355 1290 450.69 1290 449.999C1290 449.31 1289.9 448.644 1289.74 448.006C1288.84 444.555 1285.72 442 1282 442C1280.59 442 1279.28 442.365 1278.13 443.001C1276.95 443.657 1275.95 444.605 1275.23 445.747Z" fill="#A6A7AA"/>
<path d="M1312.26 451.994C1313.15 455.445 1316.28 458 1320.01 458C1324.42 458 1328 454.419 1328 449.999C1328 448.68 1327.68 447.437 1327.11 446.339C1326.49 445.134 1325.57 444.105 1324.45 443.354C1323.18 442.499 1321.65 442 1320.01 442C1316.28 442 1313.15 444.555 1312.26 448.006C1312.1 448.644 1312 449.31 1312 449.999C1312 450.69 1312.1 451.355 1312.26 451.994Z" fill="#A6A7AA"/>
<path d="M1343.2 430.041C1344.33 430.652 1345.63 431 1346.99 431C1350.67 431 1353.74 428.535 1354.69 425.175C1354.89 424.482 1355 423.755 1355 422.999C1355 422.375 1354.92 421.771 1354.79 421.188C1353.96 417.644 1350.8 415 1346.99 415C1342.58 415 1339 418.581 1339 422.999C1339 424.595 1339.47 426.077 1340.28 427.325C1341.01 428.457 1342.01 429.397 1343.2 430.041Z" fill="#A6A7AA"/>
<path d="M1037.78 421.188C1036.96 417.644 1033.79 415 1029.99 415C1025.57 415 1022 418.581 1022 422.999C1022 427.418 1025.57 431 1029.99 431C1033.66 431 1036.74 428.535 1037.69 425.175C1037.88 424.482 1038 423.755 1038 422.999C1038 422.375 1037.91 421.771 1037.78 421.188Z" fill="#A6A7AA"/>
<path d="M1395.3 425.175C1396.25 428.535 1399.33 431 1402.99 431C1407.42 431 1411 427.418 1411 422.999C1411 418.581 1407.42 415 1402.99 415C1399.2 415 1396.03 417.644 1395.21 421.188C1395.08 421.771 1395 422.375 1395 422.999C1395 423.755 1395.11 424.482 1395.3 425.175Z" fill="#50C4C0"/>
<path d="M1387.5 372.919C1385.01 372.919 1382.9 371.154 1382.19 368.735C1382.04 368.185 1381.95 367.603 1381.95 367C1381.95 366.396 1382.04 365.814 1382.19 365.265C1382.9 362.846 1385.01 361.081 1387.5 361.081C1390.56 361.081 1393.05 363.736 1393.05 367C1393.05 368.002 1392.81 368.945 1392.4 369.772C1391.88 370.814 1391.08 371.671 1390.1 372.225C1389.33 372.666 1388.44 372.919 1387.5 372.919ZM1393.82 371.293C1394.57 370.051 1395 368.579 1395 367C1395 362.588 1391.64 359 1387.5 359C1383.92 359 1380.93 361.686 1380.18 365.265C1380.06 365.825 1380 366.404 1380 367C1380 367.595 1380.06 368.175 1380.18 368.735C1380.93 372.314 1383.92 375 1387.5 375C1388.98 375 1390.36 374.538 1391.53 373.745C1392.45 373.116 1393.24 372.278 1393.82 371.293Z" fill="#595A5C"/>
<path d="M1360.77 365.255C1360 362.235 1357.27 360 1354 360C1352.82 360 1351.71 360.295 1350.73 360.811C1349.68 361.366 1348.79 362.177 1348.15 363.163C1347.42 364.265 1347 365.582 1347 367C1347 370.865 1350.14 374 1354 374C1357.27 374 1360 371.765 1360.77 368.745C1360.91 368.186 1361 367.603 1361 367C1361 366.397 1360.91 365.814 1360.77 365.255Z" fill="#A6A7AA"/>
<path d="M1337.92 348.488C1338.6 347.332 1339 345.967 1339 344.5C1339 340.358 1335.86 337 1332 337C1328.73 337 1326 339.394 1325.23 342.631C1325.09 343.23 1325 343.853 1325 344.5C1325 345.146 1325.09 345.771 1325.23 346.369C1326 349.605 1328.73 352 1332 352C1333.23 352 1334.39 351.658 1335.39 351.061C1336.42 350.446 1337.29 349.557 1337.92 348.488Z" fill="#A6A7AA"/>
<path d="M1305.78 342.631C1305 339.394 1302.27 337 1299 337C1295.14 337 1292 340.358 1292 344.5C1292 345.738 1292.29 346.904 1292.78 347.932C1293.33 349.062 1294.13 350.027 1295.11 350.731C1296.22 351.532 1297.56 352 1299 352C1302.27 352 1305 349.605 1305.78 346.369C1305.92 345.771 1306 345.146 1306 344.5C1306 343.853 1305.92 343.23 1305.78 342.631Z" fill="#4674B7"/>
<path d="M1279.32 361.779C1278.33 361.282 1277.2 361 1276 361C1272.79 361 1270.09 363.002 1269.26 365.732C1269.1 366.295 1269 366.886 1269 367.5C1269 368.007 1269.07 368.498 1269.18 368.972C1269.9 371.852 1272.68 374 1276 374C1279.86 374 1283 371.089 1283 367.5C1283 366.203 1282.59 364.999 1281.88 363.985C1281.24 363.065 1280.37 362.302 1279.32 361.779Z" fill="#A6A7AA"/>
<path d="M1227 372.919C1223.74 372.919 1221.08 370.263 1221.08 367C1221.08 363.737 1223.74 361.082 1227 361.082C1229.61 361.082 1231.82 362.77 1232.61 365.107C1232.81 365.703 1232.92 366.337 1232.92 367C1232.92 367.547 1232.84 368.073 1232.71 368.577C1232.01 371.077 1229.72 372.919 1227 372.919ZM1234.78 365.107C1233.93 361.607 1230.76 359 1227 359C1222.59 359 1219 362.589 1219 367C1219 371.412 1222.59 375 1227 375C1230.88 375 1234.12 372.235 1234.85 368.577C1234.95 368.067 1235 367.54 1235 367C1235 366.348 1234.92 365.715 1234.78 365.107Z" fill="#595A5C"/>
<path d="M1065.21 415.315C1064.51 415.114 1063.77 415 1063.01 415C1059.21 415 1056.04 417.644 1055.22 421.188C1055.08 421.771 1055 422.375 1055 422.999C1055 423.755 1055.11 424.482 1055.31 425.175C1056.26 428.535 1059.33 431 1063.01 431C1066.67 431 1069.74 428.535 1070.69 425.175C1070.89 424.482 1071 423.755 1071 422.999C1071 422.375 1070.92 421.771 1070.79 421.188C1070.45 419.749 1069.73 418.459 1068.74 417.433C1067.78 416.444 1066.57 415.706 1065.21 415.315Z" fill="#4674B7"/>
<path d="M1091.79 360.393C1091.02 357.302 1088.05 355 1084.51 355C1080.36 355 1077 358.134 1077 362C1077 363.016 1077.24 363.978 1077.66 364.849C1078.18 365.94 1079 366.879 1080 367.59C1081.26 368.471 1082.81 369 1084.51 369C1087.95 369 1090.84 366.833 1091.72 363.881C1091.9 363.282 1092 362.653 1092 362C1092 361.446 1091.93 360.91 1091.79 360.393Z" fill="#A6A7AA"/>
<path d="M1166.26 365.751C1166.73 364.767 1167 363.667 1167 362.5C1167 358.358 1163.64 355 1159.51 355C1156.26 355 1153.51 357.053 1152.47 359.926C1152.17 360.729 1152 361.593 1152 362.5C1152 362.897 1152.04 363.284 1152.1 363.664C1152.66 367.252 1155.75 370 1159.51 370C1161.11 370 1162.59 369.493 1163.81 368.637C1164.85 367.903 1165.69 366.91 1166.26 365.751Z" fill="#A6A7AA"/>
<path d="M1263.88 380.66C1263.24 376.881 1259.95 374 1255.99 374C1254.56 374 1253.22 374.384 1252.05 375.047C1250.87 375.717 1249.89 376.676 1249.18 377.827C1248.43 379.043 1248 380.469 1248 381.999C1248 386.418 1251.57 390 1255.99 390C1259.48 390 1262.45 387.762 1263.54 384.648C1263.83 383.818 1264 382.929 1264 381.999C1264 381.542 1263.94 381.096 1263.88 380.66Z" fill="#A6A7AA"/>
<path d="M1425.51 389.528C1422.59 389.528 1420.1 387.755 1419.03 385.235C1418.68 384.394 1418.47 383.469 1418.47 382.499C1418.47 382.026 1418.53 381.563 1418.62 381.116C1419.26 377.901 1422.1 375.472 1425.51 375.472C1429.38 375.472 1432.53 378.624 1432.53 382.499C1432.53 383.313 1432.38 384.091 1432.12 384.817C1431.65 386.157 1430.79 387.308 1429.67 388.139C1428.51 389.008 1427.07 389.528 1425.51 389.528ZM1434.25 386.194C1434.73 385.058 1435 383.809 1435 382.499C1435 377.261 1430.73 373 1425.51 373C1420.74 373 1416.77 376.531 1416.1 381.116C1416.05 381.568 1416 382.029 1416 382.499C1416 383.45 1416.15 384.367 1416.41 385.235C1417.58 389.143 1421.21 392 1425.51 392C1427.94 392 1430.17 391.072 1431.86 389.551C1432.88 388.626 1433.7 387.483 1434.25 386.194Z" fill="#595A5C"/>
<path d="M1026.33 365.669C1026.76 364.705 1027 363.634 1027 362.5C1027 358.358 1023.86 355 1020 355C1016.14 355 1013 358.358 1013 362.5C1013 366.642 1016.14 370 1020 370C1021.54 370 1022.95 369.463 1024.11 368.565C1025.06 367.821 1025.83 366.825 1026.33 365.669Z" fill="#50C4C0"/>
<path d="M390 363C382.268 363 376 369.492 376 377.5C376 385.508 382.268 392 390 392C397.732 392 404 385.508 404 377.5C404 369.492 397.732 363 390 363Z" fill="#E6E6E6"/>
<mask id="mask0_81_2475" style="mask-type:luminance" maskUnits="userSpaceOnUse" x="375" y="363" width="15" height="29">
<path d="M375.514 391.585H389.711V363.215H375.514V391.585Z" fill="white"/>
</mask>
<g mask="url(#mask0_81_2475)">
<path d="M389.708 391.583C381.869 391.583 375.514 385.233 375.514 377.4C375.514 369.567 381.869 363.217 389.708 363.217V391.583Z" fill="#DADADA"/>
</g>
<path d="M166.032 -3.82688C159.675 -3.82688 154.521 1.32453 154.521 7.67785C154.521 14.0284 159.675 19.178 166.032 19.178C172.39 19.178 177.543 14.0284 177.543 7.67785C177.543 1.32453 172.39 -3.82688 166.032 -3.82688Z" fill="#E6E6E6"/>
<mask id="mask1_81_2475" style="mask-type:luminance" maskUnits="userSpaceOnUse" x="154" y="-4" width="13" height="24">
<path d="M154.52 19.179H166.033V-3.82705H154.52V19.179Z" fill="white"/>
</mask>
<g mask="url(#mask1_81_2475)">
<path d="M166.03 19.1782C159.673 19.1782 154.52 14.0287 154.52 7.67809C154.52 1.32478 159.673 -3.82663 166.03 -3.82663V19.1782Z" fill="#DADADA"/>
</g>
<path d="M943 112C922.02 112 905 129.013 905 150C905 170.987 922.02 188 943 188C963.99 188 981 170.987 981 150C981 129.013 963.99 112 943 112Z" fill="#E6E6E6"/>
<mask id="mask2_81_2475" style="mask-type:luminance" maskUnits="userSpaceOnUse" x="905" y="112" width="39" height="77">
<path d="M905 188.157H943.116V112H905V188.157Z" fill="white"/>
</mask>
<g mask="url(#mask2_81_2475)">
<path d="M943.106 188.153C922.068 188.153 905 171.106 905 150.077C905 129.049 922.068 112.002 943.106 112.002V188.153Z" fill="#DADADA"/>
</g>
</g>
<defs>
<clipPath id="clip0_81_2475">
<rect width="1438" height="557" fill="white"/>
</clipPath>
</defs>
</svg>
