<svg width="20" height="15" viewBox="0 0 20 15" fill="none" xmlns="http://www.w3.org/2000/svg">
<path d="M1.9048 0C0.85782 0 0 0.857819 0 1.9048V12.3809C0 13.4279 0.85782 14.2857 1.9048 14.2857H18.0952C19.1422 14.2857 20 13.4279 20 12.3809V1.9048C20 0.857819 19.1422 0 18.0952 0H1.9048ZM1.9048 0.952292H18.0952C18.2292 0.952292 18.3528 0.979197 18.4672 1.0267L10.6845 7.78985C10.2511 8.16619 9.73321 8.16619 9.30056 7.78985L1.53273 1.0267C1.64716 0.979196 1.77073 0.952292 1.90475 0.952292H1.9048ZM0.967257 1.80046L8.67556 8.50451C9.43355 9.16403 10.5513 9.16284 11.3094 8.50451L19.0326 1.80046C19.0363 1.8355 19.0476 1.86839 19.0476 1.90459V12.3807C19.0476 12.9165 18.631 13.333 18.0953 13.333H1.90486C1.36907 13.333 0.952571 12.9165 0.952571 12.3807V1.90459C0.952571 1.86839 0.963698 1.8355 0.967518 1.80046H0.967257Z" fill="white"/>
</svg>
