<svg width="40" height="40" viewBox="0 0 40 40" fill="none" xmlns="http://www.w3.org/2000/svg">
<path d="M10.143 39.858C8.59588 39.8408 7.06328 39.557 5.61249 39.0192C4.55307 38.6276 3.59456 38.0042 2.80703 37.1945C1.99518 36.4086 1.37084 35.4498 0.980383 34.3895C0.443036 32.9387 0.159678 31.4063 0.142744 29.8593C0.0239213 27.2876 0 26.5162 0 19.9998C0 13.4834 0.0262743 12.7148 0.141567 10.1411C0.160556 8.59473 0.444263 7.06306 0.980383 5.61249C1.37274 4.5529 1.9962 3.594 2.80546 2.80546C3.59201 1.99435 4.55098 1.37058 5.61132 0.980383C7.0621 0.44259 8.59471 0.158833 10.1419 0.141567C12.7144 0.0239213 13.4869 0 19.9998 0C26.5127 0 27.2848 0.0262743 29.8585 0.141567C31.4053 0.160422 32.9374 0.444131 34.3883 0.980383C35.4482 1.3711 36.4069 1.99464 37.1938 2.80507C38.0044 3.59222 38.6282 4.55117 39.0192 5.61132C39.5572 7.06208 39.841 8.59468 39.8584 10.1419C39.9761 12.7156 40 13.4861 40 20.0006C40 26.515 39.9761 27.2856 39.8584 29.8593C39.8398 31.4062 39.5559 32.9385 39.0192 34.3895C38.6133 35.4417 37.9915 36.3972 37.1939 37.1946C36.3963 37.992 35.4406 38.6135 34.3883 39.0192C32.9375 39.5571 31.4049 39.841 29.8577 39.8584C27.2864 39.9761 26.5135 40 19.999 40C13.4846 40 12.714 39.9773 10.1426 39.8584" fill="url(#paint0_radial_61_1566)"/>
<path d="M10.143 39.858C8.59588 39.8408 7.06328 39.557 5.61249 39.0192C4.55307 38.6276 3.59456 38.0042 2.80703 37.1945C1.99518 36.4086 1.37084 35.4498 0.980383 34.3895C0.443036 32.9387 0.159678 31.4063 0.142744 29.8593C0.0239213 27.2876 0 26.5162 0 19.9998C0 13.4834 0.0262743 12.7148 0.141567 10.1411C0.160556 8.59473 0.444263 7.06306 0.980383 5.61249C1.37274 4.5529 1.9962 3.594 2.80546 2.80546C3.59201 1.99435 4.55098 1.37058 5.61132 0.980383C7.0621 0.44259 8.59471 0.158833 10.1419 0.141567C12.7144 0.0239213 13.4869 0 19.9998 0C26.5127 0 27.2848 0.0262743 29.8585 0.141567C31.4053 0.160422 32.9374 0.444131 34.3883 0.980383C35.4482 1.3711 36.4069 1.99464 37.1938 2.80507C38.0044 3.59222 38.6282 4.55117 39.0192 5.61132C39.5572 7.06208 39.841 8.59468 39.8584 10.1419C39.9761 12.7156 40 13.4861 40 20.0006C40 26.515 39.9761 27.2856 39.8584 29.8593C39.8398 31.4062 39.5559 32.9385 39.0192 34.3895C38.6133 35.4417 37.9915 36.3972 37.1939 37.1946C36.3963 37.992 35.4406 38.6135 34.3883 39.0192C32.9375 39.5571 31.4049 39.841 29.8577 39.8584C27.2864 39.9761 26.5135 40 19.999 40C13.4846 40 12.714 39.9773 10.1426 39.8584" fill="url(#paint1_radial_61_1566)"/>
<path d="M15.089 20.0849C15.0891 19.1052 15.3797 18.1476 15.924 17.333C16.4684 16.5185 17.242 15.8837 18.1472 15.5089C19.0523 15.134 20.0483 15.0361 21.0091 15.2273C21.97 15.4185 22.8525 15.8904 23.5452 16.5832C24.2379 17.276 24.7095 18.1587 24.9005 19.1196C25.0915 20.0805 24.9933 21.0764 24.6183 21.9815C24.2432 22.8865 23.6082 23.66 22.7936 24.2042C21.9789 24.7484 21.0212 25.0387 20.0415 25.0386C18.7279 25.0384 17.4681 24.5164 16.5394 23.5874C15.6106 22.6584 15.0889 21.3985 15.089 20.0849ZM12.411 20.0849C12.411 21.5941 12.8585 23.0694 13.697 24.3242C14.5354 25.579 15.7271 26.557 17.1214 27.1346C18.5157 27.7121 20.05 27.8632 21.5301 27.5688C23.0103 27.2744 24.3699 26.5476 25.4371 25.4805C26.5042 24.4133 27.231 23.0537 27.5254 21.5735C27.8198 20.0934 27.6687 18.5591 27.0912 17.1648C26.5136 15.7705 25.5356 14.5788 24.2808 13.7404C23.0259 12.9019 21.5507 12.4544 20.0415 12.4544C19.0394 12.4543 18.0472 12.6517 17.1214 13.0351C16.1956 13.4186 15.3544 13.9806 14.6458 14.6892C13.9372 15.3978 13.3752 16.239 12.9917 17.1648C12.6083 18.0906 12.4109 19.0828 12.411 20.0849ZM26.1908 12.152C26.1907 12.5047 26.2951 12.8495 26.4909 13.1428C26.6867 13.4361 26.9651 13.6648 27.2909 13.7999C27.6166 13.935 27.9751 13.9705 28.3211 13.9018C28.667 13.8332 28.9848 13.6635 29.2343 13.4142C29.4837 13.165 29.6537 12.8473 29.7227 12.5015C29.7916 12.1556 29.7565 11.7971 29.6217 11.4712C29.4868 11.1453 29.2584 10.8667 28.9653 10.6706C28.6721 10.4746 28.3274 10.3699 27.9748 10.3697C27.502 10.3699 27.0487 10.5577 26.7144 10.8919C26.3801 11.2261 26.192 11.6793 26.1916 12.152M14.0388 32.1809C13.0965 32.1705 12.163 31.9981 11.2792 31.6711C10.6383 31.424 10.0562 31.0455 9.57036 30.5599C9.08454 30.0743 8.70579 29.4923 8.45847 28.8515C8.13133 27.9677 7.95887 27.0342 7.94867 26.0919C7.87652 24.5256 7.8624 24.0551 7.8624 20.0869C7.8624 16.1187 7.87808 15.6493 7.94867 14.0814C7.9601 13.1392 8.13252 12.2059 8.45847 11.3218C8.7055 10.6807 9.08414 10.0984 9.56998 9.6126C10.0558 9.12676 10.6381 8.74812 11.2792 8.50109C12.163 8.17396 13.0965 8.0015 14.0388 7.99129C15.6051 7.91914 16.0757 7.90502 20.0423 7.90502C24.0089 7.90502 24.4799 7.92031 26.0477 7.99169C26.9899 8.00312 27.9232 8.17553 28.8073 8.50148C29.4484 8.74853 30.0307 9.12718 30.5165 9.61302C31.0024 10.0989 31.381 10.6811 31.628 11.3222C31.9552 12.206 32.1276 13.1395 32.1378 14.0818C32.21 15.6504 32.2241 16.1187 32.2241 20.0873C32.2241 24.0558 32.2096 24.5249 32.1378 26.0927C32.1269 27.0349 31.9544 27.9683 31.628 28.8523C31.3807 29.4931 31.002 30.0751 30.5162 30.5607C30.0303 31.0463 29.4482 31.4248 28.8073 31.6718C27.9235 31.999 26.99 32.1714 26.0477 32.1816C24.4815 32.2538 24.0109 32.2679 20.0423 32.2679C16.0737 32.2679 15.6047 32.2534 14.0388 32.1816M13.9157 5.31563C12.6827 5.33988 11.4627 5.57325 10.3079 6.00582C9.32062 6.38753 8.42403 6.97133 7.67559 7.71978C6.92714 8.46822 6.34334 9.36481 5.96163 10.3521C5.52912 11.507 5.29575 12.7269 5.27144 13.9599C5.19811 15.5442 5.18164 16.0508 5.18164 20.0865C5.18164 24.1221 5.1985 24.6284 5.27144 26.2131C5.29574 27.4461 5.52912 28.666 5.96163 29.8209C6.34336 30.8081 6.92717 31.7047 7.67561 32.4531C8.42406 33.2016 9.32063 33.7854 10.3079 34.1671C11.4628 34.5995 12.6827 34.8329 13.9157 34.8573C15.5008 34.9295 16.0066 34.9471 20.0423 34.9471C24.0779 34.9471 24.5842 34.9302 26.1689 34.8573C27.4019 34.833 28.6218 34.5996 29.7767 34.1671C30.7639 33.7854 31.6605 33.2016 32.4089 32.4531C33.1574 31.7047 33.7412 30.8081 34.1229 29.8209C34.556 28.6661 34.7894 27.4461 34.8131 26.2131C34.8853 24.6276 34.9017 24.1221 34.9017 20.0865C34.9017 16.0508 34.8849 15.5446 34.8131 13.9599C34.7889 12.7269 34.5555 11.5069 34.1229 10.3521C33.7412 9.365 33.1576 8.46855 32.4093 7.72012C31.6611 6.9717 30.7648 6.3878 29.7779 6.00582C28.6231 5.57297 27.4031 5.33959 26.1701 5.31563C24.5854 5.24308 24.0791 5.22583 20.0442 5.22583C16.0094 5.22583 15.5019 5.24269 13.9165 5.31563" fill="white"/>
<defs>
<radialGradient id="paint0_radial_61_1566" cx="0" cy="0" r="1" gradientUnits="userSpaceOnUse" gradientTransform="translate(2.5886 39.1235) scale(50.7846)">
<stop offset="0.09" stop-color="#FA8F21"/>
<stop offset="0.78" stop-color="#D82D7E"/>
</radialGradient>
<radialGradient id="paint1_radial_61_1566" cx="0" cy="0" r="1" gradientUnits="userSpaceOnUse" gradientTransform="translate(27.7064 37.8388) scale(44.6909)">
<stop offset="0.64" stop-color="#8C3AAA" stop-opacity="0"/>
<stop offset="1" stop-color="#8C3AAA"/>
</radialGradient>
</defs>
</svg>
