<svg width="15" height="6" viewBox="0 0 15 6" fill="none" xmlns="http://www.w3.org/2000/svg">
<path d="M10.9266 1.58494C10.8612 1.4677 10.819 1.33927 10.8016 1.20759C10.7661 0.94326 10.829 0.666296 10.9982 0.436047L11.029 0.396147C11.2059 0.176966 11.4549 0.0447509 11.7163 0.00964281C11.9865 -0.0269045 12.2715 0.0399327 12.5052 0.218764L14.5213 1.76275C14.6669 1.85887 14.7876 1.99109 14.8717 2.14633C14.9534 2.29778 15 2.47034 15 2.65298C15 2.83472 14.9538 3.00729 14.8721 3.15817C14.79 3.31107 14.6707 3.44229 14.5274 3.53886L12.522 5.07615C12.2884 5.25454 12.0038 5.32126 11.7331 5.28527C11.4629 5.24917 11.2062 5.10979 11.0279 4.87619C10.8495 4.64304 10.7828 4.35847 10.8188 4.08876C10.8357 3.96045 10.876 3.83594 10.9375 3.72195H1.06862C0.773994 3.72195 0.506206 3.60224 0.312954 3.40898L0.293283 3.3873C0.111545 3.19595 0 2.9373 0 2.65332C0 2.35815 0.119705 2.0909 0.312968 1.89765C0.506232 1.7044 0.773465 1.58468 1.06864 1.58468H10.9272L10.9266 1.58494Z" fill="#006C71"/>
</svg>
