<svg width="40" height="40" viewBox="0 0 40 40" fill="none" xmlns="http://www.w3.org/2000/svg">
<path d="M20 0C8.95423 0 0 8.95423 0 20C0 31.0458 8.95423 40 20 40C31.0458 40 40.0001 31.0458 40.0001 20C40 8.95423 31.0456 0 20 0ZM14.664 29.6691H10.2728V15.4824H14.664V29.6691ZM12.4474 13.6245C11.0133 13.6245 9.85071 12.4524 9.85071 11.0068C9.85071 9.56104 11.0135 8.38904 12.4474 8.38904C13.8814 8.38904 15.044 9.56104 15.044 11.0068C15.0441 12.4525 13.8815 13.6245 12.4474 13.6245ZM31.12 29.6691H26.7501V22.2222C26.7501 20.1798 25.9743 19.0397 24.3592 19.0397C22.6015 19.0397 21.6833 20.2271 21.6833 22.2222V29.6691H17.4716V15.4824H21.6833V17.3931C21.6833 17.3931 22.9502 15.0496 25.9583 15.0496C28.9666 15.0496 31.1201 16.8864 31.1201 20.6863L31.12 29.6691Z" fill="url(#paint0_linear_61_1562)"/>
<defs>
<linearGradient id="paint0_linear_61_1562" x1="5.85786" y1="5.85786" x2="34.1421" y2="34.1421" gradientUnits="userSpaceOnUse">
<stop stop-color="#2489BE"/>
<stop offset="1" stop-color="#0575B3"/>
</linearGradient>
</defs>
</svg>
