<svg width="22" height="21" viewBox="0 0 22 21" fill="none" xmlns="http://www.w3.org/2000/svg">
<path d="M7.79421 7.53837C7.5952 7.53837 7.41045 7.41012 7.34776 7.21014C7.27036 6.96353 7.40767 6.70073 7.65429 6.6235C9.67658 5.98956 11.9202 5.98682 14.3237 6.61735C14.5737 6.68292 14.7232 6.93893 14.6576 7.18894C14.5922 7.4388 14.3375 7.58874 14.086 7.52284C11.8563 6.93797 9.78605 6.93586 7.93433 7.51668C7.88786 7.53126 7.84058 7.53838 7.7941 7.53838L7.79421 7.53837Z" fill="white"/>
<path d="M19.7108 8.5262H19.6951C18.6612 8.5194 17.8286 8.41399 17.1495 8.20365C16.2189 7.91574 15.5688 7.01593 15.5688 6.01554V4.9928C15.5688 4.79283 15.4431 4.61503 15.2629 4.56012C12.5934 3.74676 9.73053 3.75244 6.7546 4.57663C6.56726 4.62845 6.43124 4.81256 6.43124 5.01417V6.00727C6.43124 7.01495 5.76703 7.92012 4.81601 8.20785C4.14207 8.41188 3.34007 8.50936 2.29272 8.51438H2.28154C1.67935 8.51438 1.11132 8.27893 0.68091 7.85063C0.241921 7.41359 0 6.83196 0 6.21306V5.04814C0 3.83157 0.701637 2.69745 1.78783 2.15906C7.60621 -0.726 13.7691 -0.719823 20.1043 2.17849C21.2558 2.70524 22 3.85913 22 5.11794V6.22424C22 6.84314 21.7578 7.4246 21.3175 7.86181C20.8858 8.29043 20.3158 8.52618 19.7112 8.52618L19.7108 8.5262ZM11.1528 3.0179C12.6555 3.0179 14.12 3.23342 15.5361 3.66465C16.1066 3.8384 16.5052 4.38457 16.5052 4.99277V6.0155C16.5052 6.60945 16.8841 7.14154 17.4267 7.30963C18.0166 7.49228 18.7609 7.58394 19.7015 7.59009C20.0575 7.59333 20.4003 7.45326 20.658 7.19725C20.9196 6.9372 21.0639 6.59166 21.0639 6.22393V5.11763C21.0639 4.22394 20.5344 3.40445 19.7151 3.02926C13.6492 0.254463 7.75706 0.244265 2.20399 2.99752C1.43404 3.37918 0.936434 4.18412 0.936434 5.04784V6.21275C0.936434 6.58098 1.08039 6.9267 1.34173 7.18691C1.59515 7.43919 1.92888 7.57796 2.28206 7.57796H2.28854C3.22998 7.57359 3.96789 7.48647 4.545 7.31175C5.10445 7.14238 5.49535 6.60593 5.49535 6.00709V5.014C5.49535 4.38975 5.91072 3.83905 6.50511 3.67423C8.08585 3.23653 9.63889 3.01794 11.1528 3.01794L11.1528 3.0179Z" fill="white"/>
<path d="M11.0004 17.6121C8.46982 17.6121 6.41113 15.7587 6.41113 13.4808C6.41113 11.2028 8.4697 9.34937 11.0004 9.34937C13.5311 9.34937 15.5897 11.2028 15.5897 13.4808C15.5897 15.7587 13.5311 17.6121 11.0004 17.6121ZM11.0004 10.2853C8.98621 10.2853 7.34752 11.7185 7.34752 13.4804C7.34752 15.2425 8.98621 16.6757 11.0004 16.6757C13.0146 16.6757 14.6533 15.2425 14.6533 13.4806C14.6533 11.7187 13.0146 10.2853 11.0004 10.2853Z" fill="white"/>
<path d="M17.8683 20.7231H4.13154C2.29123 20.7231 0.916016 18.8336 0.916016 17.1444V14.3695C0.916016 13.3568 1.47029 12.2069 1.88743 11.4284L2.79712 9.60837C2.91258 9.3773 3.19335 9.28305 3.42522 9.39899C3.65645 9.51461 3.7502 9.79571 3.63459 10.0271L2.71872 11.8588C2.4998 12.2677 1.85227 13.4768 1.85227 14.351V17.1444C1.85227 18.3665 2.84781 19.7869 4.1317 19.7869H17.8689C19.1526 19.7869 20.1483 18.3665 20.1483 17.1444L20.148 14.3695C20.148 13.4768 19.5004 12.2677 19.2877 11.8705L18.3657 10.0273C18.25 9.79607 18.3438 9.51481 18.575 9.3992C18.8067 9.28326 19.0875 9.3775 19.2031 9.60857L20.119 11.4403C20.53 12.207 21.0842 13.357 21.0842 14.3511V17.1445C21.0841 18.8337 19.709 20.7233 17.8685 20.7233L17.8683 20.7231Z" fill="white"/>
</svg>
