<svg width="30" height="65" viewBox="0 0 30 65" fill="none" xmlns="http://www.w3.org/2000/svg">
<path d="M14.9449 1.10132L16.6428 4.29024C17.0245 4.87872 17.438 5.39961 17.9251 5.8847C19.3532 7.29492 20.6842 8.80003 21.9093 10.3898C24.7861 14.1672 26.7265 18.3621 28.1122 22.8989C28.9433 25.6703 29.3946 28.5133 29.4284 31.3881C29.5675 39.9827 26.6211 47.3626 20.6807 53.4959C19.7144 54.4685 18.6705 55.3608 17.5593 56.1639C16.9708 56.1639 16.6925 55.7126 16.4499 55.2971C16.0082 54.5266 15.7143 53.6804 15.5831 52.802C15.3744 51.7623 15.2372 50.7225 15.3048 49.6489V49.1638C15.2571 49.0604 14.7382 1.34586 14.9449 1.10132Z" fill="#599636"/>
<path d="M14.9454 0.995887C14.8758 0.85672 14.8062 0.962089 14.7366 1.02968C14.7704 1.72552 14.5279 2.34581 14.1481 2.93827C13.7306 3.52675 13.1779 3.97805 12.6233 4.46315C9.54168 7.13119 7.11618 10.3539 5.1738 13.9584C2.58925 18.8093 1.25722 24.0082 0.879479 29.4815C0.706513 31.4557 1.50375 38.422 2.12602 40.432C3.82387 45.7681 6.87363 50.2393 10.824 54.1201C11.7942 55.0545 12.832 55.9213 13.9056 56.7544C14.2177 56.7544 14.2515 56.476 14.3231 56.2693C14.4599 55.8268 14.5643 55.375 14.6352 54.9174L15.3311 49.7204L14.9454 0.995887Z" fill="#6CAC48"/>
<path d="M16.6439 58.2753C16.7135 57.48 17.0952 56.82 17.5107 56.1619C17.0932 55.9889 16.783 55.645 16.5405 55.2613C16.3314 54.898 16.1582 54.5151 16.0236 54.1181C15.5385 52.6629 15.4351 51.136 15.2959 49.6489V48.7483C15.123 48.8875 15.0872 50.0644 15.0872 50.2394C14.986 51.8111 14.7774 53.3741 14.4629 54.9174C14.3595 55.5416 14.29 56.1639 13.9062 56.7186C13.9062 56.7882 13.9063 56.8577 13.94 56.9611C14.5643 58.7981 14.7353 60.6689 14.8407 62.5755V63.2713C14.8407 64.1024 14.8069 63.9274 15.4967 64.2058C15.7751 64.3091 16.0852 64.3449 16.3636 64.5517C16.5723 64.5517 16.6061 64.3787 16.6061 64.2396L16.5027 63.0964V59.9075C16.4689 59.3508 16.5723 58.7981 16.6419 58.2772L16.6439 58.2753Z" fill="#C2BFBF"/>
</svg>
