<svg width="929" height="250" viewBox="0 0 929 250" fill="none" xmlns="http://www.w3.org/2000/svg">
<path d="M190.985 44C188.583 44 186.393 43.3628 184.416 42.0884C182.453 40.814 180.885 39.1074 179.713 36.9688C178.542 34.8154 177.956 32.4351 177.956 29.8276V26.6416C177.956 24.0342 178.542 21.6611 179.713 19.5225C180.885 17.3691 182.453 15.6553 184.416 14.3809C186.393 13.1064 188.583 12.4692 190.985 12.4692C194.501 12.4692 197.592 13.8755 200.258 16.688C202.748 19.5737 203.993 22.8916 203.993 26.6416V29.8276C203.993 32.4351 203.407 34.8154 202.235 36.9688C201.063 39.1074 199.489 40.814 197.511 42.0884C195.548 43.3628 193.373 44 190.985 44ZM190.985 38.397C192.348 38.397 193.585 38.0088 194.699 37.2324C195.827 36.4414 196.728 35.3867 197.401 34.0684C198.075 32.7354 198.412 31.2632 198.412 29.6519V26.8174C198.412 25.2061 198.075 23.7412 197.401 22.4229C196.728 21.0898 195.827 20.0352 194.699 19.2588C193.585 18.4678 192.348 18.0723 190.985 18.0723C189.608 18.0723 188.356 18.4678 187.228 19.2588C186.115 20.0352 185.221 21.0898 184.547 22.4229C183.874 23.7412 183.537 25.2061 183.537 26.8174V29.6519C183.537 31.2632 183.874 32.7354 184.547 34.0684C185.221 35.3867 186.115 36.4414 187.228 37.2324C188.356 38.0088 189.608 38.397 190.985 38.397ZM228.207 44H208.476V41.2095C208.476 40.0229 208.791 38.939 209.42 37.9575C210.05 36.9761 210.863 36.0532 211.859 35.189C212.855 34.3101 213.917 33.4458 215.045 32.5962C216.261 31.688 217.411 30.7432 218.495 29.7617C219.594 28.7803 220.502 27.7183 221.22 26.5757C221.938 25.4185 222.296 24.1221 222.296 22.6865L222.274 22.2251C222.172 21.0386 221.71 20.0498 220.89 19.2588C220.07 18.4678 219.096 18.0723 217.968 18.0723C216.063 18.0723 214.555 18.9585 213.441 20.731L212.606 22.2031L207.926 20.5552L208.585 18.6875C209.274 16.8271 210.482 15.3257 212.211 14.1831C213.939 13.0405 215.866 12.4692 217.99 12.4692C220.539 12.4692 222.816 13.3774 224.823 15.1938C226.874 17.1421 227.899 19.5884 227.899 22.5327C227.899 27.0298 225.739 31.0801 221.417 34.6836C220.29 35.6211 219.184 36.4854 218.1 37.2764L216.605 38.397H228.207V44Z" fill="#182232"/>
<path d="M498.985 44C496.583 44 494.393 43.3628 492.416 42.0884C490.453 40.814 488.885 39.1074 487.713 36.9688C486.542 34.8154 485.956 32.4351 485.956 29.8276V26.6416C485.956 24.0342 486.542 21.6611 487.713 19.5225C488.885 17.3691 490.453 15.6553 492.416 14.3809C494.393 13.1064 496.583 12.4692 498.985 12.4692C502.501 12.4692 505.592 13.8755 508.258 16.688C510.748 19.5737 511.993 22.8916 511.993 26.6416V29.8276C511.993 32.4351 511.407 34.8154 510.235 36.9688C509.063 39.1074 507.489 40.814 505.511 42.0884C503.548 43.3628 501.373 44 498.985 44ZM498.985 38.397C500.348 38.397 501.585 38.0088 502.699 37.2324C503.827 36.4414 504.728 35.3867 505.401 34.0684C506.075 32.7354 506.412 31.2632 506.412 29.6519V26.8174C506.412 25.2061 506.075 23.7412 505.401 22.4229C504.728 21.0898 503.827 20.0352 502.699 19.2588C501.585 18.4678 500.348 18.0723 498.985 18.0723C497.608 18.0723 496.356 18.4678 495.228 19.2588C494.115 20.0352 493.221 21.0898 492.547 22.4229C491.874 23.7412 491.537 25.2061 491.537 26.8174V29.6519C491.537 31.2632 491.874 32.7354 492.547 34.0684C493.221 35.3867 494.115 36.4414 495.228 37.2324C496.356 38.0088 497.608 38.397 498.985 38.397ZM535.021 44H529.417V37.8696H515.926V34.4858L530.165 12.4692H536.668L532.076 19.6104H535.021V32.2666H537.481V37.8696H535.021V44ZM529.417 32.2666V23.7412L523.924 32.2666H529.417Z" fill="#182232"/>
<path d="M826.985 42C824.583 42 822.393 41.3628 820.416 40.0884C818.453 38.814 816.885 37.1074 815.713 34.9688C814.542 32.8154 813.956 30.4351 813.956 27.8276V24.6416C813.956 22.0342 814.542 19.6611 815.713 17.5225C816.885 15.3691 818.453 13.6553 820.416 12.3809C822.393 11.1064 824.583 10.4692 826.985 10.4692C830.501 10.4692 833.592 11.8755 836.258 14.688C838.748 17.5737 839.993 20.8916 839.993 24.6416V27.8276C839.993 30.4351 839.407 32.8154 838.235 34.9688C837.063 37.1074 835.489 38.814 833.511 40.0884C831.548 41.3628 829.373 42 826.985 42ZM826.985 36.397C828.348 36.397 829.585 36.0088 830.699 35.2324C831.827 34.4414 832.728 33.3867 833.401 32.0684C834.075 30.7354 834.412 29.2632 834.412 27.6519V24.8174C834.412 23.2061 834.075 21.7412 833.401 20.4229C832.728 19.0898 831.827 18.0352 830.699 17.2588C829.585 16.4678 828.348 16.0723 826.985 16.0723C825.608 16.0723 824.356 16.4678 823.228 17.2588C822.115 18.0352 821.221 19.0898 820.547 20.4229C819.874 21.7412 819.537 23.2061 819.537 24.8174V27.6519C819.537 29.2632 819.874 30.7354 820.547 32.0684C821.221 33.3867 822.115 34.4414 823.228 35.2324C824.356 36.0088 825.608 36.397 826.985 36.397ZM854.407 42C853.895 42 853.367 41.9487 852.825 41.8462H852.759C850.02 41.3188 847.859 39.8906 846.277 37.5615C844.71 35.2324 843.926 32.354 843.926 28.9263C843.926 25.8501 844.351 23.1621 845.201 20.8623C846.065 18.5479 847.237 16.6216 848.716 15.0835C850.21 13.5454 851.939 12.3955 853.902 11.6338C855.865 10.8574 857.959 10.4692 860.186 10.4692H862.164V16.0723H860.186C856.7 16.0723 853.975 17.3833 852.012 20.0054C852.627 19.8296 853.199 19.7124 853.726 19.6538C854.253 19.5952 854.847 19.5659 855.506 19.5659C857.542 19.5659 859.329 20.0273 860.867 20.9502C862.42 21.8584 863.628 23.1475 864.493 24.8174C865.372 26.4873 865.811 28.4575 865.811 30.728C865.811 34.1411 864.786 36.873 862.735 38.9238C860.684 40.9746 857.908 42 854.407 42ZM854.451 36.397C856.224 36.3677 857.623 35.8477 858.648 34.8369C859.688 33.8115 860.208 32.4419 860.208 30.728C860.208 29.0874 859.769 27.7471 858.89 26.707C858.025 25.6523 856.78 25.125 855.154 25.125C853.719 25.1836 852.532 25.5425 851.595 26.2017C850.672 26.8608 849.991 27.4834 849.551 28.0693L849.529 28.8604C849.529 31.0576 849.991 32.8374 850.914 34.1997C851.851 35.562 853.03 36.2944 854.451 36.397Z" fill="#182232"/>
<path fill-rule="evenodd" clip-rule="evenodd" d="M84 154C109.957 154 131 132.957 131 107C131 81.0426 109.957 60 84 60C58.0426 60 37 81.0426 37 107C37 132.957 58.0426 154 84 154ZM148.92 110.254C148.973 109.176 149 108.091 149 107C149 71.1015 119.899 42 84 42C48.1015 42 19 71.1015 19 107C19 142.899 48.1015 172 84 172C101.495 172 117.376 165.088 129.06 153.846L129 154C140.667 147.5 165.8 142.7 173 175.5L173.002 175.496C173.001 175.664 173 175.832 173 176C173 211.898 202.101 241 238 241C272.086 241 300.044 214.763 302.78 181.382L302.855 181.534C306.303 167.506 319.831 143.354 347.156 152.062C358.981 164.353 375.597 172 394 172C412.076 172 428.429 164.621 440.211 152.711C455.63 148.699 477.93 149.235 487.196 171.914C487.066 173.592 487 175.288 487 177C487 212.898 516.102 242 552 242C587.898 242 617 212.898 617 177C617 175.376 616.94 173.766 616.823 172.172C621.029 159.107 634.57 140.657 661.177 155.085C673.002 167.362 689.609 175 708 175C728.341 175 746.5 165.657 758.419 151.027C772.547 147.727 791.657 149.513 799.26 172.149C799.088 174.077 799 176.028 799 178C799 213.898 828.102 243 864 243C899.898 243 929 213.898 929 178C929 142.101 899.898 113 864 113C845.844 113 829.426 120.444 817.633 132.447C801.409 136.623 780.135 135.596 772.959 112.334C772.986 111.56 773 110.781 773 110C773 74.1015 743.898 45 708 45C672.808 45 644.148 72.9672 643.034 107.888C638.205 123.557 623.195 145.834 595.165 128.401C583.686 118.198 568.567 112 552 112C532.575 112 515.139 120.521 503.229 134.03C486.382 137.08 466.307 134.742 458.607 114.191C458.867 111.83 459 109.431 459 107C459 71.1015 429.898 42 394 42C358.102 42 329 71.1015 329 107C329 108.984 329.089 110.948 329.263 112.887C322.931 127.191 310.399 142.306 290.643 137.864C278.83 121.586 259.651 111 238 111C220.16 111 203.999 118.187 192.254 129.823C177.996 135.9 155.482 137.96 148.92 110.254ZM238 223C263.957 223 285 201.957 285 176C285 150.043 263.957 129 238 129C212.043 129 191 150.043 191 176C191 201.957 212.043 223 238 223ZM441 107C441 132.957 419.957 154 394 154C368.043 154 347 132.957 347 107C347 81.0426 368.043 60 394 60C419.957 60 441 81.0426 441 107ZM552 224C577.957 224 599 202.957 599 177C599 151.043 577.957 130 552 130C526.043 130 505 151.043 505 177C505 202.957 526.043 224 552 224ZM755 110C755 135.957 733.957 157 708 157C682.043 157 661 135.957 661 110C661 84.0426 682.043 63 708 63C733.957 63 755 84.0426 755 110ZM864 225C889.957 225 911 203.957 911 178C911 152.043 889.957 131 864 131C838.043 131 817 152.043 817 178C817 203.957 838.043 225 864 225Z" fill="url(#paint0_linear_142_8772)"/>
<path d="M75.5 192V250" stroke="black" stroke-width="4" stroke-dasharray="8 8"/>
<path d="M241 2V60" stroke="black" stroke-width="4" stroke-dasharray="8 8"/>
<path d="M394 185V243" stroke="black" stroke-width="4" stroke-dasharray="8 8"/>
<path d="M556 2V60" stroke="black" stroke-width="4" stroke-dasharray="8 8"/>
<path d="M715 185V243" stroke="black" stroke-width="4" stroke-dasharray="8 8"/>
<path d="M879 2V60" stroke="black" stroke-width="4" stroke-dasharray="8 8"/>
<path d="M84.1055 121.239V103.313C84.1055 102.708 84.5957 102.216 85.2025 102.216C85.8078 102.216 86.2995 102.706 86.2995 103.313V121.239H90.2824C90.4633 114.763 92.2523 112.614 93.8889 110.649C95.0959 109.201 96.2025 107.869 96.2025 104.195C96.2025 101.157 94.971 98.4079 92.9812 96.4151C90.9948 94.4253 88.2453 93.1968 85.2045 93.1968C82.1689 93.1968 79.4175 94.4284 77.4277 96.4181C75.438 98.4063 74.2064 101.156 74.2064 104.196C74.2064 107.87 75.3148 109.202 76.5201 110.651C78.1546 112.618 79.9437 114.765 80.1245 121.243H84.1075L84.1055 121.239ZM86.9766 131.938H83.428V134H86.9766V131.938ZM90.2657 127.684H80.1387V129.746H90.2657V127.684ZM90.2657 123.43H80.1387V125.492H90.2657V123.43ZM72.818 115.04C73.244 114.612 73.9364 114.61 74.3639 115.035C74.7914 115.461 74.7933 116.153 74.3689 116.581L72.4678 118.482C72.0418 118.909 71.3494 118.911 70.9219 118.487C70.4944 118.061 70.4925 117.368 70.9169 116.941L72.818 115.04ZM68.7857 103.106C69.391 103.106 69.8827 103.596 69.8827 104.203C69.8827 104.808 69.3925 105.3 68.7857 105.3H66.097C65.4917 105.3 65 104.81 65 104.203C65 103.598 65.4902 103.106 66.097 103.106H68.7857ZM74.3769 91.815C74.8044 92.2425 74.8044 92.9364 74.3769 93.3659C73.9494 93.7933 73.2555 93.7933 72.8261 93.3659L70.925 91.4648C70.4975 91.0373 70.4975 90.3433 70.925 89.9139C71.3524 89.4864 72.0464 89.4864 72.4758 89.9139L74.3769 91.815ZM96.0355 116.585C95.6081 116.158 95.6081 115.464 96.0355 115.034C96.463 114.607 97.157 114.607 97.5864 115.034L99.4875 116.936C99.915 117.363 99.915 118.057 99.4875 118.486C99.06 118.914 98.366 118.914 97.9366 118.486L96.0355 116.585ZM101.618 105.299C101.013 105.299 100.521 104.809 100.521 104.202C100.521 103.597 101.012 103.105 101.618 103.105H104.305C104.911 103.105 105.402 103.596 105.402 104.202C105.402 104.808 104.912 105.299 104.305 105.299H101.618ZM97.573 93.3655C97.1455 93.7914 96.4531 93.788 96.0271 93.3605C95.6012 92.933 95.6046 92.2406 96.0321 91.8146L97.9332 89.9135C98.3606 89.4876 99.053 89.491 99.479 89.9185C99.905 90.346 99.9015 91.0384 99.4741 91.4644L97.573 93.3655ZM86.2988 87.7857C86.2988 88.391 85.8086 88.8827 85.2018 88.8827C84.5965 88.8827 84.1048 88.3925 84.1048 87.7857V85.097C84.1048 84.4917 84.595 84 85.2018 84C85.8071 84 86.2988 84.4902 86.2988 85.097V87.7857Z" fill="black"/>
<path d="M14.9854 240C12.583 240 10.3931 239.363 8.41553 238.088C6.45264 236.814 4.88525 235.107 3.71338 232.969C2.5415 230.815 1.95557 228.435 1.95557 225.828V222.642C1.95557 220.034 2.5415 217.661 3.71338 215.522C4.88525 213.369 6.45264 211.655 8.41553 210.381C10.3931 209.106 12.583 208.469 14.9854 208.469C18.501 208.469 21.5918 209.875 24.2578 212.688C26.748 215.574 27.9932 218.892 27.9932 222.642V225.828C27.9932 228.435 27.4072 230.815 26.2354 232.969C25.0635 235.107 23.4888 236.814 21.5112 238.088C19.5483 239.363 17.373 240 14.9854 240ZM14.9854 234.397C16.3477 234.397 17.5854 234.009 18.6987 233.232C19.8267 232.441 20.7275 231.387 21.4014 230.068C22.0752 228.735 22.4121 227.263 22.4121 225.652V222.817C22.4121 221.206 22.0752 219.741 21.4014 218.423C20.7275 217.09 19.8267 216.035 18.6987 215.259C17.5854 214.468 16.3477 214.072 14.9854 214.072C13.6084 214.072 12.356 214.468 11.228 215.259C10.1147 216.035 9.22119 217.09 8.54736 218.423C7.87354 219.741 7.53662 221.206 7.53662 222.817V225.652C7.53662 227.263 7.87354 228.735 8.54736 230.068C9.22119 231.387 10.1147 232.441 11.228 233.232C12.356 234.009 13.6084 234.397 14.9854 234.397ZM42.9346 240H37.3315V214.929L31.9263 216.467V210.667L39.8584 208.469H42.9346V240Z" fill="#182232"/>
<path d="M341.985 230C339.583 230 337.393 229.363 335.416 228.088C333.453 226.814 331.885 225.107 330.713 222.969C329.542 220.815 328.956 218.435 328.956 215.828V212.642C328.956 210.034 329.542 207.661 330.713 205.522C331.885 203.369 333.453 201.655 335.416 200.381C337.393 199.106 339.583 198.469 341.985 198.469C345.501 198.469 348.592 199.875 351.258 202.688C353.748 205.574 354.993 208.892 354.993 212.642V215.828C354.993 218.435 354.407 220.815 353.235 222.969C352.063 225.107 350.489 226.814 348.511 228.088C346.548 229.363 344.373 230 341.985 230ZM341.985 224.397C343.348 224.397 344.585 224.009 345.699 223.232C346.827 222.441 347.728 221.387 348.401 220.068C349.075 218.735 349.412 217.263 349.412 215.652V212.817C349.412 211.206 349.075 209.741 348.401 208.423C347.728 207.09 346.827 206.035 345.699 205.259C344.585 204.468 343.348 204.072 341.985 204.072C340.608 204.072 339.356 204.468 338.228 205.259C337.115 206.035 336.221 207.09 335.547 208.423C334.874 209.741 334.537 211.206 334.537 212.817V215.652C334.537 217.263 334.874 218.735 335.547 220.068C336.221 221.387 337.115 222.441 338.228 223.232C339.356 224.009 340.608 224.397 341.985 224.397ZM367.671 230C365.167 230 362.771 229.451 360.486 228.352L358.926 227.539L360.816 222.463L362.771 223.43C364.251 224.075 365.87 224.397 367.627 224.397C369.253 224.397 370.682 223.994 371.912 223.188C372.981 222.485 373.516 221.526 373.516 220.31C373.516 218.801 372.952 217.703 371.824 217.014C370.696 216.311 368.997 215.959 366.727 215.959H363.497V210.422H366.727C367.151 210.422 367.73 210.378 368.462 210.291C371.114 209.939 372.439 208.679 372.439 206.511C372.439 204.885 371.18 204.072 368.66 204.072C366.902 204.072 365.262 204.519 363.738 205.413L361.453 206.665L360.201 201.458L361.475 200.71C362.105 200.33 362.786 199.971 363.519 199.634C364.266 199.297 365.071 199.019 365.936 198.799C366.814 198.579 367.774 198.469 368.814 198.469C370.059 198.469 371.128 198.601 372.022 198.865C372.93 199.114 373.692 199.429 374.307 199.81C374.937 200.19 375.442 200.571 375.823 200.952C377.288 202.476 378.021 204.263 378.021 206.313C378.021 207.397 377.896 208.357 377.647 209.192C377.413 210.012 377.105 210.723 376.724 211.323C376.358 211.909 375.97 212.4 375.56 212.795C376.146 213.206 376.709 213.74 377.251 214.399C377.793 215.059 378.24 215.886 378.592 216.882C378.943 217.864 379.119 219.036 379.119 220.398C379.119 222.2 378.658 223.826 377.735 225.276C376.812 226.726 375.494 227.876 373.78 228.726C372.066 229.575 370.03 230 367.671 230Z" fill="#182232"/>
<path d="M654.985 230C652.583 230 650.393 229.363 648.416 228.088C646.453 226.814 644.885 225.107 643.713 222.969C642.542 220.815 641.956 218.435 641.956 215.828V212.642C641.956 210.034 642.542 207.661 643.713 205.522C644.885 203.369 646.453 201.655 648.416 200.381C650.393 199.106 652.583 198.469 654.985 198.469C658.501 198.469 661.592 199.875 664.258 202.688C666.748 205.574 667.993 208.892 667.993 212.642V215.828C667.993 218.435 667.407 220.815 666.235 222.969C665.063 225.107 663.489 226.814 661.511 228.088C659.548 229.363 657.373 230 654.985 230ZM654.985 224.397C656.348 224.397 657.585 224.009 658.699 223.232C659.827 222.441 660.728 221.387 661.401 220.068C662.075 218.735 662.412 217.263 662.412 215.652V212.817C662.412 211.206 662.075 209.741 661.401 208.423C660.728 207.09 659.827 206.035 658.699 205.259C657.585 204.468 656.348 204.072 654.985 204.072C653.608 204.072 652.356 204.468 651.228 205.259C650.115 206.035 649.221 207.09 648.547 208.423C647.874 209.741 647.537 211.206 647.537 212.817V215.652C647.537 217.263 647.874 218.735 648.547 220.068C649.221 221.387 650.115 222.441 651.228 223.232C652.356 224.009 653.608 224.397 654.985 224.397ZM682.231 230C679.536 230 677.141 229.055 675.046 227.166C674.197 226.345 673.472 225.291 672.871 224.001L671.926 222.002L676.892 220.266L677.727 221.716C678.738 223.503 680.232 224.397 682.209 224.397C683.293 224.397 684.238 224.001 685.044 223.21C686.099 222.156 686.626 220.684 686.626 218.794C686.626 217.065 686.113 215.74 685.088 214.817C684.077 213.894 682.664 213.433 680.847 213.433C679.778 213.433 678.782 213.55 677.859 213.784C677.156 213.975 676.042 214.319 674.519 214.817L672.893 212.334L673.926 200.381V198.469H691.284V204.072H679.133L678.782 208.313C679.646 208.181 680.496 208.115 681.331 208.115C682.722 208.115 684.048 208.313 685.308 208.708C687.402 209.382 689.087 210.569 690.361 212.268C691.636 213.967 692.273 216.084 692.273 218.618C692.273 220.068 692.017 221.57 691.504 223.123C691.006 224.661 690.164 226.03 688.977 227.231C687.058 229.077 684.81 230 682.231 230Z" fill="#182232"/>
<path d="M227.188 189.898V193.382C227.342 193.939 227.951 194.434 228.352 194.681C230.054 195.805 232.971 196.475 236.157 196.475C239.342 196.475 242.26 195.805 243.961 194.681C244.363 194.433 244.971 193.938 245.126 193.382V189.918C240.855 193.571 231.492 193.557 227.188 189.898Z" fill="black"/>
<path d="M236.155 198.536C232.588 198.536 229.247 197.742 227.216 196.402C227.206 196.392 227.196 196.392 227.186 196.381V198.309C227.186 200.897 231.196 203 236.155 203C241.103 203 245.103 200.907 245.124 198.33V196.381C245.114 196.391 245.103 196.391 245.093 196.402C243.062 197.742 239.722 198.536 236.155 198.536L236.155 198.536Z" fill="black"/>
<path d="M236.155 181.195C231.196 181.195 227.186 183.299 227.186 185.896C227.186 185.937 227.186 185.989 227.196 186.03C227.33 188.556 231.278 190.587 236.155 190.587C241.113 190.587 245.124 188.483 245.124 185.896V185.875C245.103 183.288 241.103 181.195 236.155 181.195Z" fill="black"/>
<path d="M230.939 168.856H241.372C241.942 168.856 242.403 168.394 242.403 167.825L242.403 156.948L238.774 153H230.939C230.37 153 229.908 153.462 229.908 154.031V167.824C229.908 168.394 230.369 168.855 230.939 168.855L230.939 168.856ZM234.135 157.701H238.176C238.743 157.701 239.207 158.165 239.207 158.732C239.207 159.309 238.743 159.763 238.176 159.763H234.135C233.568 159.763 233.104 159.309 233.104 158.732C233.104 158.165 233.568 157.701 234.135 157.701ZM234.135 162.082H238.176C238.743 162.082 239.207 162.546 239.207 163.113C239.207 163.69 238.743 164.144 238.176 164.144H234.135C233.568 164.144 233.104 163.69 233.104 163.113C233.104 162.546 233.568 162.082 234.135 162.082Z" fill="black"/>
<path d="M222.495 179.422V168.546L218.866 164.597H211.031C210.462 164.597 210 165.059 210 165.628V179.421C210 179.991 210.462 180.452 211.031 180.452H221.464C222.033 180.452 222.495 179.991 222.495 179.421V179.422ZM218.268 175.741H214.227C213.66 175.741 213.196 175.288 213.196 174.711C213.196 174.143 213.66 173.68 214.227 173.68H218.268C218.835 173.68 219.299 174.143 219.299 174.711C219.299 175.288 218.835 175.741 218.268 175.741ZM218.268 171.36H214.227C213.66 171.36 213.196 170.906 213.196 170.329C213.196 169.762 213.66 169.298 214.227 169.298H218.268C218.835 169.298 219.299 169.762 219.299 170.329C219.299 170.907 218.835 171.36 218.268 171.36Z" fill="black"/>
<path d="M261.281 164.598H253.445L249.816 168.546V179.422C249.816 179.992 250.278 180.453 250.847 180.453H261.281C261.85 180.453 262.312 179.992 262.312 179.422V165.629C262.312 165.06 261.85 164.598 261.281 164.598V164.598ZM258.085 175.742H254.043C253.476 175.742 253.012 175.288 253.012 174.711C253.012 174.144 253.476 173.68 254.043 173.68H258.085C258.652 173.68 259.116 174.144 259.116 174.711C259.116 175.289 258.652 175.742 258.085 175.742ZM258.085 171.36H254.043C253.476 171.36 253.012 170.907 253.012 170.329C253.012 169.762 253.476 169.299 254.043 169.299H258.085C258.652 169.299 259.116 169.762 259.116 170.329C259.116 170.907 258.652 171.36 258.085 171.36Z" fill="black"/>
<path d="M236.155 171.152C235.585 171.152 235.124 171.614 235.124 172.183V176.703L233.785 175.365C233.383 174.962 232.731 174.962 232.327 175.365C231.925 175.767 231.925 176.42 232.327 176.823L235.425 179.921C235.821 180.316 236.475 180.33 236.884 179.921L239.982 176.823C240.384 176.42 240.384 175.768 239.982 175.365C239.579 174.962 238.927 174.962 238.524 175.365L237.186 176.703V172.183C237.186 171.613 236.724 171.152 236.155 171.152L236.155 171.152Z" fill="black"/>
<path d="M223.224 189.859L220.126 186.761C219.723 186.358 219.071 186.358 218.668 186.761C218.265 187.164 218.265 187.817 218.668 188.219L220.006 189.557H217.279V184.315C217.279 183.745 216.817 183.284 216.248 183.284C215.678 183.284 215.217 183.745 215.217 184.315V190.588C215.217 191.157 215.678 191.619 216.248 191.619H220.006L218.668 192.957C218.265 193.36 218.265 194.012 218.668 194.415C218.87 194.617 219.133 194.717 219.397 194.717C219.661 194.717 219.925 194.616 220.126 194.415L223.224 191.317C223.62 190.922 223.633 190.267 223.224 189.858V189.859Z" fill="black"/>
<path d="M256.063 183.283C255.494 183.283 255.032 183.745 255.032 184.314V189.557H252.305L253.643 188.219C254.046 187.816 254.046 187.164 253.643 186.761C253.24 186.358 252.588 186.358 252.185 186.761L249.087 189.858C248.678 190.267 248.691 190.921 249.087 191.317L252.185 194.414C252.387 194.616 252.65 194.716 252.914 194.716C253.178 194.716 253.441 194.616 253.643 194.414C254.046 194.012 254.046 193.36 253.643 192.956L252.305 191.618H256.063C256.633 191.618 257.094 191.156 257.094 190.587V184.314C257.094 183.745 256.633 183.283 256.063 183.283Z" fill="black"/>
<path d="M385.738 106.513C386.717 106.513 387.684 106.468 388.618 106.384C388.97 105.631 389.444 104.749 390.072 103.817C388.705 104.007 387.227 104.108 385.738 104.108C382.724 104.108 379.884 103.713 377.743 102.997C376.522 102.589 375.596 102.093 375 101.539V103.183C375 104.758 379.41 106.513 385.738 106.513L385.738 106.513Z" fill="black"/>
<path d="M396.477 117.544L396.437 113.813C394.741 115.336 390.536 116.341 385.738 116.341C382.723 116.341 379.884 115.947 377.743 115.23C376.522 114.822 375.596 114.326 375 113.772V117.544C375 119.119 379.41 120.874 385.738 120.874C392.066 120.874 396.476 119.119 396.476 117.544H396.477Z" fill="black"/>
<path d="M385.738 112.364C388.515 112.364 391.178 112.011 393.189 111.388L388.347 107.771C388.125 107.634 388.099 107.444 388.26 107.203C387.437 107.266 386.592 107.299 385.738 107.299C382.724 107.299 379.884 106.904 377.743 106.188C376.522 105.78 375.596 105.284 375 104.73V109.034C375 110.609 379.41 112.364 385.738 112.364L385.738 112.364Z" fill="black"/>
<path d="M385.738 115.556C390.186 115.556 394.19 114.656 395.794 113.333L393.957 111.961C391.817 112.718 388.841 113.15 385.738 113.15C382.724 113.15 379.884 112.756 377.743 112.039C376.522 111.631 375.596 111.135 375 110.581V112.226C375 113.801 379.41 115.556 385.738 115.556L385.738 115.556Z" fill="black"/>
<path d="M385.738 103.322C387.468 103.322 389.183 103.184 390.713 102.924C391.827 101.461 393.324 99.9404 395.313 98.6471C395.639 98.4355 396.029 98.1991 396.477 97.9551V95.1564C395.88 95.7104 394.954 96.2068 393.734 96.6147C391.593 97.3309 388.753 97.7257 385.738 97.7257C382.724 97.7257 379.884 97.3312 377.743 96.6147C376.522 96.2068 375.596 95.7104 375 95.1564V99.9922C375 101.568 379.41 103.322 385.738 103.322L385.738 103.322Z" fill="black"/>
<path d="M409.42 118.596C409.184 118.844 408.917 119.067 408.623 119.258C408.327 119.45 408.015 119.603 407.691 119.718L416.562 133.458C416.711 133.69 416.942 133.849 417.211 133.906C417.479 133.964 417.754 133.913 417.984 133.763C418.461 133.453 418.597 132.812 418.288 132.333L409.42 118.596Z" fill="black"/>
<path d="M393.733 106.755L403.08 115.038C403.312 114.738 403.581 114.439 403.892 114.153L399.248 108.535C399.11 108.368 399.134 108.12 399.301 107.982C399.468 107.844 399.716 107.867 399.854 108.035L404.498 113.653L405.347 113.118L400.779 102.792C400.691 102.593 400.781 102.361 400.98 102.274C401.178 102.186 401.41 102.276 401.498 102.474L406.059 112.786C406.39 112.652 406.769 112.526 407.189 112.429L404.323 102.35C404.264 102.141 404.385 101.924 404.594 101.864C404.802 101.805 405.019 101.926 405.079 102.135L407.967 112.293C408.371 112.245 408.803 112.229 409.258 112.257L405.763 96.4662C401.032 96.3512 397.465 98.1861 395.742 99.3064C391.828 101.85 389.904 105.315 389.061 107.324L401.995 116.982C402.14 116.599 402.345 116.153 402.631 115.689L393.212 107.344C393.05 107.2 393.035 106.951 393.179 106.789C393.322 106.627 393.57 106.612 393.733 106.756L393.733 106.755Z" fill="black"/>
<path d="M396.477 93.6094C396.477 95.4486 391.669 96.9397 385.738 96.9397C379.807 96.9397 375 95.4486 375 93.6094C375 91.7703 379.808 90.2791 385.738 90.2791C391.669 90.2791 396.477 91.7703 396.477 93.6094Z" fill="black"/>
<path d="M408.195 118.6C409.486 117.761 410.128 116.185 409.795 114.678L409.436 113.059C406.482 112.984 404.143 114.285 402.652 117.474L403.977 118.462C405.21 119.383 406.905 119.438 408.195 118.6Z" fill="black"/>
<path d="M397.188 91.671C397.386 91.7603 397.619 91.6724 397.708 91.4744C398.947 88.7266 401.689 86.9512 404.693 86.9512C408.918 86.9512 412.355 90.4009 412.355 94.6412C412.355 96.9023 411.369 99.0398 409.65 100.505C409.485 100.646 409.465 100.894 409.606 101.059C409.684 101.15 409.794 101.197 409.905 101.197C409.995 101.197 410.086 101.166 410.16 101.103C412.055 99.4885 413.141 97.133 413.141 94.6413C413.141 89.9676 409.352 86.1656 404.693 86.1656C401.381 86.1656 398.358 88.1228 396.992 91.1515C396.903 91.3491 396.991 91.5817 397.188 91.671Z" fill="black"/>
<path d="M415.117 96.1501C414.775 96.1501 414.432 96.1812 414.098 96.2427C413.884 96.2821 413.743 96.4868 413.783 96.7004C413.822 96.9137 414.027 97.0551 414.24 97.0153C414.527 96.9625 414.823 96.9354 415.117 96.9354C417.774 96.9354 419.937 99.1056 419.937 101.773C419.937 104.44 417.774 106.61 415.117 106.61C414.67 106.61 414.228 106.549 413.803 106.428C413.594 106.368 413.377 106.49 413.318 106.699C413.259 106.907 413.38 107.125 413.589 107.184C414.084 107.324 414.598 107.396 415.117 107.396C418.208 107.396 420.723 104.873 420.723 101.773C420.722 98.6727 418.208 96.1502 415.117 96.1502L415.117 96.1501Z" fill="black"/>
<path d="M418.042 87.0334C418.042 87.6045 417.581 88.0672 417.013 88.0672C416.445 88.0672 415.984 87.6044 415.984 87.0334C415.984 86.4627 416.445 86 417.013 86C417.581 86 418.042 86.4627 418.042 87.0334Z" fill="black"/>
<path d="M416.064 92.8218C416.37 92.8218 416.619 92.5713 416.619 92.2638C416.619 91.9562 416.37 91.7057 416.064 91.7057C415.759 91.7057 415.51 91.9562 415.51 92.2638C415.51 92.5713 415.759 92.8218 416.064 92.8218Z" fill="black"/>
<path d="M421.358 109.381C421.358 109.951 420.898 110.414 420.329 110.414C419.761 110.414 419.301 109.951 419.301 109.381C419.301 108.81 419.761 108.347 420.329 108.347C420.898 108.347 421.358 108.81 421.358 109.381Z" fill="black"/>
<path d="M414.17 115.644C414.476 115.644 414.725 115.394 414.725 115.086C414.725 114.778 414.476 114.528 414.17 114.528C413.864 114.528 413.615 114.778 413.615 115.086C413.615 115.394 413.864 115.644 414.17 115.644Z" fill="black"/>
<path d="M388.107 124.037C387.54 124.037 387.078 124.501 387.078 125.07C387.078 125.64 387.54 126.104 388.107 126.104C388.674 126.104 389.136 125.64 389.136 125.07C389.136 124.501 388.674 124.037 388.107 124.037Z" fill="black"/>
<path d="M390.003 130.218C389.436 130.218 388.975 130.682 388.975 131.252C388.975 131.822 389.436 132.285 390.003 132.285C390.571 132.285 391.032 131.821 391.032 131.252C391.032 130.682 390.57 130.218 390.003 130.218Z" fill="black"/>
<path d="M394.268 128.316C393.962 128.316 393.713 128.567 393.713 128.874C393.713 129.182 393.962 129.432 394.268 129.432C394.573 129.432 394.822 129.182 394.822 128.874C394.823 128.567 394.573 128.316 394.268 128.316Z" fill="black"/>
<path d="M406.588 128.316C406.282 128.316 406.033 128.567 406.033 128.874C406.033 129.182 406.282 129.432 406.588 129.432C406.894 129.432 407.143 129.182 407.143 128.874C407.143 128.567 406.894 128.316 406.588 128.316Z" fill="black"/>
<path d="M405.797 121.625C405.733 121.418 405.512 121.303 405.305 121.367C405.098 121.432 404.983 121.652 405.048 121.859C405.18 122.281 405.246 122.722 405.246 123.169C405.246 125.574 403.297 127.53 400.901 127.53C398.505 127.53 396.555 125.574 396.555 123.169C396.555 122.562 396.677 121.975 396.917 121.423C397.004 121.224 396.913 120.993 396.714 120.906C396.515 120.82 396.283 120.911 396.196 121.11C395.913 121.76 395.77 122.453 395.77 123.169C395.77 126.007 398.071 128.316 400.901 128.316C403.73 128.316 406.032 126.007 406.032 123.169C406.033 122.642 405.953 122.123 405.797 121.625Z" fill="black"/>
<path d="M395.084 125.964C394.823 126.057 394.548 126.104 394.267 126.104C392.916 126.104 391.817 125.001 391.817 123.644C391.817 123.211 391.93 122.786 392.145 122.414C392.253 122.226 392.189 121.986 392.001 121.877C391.813 121.769 391.573 121.834 391.464 122.022C391.181 122.513 391.031 123.074 391.031 123.644C391.031 125.434 392.483 126.89 394.267 126.89C394.637 126.89 395 126.828 395.347 126.705C395.551 126.632 395.658 126.408 395.585 126.203C395.513 125.999 395.288 125.892 395.084 125.964Z" fill="black"/>
<path d="M410.917 107.13C410.704 107.095 410.501 107.239 410.465 107.453C410.428 107.667 410.573 107.869 410.787 107.905C411.97 108.105 412.829 109.125 412.829 110.331C412.829 111.207 412.359 112.024 411.603 112.463C411.415 112.571 411.351 112.812 411.46 113C411.533 113.125 411.665 113.195 411.8 113.195C411.867 113.195 411.935 113.178 411.997 113.142C412.995 112.563 413.614 111.486 413.614 110.331C413.614 108.739 412.48 107.393 410.917 107.13Z" fill="black"/>
<path d="M400.871 92.9631C401.419 92.1754 402.316 91.7054 403.271 91.7054C404.717 91.7054 405.961 92.7866 406.166 94.2206C406.194 94.4165 406.362 94.558 406.554 94.558C406.572 94.558 406.591 94.5566 406.61 94.5539C406.825 94.5232 406.974 94.3243 406.944 94.1096C406.684 92.2908 405.106 90.9194 403.271 90.9194C402.059 90.9194 400.921 91.5155 400.227 92.5146C400.103 92.6928 400.147 92.9375 400.325 93.0612C400.503 93.1856 400.748 93.1414 400.871 92.9632L400.871 92.9631Z" fill="black"/>
<path d="M375.33 135.383C375.313 135.393 375.296 135.399 375.277 135.404C375.259 135.408 375.24 135.41 375.219 135.41C375.159 135.41 375.112 135.394 375.078 135.361C375.043 135.327 375.025 135.282 375.025 135.224C375.025 135.168 375.043 135.122 375.078 135.089C375.112 135.057 375.159 135.04 375.219 135.04C375.24 135.04 375.259 135.042 375.277 135.046C375.296 135.051 375.313 135.058 375.33 135.067V135.14C375.313 135.129 375.296 135.12 375.279 135.115C375.262 135.109 375.245 135.107 375.227 135.107C375.194 135.107 375.168 135.117 375.15 135.139C375.131 135.159 375.122 135.188 375.122 135.224C375.122 135.262 375.131 135.291 375.15 135.313C375.168 135.333 375.194 135.343 375.227 135.343C375.245 135.343 375.262 135.341 375.279 135.335C375.296 135.33 375.313 135.322 375.33 135.31V135.383Z" fill="black"/>
<path d="M375.6 135.208C375.592 135.205 375.584 135.202 375.577 135.2C375.57 135.199 375.562 135.198 375.554 135.198C375.533 135.198 375.516 135.205 375.503 135.219C375.492 135.233 375.486 135.254 375.486 135.281V135.404H375.4V135.135H375.486V135.179C375.497 135.162 375.509 135.149 375.523 135.141C375.537 135.133 375.555 135.128 375.576 135.128C375.578 135.128 375.581 135.129 375.585 135.129C375.588 135.129 375.593 135.13 375.6 135.131L375.6 135.208Z" fill="black"/>
<path d="M375.913 135.268V135.293H375.712C375.715 135.313 375.722 135.329 375.733 135.339C375.746 135.349 375.763 135.354 375.787 135.354C375.805 135.354 375.823 135.351 375.842 135.346C375.86 135.341 375.88 135.332 375.9 135.321V135.387C375.88 135.395 375.859 135.4 375.839 135.404C375.818 135.408 375.798 135.41 375.779 135.41C375.73 135.41 375.692 135.398 375.665 135.374C375.638 135.349 375.625 135.315 375.625 135.27C375.625 135.226 375.638 135.192 375.664 135.167C375.691 135.141 375.727 135.128 375.773 135.128C375.815 135.128 375.849 135.141 375.874 135.167C375.899 135.192 375.913 135.226 375.913 135.268ZM375.824 135.24C375.824 135.224 375.819 135.212 375.81 135.202C375.801 135.191 375.788 135.186 375.773 135.186C375.756 135.186 375.743 135.191 375.732 135.2C375.722 135.209 375.716 135.223 375.713 135.24L375.824 135.24Z" fill="black"/>
<path d="M376.097 135.283C376.079 135.283 376.066 135.287 376.056 135.293C376.047 135.298 376.043 135.307 376.043 135.319C376.043 135.33 376.046 135.339 376.053 135.345C376.061 135.351 376.071 135.354 376.084 135.354C376.1 135.354 376.114 135.348 376.124 135.337C376.136 135.325 376.142 135.311 376.142 135.293V135.283L376.097 135.283ZM376.229 135.25V135.404H376.142V135.363C376.13 135.38 376.117 135.393 376.103 135.4C376.088 135.407 376.071 135.41 376.051 135.41C376.023 135.41 376 135.402 375.982 135.386C375.965 135.37 375.957 135.349 375.957 135.323C375.957 135.291 375.968 135.268 375.989 135.254C376.011 135.24 376.044 135.232 376.091 135.232H376.142V135.224C376.142 135.211 376.136 135.201 376.126 135.195C376.115 135.189 376.098 135.186 376.076 135.186C376.057 135.186 376.04 135.188 376.024 135.191C376.009 135.195 375.994 135.2 375.98 135.208V135.143C375.998 135.138 376.017 135.135 376.036 135.132C376.055 135.129 376.073 135.128 376.091 135.128C376.14 135.128 376.175 135.138 376.196 135.157C376.218 135.176 376.229 135.207 376.229 135.25Z" fill="black"/>
<path d="M376.402 135.059V135.135H376.49V135.196H376.402V135.31C376.402 135.323 376.404 135.331 376.409 135.335C376.414 135.34 376.424 135.342 376.438 135.342H376.482V135.404H376.409C376.374 135.404 376.35 135.397 376.336 135.382C376.323 135.368 376.316 135.344 376.316 135.31V135.196H376.273V135.135H376.316V135.059L376.402 135.059Z" fill="black"/>
<path d="M376.809 135.268V135.293H376.608C376.611 135.313 376.618 135.329 376.63 135.339C376.642 135.349 376.66 135.354 376.683 135.354C376.701 135.354 376.719 135.351 376.738 135.346C376.757 135.341 376.776 135.332 376.797 135.321V135.387C376.776 135.395 376.756 135.4 376.735 135.404C376.715 135.408 376.695 135.41 376.675 135.41C376.626 135.41 376.588 135.398 376.562 135.374C376.535 135.349 376.521 135.315 376.521 135.27C376.521 135.226 376.534 135.192 376.56 135.167C376.587 135.141 376.623 135.128 376.67 135.128C376.712 135.128 376.745 135.141 376.77 135.167C376.796 135.192 376.809 135.226 376.809 135.268ZM376.721 135.24C376.721 135.224 376.716 135.212 376.706 135.202C376.697 135.191 376.685 135.186 376.67 135.186C376.653 135.186 376.639 135.191 376.628 135.2C376.618 135.209 376.612 135.223 376.61 135.24L376.721 135.24Z" fill="black"/>
<path d="M377.059 135.175V135.03H377.146V135.404H377.059V135.365C377.048 135.381 377.035 135.393 377.021 135.4C377.006 135.407 376.99 135.41 376.971 135.41C376.938 135.41 376.911 135.398 376.89 135.371C376.868 135.345 376.857 135.311 376.857 135.27C376.857 135.228 376.868 135.194 376.89 135.168C376.911 135.141 376.938 135.128 376.971 135.128C376.99 135.128 377.006 135.132 377.021 135.14C377.035 135.147 377.048 135.159 377.059 135.175ZM377.003 135.349C377.022 135.349 377.036 135.342 377.045 135.329C377.054 135.315 377.059 135.295 377.059 135.27C377.059 135.244 377.054 135.224 377.045 135.211C377.036 135.198 377.022 135.191 377.003 135.191C376.985 135.191 376.971 135.198 376.962 135.211C376.952 135.224 376.947 135.244 376.947 135.27C376.947 135.295 376.952 135.315 376.962 135.329C376.971 135.342 376.985 135.349 377.003 135.349Z" fill="black"/>
<path d="M377.542 135.349C377.559 135.349 377.573 135.342 377.583 135.329C377.593 135.315 377.598 135.295 377.598 135.27C377.598 135.244 377.593 135.224 377.583 135.211C377.573 135.198 377.559 135.191 377.542 135.191C377.523 135.191 377.508 135.198 377.499 135.211C377.489 135.224 377.484 135.244 377.484 135.27C377.484 135.295 377.489 135.315 377.499 135.329C377.508 135.342 377.523 135.349 377.542 135.349ZM377.484 135.175C377.495 135.159 377.508 135.147 377.523 135.14C377.537 135.132 377.554 135.128 377.572 135.128C377.606 135.128 377.633 135.141 377.654 135.168C377.675 135.194 377.686 135.228 377.686 135.27C377.686 135.311 377.675 135.345 377.654 135.371C377.633 135.398 377.606 135.41 377.572 135.41C377.554 135.41 377.537 135.407 377.523 135.4C377.508 135.393 377.495 135.381 377.484 135.365V135.404H377.398V135.03H377.484V135.175Z" fill="black"/>
<path d="M377.713 135.135H377.8L377.872 135.317L377.932 135.135H378.019L377.905 135.429C377.894 135.459 377.88 135.48 377.865 135.492C377.851 135.503 377.831 135.509 377.807 135.509H377.757V135.453H377.784C377.798 135.453 377.808 135.451 377.815 135.446C377.822 135.442 377.827 135.433 377.831 135.421L377.833 135.414L377.713 135.135Z" fill="black"/>
<path d="M378.461 135.338H378.316L378.293 135.404H378.201L378.334 135.045H378.443L378.576 135.404H378.483L378.461 135.338ZM378.339 135.272H378.438L378.388 135.129L378.339 135.272Z" fill="black"/>
<path d="M378.871 135.18C378.882 135.163 378.895 135.15 378.91 135.141C378.925 135.133 378.941 135.128 378.959 135.128C378.99 135.128 379.013 135.138 379.029 135.157C379.045 135.176 379.053 135.204 379.053 135.24V135.404H378.967V135.263V135.258V135.247C378.967 135.228 378.965 135.215 378.959 135.207C378.954 135.198 378.945 135.194 378.933 135.194C378.916 135.194 378.903 135.2 378.894 135.214C378.886 135.227 378.881 135.246 378.881 135.271V135.404H378.795V135.263C378.795 135.234 378.792 135.215 378.787 135.207C378.782 135.198 378.773 135.194 378.76 135.194C378.743 135.194 378.73 135.2 378.721 135.214C378.712 135.227 378.708 135.246 378.708 135.271V135.404H378.621V135.135H378.708V135.175C378.719 135.16 378.731 135.148 378.744 135.14C378.758 135.132 378.773 135.128 378.79 135.128C378.808 135.128 378.825 135.133 378.839 135.143C378.853 135.152 378.864 135.164 378.871 135.18Z" fill="black"/>
<path d="M379.401 135.268V135.293H379.2C379.203 135.313 379.21 135.329 379.222 135.339C379.234 135.349 379.252 135.354 379.275 135.354C379.293 135.354 379.311 135.351 379.33 135.346C379.349 135.341 379.368 135.332 379.389 135.321V135.387C379.368 135.395 379.348 135.4 379.327 135.404C379.307 135.408 379.286 135.41 379.267 135.41C379.218 135.41 379.18 135.398 379.153 135.374C379.127 135.349 379.113 135.315 379.113 135.27C379.113 135.226 379.126 135.192 379.152 135.167C379.179 135.141 379.215 135.128 379.262 135.128C379.304 135.128 379.337 135.141 379.362 135.167C379.388 135.192 379.401 135.226 379.401 135.268ZM379.313 135.24C379.313 135.224 379.308 135.212 379.298 135.202C379.289 135.191 379.277 135.186 379.262 135.186C379.245 135.186 379.231 135.191 379.22 135.2C379.21 135.209 379.204 135.223 379.202 135.24L379.313 135.24Z" fill="black"/>
<path d="M379.56 135.059V135.135H379.648V135.196H379.56V135.31C379.56 135.323 379.562 135.331 379.567 135.335C379.572 135.34 379.582 135.342 379.596 135.342H379.64V135.404H379.567C379.533 135.404 379.509 135.397 379.494 135.382C379.481 135.368 379.474 135.344 379.474 135.31V135.196H379.432V135.135H379.474V135.059L379.56 135.059Z" fill="black"/>
<path d="M379.971 135.24V135.404H379.884V135.279C379.884 135.255 379.884 135.239 379.883 135.231C379.882 135.222 379.88 135.216 379.878 135.211C379.874 135.206 379.869 135.202 379.863 135.199C379.858 135.196 379.851 135.194 379.844 135.194C379.826 135.194 379.812 135.201 379.801 135.215C379.791 135.228 379.787 135.247 379.787 135.271V135.404H379.701V135.03H379.787V135.175C379.799 135.159 379.813 135.147 379.827 135.14C379.842 135.132 379.858 135.128 379.876 135.128C379.907 135.128 379.931 135.138 379.947 135.158C379.963 135.176 379.971 135.204 379.971 135.24Z" fill="black"/>
<path d="M380.016 135.135H380.103L380.175 135.317L380.235 135.135H380.322L380.208 135.429C380.196 135.459 380.183 135.48 380.168 135.492C380.154 135.503 380.134 135.509 380.109 135.509H380.06V135.453H380.087C380.101 135.453 380.111 135.451 380.117 135.446C380.124 135.442 380.13 135.433 380.133 135.421L380.136 135.414L380.016 135.135Z" fill="black"/>
<path d="M380.58 135.144V135.208C380.561 135.201 380.543 135.196 380.526 135.192C380.509 135.188 380.493 135.186 380.478 135.186C380.461 135.186 380.448 135.188 380.44 135.192C380.433 135.196 380.43 135.202 380.43 135.211C380.43 135.217 380.432 135.223 380.438 135.227C380.444 135.231 380.454 135.233 380.47 135.235L380.486 135.236C380.529 135.243 380.559 135.252 380.574 135.264C380.589 135.277 380.597 135.297 380.597 135.325C380.597 135.353 380.586 135.375 380.565 135.389C380.544 135.403 380.513 135.41 380.471 135.41C380.453 135.41 380.434 135.409 380.415 135.406C380.396 135.404 380.377 135.4 380.358 135.394V135.329C380.374 135.337 380.392 135.343 380.41 135.347C380.428 135.352 380.446 135.354 380.465 135.354C380.481 135.354 380.494 135.352 380.502 135.347C380.511 135.342 380.515 135.335 380.515 135.326C380.515 135.318 380.512 135.312 380.506 135.309C380.501 135.305 380.489 135.303 380.473 135.301L380.456 135.298C380.418 135.294 380.391 135.285 380.376 135.272C380.361 135.259 380.354 135.239 380.354 135.212C380.354 135.184 380.363 135.163 380.383 135.149C380.402 135.135 380.432 135.128 380.473 135.128C380.489 135.128 380.505 135.129 380.522 135.132C380.54 135.135 380.559 135.139 380.58 135.144Z" fill="black"/>
<path d="M380.755 135.059V135.135H380.844V135.196H380.755V135.31C380.755 135.323 380.757 135.331 380.762 135.335C380.767 135.34 380.777 135.342 380.791 135.342H380.836V135.404H380.762C380.728 135.404 380.704 135.397 380.69 135.382C380.676 135.368 380.67 135.344 380.67 135.31V135.196H380.627V135.135H380.67V135.059L380.755 135.059Z" fill="black"/>
<path d="M381.32 135.057V135.133C381.3 135.125 381.281 135.118 381.262 135.113C381.244 135.109 381.226 135.107 381.209 135.107C381.188 135.107 381.172 135.11 381.161 135.116C381.15 135.121 381.145 135.131 381.145 135.144C381.145 135.153 381.148 135.16 381.155 135.166C381.163 135.171 381.176 135.176 381.194 135.18L381.233 135.188C381.273 135.196 381.301 135.208 381.317 135.224C381.334 135.24 381.343 135.264 381.343 135.294C381.343 135.333 381.331 135.363 381.308 135.382C381.285 135.401 381.249 135.41 381.201 135.41C381.179 135.41 381.156 135.408 381.133 135.404C381.109 135.4 381.087 135.394 381.065 135.385V135.307C381.087 135.319 381.109 135.328 381.13 135.334C381.151 135.34 381.172 135.343 381.192 135.343C381.212 135.343 381.228 135.34 381.238 135.334C381.249 135.327 381.254 135.317 381.254 135.305C381.254 135.294 381.251 135.286 381.244 135.279C381.236 135.273 381.222 135.268 381.2 135.263L381.165 135.255C381.128 135.247 381.101 135.235 381.085 135.218C381.069 135.201 381.061 135.179 381.061 135.151C381.061 135.115 381.072 135.088 381.095 135.069C381.118 135.05 381.151 135.04 381.194 135.04C381.214 135.04 381.234 135.041 381.254 135.044C381.276 135.046 381.298 135.051 381.32 135.057Z" fill="black"/>
<path d="M381.517 135.059V135.135H381.605V135.196H381.517V135.31C381.517 135.323 381.519 135.331 381.524 135.335C381.529 135.34 381.539 135.342 381.553 135.342H381.597V135.404H381.524C381.49 135.404 381.466 135.397 381.452 135.382C381.438 135.368 381.431 135.344 381.431 135.31V135.196H381.389V135.135H381.431V135.059L381.517 135.059Z" fill="black"/>
<path d="M381.654 135.299V135.135H381.74V135.161V135.218V135.26C381.74 135.282 381.74 135.298 381.741 135.307C381.742 135.317 381.744 135.324 381.747 135.329C381.75 135.334 381.755 135.339 381.76 135.342C381.766 135.345 381.773 135.346 381.78 135.346C381.798 135.346 381.811 135.339 381.821 135.326C381.832 135.312 381.838 135.292 381.838 135.267V135.135H381.923V135.404H381.838V135.365C381.825 135.381 381.811 135.392 381.796 135.399C381.782 135.407 381.766 135.41 381.749 135.41C381.718 135.41 381.694 135.401 381.678 135.382C381.662 135.363 381.654 135.336 381.654 135.299Z" fill="black"/>
<path d="M382.188 135.175V135.03H382.275V135.404H382.188V135.365C382.177 135.381 382.164 135.393 382.149 135.4C382.135 135.407 382.119 135.41 382.1 135.41C382.067 135.41 382.04 135.398 382.018 135.371C381.997 135.345 381.986 135.311 381.986 135.27C381.986 135.228 381.997 135.194 382.018 135.168C382.04 135.141 382.067 135.128 382.1 135.128C382.119 135.128 382.135 135.132 382.149 135.14C382.164 135.147 382.177 135.159 382.188 135.175ZM382.132 135.349C382.151 135.349 382.165 135.342 382.174 135.329C382.183 135.315 382.188 135.295 382.188 135.27C382.188 135.244 382.183 135.224 382.174 135.211C382.165 135.198 382.151 135.191 382.132 135.191C382.114 135.191 382.1 135.198 382.091 135.211C382.081 135.224 382.076 135.244 382.076 135.27C382.076 135.295 382.081 135.315 382.091 135.329C382.1 135.342 382.114 135.349 382.132 135.349Z" fill="black"/>
<path d="M382.359 135.135H382.445V135.404H382.359V135.135ZM382.359 135.03H382.445V135.1H382.359V135.03Z" fill="black"/>
<path d="M382.655 135.19C382.636 135.19 382.622 135.197 382.612 135.211C382.602 135.224 382.597 135.244 382.597 135.27C382.597 135.296 382.602 135.315 382.612 135.329C382.622 135.342 382.636 135.349 382.655 135.349C382.674 135.349 382.688 135.342 382.698 135.329C382.708 135.315 382.714 135.296 382.714 135.27C382.714 135.244 382.708 135.224 382.698 135.211C382.688 135.197 382.674 135.19 382.655 135.19ZM382.655 135.128C382.701 135.128 382.737 135.141 382.763 135.165C382.789 135.191 382.802 135.225 382.802 135.27C382.802 135.314 382.789 135.348 382.763 135.373C382.737 135.398 382.701 135.41 382.655 135.41C382.608 135.41 382.572 135.398 382.547 135.373C382.521 135.348 382.508 135.314 382.508 135.27C382.508 135.225 382.521 135.191 382.547 135.165C382.572 135.141 382.608 135.128 382.655 135.128Z" fill="black"/>
<path d="M375.218 135.521V135.577H375.17C375.159 135.577 375.15 135.58 375.145 135.584C375.14 135.589 375.138 135.596 375.138 135.607V135.626H375.212V135.687H375.138V135.894H375.053V135.687H375.01V135.626H375.053V135.607C375.053 135.578 375.061 135.557 375.077 135.543C375.093 135.529 375.118 135.521 375.153 135.521L375.218 135.521Z" fill="black"/>
<path d="M375.453 135.699C375.445 135.696 375.437 135.693 375.43 135.691C375.423 135.689 375.416 135.688 375.408 135.688C375.386 135.688 375.369 135.696 375.357 135.71C375.345 135.724 375.339 135.745 375.339 135.771V135.894H375.254V135.626H375.339V135.67C375.35 135.653 375.363 135.64 375.377 135.632C375.391 135.624 375.408 135.619 375.429 135.619C375.432 135.619 375.435 135.62 375.438 135.62C375.442 135.62 375.447 135.621 375.453 135.622L375.453 135.699Z" fill="black"/>
<path d="M375.626 135.68C375.607 135.68 375.593 135.688 375.583 135.702C375.573 135.715 375.568 135.735 375.568 135.761C375.568 135.787 375.573 135.806 375.583 135.819C375.593 135.833 375.607 135.839 375.626 135.839C375.644 135.839 375.658 135.833 375.668 135.819C375.679 135.806 375.684 135.787 375.684 135.761C375.684 135.735 375.679 135.715 375.668 135.702C375.658 135.688 375.644 135.68 375.626 135.68ZM375.626 135.619C375.672 135.619 375.708 135.631 375.734 135.656C375.76 135.681 375.773 135.716 375.773 135.761C375.773 135.804 375.76 135.839 375.734 135.864C375.708 135.889 375.672 135.901 375.626 135.901C375.579 135.901 375.543 135.889 375.517 135.864C375.491 135.839 375.479 135.804 375.479 135.761C375.479 135.716 375.491 135.681 375.517 135.656C375.543 135.631 375.579 135.619 375.626 135.619Z" fill="black"/>
<path d="M376.082 135.671C376.093 135.654 376.106 135.641 376.121 135.632C376.136 135.623 376.152 135.619 376.17 135.619C376.2 135.619 376.224 135.629 376.24 135.648C376.256 135.667 376.264 135.695 376.264 135.731V135.894H376.178V135.754V135.748V135.738C376.178 135.719 376.176 135.706 376.17 135.698C376.165 135.689 376.156 135.684 376.144 135.684C376.127 135.684 376.114 135.691 376.105 135.704C376.097 135.718 376.092 135.737 376.091 135.762V135.894H376.006V135.754C376.006 135.724 376.003 135.706 375.998 135.698C375.993 135.689 375.983 135.684 375.971 135.684C375.954 135.684 375.941 135.691 375.932 135.704C375.923 135.718 375.919 135.737 375.919 135.762V135.894H375.832V135.625H375.919V135.666C375.93 135.651 375.942 135.639 375.955 135.631C375.968 135.623 375.983 135.619 376.001 135.619C376.019 135.619 376.036 135.624 376.05 135.633C376.064 135.643 376.075 135.655 376.082 135.671Z" fill="black"/>
<path d="M376.611 135.549V135.626H376.699V135.687H376.611V135.801C376.611 135.813 376.613 135.822 376.617 135.826C376.623 135.831 376.633 135.833 376.647 135.833H376.691V135.894H376.617C376.583 135.894 376.559 135.887 376.545 135.873C376.532 135.859 376.525 135.835 376.525 135.801V135.687H376.482V135.626H376.525V135.549L376.611 135.549Z" fill="black"/>
<path d="M377.022 135.731V135.894H376.935V135.77C376.935 135.746 376.935 135.73 376.934 135.722C376.933 135.713 376.931 135.706 376.928 135.702C376.925 135.696 376.92 135.692 376.914 135.69C376.908 135.686 376.902 135.684 376.895 135.684C376.877 135.684 376.863 135.692 376.852 135.706C376.842 135.719 376.838 135.738 376.838 135.762V135.894H376.752V135.521H376.838V135.666C376.85 135.65 376.863 135.638 376.878 135.631C376.893 135.623 376.909 135.619 376.927 135.619C376.958 135.619 376.982 135.629 376.998 135.648C377.014 135.667 377.022 135.695 377.022 135.731Z" fill="black"/>
<path d="M377.368 135.759V135.783H377.167C377.17 135.804 377.177 135.819 377.188 135.83C377.201 135.84 377.218 135.845 377.242 135.845C377.26 135.845 377.278 135.842 377.297 135.837C377.315 135.831 377.335 135.823 377.356 135.811V135.878C377.335 135.886 377.314 135.891 377.294 135.894C377.273 135.899 377.253 135.901 377.234 135.901C377.185 135.901 377.147 135.889 377.12 135.865C377.093 135.84 377.08 135.805 377.08 135.761C377.08 135.717 377.093 135.683 377.119 135.658C377.146 135.632 377.182 135.619 377.229 135.619C377.27 135.619 377.304 135.632 377.329 135.658C377.355 135.683 377.368 135.716 377.368 135.759ZM377.279 135.731C377.279 135.715 377.274 135.702 377.265 135.692C377.256 135.682 377.244 135.676 377.229 135.676C377.211 135.676 377.198 135.681 377.187 135.691C377.177 135.7 377.171 135.713 377.168 135.731L377.279 135.731Z" fill="black"/>
<path d="M377.609 135.536H377.712L377.842 135.782V135.536H377.929V135.894H377.826L377.696 135.648V135.894H377.609V135.536Z" fill="black"/>
<path d="M378.145 135.68C378.126 135.68 378.112 135.688 378.102 135.702C378.092 135.715 378.088 135.735 378.088 135.761C378.088 135.787 378.092 135.806 378.102 135.819C378.112 135.833 378.126 135.839 378.145 135.839C378.164 135.839 378.178 135.833 378.188 135.819C378.199 135.806 378.204 135.787 378.204 135.761C378.204 135.735 378.199 135.715 378.188 135.702C378.178 135.688 378.164 135.68 378.145 135.68ZM378.145 135.619C378.191 135.619 378.227 135.631 378.253 135.656C378.279 135.681 378.292 135.716 378.292 135.761C378.292 135.804 378.279 135.839 378.253 135.864C378.227 135.889 378.191 135.901 378.145 135.901C378.099 135.901 378.063 135.889 378.037 135.864C378.011 135.839 377.998 135.804 377.998 135.761C377.998 135.716 378.011 135.681 378.037 135.656C378.063 135.631 378.099 135.619 378.145 135.619Z" fill="black"/>
<path d="M378.352 135.79V135.626H378.437V135.652V135.708V135.751C378.437 135.773 378.437 135.788 378.438 135.798C378.439 135.808 378.441 135.815 378.444 135.819C378.447 135.825 378.452 135.829 378.457 135.833C378.463 135.836 378.47 135.837 378.477 135.837C378.495 135.837 378.509 135.83 378.519 135.817C378.529 135.803 378.535 135.783 378.535 135.758V135.626H378.62V135.894H378.535V135.856C378.522 135.872 378.508 135.883 378.493 135.89C378.479 135.897 378.463 135.901 378.447 135.901C378.415 135.901 378.392 135.892 378.376 135.873C378.36 135.854 378.352 135.827 378.352 135.79Z" fill="black"/>
<path d="M378.975 135.731V135.894H378.888V135.769C378.888 135.745 378.888 135.73 378.887 135.722C378.886 135.713 378.884 135.706 378.882 135.702C378.878 135.696 378.873 135.692 378.867 135.69C378.862 135.686 378.855 135.684 378.848 135.684C378.83 135.684 378.816 135.692 378.805 135.706C378.795 135.719 378.791 135.738 378.791 135.762V135.894H378.705V135.625H378.791V135.666C378.803 135.65 378.816 135.638 378.831 135.631C378.846 135.623 378.862 135.619 378.88 135.619C378.911 135.619 378.935 135.629 378.951 135.648C378.967 135.667 378.975 135.695 378.975 135.731Z" fill="black"/>
<path d="M379.229 135.536H379.381C379.426 135.536 379.461 135.546 379.485 135.567C379.51 135.587 379.523 135.616 379.523 135.654C379.523 135.691 379.51 135.72 379.485 135.741C379.461 135.76 379.426 135.77 379.381 135.77H379.321V135.894H379.229L379.229 135.536ZM379.321 135.603V135.703H379.372C379.389 135.703 379.403 135.699 379.413 135.691C379.423 135.682 379.428 135.67 379.428 135.654C379.428 135.638 379.423 135.625 379.413 135.616C379.403 135.607 379.389 135.603 379.372 135.603L379.321 135.603Z" fill="black"/>
<path d="M379.783 135.699C379.775 135.696 379.768 135.693 379.761 135.691C379.753 135.689 379.746 135.688 379.738 135.688C379.716 135.688 379.699 135.696 379.687 135.71C379.675 135.724 379.67 135.745 379.67 135.771V135.894H379.584V135.626H379.67V135.67C379.68 135.653 379.693 135.64 379.707 135.632C379.721 135.624 379.738 135.619 379.759 135.619C379.762 135.619 379.765 135.62 379.769 135.62C379.772 135.62 379.777 135.621 379.783 135.622L379.783 135.699Z" fill="black"/>
<path d="M379.952 135.68C379.933 135.68 379.919 135.688 379.909 135.702C379.899 135.715 379.894 135.735 379.894 135.761C379.894 135.787 379.899 135.806 379.909 135.819C379.919 135.833 379.933 135.839 379.952 135.839C379.971 135.839 379.985 135.833 379.995 135.819C380.005 135.806 380.011 135.787 380.011 135.761C380.011 135.735 380.005 135.715 379.995 135.702C379.985 135.688 379.971 135.68 379.952 135.68ZM379.952 135.619C379.998 135.619 380.034 135.631 380.06 135.656C380.086 135.681 380.099 135.716 380.099 135.761C380.099 135.804 380.086 135.839 380.06 135.864C380.034 135.889 379.998 135.901 379.952 135.901C379.905 135.901 379.869 135.889 379.843 135.864C379.817 135.839 379.805 135.804 379.805 135.761C379.805 135.716 379.817 135.681 379.843 135.656C379.869 135.631 379.905 135.619 379.952 135.619Z" fill="black"/>
<path d="M380.165 135.626H380.251V135.889C380.251 135.925 380.241 135.953 380.224 135.972C380.207 135.991 380.182 136 380.15 136H380.107V135.944H380.122C380.138 135.944 380.149 135.94 380.156 135.933C380.162 135.926 380.165 135.911 380.165 135.889V135.626ZM380.165 135.521H380.251V135.591H380.165V135.521Z" fill="black"/>
<path d="M380.598 135.759V135.783H380.397C380.4 135.804 380.407 135.819 380.419 135.83C380.431 135.84 380.449 135.845 380.472 135.845C380.49 135.845 380.508 135.842 380.527 135.837C380.546 135.831 380.565 135.823 380.586 135.811V135.878C380.565 135.886 380.545 135.891 380.525 135.894C380.504 135.899 380.484 135.901 380.464 135.901C380.415 135.901 380.377 135.889 380.351 135.865C380.324 135.84 380.311 135.805 380.311 135.761C380.311 135.717 380.323 135.683 380.349 135.658C380.376 135.632 380.413 135.619 380.459 135.619C380.501 135.619 380.534 135.632 380.559 135.658C380.585 135.683 380.598 135.716 380.598 135.759ZM380.51 135.731C380.51 135.715 380.505 135.702 380.495 135.692C380.486 135.682 380.474 135.676 380.459 135.676C380.442 135.676 380.428 135.681 380.418 135.691C380.408 135.7 380.401 135.713 380.399 135.731L380.51 135.731Z" fill="black"/>
<path d="M380.881 135.635V135.704C380.87 135.696 380.858 135.691 380.846 135.687C380.835 135.683 380.822 135.68 380.809 135.68C380.786 135.68 380.768 135.688 380.754 135.702C380.741 135.716 380.734 135.736 380.734 135.761C380.734 135.786 380.741 135.805 380.754 135.819C380.768 135.833 380.786 135.839 380.809 135.839C380.822 135.839 380.835 135.838 380.848 135.834C380.86 135.83 380.871 135.824 380.881 135.817V135.886C380.868 135.892 380.854 135.895 380.84 135.897C380.826 135.9 380.812 135.901 380.798 135.901C380.75 135.901 380.712 135.889 380.685 135.864C380.658 135.839 380.645 135.804 380.645 135.761C380.645 135.716 380.658 135.681 380.685 135.656C380.712 135.632 380.75 135.619 380.798 135.619C380.812 135.619 380.826 135.62 380.84 135.623C380.854 135.626 380.868 135.63 380.881 135.635Z" fill="black"/>
<path d="M381.048 135.549V135.626H381.137V135.687H381.048V135.801C381.048 135.813 381.05 135.822 381.055 135.826C381.06 135.831 381.07 135.833 381.084 135.833H381.129V135.894H381.055C381.021 135.894 380.997 135.887 380.983 135.873C380.969 135.859 380.963 135.835 380.963 135.801V135.687H380.92V135.626H380.963V135.549L381.048 135.549Z" fill="black"/>
<path fill-rule="evenodd" clip-rule="evenodd" d="M523.628 160.547H546.409H546.409C547.308 160.547 548.037 161.276 548.037 162.175V165.876L522.001 165.876V162.175C522.003 161.277 522.731 160.549 523.63 160.547L523.628 160.547ZM561.551 187.089H575.751C576.731 187.092 577.524 187.885 577.527 188.865V203.224C577.523 204.203 576.73 204.996 575.751 205H561.551C560.572 204.996 559.779 204.203 559.775 203.224V188.865C559.779 187.885 560.572 187.092 561.551 187.089ZM571.896 190.594H571.895C571.682 190.595 571.478 190.68 571.327 190.831C571.177 190.983 571.093 191.188 571.094 191.401V200.687C571.093 200.901 571.177 201.106 571.327 201.257C571.478 201.408 571.682 201.494 571.895 201.494H574.497C574.711 201.493 574.915 201.408 575.065 201.257C575.215 201.105 575.299 200.9 575.298 200.687V191.401C575.299 191.188 575.215 190.983 575.065 190.831C574.915 190.68 574.711 190.595 574.497 190.594H571.896ZM573.689 192.212H572.705V199.879H573.689V192.212ZM567.352 192.952C566.906 192.954 566.546 193.314 566.542 193.76V200.689C566.546 201.134 566.907 201.494 567.352 201.496H569.942C570.157 201.497 570.363 201.413 570.515 201.261C570.667 201.11 570.752 200.904 570.752 200.689V193.757C570.752 193.543 570.666 193.338 570.515 193.187C570.364 193.036 570.159 192.952 569.945 192.952L567.352 192.952ZM569.143 194.566L568.16 194.566V199.879H569.143V194.564L569.143 194.566ZM562.806 195.419L562.806 195.42C562.361 195.422 562 195.78 561.995 196.225V200.687C561.997 201.133 562.359 201.494 562.805 201.494H565.395H565.395C565.841 201.494 566.203 201.133 566.204 200.687V196.225C566.201 195.782 565.843 195.423 565.4 195.417L562.806 195.419ZM564.591 197.034H563.615V199.879H564.59V197.032L564.591 197.034ZM563.476 155H574.09V159.301H574.089C574.088 159.514 574.172 159.719 574.322 159.871C574.472 160.022 574.677 160.108 574.89 160.108H579.198V175.458H563.477L563.476 155ZM566.812 172.45H575.854C576.301 172.45 576.662 172.089 576.662 171.642C576.662 171.196 576.301 170.835 575.854 170.835H566.812C566.366 170.835 566.004 171.196 566.004 171.642C566.004 172.089 566.366 172.45 566.812 172.45ZM566.812 169.193H575.854C576.073 169.2 576.284 169.118 576.441 168.966C576.598 168.814 576.687 168.604 576.687 168.386C576.687 168.168 576.598 167.959 576.441 167.807C576.284 167.654 576.073 167.572 575.854 167.579H566.812C566.593 167.572 566.381 167.654 566.225 167.807C566.068 167.959 565.98 168.168 565.98 168.386C565.98 168.604 566.068 168.814 566.225 168.966C566.381 169.118 566.593 169.2 566.812 169.193ZM566.812 165.937H575.854C576.073 165.943 576.284 165.861 576.441 165.709C576.598 165.557 576.687 165.348 576.687 165.129C576.687 164.911 576.598 164.702 576.441 164.55C576.284 164.398 576.073 164.316 575.854 164.322H566.812C566.593 164.316 566.381 164.398 566.225 164.55C566.068 164.702 565.98 164.911 565.98 165.129C565.98 165.348 566.068 165.557 566.225 165.709C566.381 165.861 566.593 165.943 566.812 165.937ZM568.771 162.68H573.895C574.331 162.667 574.678 162.309 574.678 161.873C574.678 161.437 574.331 161.079 573.895 161.066H568.771C568.552 161.059 568.341 161.141 568.184 161.293C568.027 161.445 567.939 161.654 567.939 161.873C567.939 162.091 568.027 162.3 568.184 162.452C568.341 162.604 568.552 162.687 568.771 162.68ZM575.695 155.803V158.49H578.384L575.695 155.803ZM561.981 180.755C561.553 180.637 561.299 180.199 561.409 179.769C561.464 179.562 561.598 179.386 561.783 179.279C561.967 179.171 562.187 179.143 562.393 179.198L565.326 179.984C565.681 180.076 565.929 180.396 565.929 180.763V184.118C565.929 184.565 565.567 184.927 565.121 184.927C564.674 184.927 564.311 184.565 564.311 184.118V181.38L561.979 180.754L561.981 180.755ZM553.321 165.7V165.7C553.206 166.131 552.763 166.388 552.332 166.273C551.901 166.158 551.644 165.715 551.759 165.284L552.544 162.369V162.368C552.637 162.016 552.956 161.77 553.321 161.77H560.989C561.207 161.764 561.419 161.846 561.575 161.998C561.732 162.15 561.821 162.359 561.821 162.578C561.821 162.796 561.732 163.005 561.575 163.157C561.419 163.309 561.207 163.391 560.989 163.385H553.937L553.318 165.7L553.321 165.7ZM549.887 168.277C552.897 168.278 555.735 169.681 557.564 172.071C559.394 174.462 560.006 177.567 559.221 180.473C558.435 183.379 556.342 185.754 553.558 186.897V189.136C553.556 189.776 553.039 190.295 552.4 190.299H551.892V198.884H551.892C551.892 199.543 551.54 200.152 550.97 200.482C550.399 200.811 549.696 200.811 549.125 200.482C548.555 200.152 548.203 199.543 548.203 198.884V190.299H547.695C547.056 190.295 546.539 189.776 546.538 189.136V187.024C543.676 185.967 541.481 183.622 540.614 180.696C539.749 177.771 540.313 174.609 542.138 172.164C543.963 169.719 546.834 168.279 549.885 168.277L549.887 168.277ZM549.887 170.674C547.623 170.672 545.487 171.723 544.108 173.518C542.729 175.313 542.263 177.648 542.847 179.835C543.432 182.022 545.001 183.812 547.092 184.679C549.183 185.546 551.559 185.391 553.519 184.259C555.48 183.128 556.802 181.149 557.098 178.904C557.393 176.659 556.628 174.405 555.027 172.805C553.664 171.438 551.814 170.671 549.884 170.673L549.887 170.674ZM553.892 173.947V173.946C553.027 173.083 551.906 172.521 550.696 172.346V177.141H555.482C555.31 175.932 554.751 174.811 553.888 173.946L553.892 173.947ZM549.077 172.346C547.372 172.593 545.873 173.603 545.003 175.09C544.133 176.577 543.988 178.379 544.608 179.986C545.229 181.593 546.547 182.83 548.191 183.347C549.834 183.863 551.623 183.604 553.052 182.641L549.339 178.544C549.174 178.391 549.079 178.177 549.077 177.952L549.077 172.346ZM554.241 181.562C554.906 180.76 555.336 179.788 555.482 178.756H551.7L554.238 181.562L554.241 181.562ZM533.074 164.412H534.82C535.038 164.419 535.25 164.337 535.407 164.185C535.563 164.033 535.652 163.824 535.652 163.606C535.652 163.387 535.563 163.178 535.407 163.026C535.25 162.874 535.038 162.792 534.82 162.798H533.074C532.856 162.792 532.645 162.874 532.488 163.026C532.331 163.178 532.243 163.387 532.243 163.606C532.243 163.824 532.331 164.033 532.488 164.185C532.645 164.337 532.856 164.419 533.074 164.412ZM528.965 164.412H530.71C530.929 164.419 531.14 164.337 531.297 164.185C531.454 164.033 531.542 163.824 531.542 163.606C531.542 163.387 531.454 163.178 531.297 163.026C531.14 162.874 530.929 162.792 530.71 162.798H528.965C528.747 162.792 528.535 162.874 528.379 163.026C528.222 163.178 528.134 163.387 528.134 163.606C528.134 163.824 528.222 164.033 528.379 164.185C528.535 164.337 528.747 164.419 528.965 164.412ZM524.849 164.412H526.594C526.812 164.419 527.024 164.337 527.181 164.185C527.337 164.033 527.426 163.824 527.426 163.606C527.426 163.387 527.337 163.178 527.181 163.026C527.024 162.874 526.812 162.792 526.594 162.798H524.849C524.63 162.792 524.419 162.874 524.262 163.026C524.105 163.178 524.017 163.387 524.017 163.606C524.017 163.824 524.105 164.033 524.262 164.185C524.419 164.337 524.63 164.419 524.849 164.412ZM545.631 167.49H522V181.165C522.002 182.063 522.73 182.79 523.628 182.793H539.688C539.347 182.073 539.081 181.32 538.895 180.545C538.843 180.555 538.789 180.56 538.736 180.56H528.123C527.677 180.56 527.316 180.198 527.316 179.753C527.316 179.307 527.677 178.945 528.123 178.945H538.642C538.61 178.616 538.594 178.283 538.594 177.947C538.594 177.832 538.594 177.716 538.602 177.601H528.123C527.905 177.608 527.693 177.525 527.536 177.373C527.38 177.221 527.291 177.012 527.291 176.794C527.291 176.575 527.38 176.367 527.536 176.214C527.693 176.062 527.905 175.98 528.123 175.987H538.657C538.692 175.987 538.727 175.989 538.761 175.994C538.86 175.44 539 174.893 539.181 174.359H527.077C526.863 174.359 526.659 174.274 526.508 174.122C526.358 173.971 526.274 173.766 526.275 173.553V170.074C526.274 169.861 526.358 169.655 526.508 169.503C526.658 169.352 526.863 169.267 527.077 169.267H542.671C543.561 168.526 544.559 167.927 545.631 167.49L545.631 167.49ZM541.086 170.881H527.886V172.745H539.865C540.21 172.085 540.619 171.461 541.086 170.881H541.086Z" fill="black"/>
<path d="M731.423 100.919C733.888 96.3086 733.331 90.426 729.754 86.3721L721.486 94.6393L731.423 100.919Z" fill="black"/>
<path d="M729.277 122.939V126.118C729.277 127.39 730.311 128.423 731.583 128.423C732.854 128.423 733.888 127.39 733.888 126.118V122.939H729.277Z" fill="black"/>
<path d="M720.136 93.6057L728.641 85.1796C726.336 83.1126 723.315 82 720.215 82C717.036 82 714.094 83.1129 711.789 85.1796C721.01 94.48 720.136 93.5263 720.136 93.6057ZM721.408 84.305H723.077V85.9742H721.408V84.305ZM717.274 84.305H718.943V85.9742H717.274V84.305Z" fill="black"/>
<path d="M721.01 96.3077V107.595C724.667 107.357 728.164 105.608 730.549 102.269L721.01 96.3077Z" fill="black"/>
<path d="M691.281 123.415H695.415V127.549H691.281V123.415Z" fill="black"/>
<path d="M691.281 112.525H695.415V116.659H691.281V112.525Z" fill="black"/>
<path d="M714.968 106.563C716.399 107.199 717.83 107.517 719.34 107.676V95.1955C719.26 95.1161 720.214 96.0702 710.516 86.3719C708.688 88.4389 707.575 91.0622 707.416 93.8443H712.504C713.855 93.8443 714.968 94.9573 714.968 96.3088L714.968 106.563Z" fill="black"/>
<path d="M702.807 112.525H706.94V116.659H702.807V112.525Z" fill="black"/>
<path d="M702.807 123.415H706.94V127.549H702.807V123.415Z" fill="black"/>
<path d="M712.504 95.5132H685.795C685.318 95.5132 685 95.9106 685 96.3081V131.205C685 131.682 685.397 132 685.795 132H712.504C712.981 132 713.299 131.603 713.299 131.205V96.3877C713.299 95.9105 712.982 95.5131 712.504 95.5131V95.5132ZM697.162 128.423C697.162 128.9 696.765 129.218 696.288 129.218H690.485C690.008 129.218 689.611 128.821 689.611 128.423V122.62C689.611 122.143 690.008 121.825 690.485 121.825H696.288C696.765 121.825 697.162 122.223 697.162 122.62V128.423ZM697.162 117.533C697.162 118.01 696.765 118.328 696.288 118.328H690.485C690.008 118.328 689.611 117.93 689.611 117.533V111.73C689.611 111.253 690.008 110.935 690.485 110.935H696.288C696.765 110.935 697.162 111.332 697.162 111.73V117.533ZM708.609 128.423C708.609 128.9 708.211 129.218 707.814 129.218H702.011C701.534 129.218 701.137 128.821 701.137 128.423V122.62C701.137 122.143 701.534 121.825 702.011 121.825L707.814 121.825C708.291 121.825 708.609 122.222 708.609 122.62V128.423ZM708.609 117.533C708.609 118.01 708.211 118.328 707.814 118.328H702.011C701.534 118.328 701.137 117.93 701.137 117.533V111.73C701.137 111.253 701.534 110.935 702.011 110.935L707.814 110.935C708.291 110.935 708.609 111.332 708.609 111.73V117.533ZM709.165 106.563H689.133V99.1699H709.165V106.563Z" fill="black"/>
<path d="M727.608 122.143V107.278C723.713 109.504 719.182 109.901 714.969 108.311V128.344H728.324C727.847 127.707 727.609 126.913 727.609 126.038L727.608 122.143ZM722.997 124.369H719.659C719.182 124.369 718.864 123.972 718.864 123.574C718.864 123.097 719.261 122.779 719.659 122.779H722.997C723.474 122.779 723.792 123.177 723.792 123.574C723.792 124.051 723.395 124.369 722.997 124.369ZM722.997 119.361H719.659C719.182 119.361 718.864 118.964 718.864 118.566C718.864 118.169 719.261 117.771 719.659 117.771H722.997C723.474 117.771 723.792 118.169 723.792 118.566C723.792 118.964 723.395 119.361 722.997 119.361ZM722.997 114.353H719.659C719.182 114.353 718.864 113.956 718.864 113.558C718.864 113.081 719.261 112.763 719.659 112.763H722.997C723.474 112.763 723.792 113.161 723.792 113.558C723.792 114.035 723.395 114.353 722.997 114.353Z" fill="black"/>
<path fill-rule="evenodd" clip-rule="evenodd" d="M869.711 172.719H873.94L873.927 172.781C873.489 174.738 871.716 176.157 869.71 176.157C867.328 176.157 865.391 174.219 865.391 171.837C865.391 169.832 866.811 168.059 868.767 167.62L868.828 167.606V171.837C868.829 172.324 869.225 172.719 869.711 172.719ZM852.955 158V160.06H888.117V158H852.955ZM852.955 190.202H888.117V189.276H852.955V190.202ZM873.688 164.667L873.627 164.653V168H876.975L876.961 167.939C876.598 166.314 875.313 165.03 873.688 164.667ZM857.223 175.782C856.751 175.135 856.052 174.71 855.256 174.586C855.131 174.566 854.996 174.555 854.834 174.553L854.784 174.552V161.823H886.289V187.512H854.784V181.382L854.804 181.367L856.59 179.968C857.906 178.938 858.185 177.099 857.224 175.781L857.223 175.782ZM862.245 184.846C862.245 185.332 862.64 185.728 863.126 185.728H877.918C878.404 185.728 878.8 185.332 878.8 184.846C878.8 184.36 878.404 183.964 877.918 183.964H863.126C862.639 183.964 862.245 184.359 862.245 184.846ZM878.8 181.469C878.8 180.983 878.404 180.588 877.918 180.588H863.126C862.64 180.588 862.245 180.984 862.245 181.47C862.245 181.956 862.64 182.351 863.126 182.351L877.918 182.351C878.404 182.35 878.8 181.955 878.8 181.469ZM870.592 170.957V166.637C870.592 166.151 870.196 165.756 869.711 165.756C866.356 165.756 863.628 168.484 863.628 171.838C863.628 175.192 866.357 177.922 869.711 177.922C873.065 177.922 875.793 175.193 875.793 171.839C875.793 171.354 875.397 170.958 874.911 170.958L870.592 170.957ZM878.827 168.882C878.827 165.528 876.098 162.8 872.745 162.8C872.259 162.8 871.863 163.196 871.863 163.681V168.883C871.863 169.369 872.259 169.764 872.745 169.764H877.946C878.432 169.764 878.827 169.368 878.827 168.882ZM855.758 176.851C855.571 176.594 855.293 176.427 854.977 176.377C854.659 176.328 854.343 176.402 854.087 176.59L847.256 181.573C846.487 182.2 845.213 182.221 843.975 182.19C843.84 182.187 843.72 182.183 843.621 182.183H839.54C836.485 182.183 834 184.298 834 186.898L834 194.344C834 195.004 834.537 195.54 835.196 195.54C835.854 195.54 836.391 195.004 836.391 194.344L836.391 187.269C836.391 186.754 836.808 186.337 837.323 186.337C837.838 186.337 838.256 186.754 838.256 187.269V206.804C838.256 207.463 838.791 208 839.451 208C840.111 208 840.647 207.464 840.647 206.804V200.125C840.647 199.609 841.064 199.193 841.579 199.193C842.094 199.193 842.511 199.61 842.511 200.125V206.804C842.511 207.463 843.048 208 843.707 208C844.367 208 844.903 207.464 844.903 206.804V187.269C844.903 186.982 845.035 186.712 845.261 186.535L855.472 178.541C856.013 178.116 856.139 177.374 855.757 176.851L855.758 176.851ZM841.634 180.642C842.914 180.642 843.956 179.601 843.956 178.32C843.956 177.04 842.914 175.998 841.634 175.998C840.353 175.998 839.312 177.04 839.312 178.32C839.313 179.601 840.353 180.642 841.634 180.642ZM872.952 194.562C873.513 195.158 873.858 195.959 873.858 196.839C873.858 197.757 873.486 198.587 872.885 199.189C872.283 199.79 871.453 200.163 870.535 200.163C869.62 200.163 868.79 199.79 868.188 199.189H868.184C867.583 198.588 867.211 197.757 867.211 196.839C867.211 195.924 867.583 195.094 868.184 194.493V194.489C868.566 194.107 869.041 193.818 869.572 193.657V192.147H871.498V193.661C872.061 193.831 872.56 194.147 872.952 194.562ZM871.932 196.84C871.932 196.466 871.788 196.128 871.553 195.879C871.315 195.628 870.987 195.464 870.621 195.443L870.563 195.44L870.535 195.439V195.442C870.149 195.442 869.8 195.599 869.547 195.852L869.545 195.85C869.294 196.102 869.138 196.452 869.138 196.84C869.138 197.225 869.295 197.575 869.547 197.827L869.545 197.829C869.798 198.08 870.148 198.236 870.535 198.236C870.921 198.236 871.27 198.08 871.523 197.828C871.775 197.575 871.932 197.225 871.932 196.84Z" fill="black"/>
<defs>
<linearGradient id="paint0_linear_142_8772" x1="19" y1="123" x2="929" y2="143" gradientUnits="userSpaceOnUse">
<stop stop-color="#182232"/>
<stop offset="1" stop-color="#006C71"/>
</linearGradient>
</defs>
</svg>
