<svg width="55" height="55" viewBox="0 0 55 55" fill="none" xmlns="http://www.w3.org/2000/svg">
<rect x="1" y="1" width="53" height="53" rx="9" stroke="black" stroke-width="2"/>
<path fill-rule="evenodd" clip-rule="evenodd" d="M27.1222 13.9334L32.7329 17.1747L37.738 20.0608L32.8866 22.8719L22.2056 16.7705L27.1199 13.9348L27.1222 13.9334ZM17.2481 27.3117C17.8867 27.4512 18.4952 27.7037 19.0447 28.0574L19.4809 27.8343L20.1709 27.4843L20.7174 28.0295L21.2576 28.5751L20.9126 29.2631L20.6849 29.7002C21.0415 30.2504 21.2957 30.8606 21.4353 31.5009L21.9042 31.651L22.633 31.8896V33.4325L21.9042 33.6714L21.4353 33.8215C21.2957 34.4618 21.0415 35.072 20.6849 35.6222L20.9126 36.0597L21.2576 36.7474L20.7158 37.2909L20.1692 37.8364L19.4792 37.4864L19.0431 37.2627L19.0427 37.2631C18.4936 37.6173 17.8848 37.8702 17.2461 38.0091L17.09 38.4757L16.856 39.2095H15.3142L15.0736 38.4757L14.9235 38.0091C14.2828 37.8699 13.6724 37.617 13.1205 37.2631L12.685 37.4868L12.0013 37.8367L11.4555 37.2909L10.9089 36.7457L11.2589 36.058L11.4806 35.6205C11.124 35.0704 10.8702 34.4605 10.7303 33.8202L10.2683 33.6701L9.5332 33.4311V31.889L10.2683 31.6504L10.7303 31.5002V31.5006C10.8702 30.8599 11.124 30.2501 11.4806 29.6999L11.2589 29.2628L10.9089 28.5747L11.4555 28.0292L12.002 27.484L12.6857 27.834L13.1212 28.0571H13.1215C13.6733 27.7031 14.2841 27.4509 14.9245 27.3114L15.0746 26.8454L15.3152 26.1113H16.858L17.092 26.8454L17.2481 27.3114L17.2481 27.3117ZM16.0835 29.8209C15.3302 29.8205 14.6076 30.1191 14.0744 30.6514C13.5414 31.1837 13.2418 31.9062 13.2415 32.6595C13.2412 33.4125 13.5401 34.135 14.0727 34.6679C14.605 35.2009 15.3275 35.5001 16.0808 35.5005C16.8338 35.5005 17.5563 35.2015 18.0892 34.6689C18.6218 34.1363 18.9211 33.4138 18.9211 32.6608C18.9218 31.9078 18.6228 31.1853 18.0906 30.6527C17.5583 30.1202 16.8365 29.8209 16.0835 29.8209ZM39.3788 25.8627L42.7891 27.8317L45.6076 29.4599L43.2448 30.8274L37.0098 27.2321L39.3788 25.8627ZM42.067 31.5078L35.8317 27.9125L33.1498 29.4606L39.3789 33.0582L42.067 31.5078ZM46.1995 30.482L39.9711 34.078V41.2729L42.7896 39.6459L46.1999 37.6769V30.482H46.1995ZM38.7859 34.078L32.5572 30.482L32.5575 37.6769L35.9702 39.6459L38.7886 41.2729L38.7883 34.078H38.7859ZM31.7047 23.5582L21.0237 17.4534L16.4481 20.0964L27.1223 26.2181L31.7046 23.5578L31.7047 23.5582ZM38.3508 21.0685L27.7147 27.2386V39.5249L31.3792 37.4094V29.1176L38.3507 25.0911L38.3508 21.0685ZM26.5303 27.2419L15.8951 21.1415V24.929H17.7175L18.1725 26.3409C18.4831 26.443 18.7854 26.5676 19.0773 26.7141L20.3987 26.04L22.6994 28.3467L22.0293 29.6701L22.0289 29.6698C22.1725 29.9614 22.2964 30.2623 22.4001 30.5702L23.8126 31.0292V34.2907L22.4001 34.7498C22.2964 35.0576 22.1725 35.3583 22.0289 35.6499L22.6991 36.9733L22.4847 37.1897L26.5267 39.5239L26.5303 27.2419Z" fill="#006C71"/>
</svg>
