<svg width="777" height="570" viewBox="0 0 777 570" fill="none" xmlns="http://www.w3.org/2000/svg">
<path d="M396.319 567.685H396.468C397.364 567.685 398.085 566.947 398.063 566.051L395.647 461.359L388.533 460.529L394.602 566.06C394.655 566.973 395.406 567.685 396.319 567.685Z" fill="#B0D4FF"/>
<path d="M437.784 567.685H437.933C438.829 567.685 439.549 566.947 439.527 566.051L437.112 461.359L429.998 460.529L436.063 566.06C436.115 566.973 436.871 567.685 437.784 567.685Z" fill="#95C0F4"/>
<path d="M323.365 567.685H323.216C322.32 567.685 321.604 566.947 321.621 566.051L324.037 461.359L331.155 460.529L325.086 566.06C325.034 566.973 324.278 567.685 323.365 567.685Z" fill="#B0D4FF"/>
<path d="M442.496 454.864V383.126C442.496 370.501 432.264 360.269 419.643 360.269H367.951C355.33 360.269 345.094 370.501 345.094 383.126V457.609L442.496 454.864Z" fill="#B0D4FF"/>
<path d="M335.836 466.19H435.636C439.425 466.19 442.495 463.12 442.495 459.331V454.864H335.836V466.19Z" fill="#95C0F4"/>
<path d="M323.875 466.19H399.377C402.183 466.19 404.453 463.92 404.453 461.118V459.941C404.453 457.139 402.183 454.864 399.377 454.864H323.875C321.073 454.864 318.803 457.139 318.803 459.941V461.118C318.803 463.92 321.073 466.19 323.875 466.19Z" fill="#CAE5FF"/>
<path d="M497.853 334.5H199.881V77.276H497.853V334.5Z" fill="#95C0F4"/>
<path d="M492.057 329.371H205.551V81.5621H492.057V329.371Z" fill="#DFEDFB"/>
<path d="M305.688 189.38H242.908V110.985L253.553 101.389H305.688V189.38Z" fill="white"/>
<path d="M242.908 110.985H253.21L253.553 101.389L242.908 110.985Z" fill="#B0D4FF"/>
<path d="M284.35 109.975H264.246V109.017H284.35V109.975Z" fill="#B0D4FF"/>
<path d="M289.081 112.847H259.518V111.889H289.081V112.847Z" fill="#B0D4FF"/>
<path d="M299.432 131.563H250.34V130.333H299.432V131.563Z" fill="#B0D4FF"/>
<path d="M299.432 135.304H250.34V134.07H299.432V135.304Z" fill="#B0D4FF"/>
<path d="M299.432 139.041H250.34V137.812H299.432V139.041Z" fill="#B0D4FF"/>
<path d="M299.432 142.779H250.34V141.549H299.432V142.779Z" fill="#B0D4FF"/>
<path d="M299.432 182.776H250.34V181.546H299.432V182.776Z" fill="#B0D4FF"/>
<path d="M378.183 298.147H315.398V219.752L326.048 210.156H378.183V298.147Z" fill="white"/>
<path d="M315.398 219.752H325.705L326.048 210.156L315.398 219.752Z" fill="#B0D4FF"/>
<path d="M356.84 218.742H336.74V217.784H356.84V218.742Z" fill="#B0D4FF"/>
<path d="M361.573 221.614H332.006V220.656H361.573V221.614Z" fill="#B0D4FF"/>
<path d="M371.926 240.33H322.834V239.1H371.926V240.33Z" fill="#B0D4FF"/>
<path d="M371.926 244.071H322.834V242.837H371.926V244.071Z" fill="#B0D4FF"/>
<path d="M371.926 247.808H322.834V246.574H371.926V247.808Z" fill="#B0D4FF"/>
<path d="M371.926 251.546H322.834V250.316H371.926V251.546Z" fill="#B0D4FF"/>
<path d="M371.926 263.047H322.834V261.817H371.926V263.047Z" fill="#B0D4FF"/>
<path d="M371.926 266.784H322.834V265.554H371.926V266.784Z" fill="#B0D4FF"/>
<path d="M371.926 271.118H322.834V269.889H371.926V271.118Z" fill="#B0D4FF"/>
<path d="M378.943 101.389H413.609V131.949H378.943V101.389Z" fill="#B0D4FF"/>
<path d="M394.76 105.025C394.76 104.187 395.436 103.51 396.275 103.51C397.114 103.51 397.794 104.187 397.794 105.025C397.794 105.864 397.114 106.545 396.275 106.545C395.436 106.545 394.76 105.864 394.76 105.025Z" fill="#FFA412"/>
<path d="M377.92 143.969L412.502 141.553L414.632 172.043L380.05 174.458L377.92 143.969Z" fill="white"/>
<path d="M394.084 148.386C394.027 147.552 394.655 146.827 395.493 146.77C396.328 146.709 397.052 147.341 397.109 148.176C397.171 149.014 396.539 149.739 395.704 149.796C394.865 149.853 394.141 149.225 394.084 148.386Z" fill="#B0D4FF"/>
<path d="M262.719 256.565L297.306 254.15L299.431 284.639L264.849 287.055L262.719 256.565Z" fill="white"/>
<path d="M278.884 260.983C278.827 260.148 279.455 259.424 280.294 259.362C281.128 259.305 281.853 259.938 281.915 260.772C281.972 261.611 281.339 262.335 280.505 262.392C279.666 262.45 278.942 261.822 278.884 260.983Z" fill="#B0D4FF"/>
<path d="M219.125 276.441L253.791 276.085L254.103 306.645L219.441 307L219.125 276.441Z" fill="white"/>
<path d="M234.996 281.811C234.992 280.973 235.664 280.287 236.502 280.279C237.337 280.27 238.026 280.942 238.035 281.781C238.044 282.619 237.372 283.304 236.533 283.313C235.694 283.322 235.005 282.65 234.996 281.811Z" fill="#B0D4FF"/>
<path d="M430.863 160.015L464.989 166.115L459.614 196.2L425.488 190.101L430.863 160.015Z" fill="#EEF6FF"/>
<path d="M445.897 166.909C446.025 166.189 446.71 165.715 447.43 165.842C448.146 165.97 448.625 166.655 448.497 167.371C448.37 168.091 447.68 168.569 446.965 168.442C446.249 168.31 445.77 167.625 445.897 166.909Z" fill="#78ACEA"/>
<path d="M324.033 144.68L358.497 140.947L361.786 171.332L327.322 175.064L324.033 144.68Z" fill="#EEF6FF"/>
<path d="M340.399 147.073C340.319 146.349 340.842 145.694 341.567 145.615C342.291 145.541 342.941 146.063 343.02 146.788C343.099 147.513 342.577 148.162 341.852 148.241C341.128 148.321 340.473 147.798 340.399 147.073Z" fill="#78ACEA"/>
<path d="M234.609 220.423L268.511 213.195L274.888 243.083L240.981 250.316L234.609 220.423Z" fill="#BAE8E3"/>
<path d="M251.701 221.956C251.09 221.557 250.914 220.74 251.314 220.129C251.709 219.519 252.526 219.343 253.141 219.738C253.751 220.134 253.923 220.955 253.527 221.565C253.132 222.176 252.315 222.351 251.701 221.956Z" fill="#FFA412"/>
<path d="M359.405 131.949H326.412V109.781L335.546 101.389H359.405V131.949Z" fill="white"/>
<path d="M326.236 109.781H335.248L335.546 101.389L326.236 109.781Z" fill="#B0D4FF"/>
<path d="M343.029 104.217C343.029 103.616 343.517 103.133 344.114 103.133C344.716 103.133 345.199 103.616 345.199 104.217C345.199 104.815 344.716 105.302 344.114 105.302C343.517 105.302 343.029 104.815 343.029 104.217Z" fill="#B0D4FF"/>
<path d="M455.816 313.43H422.818V291.257L431.953 282.865H455.816V313.43Z" fill="white"/>
<path d="M422.641 291.257H431.652L431.95 282.865L422.641 291.257Z" fill="#B0D4FF"/>
<path d="M439.436 285.693C439.436 285.096 439.923 284.609 440.52 284.609C441.122 284.609 441.605 285.096 441.605 285.693C441.605 286.29 441.122 286.778 440.52 286.778C439.923 286.778 439.436 286.29 439.436 285.693Z" fill="#B0D4FF"/>
<path d="M470.864 269.432H437.871V247.264L447.005 238.868H470.864V269.432Z" fill="white"/>
<path d="M437.691 247.264H446.707L447.006 238.867L437.691 247.264Z" fill="#B0D4FF"/>
<path d="M454.488 241.696C454.488 241.098 454.976 240.611 455.573 240.611C456.17 240.611 456.658 241.098 456.658 241.696C456.658 242.297 456.17 242.78 455.573 242.78C454.976 242.78 454.488 242.297 454.488 241.696Z" fill="#B0D4FF"/>
<path d="M427.323 269.432H394.326V247.264L403.46 238.868H427.323V269.432Z" fill="#BAE8E3"/>
<path d="M394.15 247.264H403.162L403.46 238.867L394.15 247.264Z" fill="#A1D6CE"/>
<path d="M410.943 241.696C410.943 241.098 411.431 240.611 412.028 240.611C412.63 240.611 413.117 241.098 413.117 241.696C413.117 242.297 412.63 242.78 412.028 242.78C411.431 242.78 410.943 242.297 410.943 241.696Z" fill="#2B6EB2"/>
<path d="M480.179 124.299H447.182V102.131L456.316 93.7394H480.179V124.299Z" fill="#BAE8E3"/>
<path d="M447.006 102.131H456.017L456.316 93.7395L447.006 102.131Z" fill="#A1D6CE"/>
<path d="M463.799 96.5632C463.799 95.966 464.286 95.4785 464.884 95.4785C465.485 95.4785 465.968 95.966 465.968 96.5632C465.968 97.1648 465.485 97.6479 464.884 97.6479C464.286 97.6479 463.799 97.1648 463.799 96.5632Z" fill="#2B6EB2"/>
<path d="M153.886 71.0533H91.1237C88.243 71.0533 85.8848 68.6951 85.8848 65.8143V5.23895C85.8848 2.35816 88.243 -3.05176e-05 91.1237 -3.05176e-05H153.886C156.767 -3.05176e-05 159.125 2.35816 159.125 5.23895V65.8143C159.125 68.6951 156.767 71.0533 153.886 71.0533Z" fill="#C0D8FB"/>
<path d="M151.169 67.975H93.8428C91.2124 67.975 89.0605 65.8232 89.0605 63.1927V7.86506C89.0605 5.2302 91.2124 3.0784 93.8428 3.0784H151.169C153.799 3.0784 155.955 5.2302 155.955 7.86506V63.1927C155.955 65.8232 153.799 67.975 151.169 67.975Z" fill="#DFEBFD"/>
<path d="M120.99 9.56455C120.99 8.72578 121.667 8.04508 122.505 8.04508C123.344 8.04508 124.025 8.72578 124.025 9.56455C124.025 10.3989 123.344 11.0796 122.505 11.0796C121.667 11.0796 120.99 10.3989 120.99 9.56455Z" fill="#B7D3F3"/>
<path d="M133.228 11.7075C133.637 10.9741 134.559 10.7106 135.292 11.119C136.026 11.5274 136.289 12.4496 135.881 13.183C135.477 13.912 134.55 14.1755 133.817 13.7715C133.088 13.3631 132.824 12.4409 133.228 11.7075Z" fill="#B7D3F3"/>
<path d="M143.72 20.038C144.423 19.5857 145.362 19.7877 145.815 20.4947C146.271 21.1973 146.065 22.1371 145.362 22.5894C144.66 23.0417 143.72 22.8397 143.268 22.1371C142.811 21.4345 143.013 20.4947 143.72 20.038Z" fill="#B7D3F3"/>
<path d="M148.914 32.9358C149.748 32.9358 150.429 33.6164 150.429 34.4552C150.429 35.2939 149.748 35.9702 148.914 35.9702C148.075 35.9702 147.395 35.2939 147.395 34.4552C147.395 33.6164 148.075 32.9358 148.914 32.9358Z" fill="#B7D3F3"/>
<path d="M146.262 47.9016C146.85 48.4945 146.85 49.4562 146.262 50.049C145.669 50.6419 144.707 50.6419 144.115 50.049C143.522 49.4562 143.522 48.4945 144.115 47.9016C144.707 47.3132 145.669 47.3132 146.262 47.9016Z" fill="#B7D3F3"/>
<path d="M136.732 57.4573C137.325 58.0458 137.325 59.0075 136.732 59.6004C136.139 60.1932 135.178 60.1932 134.589 59.6004C133.996 59.0075 133.996 58.0458 134.589 57.4573C135.178 56.8645 136.139 56.8645 136.732 57.4573Z" fill="#B7D3F3"/>
<path d="M120.99 62.3803C120.99 61.5415 121.667 60.8608 122.505 60.8608C123.344 60.8608 124.025 61.5415 124.025 62.3803C124.025 63.2147 123.344 63.8953 122.505 63.8953C121.667 63.8953 120.99 63.2147 120.99 62.3803Z" fill="#B7D3F3"/>
<path d="M111.733 11.7075C111.325 10.9741 110.403 10.7106 109.669 11.119C108.936 11.5274 108.673 12.4496 109.081 13.183C109.489 13.912 110.412 14.1755 111.145 13.7715C111.874 13.3631 112.142 12.4409 111.733 11.7075Z" fill="#B7D3F3"/>
<path d="M101.245 20.038C100.538 19.5857 99.5979 19.7877 99.1456 20.4947C98.6933 21.1973 98.8953 22.1371 99.5979 22.5894C100.301 23.0417 101.24 22.8397 101.697 22.1371C102.149 21.4345 101.947 20.4947 101.245 20.038Z" fill="#B7D3F3"/>
<path d="M96.0507 32.9358C95.2119 32.9358 94.5312 33.6164 94.5312 34.4552C94.5312 35.2939 95.2119 35.9702 96.0507 35.9702C96.885 35.9702 97.5657 35.2939 97.5657 34.4552C97.5657 33.6164 96.885 32.9358 96.0507 32.9358Z" fill="#B7D3F3"/>
<path d="M98.7024 47.9016C98.1096 48.4945 98.1096 49.4562 98.7024 50.049C99.2953 50.6419 100.253 50.6419 100.845 50.049C101.438 49.4562 101.438 48.4945 100.845 47.9016C100.253 47.3132 99.2953 47.3132 98.7024 47.9016Z" fill="#B7D3F3"/>
<path d="M108.228 57.4573C107.635 58.0458 107.635 59.0075 108.228 59.6004C108.821 60.1932 109.782 60.1932 110.375 59.6004C110.968 59.0075 110.968 58.0458 110.375 57.4573C109.782 56.8645 108.821 56.8645 108.228 57.4573Z" fill="#B7D3F3"/>
<path d="M122.096 34.4552C122.096 33.6164 122.776 32.9358 123.611 32.9358C124.45 32.9358 125.13 33.6164 125.13 34.4552C125.13 35.2939 124.45 35.9702 123.611 35.9702C122.776 35.9702 122.096 35.2939 122.096 34.4552Z" fill="#B7D3F3"/>
<path d="M123.821 34.4551H123.404V15.5017H123.821V34.4551Z" fill="#B7D3F3"/>
<path d="M123.806 34.9162L123.037 33.9369L133.089 26.0499L133.853 27.0292L123.806 34.9162Z" fill="#B7D3F3"/>
<path d="M540.262 563.939C539.963 568.014 534.21 568.058 527.685 567.303C521.159 566.543 522.894 568.194 513.755 568.321C504.621 568.449 501.472 565.428 501.029 564.123C500.633 562.964 505.034 561.989 509.741 560.843C510.334 560.702 510.931 560.553 511.524 560.404C516.833 559.051 520.347 555.081 524.887 551.612C529.191 548.323 534.742 536.431 534.742 536.431L547.222 535.864C547.222 535.864 541.966 546.527 539.989 551.125C538.83 553.825 539.326 557.15 539.827 559.697C540.099 561.084 540.367 562.503 540.262 563.939Z" fill="#FFB27D"/>
<path d="M527.685 567.303C521.159 566.543 522.894 568.194 513.755 568.321C504.621 568.449 501.472 565.428 501.029 564.123C500.633 562.964 505.034 561.989 509.741 560.843L509.798 560.931C509.798 560.931 515.683 564.088 523.205 563.333C529.34 562.718 535.598 560.158 539.827 559.697C540.099 561.084 540.367 562.503 540.262 563.939C539.963 568.014 534.21 568.058 527.685 567.303Z" fill="#233862"/>
<path d="M626.471 564.782C626.176 568.862 620.424 568.91 613.898 568.159C607.372 567.408 609.107 569.059 599.973 569.195C590.834 569.332 587.681 566.315 587.238 565.01C586.842 563.851 591.243 562.872 595.95 561.721C596.539 561.576 597.136 561.427 597.729 561.278C603.038 559.921 606.547 555.946 611.087 552.473C615.387 549.179 611.087 529.699 611.087 529.699L624.82 528.364C624.82 528.364 624.161 544.766 624.17 552.223C624.174 555.165 625.527 557.993 626.036 560.544C626.304 561.932 626.576 563.346 626.471 564.782Z" fill="#FFB27D"/>
<path d="M613.898 568.159C607.372 567.408 609.107 569.059 599.973 569.195C590.834 569.332 587.681 566.315 587.238 565.01C586.842 563.851 591.243 562.872 595.95 561.721L596.003 561.805C596.003 561.805 601.892 564.958 609.414 564.194C615.549 563.574 621.803 561.005 626.036 560.544C626.304 561.932 626.576 563.346 626.471 564.782C626.176 568.862 620.424 568.91 613.898 568.159Z" fill="#233862"/>
<path d="M586.403 228.078C584.04 218.359 587.466 213.832 590.557 211.421C592.024 207.842 593.697 205.264 595.405 204.289C598.528 202.52 602.265 202.322 604.882 202.48C604.21 201.782 602.884 201.531 602.884 201.531C604.505 201.29 608.127 202.897 608.127 202.897C630.686 194.207 634.23 227.423 633.756 235.139C633.286 242.855 633.347 251.945 645.086 258.023C667.482 269.625 637.642 313.346 637.642 313.346C638.213 307.11 609.441 274.201 594.426 264.342C590.773 258.963 589.473 249.46 589.376 248.709C590.008 256.244 591.295 260.473 592.45 262.853C585.608 256.556 584.594 241.436 586.403 228.078Z" fill="black"/>
<path d="M595.313 264.834C595.238 264.869 602.563 268.668 608.07 267.162C613.252 265.752 616.638 259.033 616.568 259.015C614.372 258.581 613.739 255.564 613.788 242.609L612.795 242.802L596.117 246.105C596.117 246.105 596.494 251.357 596.508 256.302C596.516 260.451 596.266 264.391 595.313 264.834Z" fill="#FFB27D"/>
<path d="M596.117 246.105C596.117 246.105 596.495 251.357 596.508 256.302C605.84 256.038 610.776 247.523 612.796 242.802L596.117 246.105Z" fill="#995B31"/>
<path d="M528.25 543.04C527.434 545.6 529.269 548.244 531.957 548.371L538.474 548.674L545.368 548.885C547.094 548.938 548.741 548.187 549.83 546.847C555.337 540.098 572.275 517.596 582.551 484.902C582.84 483.984 583.143 483.057 583.468 482.118C590.253 462.33 604.323 437.492 611.736 415.012C612.917 411.429 613.976 408.061 614.924 404.868C615.232 403.849 615.526 402.844 615.807 401.855C621.274 382.871 622.855 370.408 624.313 357.094L570.777 357.52C570.777 357.52 559.509 445.12 528.25 543.04Z" fill="#2A4E96"/>
<path d="M578.274 326.758C578.41 352.232 574.537 363.163 574.537 363.163C574.537 363.163 597.456 374.809 624.7 366.237C625.021 366.136 647.255 361.059 647.255 361.059C646.802 360.031 642.745 342.861 642.301 341.917C636.548 329.564 632.183 324.149 631.502 320.35C630.238 313.263 630.207 305.925 630.839 299.008C632.499 280.696 637.444 265.493 637.444 265.493C630.023 263.802 623.071 260.833 615.346 257.939C613.568 260.153 608.136 262.467 603.424 262.362C597.996 262.239 596.235 259.916 596.516 257.382C590.737 260.601 586.121 263.64 586.121 263.64C581.207 272.176 571.239 280.467 570.519 293.563C570.339 296.782 578.27 326.046 578.274 326.758Z" fill="white"/>
<path d="M624.314 329.599C626.654 332.91 631.138 353.04 642.301 355.574C636.548 341.223 632.183 334.935 631.503 330.521C630.238 322.287 630.207 313.768 630.839 305.732C627.102 299.184 624.314 294.692 624.314 294.692C624.02 293.633 618.377 276.182 616.567 291.78C614.762 307.387 621.701 325.893 624.314 329.599Z" fill="#5F9AA8"/>
<path d="M592.998 250.786C592.998 250.786 615.083 251.155 615.096 237.396C615.113 223.642 617.972 214.425 603.871 213.608C589.775 212.796 587.03 218.039 585.906 222.632C584.786 227.221 587.254 250.338 592.998 250.786Z" fill="#FFB27D"/>
<path d="M593.814 213.27C593.814 213.27 599.861 229.408 609.141 231.797C618.42 234.182 622.447 231.696 622.447 231.696C622.447 231.696 615.328 226.04 613.848 216.173C613.848 216.173 598.377 205.589 593.814 213.27Z" fill="black"/>
<path d="M595.313 214.583C595.313 214.583 590.799 218.184 589.696 221.688C588.598 225.193 588.102 232.403 585.999 232.157C585.999 232.157 581.445 221.188 586.565 214.983C591.993 208.404 595.313 214.583 595.313 214.583Z" fill="black"/>
<path d="M558.248 344.442L547.818 376.24L553.769 378.625L571.014 350.533L558.248 344.442Z" fill="#FFB27D"/>
<path d="M586.372 261.764C586.372 261.764 574.072 266.648 570.514 274.254C566.953 281.864 561.565 332.901 559.417 338.145C557.27 343.384 555.658 347.533 555.658 347.533C555.658 347.533 561.859 352.759 568.095 353.141C574.331 353.528 586.372 261.764 586.372 261.764Z" fill="#2B6EB2"/>
<path d="M596.515 257.382C596.515 257.382 583.74 288.947 583.363 295.332C582.989 301.722 581.861 399.791 581.861 399.791C581.861 399.791 582.612 404.302 573.969 402.422C565.327 400.547 563.074 398.667 563.074 398.667C563.074 398.667 571.339 338.171 569.086 317.127C566.833 296.083 586.371 261.764 586.371 261.764L596.515 257.382Z" fill="#2B6EB2"/>
<path d="M538.475 548.674L545.962 548.903C547.297 548.947 548.579 548.367 549.431 547.335C554.464 541.244 572.012 518.431 582.551 484.902C582.841 483.984 583.144 483.058 583.469 482.118C590.254 462.33 604.324 437.492 611.737 415.012C612.918 411.429 613.977 408.061 614.925 404.868C615.232 403.849 615.527 402.844 615.808 401.856L607.925 395.874C607.925 395.874 584.255 434.199 576.93 470.27C570.567 501.598 545.075 539.299 538.475 548.674Z" fill="#1E3D70"/>
<path d="M607.105 473.629C606.977 490.224 607.763 527.209 609.783 545.288C609.968 546.944 611.364 548.191 613.033 548.191H618.619C620.973 548.191 622.734 548.174 623.902 548.156C624.916 548.143 625.781 547.414 625.975 546.421C631.53 518.154 635.504 494.673 638.416 474.38C640.853 457.398 643.013 442.836 644.678 430.299C646.355 417.687 647.519 407.125 647.936 398.197C648.002 396.796 648.05 395.426 648.077 394.1C648.103 392.765 648.112 391.47 648.099 390.209L601.844 385.704C602.428 416.435 607.179 463.436 607.105 473.629Z" fill="#2A4E96"/>
<path d="M618.617 548.191C620.729 548.191 622.368 548.178 623.527 548.16C624.756 548.143 625.806 547.265 626.043 546.057C631.563 517.952 635.515 494.585 638.414 474.38C640.851 457.398 643.012 442.836 644.676 430.299C646.353 417.687 647.517 407.125 647.934 398.197L630.962 408.183C630.962 408.183 641.795 412.004 637.663 440.939C633.531 469.87 624.37 544.094 618.617 548.191Z" fill="#1E3D70"/>
<path d="M616.431 397.916C616.431 397.916 619.689 409.685 630.962 408.184C642.235 406.682 658.263 399.919 658.263 399.919C658.263 399.919 653.446 384.694 647.456 364.7C640.206 340.49 631.23 309.28 626.996 289.593C625.811 284.077 624.998 279.471 624.7 276.168L615.346 258.023C615.346 258.023 601.403 289.321 600.648 297.212C599.897 305.104 616.431 397.916 616.431 397.916Z" fill="#2B6EB2"/>
<path d="M627.687 296.035L615.347 258.023C615.377 258.04 630.936 262.651 638.762 266.608C638.762 266.608 643.649 272.914 646.675 287.459C646.675 287.459 649.876 322.388 642.736 335.163C642.736 335.163 620.19 339.673 584.119 327.271V319.007C584.119 319.007 623.572 321.071 631.652 322.01L627.687 296.035Z" fill="#FFB27D"/>
<path d="M616.932 313.746C617.437 326.521 620.44 351.319 647.246 364.594C647.316 364.629 647.386 364.669 647.457 364.7C640.206 340.49 631.23 309.28 626.997 289.593C622.074 296.949 616.659 306.711 616.932 313.746Z" fill="#182232"/>
<path d="M615.348 258.023C615.348 258.023 638.227 259.639 643.738 271.913C649.249 284.187 651.002 325.019 643.989 337.042C643.989 337.042 634.332 339.791 617.253 336.599C617.043 336.559 616.832 336.52 616.621 336.48C616.621 336.48 611.171 323.139 616.059 320.509C616.059 320.509 630.463 321.26 628.957 316.499C627.455 311.743 615.348 258.023 615.348 258.023Z" fill="#2B6EB2"/>
<path d="M557.977 324.114L558.648 326.279L596.195 314.602C596.195 314.602 596.696 314.031 596.45 313.272C596.178 312.437 595.523 312.433 595.523 312.433L557.977 324.114Z" fill="black"/>
<path d="M555.264 326.16L557.978 324.114L558.649 326.279L555.264 326.16Z" fill="black"/>
<path d="M549.304 375.371C549.304 375.371 539.779 380.636 538.524 384.646C537.272 388.655 538.133 397.051 539.643 396.928C541.158 396.801 543.411 387.904 544.667 387.276C545.919 386.652 547.675 384.773 547.675 386.152C547.675 387.526 546.419 390.034 547.047 390.411C547.675 390.785 549.678 386.903 551.057 386.152C552.436 385.396 553.015 379.2 554.355 377.536C555.694 375.871 549.304 375.371 549.304 375.371Z" fill="#FFB27D"/>
<path d="M584.118 319.007C584.118 319.007 575.599 313.759 572.024 314.567C568.454 315.375 559.346 321.971 563.724 323.398C568.107 324.825 571.655 323.328 573.337 324.364C575.024 325.401 576.266 327.298 584.118 327.271C591.966 327.245 584.118 319.007 584.118 319.007Z" fill="#FFB27D"/>
<path d="M94.2107 567.961H94.057C93.1655 567.961 92.4453 567.228 92.4673 566.332L94.8826 461.64L101.997 460.81L95.9277 566.341C95.875 567.25 95.1241 567.961 94.2107 567.961Z" fill="#B0D4FF"/>
<path d="M52.7458 567.961H52.5921C51.7007 567.961 50.9805 567.228 51.0024 566.332L53.4177 461.64L60.5318 460.81L54.4629 566.341C54.4102 567.25 53.6593 567.961 52.7458 567.961Z" fill="#95C0F4"/>
<path d="M167.161 567.961H167.315C168.206 567.961 168.926 567.228 168.909 566.332L166.489 461.64L159.375 460.81L165.444 566.341C165.497 567.25 166.248 567.961 167.161 567.961Z" fill="#B0D4FF"/>
<path d="M48.0312 455.145V383.403C48.0312 370.782 58.2677 360.545 70.8887 360.545H122.576C135.201 360.545 145.433 370.782 145.433 383.403V457.886L48.0312 455.145Z" fill="#B0D4FF"/>
<path d="M154.695 466.471H54.8951C51.1052 466.471 48.0312 463.397 48.0312 459.607V455.146H154.695V466.471Z" fill="#95C0F4"/>
<path d="M166.656 466.471H91.1502C88.3485 466.471 86.0781 464.201 86.0781 461.399V460.222C86.0781 457.416 88.3485 455.146 91.1502 455.146H166.656C169.458 455.146 171.729 457.416 171.729 460.222V461.399C171.729 464.201 169.458 466.471 166.656 466.471Z" fill="#B0D4FF"/>
<path d="M163.724 437.268C156.32 450.157 147.005 455.132 147.005 455.132H108.26C108.26 455.132 169.371 427.44 163.724 437.268Z" fill="#233862"/>
<path d="M133.966 536.984C132.956 538.139 132.824 539.435 133.325 540.814C133.325 540.818 133.329 540.827 133.333 540.831C134.26 543.387 137.312 546.237 140.86 549.087C141.313 549.451 141.717 549.785 142.068 550.093C142.16 550.172 142.252 550.255 142.336 550.334C142.41 550.4 142.476 550.466 142.547 550.523C145.853 553.571 144.606 554.269 150.548 560.456C157.324 567.505 161.987 567.632 163.314 566.991C164.438 566.442 162.159 562.705 159.629 558.502C159.506 558.3 159.388 558.094 159.26 557.892C158.927 557.33 158.588 556.763 158.255 556.201C155.295 551.147 156.055 548.775 156.757 541.248C157.328 535.131 166.273 507.083 166.273 507.083L153.288 504.843C153.288 504.843 149.38 527.183 145.072 530.621C142.771 532.457 140.188 532.479 137.975 533.836C137.821 533.932 137.668 534.029 137.518 534.13C136.258 534.964 134.976 535.825 133.966 536.984Z" fill="#FFB27D"/>
<path d="M133.966 536.984C132.956 538.139 132.824 539.435 133.325 540.814C133.325 540.818 133.329 540.827 133.333 540.831C134.466 543.383 137.444 546.219 140.869 549.061C141.317 549.434 141.712 549.772 142.068 550.093C142.16 550.172 142.252 550.255 142.336 550.334C142.41 550.4 142.476 550.466 142.547 550.523C145.853 553.571 144.606 554.269 150.548 560.456C157.324 567.505 161.987 567.632 163.314 566.991C164.438 566.442 162.159 562.705 159.629 558.502C158.312 558.019 152.186 555.529 147.553 549.605C143.473 544.401 140.755 537.713 137.975 533.836C137.821 533.932 137.668 534.029 137.518 534.13C136.258 534.964 134.976 535.825 133.966 536.984Z" fill="#233862"/>
<path d="M238.645 528.873C239.449 532.883 245.162 532.215 251.543 530.652C257.923 529.093 256.408 530.95 265.49 529.945C274.571 528.939 277.325 525.549 277.601 524.201C277.847 523.002 273.359 522.58 268.546 522.027C267.94 521.957 267.334 521.882 266.724 521.807C261.292 521.127 257.313 517.618 252.373 514.737C247.696 512.01 240.718 500.895 240.718 500.895L228.264 501.879C228.264 501.879 234.798 511.808 237.328 516.125C238.816 518.663 238.737 522.023 238.553 524.614C238.456 526.023 238.364 527.464 238.645 528.873Z" fill="#FFB27D"/>
<path d="M251.542 530.652C257.923 529.093 256.408 530.95 265.49 529.945C274.571 528.939 277.325 525.549 277.601 524.201C277.847 523.002 273.359 522.58 268.546 522.027L268.502 522.119C268.502 522.119 263.057 525.979 255.495 526.159C249.334 526.309 242.808 524.543 238.553 524.614C238.456 526.023 238.364 527.464 238.645 528.873C239.448 532.883 245.162 532.215 251.542 530.652Z" fill="#233862"/>
<path d="M190.911 449.226L179.269 480.559L164.066 521.474C164.066 521.474 159.942 521.869 155.99 520.736C152.354 519.682 148.178 516.933 148.178 516.933C148.178 516.933 152.402 473.006 160.276 447.79C162.292 441.317 164.553 436.082 167.052 433.131C179.256 418.705 190.911 449.226 190.911 449.226Z" fill="#233862"/>
<path d="M179.071 399.466C171.443 397.007 149.688 400.165 127.832 404.442L123.256 396.893L76.0439 393.209C76.0439 393.209 60.4675 427.756 68.9957 449.766C70.2516 453.002 72.7416 455.075 76.9881 455.145C76.9881 455.145 77.6731 455.145 77.6775 455.145C77.6775 455.145 105.774 455.128 114.895 455.128C138.376 455.128 164.584 438.989 167.974 438.313C173.525 437.202 175.743 448.304 181.293 459.954C186.844 471.609 233.459 511.567 233.459 511.567C233.459 511.567 240.622 511.637 243.581 510.526C246.765 509.331 247.929 507.781 247.929 507.781C247.929 507.781 196.277 405.017 179.071 399.466Z" fill="black"/>
<path d="M121.397 259.433C115.35 256.258 106.146 255.827 104.653 255.625C86.7621 253.223 75.9943 279.216 75.362 287.094C74.1938 301.612 66.5132 303.826 55.7059 312.916C34.0298 331.149 40.3842 352.333 52.2367 360.203C59.3508 364.928 71.8839 360.203 71.8839 360.203C72.0596 360.326 106.163 341.14 122.974 331.882C148.176 328.299 136.807 267.526 121.397 259.433Z" fill="#233862"/>
<path d="M108.888 324.004C108.963 324.052 100.615 326.898 95.0376 324.43C89.7854 322.107 85.8111 313.473 85.8858 313.469C88.2747 313.359 90.8964 311.269 92.9165 297.568L93.9353 297.937L111.031 304.089C111.031 304.089 109.793 309.574 108.989 314.795C108.317 319.182 107.953 323.385 108.888 324.004Z" fill="#FFB27D"/>
<path d="M111.029 304.089C111.029 304.089 109.791 309.574 108.987 314.795C99.1682 313.03 95.3125 303.246 93.9336 297.937L111.029 304.089Z" fill="#995B31"/>
<path d="M113.577 309.535C113.577 309.535 90.1838 306.39 92.3619 291.855C94.5401 277.319 92.9899 267.122 108.017 268.51C123.045 269.902 125.109 275.883 125.561 280.911C126.013 285.939 119.716 309.974 113.577 309.535Z" fill="#FFB27D"/>
<path d="M124.71 272.945C124.71 272.945 109.735 285.847 99.5516 286.888C89.3635 287.929 85.5078 284.657 85.5078 284.657C85.5078 284.657 91.5109 279.673 95.125 271.628C96.1878 269.256 98.4406 267.631 101.032 267.407C108.304 266.779 122.088 266.494 124.71 272.945Z" fill="#233862"/>
<path d="M115.352 271.786C115.352 271.786 120.358 276.63 121.939 280.222C123.458 283.691 123.915 291.982 122.703 295.276C122.703 295.276 130.511 280.099 126.089 272.726C121.403 264.904 115.352 271.786 115.352 271.786Z" fill="#233862"/>
<path d="M128.584 358.464C127.876 405.817 128.39 395.918 123.213 400.415C121.961 401.495 118.452 402.141 113.837 402.444C99.3146 403.41 73.7916 401.017 72.8211 398.334C69.4705 389.05 71.8374 386.165 69.0445 371.95C68.7503 370.439 68.3902 368.801 67.9686 367.018C65.6367 357.256 63.3708 353.936 71.6354 338.25C79.1316 324.044 86.9176 312.512 87.6202 312.929C107.395 324.667 108.989 314.8 108.989 314.8C108.989 314.8 128.93 335.365 128.584 358.464Z" fill="white"/>
<path d="M179.269 480.559L164.066 521.474C164.066 521.474 159.942 521.869 155.99 520.736C152.354 519.682 148.178 516.933 148.178 516.933C148.178 516.933 152.402 473.006 160.276 447.79L179.269 480.559Z" fill="black"/>
<path d="M108.988 314.795C108.988 314.795 129.338 318.247 131.727 327.008C134.116 335.769 148.177 387.272 148.177 387.272C148.177 387.272 137.836 389.134 133.053 384.356C128.275 379.573 116.427 340.015 116.427 340.015L108.988 314.795Z" fill="white"/>
<path d="M113.836 402.444C99.3131 403.41 73.7901 401.017 72.8196 398.334C69.4689 389.05 71.8359 386.165 69.043 371.95L76.0429 352.228C76.0429 352.228 74.888 374.189 81.3609 379.964C87.8339 385.739 107.876 391.114 111.025 395.94C112.544 398.259 113.546 400.578 113.836 402.444Z" fill="#EBF3FF"/>
<path d="M97.2012 393.209C97.2012 393.209 111.526 390.021 113.836 391.29C116.146 392.563 121.793 397.192 122.505 398.804C123.212 400.415 117.358 397.578 115.452 397.069C114.222 396.74 110.973 397.864 109.37 398.4C102.607 400.657 98.4659 399.497 98.4659 399.497L97.2012 393.209Z" fill="#FFB27D"/>
<path d="M87.6051 312.916C87.6051 312.916 68.3706 314.101 61.7132 323.389C52.3375 336.463 33.7442 392.172 44.4022 399.607C56.404 407.973 99.0184 401.794 99.0184 401.794C99.0184 401.794 100.437 395.167 98.4651 391.957C96.489 388.751 64.4271 383.574 62.9472 382.094C61.4673 380.614 81.4439 353.234 81.4439 348.794C81.4439 344.354 87.6051 312.916 87.6051 312.916Z" fill="white"/>
<path d="M114.529 395.277C114.529 395.277 117.529 399.15 118.512 399.612C119.496 400.073 120.133 399.958 120.133 399.958L118.113 396.318L114.529 395.277Z" fill="#FFB27D"/>
<path d="M113.836 391.29L122.562 395.527C122.562 395.527 122.188 396.133 121.117 396.085C120.041 396.037 117.332 395.044 117.332 395.044L113.836 391.29Z" fill="#FFB27D"/>
<path d="M118.514 405.544H187.543L208.31 353.905H139.386L118.514 405.544Z" fill="#2B6EB2"/>
<path d="M188.35 403.529H97.2012V405.544H187.542L188.35 403.529Z" fill="#182232"/>
<path d="M170.116 379.723C170.639 377.909 169.589 376.438 167.771 376.438C165.958 376.438 164.065 377.909 163.542 379.723C163.024 381.536 164.074 383.012 165.887 383.012C167.706 383.012 169.598 381.536 170.116 379.723Z" fill="white"/>
<path d="M479.042 569.876H479.244C480.425 569.876 481.378 568.844 481.351 567.593L478.154 421.007L468.748 419.843L476.771 567.601C476.841 568.879 477.838 569.876 479.042 569.876Z" fill="#78ACEA"/>
<path d="M97.5428 569.876H97.3408C96.1595 569.876 95.2066 568.844 95.233 567.593L98.4299 421.007L107.836 419.843L99.8132 567.601C99.7429 568.879 98.7461 569.876 97.5428 569.876Z" fill="#78ACEA"/>
<path d="M490.375 423.703H87.7907C84.4927 423.703 81.8184 421.028 81.8184 417.731V411.987C81.8184 408.689 84.4927 406.014 87.7907 406.014H490.375C493.673 406.014 496.343 408.689 496.343 411.987V417.731C496.343 421.028 493.673 423.703 490.375 423.703Z" fill="#78ACEA"/>
<path d="M0.0528547 154.785C-1.4679 117.146 30.0784 100.423 62.3379 100.423C94.5929 100.423 129.698 108.78 132.737 158.829C134.695 191.027 117.529 210.837 68.1082 210.837C51.4383 210.837 38.4836 208.207 28.559 203.521L3.85453 225.474L15.9955 195.129C5.24045 185.13 0.709374 171.024 0.0528547 154.785Z" fill="#DFEDFB"/>
<path d="M733.203 569.714C733.203 569.714 734.108 562.643 736.211 558.441C738.315 554.234 751.691 556.908 751.691 556.908C751.691 556.908 754.365 559.205 754.941 569.907L733.203 569.714Z" fill="#233862"/>
<path d="M687.629 569.617C690.768 567.698 688.981 553.386 688.981 553.386C688.981 553.386 674.336 541.67 672.32 550.642C670.309 559.613 658.408 563.64 651.632 564.738C646.96 565.498 645.51 568.084 645.062 569.617H687.629Z" fill="#233862"/>
<path d="M717.965 465.523C717.368 468.807 716.991 471.504 716.89 473.436C715.528 499.991 694.533 560.716 690.778 562.13C684.968 564.321 675.821 559.662 671.034 558.138C669.049 557.505 667.71 555.503 668.153 553.474C678.548 505.678 682.369 436.855 683.761 396.107C684.463 375.586 687.985 361.41 687.985 361.41C687.985 361.41 739.189 347.749 739.492 365.029C739.76 380.32 722.533 440.294 717.965 465.523Z" fill="#213F7A"/>
<path d="M717.965 465.522L683.76 396.107C684.462 375.586 687.984 361.41 687.984 361.41C687.984 361.41 739.188 347.749 739.491 365.029C739.759 380.32 722.532 440.294 717.965 465.522Z" fill="#233862"/>
<path d="M706.574 365.09L733.639 561.269C733.639 561.269 745.526 564.136 754.77 561.844C754.77 561.844 762.697 457.504 762.038 432.279C761.375 407.055 767.725 364.783 760.589 360.124C753.453 355.46 706.574 365.09 706.574 365.09Z" fill="#213F7A"/>
<path d="M765.862 361.819C765.994 363.593 764.861 365.205 763.152 365.701C759.376 366.794 755.024 367.559 746.627 369.298C738.74 370.936 728.131 372.385 715.097 372.468C694.361 372.6 686.513 365.451 686.513 365.451C685.617 365.468 686.983 361.129 688.213 340.499C688.63 333.507 689.029 324.65 689.319 313.452C689.583 303.378 689.758 291.407 689.776 277.209C689.798 260.127 716.239 241.753 716.726 241.753L716.731 241.757C716.731 244.216 720.608 248.757 726.576 249.148C733.664 249.613 742.355 246.087 742.355 242.003C742.355 241.964 755.164 262.498 759.714 284.376C762.015 295.385 761.084 295.091 765.862 361.819Z" fill="#B0D0FF"/>
<path d="M716.727 241.753C716.727 241.753 692.139 241.542 686.224 249.842C680.308 258.141 667.336 302.78 674.103 317.632C680.875 332.488 693.54 311.489 700.571 302.389C707.601 293.29 716.727 241.753 716.727 241.753Z" fill="#B0D0FF"/>
<path d="M716.477 237.998L716.49 240.541C716.49 240.541 715.796 248.489 725.585 249.648C735.373 250.812 742.637 248.164 742.369 242.034C741.486 237.282 740.669 232.408 740.604 228.477C740.582 227.015 740.683 225.469 740.955 223.717L721.988 223.339L716.402 224.253L716.477 237.998Z" fill="#FFB27D"/>
<path d="M716.402 224.253L716.477 237.998C718.488 238.938 720.763 239.509 723.31 239.509C732.027 239.509 737.661 233.115 740.604 228.477C740.582 227.015 740.683 225.469 740.955 223.717L721.988 223.339L716.402 224.253Z" fill="#E2915A"/>
<path d="M742.409 220.665C740.209 232.509 724.927 232.118 718.322 231.376C716.464 231.169 715.296 230.932 715.296 230.932C713.202 230.37 712.029 227.072 711.489 222.747C710.409 214.192 711.77 201.633 713.215 198.422C715.393 193.588 719.49 188.362 734.878 192.134C750.27 195.906 745.233 205.493 742.409 220.665Z" fill="#FFB27D"/>
<path d="M691.586 275.018C691.586 275.018 682.079 296.018 682.356 302.315C682.356 302.315 687.063 302.152 691.586 303.501C699.021 305.714 691.586 275.018 691.586 275.018Z" fill="#98BAF4"/>
<path d="M708.493 187.15C708.493 187.15 715.265 186.627 723.257 183.153C729.739 180.334 737.92 183.439 740.577 184.84C740.507 184.409 740.335 183.825 739.927 183.241C739.927 183.241 741.121 184.089 741.297 185.27C741.42 185.358 741.473 185.424 741.442 185.441C741.442 185.441 742.795 185.195 743.664 185.586C743.664 185.586 743.054 185.498 742.839 185.889C742.817 185.933 742.781 185.968 742.742 185.999C752.855 190.887 753.791 206.872 750.532 210.569C746.62 215.018 740.704 225.087 740.704 225.087C740.704 225.087 740.208 222.672 740.924 218.755C741.635 214.842 738.254 214.842 733.981 213.059C729.708 211.28 733.27 206.296 729.528 203.271C725.791 200.245 712.085 202.023 712.265 199.709C707.176 197.856 708.493 187.672 708.493 187.15Z" fill="#233862"/>
<path d="M745.503 314.356C741.49 330.473 698.08 338.803 688.213 340.498C688.63 333.507 689.03 324.65 689.319 313.452L745.503 314.356Z" fill="#98BAF4"/>
<path d="M735.974 319.595C736.391 319.595 745.627 318.216 747.282 317.391C748.933 316.561 756.5 305.811 751.546 303.053C746.593 300.295 733.291 311.322 733.291 311.322L735.974 319.595Z" fill="#FFB27D"/>
<path d="M679.8 322.788C679.8 322.788 715.52 324.729 739.493 319.595C739.493 319.595 740.099 312.67 732.567 309.592C732.567 309.592 695.201 301.674 686.225 303.878C677.249 306.083 679.8 322.788 679.8 322.788Z" fill="#B0D0FF"/>
<path d="M761.836 294.753C754.424 303.694 744.732 310.992 734.047 312.701H734.043C733.955 312.564 730.811 307.787 731.399 300.769C731.672 297.519 732.748 293.791 735.29 289.817C736.072 288.596 736.77 287.169 737.389 285.583C743.226 270.697 742.356 242.003 742.356 242.003C742.356 242.003 767.133 244.598 774.853 255.63C779.582 262.384 773.553 280.621 761.836 294.753Z" fill="#B0D0FF"/>
<path d="M718.321 231.376C716.464 231.169 715.296 230.932 715.296 230.932C713.201 230.37 712.028 227.072 711.488 222.746C715.414 223.717 717.215 226.751 717.966 228.042C718.304 228.627 718.374 229.931 718.321 231.376Z" fill="#E2915A"/>
<path d="M708.339 238.073C708.339 238.073 699.785 223.954 706.438 223.339C713.091 222.725 715.765 227.23 716.727 228.881C717.689 230.537 716.476 237.998 716.476 237.998L708.339 238.073Z" fill="#FFB27D"/>
<path d="M740.955 300.295C740.692 302.082 740.156 303.729 739.497 305.196C737.407 309.837 734.047 312.701 734.047 312.701H734.043C711.822 302.666 707.326 268.224 706.57 249.297C706.267 241.691 706.57 236.588 706.57 236.588C716.596 233.268 719.415 239.039 719.415 239.039C719.415 239.039 731.25 267.188 737.389 285.583C739.739 292.623 741.254 298.235 740.955 300.295Z" fill="#B0D0FF"/>
<path d="M761.836 294.753C754.424 303.694 744.732 310.992 734.047 312.701H734.043C711.822 302.666 707.326 268.224 706.57 249.297C706.57 249.297 717.088 287.437 731.399 300.769C733.986 303.18 736.7 304.778 739.497 305.196C739.497 305.196 757.546 300.097 761.331 295.293C761.599 294.946 761.766 294.775 761.836 294.753Z" fill="#98BAF4"/>
<path d="M357.073 406.014H288.044L267.277 354.375H336.201L357.073 406.014Z" fill="black"/>
<path d="M287.236 404.003H378.385V406.014H288.044L287.236 404.003Z" fill="black"/>
<path d="M305.468 380.197C304.946 378.379 305.995 376.908 307.813 376.908C309.627 376.908 311.52 378.379 312.042 380.197C312.56 382.011 311.511 383.482 309.697 383.482C307.879 383.482 305.986 382.011 305.468 380.197Z" fill="white"/>
<path d="M232.43 96.2598C231.792 96.2598 231.211 96.1051 230.686 95.7958C230.164 95.4832 229.746 95.0643 229.434 94.5391C229.121 94.0139 228.965 93.4322 228.965 92.7942C228.965 92.1562 229.121 91.5746 229.434 91.0494C229.746 90.5241 230.164 90.1053 230.686 89.7927C231.211 89.4801 231.792 89.3239 232.43 89.3239C232.901 89.3239 233.349 89.4141 233.774 89.5945C234.199 89.7717 234.578 90.0295 234.91 90.3679L235.181 90.6434L234.393 91.6487L234.045 91.2765C233.587 90.8125 233.049 90.5805 232.43 90.5805C232.024 90.5805 231.654 90.6804 231.319 90.8802C230.984 91.08 230.716 91.3474 230.516 91.6825C230.32 92.0177 230.222 92.3882 230.222 92.7942C230.222 93.2002 230.32 93.5708 230.516 93.9059C230.716 94.241 230.984 94.5085 231.319 94.7082C231.654 94.908 232.024 95.0079 232.43 95.0079C232.746 95.0079 233.046 94.9451 233.329 94.8194C233.616 94.6905 233.866 94.5085 234.079 94.2732L234.436 93.8769L235.21 94.9064C234.978 95.1578 234.765 95.3656 234.572 95.5299C234.378 95.691 234.132 95.8377 233.832 95.9698C233.384 96.1631 232.917 96.2598 232.43 96.2598Z" fill="#182232"/>
<path d="M240.792 96.2598H239.564V95.8924C239.142 96.1373 238.701 96.2598 238.24 96.2598C237.77 96.2598 237.341 96.1454 236.954 95.9166C236.568 95.6846 236.258 95.3753 236.026 94.9886C235.798 94.6019 235.683 94.175 235.683 93.7077C235.683 93.2373 235.798 92.8087 236.026 92.4221C236.258 92.0354 236.568 91.7277 236.954 91.4989C237.341 91.2669 237.77 91.1509 238.24 91.1509C238.701 91.1509 239.142 91.2749 239.564 91.523V91.1509H240.792V96.2598ZM238.24 95.0031C238.598 95.0031 238.902 94.8774 239.154 94.6261C239.408 94.3715 239.535 94.0654 239.535 93.7077C239.535 93.3501 239.408 93.044 239.154 92.7894C238.902 92.5348 238.598 92.4076 238.24 92.4076C237.882 92.4076 237.576 92.5348 237.322 92.7894C237.067 93.044 236.94 93.3501 236.94 93.7077C236.94 94.0654 237.067 94.3715 237.322 94.6261C237.576 94.8774 237.882 95.0031 238.24 95.0031Z" fill="#182232"/>
<path d="M242.89 97.7195H241.657V91.1509H242.89V91.523C243.309 91.2749 243.75 91.1509 244.214 91.1509C244.681 91.1509 245.108 91.2669 245.495 91.4989C245.882 91.7277 246.189 92.0354 246.418 92.4221C246.65 92.8087 246.766 93.2373 246.766 93.7077C246.766 94.175 246.65 94.6019 246.418 94.9886C246.189 95.3753 245.882 95.6846 245.495 95.9166C245.108 96.1454 244.681 96.2598 244.214 96.2598C243.75 96.2598 243.309 96.1373 242.89 95.8924V97.7195ZM244.214 95.0031C244.572 95.0031 244.876 94.8774 245.128 94.6261C245.382 94.3715 245.51 94.0654 245.51 93.7077C245.51 93.3501 245.382 93.044 245.128 92.7894C244.876 92.5348 244.572 92.4076 244.214 92.4076C243.857 92.4076 243.55 92.5348 243.296 92.7894C243.041 93.044 242.914 93.3501 242.914 93.7077C242.914 94.0654 243.041 94.3715 243.296 94.6261C243.55 94.8774 243.857 95.0031 244.214 95.0031Z" fill="#182232"/>
<path d="M253.103 96.2598H252.257L248.864 91.8517V96.2598H247.631V89.3239H248.477L251.875 93.7657V89.3239H253.103V96.2598Z" fill="#182232"/>
<path d="M258.922 96.2598H257.472L256.443 94.6696L255.418 96.2598H253.963L255.722 93.5531L254.171 91.1509H255.606L256.443 92.4414L257.279 91.1509H258.714L257.168 93.5531L258.922 96.2598Z" fill="#182232"/>
<path d="M261.566 96.2598C261.105 96.2598 260.717 96.1115 260.401 95.8151C260.037 95.4639 259.855 94.9306 259.855 94.2152V92.5574H259.348V91.3249H259.855V89.3239H261.078V91.3249H262.228V92.5574H261.078V94.2394C261.078 94.4521 261.094 94.6164 261.126 94.7324C261.184 94.9354 261.286 95.0482 261.431 95.0708C261.495 95.0804 261.56 95.0853 261.624 95.0853C261.705 95.0853 261.78 95.0772 261.851 95.0611L262.32 94.9596L262.455 96.0906L262.093 96.1921C261.919 96.2372 261.743 96.2598 261.566 96.2598Z" fill="#182232"/>
<g clip-path="url(#clip0_111_7061)">
<path d="M217.589 84.4295L217.611 86.9042L216.711 85.9709C216.711 85.9709 214.012 86.4051 212.519 89.8999C212.519 89.8999 211.027 94.871 216.074 97.237L216.202 97.2919L216.228 95.0554C216.228 95.0554 214.136 93.9737 214.37 91.1373C214.37 91.1373 214.472 89.4983 216.173 88.4238L221.232 93.1777C221.232 93.1777 222.077 92.4722 221.649 90.8008C221.649 90.8008 221.287 89.531 219.893 89.0751L219.849 84.4623C219.849 84.4623 225.797 85.1896 226.477 90.79C226.477 90.79 227.179 96.065 222.132 98.2574C222.132 98.2574 220.585 98.8381 219.855 98.8869V96.6453L220.749 97.4485C220.749 97.4485 223.954 96.6507 225.007 93.3729C225.007 93.3729 226.602 88.4309 221.217 86.1298L221.221 88.3801C221.221 88.3801 223.398 89.6319 223.032 92.2368C223.032 92.2368 222.944 93.9373 221.342 94.9684L216.184 90.2688C216.184 90.2688 215.021 91.5496 216.349 93.4382C216.349 93.4382 216.835 94.0605 217.596 94.3354L217.611 98.8757C217.611 98.8757 213.682 98.5755 211.546 94.8128C211.546 94.8128 209.71 90.8982 212.278 87.577C212.278 87.5771 213.781 85.0807 217.589 84.4295Z" fill="#182232"/>
</g>
<defs>
<clipPath id="clip0_111_7061">
<rect width="15.6003" height="14.486" fill="white" transform="translate(210.91 84.4295)"/>
</clipPath>
</defs>
</svg>
