<svg width="161" height="164" viewBox="0 0 161 164" fill="none" xmlns="http://www.w3.org/2000/svg">
<path d="M80.4256 96.264C88.3947 96.264 94.855 89.8037 94.855 81.8345C94.855 73.8653 88.3947 67.405 80.4256 67.405C72.4564 67.405 65.9961 73.8653 65.9961 81.8345C65.9961 89.8037 72.4564 96.264 80.4256 96.264Z" fill="#61DAFB"/>
<path d="M80.4264 111.398C123.188 111.398 157.853 98.1619 157.853 81.8348C157.853 65.5077 123.188 52.272 80.4264 52.272C37.665 52.272 3 65.5077 3 81.8348C3 98.1619 37.665 111.398 80.4264 111.398Z" stroke="#61DAFB" stroke-width="5"/>
<path d="M54.8234 96.616C76.2041 133.649 104.999 157.051 119.139 148.888C133.278 140.724 127.408 104.086 106.028 67.0532C84.6469 30.0208 55.852 6.61786 41.7123 14.7814C27.5726 22.9449 33.4427 59.5836 54.8234 96.616Z" stroke="#61DAFB" stroke-width="5"/>
<path d="M54.8228 67.0532C33.4421 104.086 27.572 140.724 41.7117 148.888C55.8514 157.051 84.6463 133.648 106.027 96.616C127.408 59.5835 133.278 22.9449 119.138 14.7813C104.998 6.6178 76.2035 30.0207 54.8228 67.0532Z" stroke="#61DAFB" stroke-width="5"/>
</svg>
