<svg width="60" height="60" viewBox="0 0 60 60" fill="none" xmlns="http://www.w3.org/2000/svg">
<path d="M38.9773 38.0912V35.9639C37.1383 37.7207 33.8455 38.8722 30.0009 38.8722C26.1562 38.8722 22.8635 37.7207 21.0244 35.9639V38.0912C21.0244 40.5913 25.1359 42.7052 30.0009 42.7052C34.8673 42.7043 38.9773 40.5913 38.9773 38.0912Z" fill="#182232"/>
<path d="M40.3525 20.7502L44.7042 16.3985C44.4978 16.2404 44.2867 16.087 44.0994 15.8997C43.9111 15.71 43.7577 15.5008 43.6006 15.2935L39.584 19.31C39.9326 19.7633 40.1954 20.2444 40.3525 20.7502Z" fill="#182232"/>
<path d="M45.2044 14.7962C46.4968 16.0885 48.5786 16.3977 50.1819 15.553C50.5622 15.354 50.9076 15.0979 51.213 14.7948C52.0168 13.9896 52.4607 12.9194 52.4585 11.7809C52.4575 10.649 52.015 9.58664 51.213 8.78808C50.4102 7.98198 49.346 7.53943 48.2108 7.53943C47.0755 7.53943 46.0081 7.98293 45.2034 8.78713C45.1304 8.86012 45.0546 8.9424 44.99 9.02469C43.5391 10.7099 43.6414 13.2332 45.2043 14.7962L45.2044 14.7962Z" fill="#182232"/>
<path d="M21.0234 21.9082C21.0234 24.4083 25.1349 26.5212 29.9999 26.5212C34.8663 26.5212 38.9763 24.4093 38.9763 21.9082C38.9763 19.4071 34.8663 17.2951 29.9999 17.2951C25.1349 17.2951 21.0234 19.408 21.0234 21.9082Z" fill="#182232"/>
<path d="M29.9999 37.3105C34.8663 37.3105 38.9763 35.1985 38.9763 32.6974V30.5701C37.1373 32.3269 33.8445 33.4785 29.9999 33.4785C26.1553 33.4785 22.8625 32.3269 21.0234 30.5701V32.6974C21.0234 35.1976 25.1349 37.3105 29.9999 37.3105Z" fill="#182232"/>
<path d="M25.7695 4.58782C25.9476 6.78486 27.8052 8.49706 30.0005 8.49706C32.2194 8.49706 34.0826 6.7663 34.2407 4.55675C34.25 4.45076 34.249 4.35034 34.249 4.24854C34.249 1.90547 32.3434 0 30.0005 0C27.6575 0 25.752 1.90559 25.752 4.24854C25.752 4.36709 25.7613 4.47773 25.7696 4.58791L25.7695 4.58782Z" fill="#182232"/>
<path d="M29.9999 31.9158C34.8663 31.9158 38.9763 29.8038 38.9763 27.3027V25.1754C37.1373 26.9322 33.8445 28.0838 29.9999 28.0838C26.1553 28.0838 22.8625 26.9322 21.0234 25.1754V27.3027C21.0234 29.8038 25.1349 31.9158 29.9999 31.9158Z" fill="#182232"/>
<path d="M4.24854 25.751C1.90547 25.751 0 27.6566 0 29.9996C0 32.3425 1.90559 34.2481 4.24854 34.2481C6.59149 34.2481 8.49708 32.3425 8.49708 29.9996C8.49708 27.8025 6.84344 25.983 4.65163 25.7686C4.5224 25.7603 4.38894 25.751 4.24854 25.751Z" fill="#182232"/>
<path d="M14.7963 45.2044C13.9935 44.4015 12.9261 43.959 11.7923 43.959C10.8156 43.959 9.86574 44.2974 9.11693 44.9129C8.98675 45.0128 8.88774 45.1054 8.78872 45.2044C7.98262 46.0095 7.54007 47.0797 7.54102 48.2168C7.54195 49.3497 7.98545 50.4128 8.78646 51.2115C9.58931 52.0167 10.6535 52.4592 11.7887 52.4592C12.924 52.4592 13.9923 52.0167 14.7969 51.2128C14.8792 51.1296 14.9573 51.0431 15.0354 50.9483C16.4543 49.2705 16.346 46.7527 14.7965 45.2042L14.7963 45.2044Z" fill="#182232"/>
<path d="M19.6471 20.7502C19.8042 20.244 20.0669 19.7628 20.4164 19.3109L16.3999 15.2943C16.2437 15.5017 16.0893 15.7118 15.901 15.9005C15.7128 16.0879 15.5012 16.239 15.293 16.397L19.6471 20.7502Z" fill="#182232"/>
<path d="M19.4615 30.7804V29.2184H9.98535C10.0198 29.4755 10.0583 29.733 10.0583 29.9994C10.0583 30.2648 10.0342 30.5242 9.99883 30.7804H19.4615Z" fill="#182232"/>
<path d="M51.2812 16.7027C52.7567 19.049 53.8149 21.6248 54.4448 24.3584C54.7042 24.2989 54.9622 24.2375 55.2351 24.2124C55.4289 24.198 55.5851 24.1882 55.7525 24.1882C55.8422 24.1882 55.9287 24.1975 56.017 24.2017C55.3518 21.2162 54.2031 18.4055 52.5908 15.8483C52.5574 15.7953 52.5095 15.7599 52.4667 15.7181C52.4128 15.7762 52.3728 15.8441 52.3156 15.9012C52.0051 16.2123 51.6518 16.4716 51.2812 16.7027Z" fill="#182232"/>
<path d="M55.7525 25.751C55.6223 25.751 55.5014 25.7603 55.3805 25.7687C53.1681 25.9653 51.5039 27.7849 51.5039 29.9996C51.5039 32.2186 53.2347 34.0818 55.4434 34.2398C55.5484 34.2482 55.6498 34.2491 55.7525 34.2482C58.0947 34.2482 60.0001 32.3426 60.0001 29.9997C60.0001 27.6567 58.0945 25.7511 55.7525 25.7511L55.7525 25.751Z" fill="#182232"/>
<path d="M30.7817 15.7554V9.98193C30.5233 10.0173 30.2671 10.0582 29.9998 10.0582C29.7343 10.0582 29.4773 10.0187 29.2197 9.98333V15.7553C29.4782 15.746 29.7362 15.7335 29.9998 15.7335C30.2643 15.7335 30.5237 15.7461 30.7817 15.7554Z" fill="#182232"/>
<path d="M55.7527 35.8098C55.6039 35.8098 55.4561 35.8088 55.3185 35.7963C55.0135 35.7744 54.7207 35.7131 54.4301 35.6443C53.8044 38.361 52.7608 40.9332 51.2852 43.2879C51.3228 43.3121 51.3642 43.3284 51.4018 43.3535C51.7008 43.5408 52.0048 43.7877 52.3149 44.0982C52.373 44.1563 52.4139 44.2251 52.4692 44.2865C52.4962 44.2553 52.5348 44.2395 52.5575 44.2033C54.1902 41.6218 55.3329 38.7915 55.9981 35.7977C55.9182 35.8005 55.8373 35.8098 55.7527 35.8098Z" fill="#182232"/>
<path d="M4.24835 24.1896C4.42547 24.1896 4.5919 24.1998 4.75739 24.2115C5.03028 24.2375 5.28829 24.3021 5.54769 24.3635C6.17435 21.6499 7.25013 19.0819 8.73121 16.7129C8.49273 16.5641 8.25842 16.4089 8.04271 16.2257C7.93533 16.1402 7.81028 16.0291 7.68568 15.9031C7.62199 15.8394 7.57737 15.7636 7.51693 15.699C5.86424 18.2972 4.67413 21.1265 3.99637 24.1222C3.99033 24.1491 3.99544 24.1761 3.99219 24.2035C4.07633 24.1989 4.16189 24.1896 4.24835 24.1896Z" fill="#182232"/>
<path d="M45.2043 51.212C46.0081 52.0158 47.0768 52.4584 48.2117 52.4584C49.3469 52.4584 50.411 52.0159 51.2116 51.213C52.0153 50.412 52.4579 49.3488 52.4593 48.2159C52.4611 47.0787 52.0176 46.0091 51.2129 45.2035C50.9869 44.9775 50.7722 44.8013 50.5569 44.6661C49.8508 44.1984 49.0461 43.9571 48.2106 43.9571C47.0754 43.9571 46.008 44.3997 45.2042 45.2026C43.6556 46.7511 43.5464 49.2689 44.9564 50.935C45.0513 51.0652 45.1285 51.1372 45.2043 51.212Z" fill="#182232"/>
<path d="M24.1902 55.7523C24.1902 55.5659 24.2005 55.392 24.2121 55.2181C24.2381 54.9536 24.3027 54.7049 24.3622 54.4539C21.6371 53.8258 19.0658 52.7514 16.7075 51.2676C16.5629 51.5 16.4193 51.7311 16.238 51.9445C16.138 52.0686 16.0279 52.189 15.9056 52.3131C15.841 52.3778 15.7638 52.4224 15.6982 52.4838C18.2955 54.1457 21.1383 55.3358 24.1558 56.0141C24.1725 56.0182 24.1879 56.0173 24.206 56.0192C24.2004 55.9304 24.1902 55.8429 24.1902 55.7523Z" fill="#182232"/>
<path d="M44.1003 52.3165C43.9659 52.1821 43.8358 52.0468 43.7284 51.8999C43.562 51.7033 43.4304 51.4866 43.2951 51.2719C40.9437 52.7483 38.3748 53.8213 35.6455 54.4522C35.6994 54.6874 35.7599 54.9175 35.7859 55.1635C35.8003 55.3736 35.811 55.5572 35.811 55.7529C35.811 55.8436 35.8017 55.931 35.7975 56.0193C35.8143 56.0175 35.8296 56.0184 35.8477 56.0142C38.8727 55.3331 41.7178 54.143 44.3077 52.4871C44.2417 52.4262 44.1645 52.3802 44.1003 52.3165Z" fill="#182232"/>
<path d="M49.9413 29.9997C49.9413 29.7333 49.9799 29.4758 50.0143 29.2187H40.5381V30.7807H50.0175C49.9817 30.5236 49.9413 30.2661 49.9413 29.9997Z" fill="#182232"/>
<path d="M7.68396 44.1C7.83411 43.9489 7.9838 43.8127 8.14651 43.6877C8.32688 43.5398 8.52539 43.418 8.72344 43.2939C7.25533 40.949 6.18233 38.3838 5.54646 35.6587C5.12807 35.7545 4.6948 35.8107 4.24806 35.8107C4.16903 35.8107 4.09186 35.8014 4.0119 35.7982C4.01097 35.8618 4.0026 35.9232 4.01794 35.9878C4.7083 38.9617 5.88402 41.763 7.5097 44.3125C7.57153 44.2446 7.61841 44.1665 7.68396 44.1Z" fill="#182232"/>
<path d="M44.0998 44.1C44.2872 43.9127 44.4987 43.7606 44.706 43.6012L40.3534 39.2485C40.1962 39.7548 39.9336 40.2359 39.584 40.6878L43.6006 44.7044C43.7582 44.4975 43.9111 44.2883 44.0998 44.1Z" fill="#182232"/>
<path d="M15.6963 7.51511C15.7619 7.57555 15.8381 7.62018 15.9014 7.68387C16.0273 7.80985 16.1398 7.93491 16.2398 8.05997C16.4202 8.27148 16.5638 8.5016 16.7075 8.73172C19.0909 7.2404 21.6613 6.17955 24.3632 5.56403C24.2985 5.28928 24.2362 5.01546 24.2121 4.72677C24.1995 4.55708 24.1893 4.40693 24.1893 4.24794C24.1893 4.1624 24.1986 4.07918 24.2028 3.99365C21.1936 4.65565 18.3355 5.83636 15.6963 7.51511Z" fill="#182232"/>
<path d="M35.81 4.2484C35.81 4.39717 35.8091 4.545 35.7965 4.68167C35.7747 4.98803 35.7133 5.28044 35.6445 5.57193C38.3501 6.19673 40.9158 7.2539 43.2882 8.73545C43.4402 8.49278 43.5955 8.25012 43.787 8.02744C43.8702 7.92331 43.9837 7.79639 44.0985 7.68389C44.1631 7.61927 44.2389 7.57465 44.3049 7.51421C41.6755 5.842 38.817 4.65797 35.7962 3.98532C35.8008 4.07365 35.81 4.16009 35.81 4.2484Z" fill="#182232"/>
<path d="M9.03707 15.0199C10.6907 16.4275 13.2814 16.3016 14.7979 14.7939C16.3496 13.2422 16.4547 10.7202 15.0364 9.05409C14.9541 8.95181 14.8792 8.8686 14.796 8.78539C13.9932 7.98253 12.9248 7.53995 11.7896 7.53995C10.6543 7.53995 9.59028 7.98252 8.79065 8.78539C7.98687 9.58731 7.54425 10.6496 7.54199 11.7811C7.54106 12.9191 7.98363 13.9889 8.7897 14.7959C8.87012 14.8782 8.95339 14.9529 9.03707 15.0199Z" fill="#182232"/>
<path d="M19.6476 39.2503L15.2959 43.6021C15.5032 43.7592 15.7134 43.9126 15.9021 44.1009C16.0904 44.2892 16.2438 44.4988 16.4009 44.7057L20.4175 40.6891C20.0684 40.2363 19.8048 39.7566 19.6476 39.2503Z" fill="#182232"/>
<path d="M25.7696 55.3215C25.7613 55.4567 25.752 55.6004 25.752 55.7524C25.752 58.0945 27.6575 60 30.0005 60C32.3434 60 34.249 58.0944 34.249 55.7524C34.249 55.593 34.2397 55.4442 34.229 55.294C34.0082 53.1458 32.1891 51.5033 29.9991 51.5033C27.8095 51.5038 25.9913 53.1458 25.7696 55.3215Z" fill="#182232"/>
<path d="M29.2207 44.244V50.015C29.4778 49.9806 29.7339 49.942 30.0008 49.942C30.2685 49.942 30.5256 49.9806 30.7827 50.015V44.244C30.5247 44.2533 30.2653 44.2658 30.0008 44.2658C29.7372 44.2658 29.4792 44.2533 29.2207 44.244Z" fill="#182232"/>
</svg>
