<svg width="668" height="789" viewBox="0 0 668 789" fill="none" xmlns="http://www.w3.org/2000/svg">
<path d="M526.566 344.643C543.399 414.702 521.265 492.768 476.025 557.098C430.785 621.428 362.115 671.877 296.111 670.627C229.963 669.703 166.301 616.611 109.994 553.947C53.6865 491.282 4.5529 418.577 16.8895 359.109C29.5514 299.786 103.502 253.232 177.474 220.685C251.446 188.138 324.789 169.31 389.523 190.993C454.076 212.208 509.877 274.259 526.566 344.643Z" fill="#CCE0FF"/>
<path d="M277 9.19029C379.107 8.60941 477.263 48.614 549.874 120.404C622.485 192.193 663.604 289.887 664.184 391.994C664.765 494.101 624.761 592.256 552.971 664.867C481.182 737.478 383.488 778.597 281.381 779.178" stroke="#006C71" stroke-width="6"/>
<circle cx="287.006" cy="10" r="10" fill="#006C71"/>
<circle cx="482" cy="64" r="23" fill="#182232" stroke="#006C71" stroke-width="6"/>
<circle cx="642" cy="259" r="23" fill="#182232" stroke="#006C71" stroke-width="6"/>
<circle cx="642" cy="527" r="23" fill="#182232" stroke="#006C71" stroke-width="6"/>
<circle cx="482" cy="723" r="23" fill="#182232" stroke="#006C71" stroke-width="6"/>
<circle cx="289.006" cy="779" r="10" fill="#006C71"/>
</svg>
