<svg width="60" height="60" viewBox="0 0 60 60" fill="none" xmlns="http://www.w3.org/2000/svg">
<path d="M58.8552 8.52031H56.6121C56.4829 8.01243 56.2982 7.52336 56.0674 7.05265L57.5999 5.52021C57.7846 5.34463 57.7846 5.04953 57.6091 4.87396L54.4523 1.70796C54.3599 1.61558 54.2399 1.56917 54.1199 1.56917C54 1.56917 53.88 1.61514 53.7968 1.69832L52.3751 3.12922C51.858 2.84287 51.3322 2.61213 50.7783 2.437V0.461921C50.7783 0.203595 50.5752 0.000437945 50.3168 0.000437945L45.8492 0C45.5909 0 45.3877 0.203157 45.3877 0.461483V2.43701C44.8338 2.61258 44.3076 2.84332 43.8185 3.12004L42.3968 1.69833C42.3136 1.61515 42.1936 1.56918 42.0737 1.56918C41.9537 1.56918 41.8337 1.61515 41.7505 1.69833L38.5845 4.87352C38.3998 5.04909 38.3998 5.3442 38.5845 5.51977L40.1078 7.05222C39.8955 7.50451 39.7107 7.98437 39.5631 8.51988H37.3384C37.0801 8.51988 36.877 8.72303 36.877 8.98136V12.8396H44.0124C43.8092 12.3413 43.6984 11.7875 43.6984 11.2148C43.6984 8.787 45.6551 6.82111 48.0921 6.82111C50.5291 6.82111 52.4858 8.78745 52.4858 11.2148C52.4858 11.7962 52.375 12.3501 52.1719 12.858C53.8151 12.9963 55.1164 14.3812 55.1164 16.0704V20.0674L57.6085 17.5661C57.7841 17.3905 57.7841 17.0954 57.6085 16.9198L55.8362 15.1382C56.0486 14.7507 56.2333 14.3444 56.3901 13.9197H58.8546C59.113 13.9197 59.3161 13.7074 59.3161 13.4582V8.98138C59.317 8.72305 59.1139 8.52031 58.8552 8.52031Z" fill="#182232"/>
<path d="M34.5046 12.2117H32.2707C32.1231 11.6854 31.9476 11.1963 31.726 10.744L33.2493 9.21155C33.434 9.03598 33.434 8.74088 33.2585 8.5653L30.1017 5.39012C30.0093 5.29817 29.8893 5.25176 29.7694 5.25176C29.6494 5.25176 29.5294 5.29817 29.4462 5.39012L28.0245 6.80263C27.5074 6.52547 26.9816 6.29475 26.4369 6.1196V4.15371C26.4369 3.89539 26.2338 3.69223 25.9755 3.69223H21.5078C21.2495 3.69223 21.0463 3.89539 21.0463 4.15371V6.12005C20.5016 6.29518 19.9666 6.52592 19.4679 6.80263L18.0462 5.39012C17.963 5.29773 17.843 5.25176 17.7231 5.25176C17.6031 5.25176 17.4831 5.29817 17.4 5.39012L14.234 8.5653C14.0492 8.74088 14.0492 9.03598 14.234 9.21155L15.7572 10.744C15.5357 11.2151 15.3509 11.7042 15.2125 12.2117H12.9879C12.7295 12.2117 12.5264 12.4148 12.5264 12.6731V12.8391H19.8738C20.6032 11.4546 22.0617 10.5037 23.7508 10.5037C25.3384 10.5037 26.8709 11.3806 27.6371 12.8391L34.9661 12.8395V12.6736C34.9661 12.4148 34.7629 12.2117 34.5046 12.2117Z" fill="#182232"/>
<path d="M51.886 13.7629H2.30786C1.03422 13.7629 0 14.7967 0 16.0708V48.2856C0 49.5592 1.03374 50.5935 2.30786 50.5935H51.886C53.1596 50.5935 54.1938 49.5597 54.1938 48.2856V16.0708C54.1938 14.7972 53.1601 13.7629 51.886 13.7629ZM27.0924 48.7014C26.2063 48.7014 25.4865 47.9816 25.4865 47.0863C25.4865 46.1909 26.2063 45.4711 27.0924 45.4711C27.9786 45.4711 28.7076 46.1909 28.7076 47.0863C28.7076 47.9816 27.9786 48.7014 27.0924 48.7014ZM50.5017 44.3909H3.69325V17.4554H50.5017V44.3909Z" fill="#182232"/>
<path d="M36.3048 55.8738V59.5385C36.3048 59.7968 36.0925 60 35.8434 60H18.3511C18.0928 60 17.8896 59.7968 17.8896 59.5385V55.8738C17.8896 55.6155 18.0928 55.4124 18.3511 55.4124H21.6743V51.5169H32.5112V55.4124H35.8436C36.0923 55.4124 36.3046 55.6155 36.3046 55.8738H36.3048Z" fill="#182232"/>
<path d="M25.8839 26.4366H7.09039C6.83206 26.4366 6.62891 26.6397 6.62891 26.898V41.7966C6.62891 42.0457 6.83206 42.2581 7.09039 42.2581H25.8839C26.1423 42.2581 26.3454 42.0457 26.3454 41.7966L26.345 26.898C26.345 26.6397 26.1423 26.4366 25.8835 26.4366H25.8839ZM14.3917 37.1075C14.5673 37.2923 14.5576 37.5874 14.3733 37.763C14.1886 37.9385 13.9026 37.9385 13.7179 37.7538L10.7642 34.671C10.5982 34.4862 10.5982 34.2095 10.7642 34.0247L13.7179 30.9414C13.8934 30.7567 14.1885 30.7475 14.3733 30.923C14.5581 31.1078 14.5673 31.3937 14.3917 31.5785L11.7423 34.3478L14.3917 37.1075ZM17.9732 29.9997L15.5642 38.9259C15.4994 39.175 15.2411 39.323 15.0012 39.2582C14.7521 39.1934 14.6041 38.9351 14.6689 38.686L17.0778 29.7597C17.1426 29.5106 17.401 29.3718 17.6409 29.4366C17.89 29.5014 18.0376 29.7505 17.9732 29.9997ZM22.2102 34.6705L19.2565 37.7534C19.0809 37.9381 18.7858 37.9381 18.601 37.7626C18.4163 37.587 18.4163 37.2919 18.5918 37.1071L21.2412 34.347L18.5918 31.5777C18.4163 31.3929 18.4163 31.107 18.601 30.9222C18.7858 30.7471 19.0809 30.7563 19.2565 30.9406L22.2102 34.0239C22.3853 34.2091 22.3853 34.4858 22.2102 34.6705Z" fill="#182232"/>
<path d="M47.557 41.7969C47.557 42.046 47.3538 42.2584 47.0955 42.2584L32.105 42.2588C31.8559 42.2588 31.6436 42.0465 31.6436 41.7973C31.6436 41.539 31.8559 41.3358 32.105 41.3358H47.0955C47.3538 41.3354 47.557 41.5386 47.557 41.7969Z" fill="#182232"/>
<path d="M47.0955 38.9353C47.3538 38.9353 47.557 39.1477 47.557 39.3968C47.557 39.6551 47.3538 39.8583 47.0955 39.8583H32.105C31.8559 39.8583 31.6436 39.6551 31.6436 39.3968C31.6436 39.1477 31.8559 38.9353 32.105 38.9353H47.0955Z" fill="#182232"/>
<path d="M46.8184 31.7259H29.9449C29.6866 31.7259 29.4834 31.5136 29.4834 31.2644V26.8983C29.4834 26.64 29.6866 26.4369 29.9449 26.4369H46.8184C47.0675 26.4369 47.2799 26.64 47.2799 26.8983V31.2644C47.2799 31.5136 47.0675 31.7259 46.8184 31.7259Z" fill="#182232"/>
<path d="M40.5234 34.6155C40.5234 34.3572 40.7266 34.154 40.9849 34.154H47.0959C47.3542 34.154 47.5574 34.3572 47.5574 34.6155C47.5574 34.8646 47.3542 35.077 47.0959 35.077H40.9849C40.7266 35.077 40.5234 34.8651 40.5234 34.6155Z" fill="#182232"/>
<path d="M47.5574 37.0063C47.5574 37.2646 47.3542 37.4678 47.0959 37.4678H40.9849C40.7266 37.4678 40.5234 37.2646 40.5234 37.0063C40.5234 36.748 40.7266 36.5448 40.9849 36.5448H47.0959C47.3542 36.5448 47.5574 36.7476 47.5574 37.0063Z" fill="#182232"/>
<path d="M47.1053 19.1913H7.09039C6.83206 19.1913 6.62891 19.4036 6.62891 19.6528V23.4099C6.62891 23.6682 6.83206 23.8714 7.09039 23.8714H47.1053C47.3544 23.8714 47.5668 23.6682 47.5668 23.4099V19.6528C47.5668 19.4036 47.3544 19.1913 47.1053 19.1913ZM10.8374 22.2649H9.37897V20.8064H10.8374V22.2649ZM13.8927 22.2649H12.4342V20.8064H13.8927V22.2649ZM16.9388 22.2649H15.4803V20.8064H16.9388V22.2649ZM44.0211 22.1358H30.156C29.8977 22.1358 29.6945 21.9326 29.6945 21.6743C29.6945 21.4251 29.8977 21.2128 30.156 21.2128H44.0211C44.2794 21.2128 44.4826 21.4251 44.4826 21.6743C44.4826 21.9326 44.2794 22.1358 44.0211 22.1358Z" fill="#182232"/>
</svg>
