<svg width="303" height="201" viewBox="0 0 303 201" fill="none" xmlns="http://www.w3.org/2000/svg">
<path d="M268.683 88.4977C256.29 77.9261 241.35 14.1748 190.17 47.3789C163.728 64.533 119.139 32.6511 82.2344 43.6634C48.3412 53.7766 45.0741 87.0971 48.3536 97.9537C54.978 119.886 34.3632 123.149 15.2395 132.572C-14.7581 147.353 7.47297 199.85 35.8118 200.099C64.1507 200.348 235.612 200.099 235.612 200.099C235.612 200.099 276.828 199.158 293.948 176.435C312.371 151.984 300.693 115.803 268.683 88.4977Z" fill="#EBF2F9"/>
<path d="M100.176 194.216C100.176 194.216 100.534 200.005 101.655 200.088C101.804 200.099 107.336 200.099 107.336 200.099L114.397 200.058C114.397 200.058 114.35 198.357 112.286 197.996C110.222 197.637 106.767 196.187 105.517 193.459C104.202 190.588 100.176 194.216 100.176 194.216Z" fill="#163560"/>
<path d="M97.6284 126.657C97.6284 126.657 100.706 127.447 102.661 126.857C104.616 126.268 107.982 127.236 108.524 127.949C109.066 128.662 108.867 128.945 107.9 129.191C106.932 129.438 103.506 130.899 101.254 130.054C99.0024 129.208 96.0645 129.177 96.0645 129.177L97.6284 126.657Z" fill="#E49963"/>
<path d="M71.043 99.9331C71.043 99.9331 74.4989 124.496 80.2211 126.695C83.0447 127.781 95.5237 130.241 99.2151 130.489C99.2151 130.489 100.119 129.755 99.899 126.769C99.899 126.769 86.8246 121.969 84.9674 119.359C82.2032 115.474 86.6835 103.489 83.2149 99.8394C79.7462 96.1911 73.9044 94.6233 71.043 99.9331Z" fill="#4A75CB"/>
<path d="M71.4837 194.572V189.217H63.0526C62.8249 189.217 62.639 189.031 62.639 188.803V187.945C62.639 187.717 62.8249 187.531 63.0526 187.531H71.4837V157.047C71.4837 156.191 72.1836 155.492 73.039 155.492H74.7074C75.5628 155.492 76.2627 156.191 76.2627 157.047V187.531H84.6938C84.9213 187.531 85.1075 187.717 85.1075 187.945V188.803C85.1075 189.031 84.9213 189.217 84.6938 189.217H76.2627V194.572C82.3628 195.033 87.2502 197.229 88.6213 200.067H59.125C60.4961 197.229 65.3835 195.033 71.4837 194.572Z" fill="#A6C7F9"/>
<path d="M72.211 151.68C73.219 153.39 74.385 154.993 75.5868 156.51C79.301 161.2 83.3441 165.066 84.0486 168.719C84.1886 169.449 84.4109 170.233 84.7016 171.058C84.9956 171.897 85.3592 172.777 85.779 173.686C87.3551 177.11 89.712 180.946 92.0655 184.434C96.1337 190.462 99.9593 195.492 99.9593 195.492L106.975 195.193C106.694 194.49 103.634 186.166 99.5402 175.995C97.8787 171.865 96.1109 167.473 94.4057 163.237C94.1785 162.671 93.9513 162.108 93.7266 161.549C93.2051 160.254 92.6921 158.977 92.1911 157.735C88.3475 148.184 85.2862 140.578 85.2862 140.578C85.2862 140.578 69.9247 134.759 68.3294 138.529C67.0139 141.639 68.0853 144.685 72.211 151.68Z" fill="#E58638"/>
<path d="M83.9307 177.678C83.9307 177.678 79.0509 180.813 79.5246 181.831C79.5875 181.967 82.2842 186.797 82.2842 186.797L85.7623 192.943C85.7623 192.943 87.2254 192.073 86.5332 190.094C85.8412 188.118 85.4234 184.393 87.1959 181.972C89.0604 179.424 83.9307 177.678 83.9307 177.678Z" fill="#163560"/>
<path d="M90.5339 137.816C90.5339 137.816 109.816 149.826 111.968 157.898C114.121 165.97 86.3187 183.189 86.3187 183.189C86.3187 183.189 83.2694 180.499 82.7313 178.526C82.7313 178.526 95.2986 163.47 98.0238 160.094C99.6979 158.022 73.2701 152.919 70.0416 147.898C66.813 142.875 67.9688 138.65 67.9688 138.65L90.5339 137.816Z" fill="#EE9849"/>
<path d="M54.1421 153.239H93.6048C94.394 153.239 95.0394 153.885 95.0394 154.674V162.566C95.0394 163.356 94.394 164.002 93.6048 164.002H54.1421C53.3528 164.002 52.707 163.356 52.707 162.566V154.674C52.707 153.885 53.3528 153.239 54.1421 153.239Z" fill="#1C468A"/>
<path d="M81.617 95.7237C83.5109 96.8964 84.5544 98.3856 84.5544 98.3856C79.9352 99.5798 72.2773 95.2995 72.2773 95.2995C72.2773 95.2995 75.2508 93.3011 76.3523 88.9119C76.408 88.6903 76.4589 88.4636 76.5036 88.2306C76.648 87.4911 76.7376 86.6907 76.7537 85.8271L78.8757 87.7279L82.4042 90.8887C82.4042 90.8887 82.3242 92.2007 81.8827 94.4573C81.806 94.8512 81.718 95.2729 81.617 95.7237Z" fill="#E49963"/>
<path d="M67.4069 117.515C68.0686 126.415 66.9558 139.944 67.7063 142.288C68.3543 144.31 75.9777 143.114 78.9237 142.439C80.0143 142.188 81.3352 141.832 82.6994 141.409C86.5045 140.231 90.6507 138.548 91.0955 137.3C91.1126 137.25 91.1274 137.202 91.1366 137.157C91.1776 136.974 91.1685 136.805 91.1286 136.632C90.9802 135.995 90.4089 135.306 90.3417 133.731C90.2663 131.971 90.2777 129.898 90.2115 127.669C90.2081 127.418 90.2046 127.145 90.1774 126.895L90.1761 126.804C90.175 126.756 90.1739 126.709 90.1727 126.661C90.1089 124.175 89.9788 121.563 89.8283 118.97C89.7324 117.343 89.6219 115.731 89.4941 114.187C89.1622 110.201 88.715 106.656 88.1231 104.415C87.1557 100.761 85.0229 98.378 83.0813 96.6317L81.6773 95.4273C80.1102 95.7693 78.2578 95.5426 76.5821 94.7486C74.7685 93.8875 74.1425 93.2707 73.8264 93.5025C69.638 96.7342 66.6256 106.636 67.4069 117.515Z" fill="#739AF0"/>
<path d="M82.6794 141.427C86.4844 140.249 90.6306 138.566 91.0755 137.317C91.0926 137.268 91.1074 137.22 91.1165 137.174C91.1142 137 91.1121 136.825 91.1085 136.65C90.9604 136.014 90.3889 135.325 90.3216 133.749C90.2463 131.989 90.2577 129.916 90.1914 127.687C90.188 127.436 90.1847 127.162 90.1572 126.913L90.1561 126.822C90.155 126.774 90.1538 126.727 90.1528 126.679L75.7797 120.161C75.7797 120.161 74.9516 131.744 82.6794 141.427Z" fill="#4A75CB"/>
<path d="M82.4035 90.8887C82.4035 90.8887 82.3235 92.2006 81.882 94.4573C78.4366 93.3441 76.8734 90.2314 76.3515 88.9119C76.2031 88.5383 76.1387 88.3078 76.1387 88.3078C76.1387 88.3078 76.2724 88.2799 76.5029 88.2306C76.9871 88.128 77.8993 87.9342 78.875 87.7278L82.4035 90.8887Z" fill="#D68D5D"/>
<path d="M83.7993 90.8545C83.7993 90.8545 76.2295 91.708 75.7703 86.9858C75.3112 82.2635 74.025 79.1938 78.8387 78.4492C83.6522 77.7046 84.768 79.4142 85.3046 80.9541C85.8413 82.4927 85.7566 90.5113 83.7993 90.8545Z" fill="#E49963"/>
<path d="M75.801 87.3124C75.801 87.3124 76.2809 81.0439 83.1715 80.3942C87.8912 79.9497 85.2598 75.8872 84.7568 75.2401C84.7568 75.2401 81.1407 75.7353 77.4342 76.3482C69.6546 77.6336 75.037 86.336 75.801 87.3124Z" fill="#2B478B"/>
<path d="M112.443 132.812L113.106 133.027L118.744 115.676L118.081 115.461L112.443 132.812Z" fill="#4A75CB"/>
<path d="M93.9893 131.473L113.129 131.882L113.105 133.027L93.9648 132.618L93.9893 131.473Z" fill="#4A75CB"/>
<path d="M96.0472 130.432C96.0472 130.432 99.018 131.557 101.026 131.187C103.035 130.817 106.273 132.149 106.734 132.918C107.194 133.687 106.964 133.946 105.977 134.084C104.988 134.222 101.42 135.297 99.2764 134.208C97.1312 133.119 94.2148 132.765 94.2148 132.765L96.0472 130.432Z" fill="#E49963"/>
<path d="M72.5684 100.941C72.5684 100.941 73.2953 125.734 78.7402 128.552C81.4268 129.942 93.5582 133.764 97.1994 134.416C97.1994 134.416 98.1796 133.787 98.2897 130.794C98.2897 130.794 85.8245 124.583 84.2663 121.784C81.9472 117.618 87.7215 106.199 84.6763 102.19C81.6312 98.1817 75.9978 95.9795 72.5684 100.941Z" fill="#739AF0"/>
<path d="M141.95 160.157H240.723C247.615 160.157 253.204 154.569 253.204 147.676V12.6248C253.204 5.73196 247.615 0.14476 240.723 0.14476H141.95C135.057 0.14476 129.469 5.73196 129.469 12.6248V147.676C129.469 154.569 135.057 160.157 141.95 160.157Z" fill="#D2E4FF"/>
<path d="M141.629 143.959H241.25V16.914H141.629V143.959Z" fill="#F3F9FF"/>
<path d="M227.122 138.384C224.218 138.384 221.865 136.029 221.865 133.127V60.4554C221.865 57.5529 224.218 55.1987 227.122 55.1987C230.024 55.1987 232.377 57.5529 232.377 60.4554V133.127C232.377 136.029 230.024 138.384 227.122 138.384Z" fill="#EE9849"/>
<path d="M209.899 138.384C206.995 138.384 204.643 136.029 204.643 133.127V37.2683C204.643 34.3658 206.995 32.0116 209.899 32.0116C212.802 32.0116 215.155 34.3658 215.155 37.2683V133.127C215.155 136.029 212.802 138.384 209.899 138.384Z" fill="#EE9849"/>
<path d="M191.107 138.384C188.204 138.384 185.852 136.029 185.852 133.127V80.5716C185.852 77.6691 188.204 75.3149 191.107 75.3149C194.011 75.3149 196.364 77.6691 196.364 80.5716V133.127C196.364 136.029 194.011 138.384 191.107 138.384Z" fill="#EE9849"/>
<path d="M172.821 138.384C169.917 138.384 167.564 136.029 167.564 133.127V51.4693C167.564 48.5668 169.917 46.2139 172.821 46.2139C175.724 46.2139 178.077 48.5668 178.077 51.4693V133.127C178.077 136.029 175.724 138.384 172.821 138.384Z" fill="#EE9849"/>
<path d="M159.696 92.9161V133.127C159.696 136.029 157.343 138.384 154.44 138.384C151.536 138.384 149.184 136.029 149.184 133.127V92.9161C149.184 90.0124 151.536 87.6595 154.44 87.6595C157.343 87.6595 159.696 90.0124 159.696 92.9161Z" fill="#EE9849"/>
<path d="M168.064 39.7035H176.967C177.474 39.7035 177.888 40.1176 177.888 40.6241C177.888 41.1307 177.474 41.546 176.967 41.546H168.064C167.558 41.546 167.143 41.1307 167.143 40.6241C167.143 40.1176 167.558 39.7035 168.064 39.7035Z" fill="#A6C7F9"/>
<path d="M174.938 43.0556H176.965C177.472 43.0556 177.886 43.4697 177.886 43.9762C177.886 44.4828 177.472 44.8969 176.965 44.8969H174.938C174.431 44.8969 174.016 44.4828 174.016 43.9762C174.016 43.4697 174.431 43.0556 174.938 43.0556Z" fill="#A6C7F9"/>
<path d="M204.75 25.5684H213.653C214.159 25.5684 214.573 25.9825 214.573 26.489C214.573 26.9956 214.159 27.4097 213.653 27.4097H204.75C204.243 27.4097 203.828 26.9956 203.828 26.489C203.828 25.9825 204.243 25.5684 204.75 25.5684Z" fill="#A6C7F9"/>
<path d="M211.625 28.9192H213.652C214.159 28.9192 214.573 29.3332 214.573 29.8398C214.573 30.3463 214.159 30.7617 213.652 30.7617H211.625C211.118 30.7617 210.703 30.3463 210.703 29.8398C210.703 29.3332 211.118 28.9192 211.625 28.9192Z" fill="#A6C7F9"/>
<path d="M222.553 48.7389H231.456C231.963 48.7389 232.377 49.1542 232.377 49.6608C232.377 50.1673 231.963 50.5814 231.456 50.5814H222.553C222.047 50.5814 221.633 50.1673 221.633 49.6608C221.633 49.1542 222.047 48.7389 222.553 48.7389Z" fill="#A6C7F9"/>
<path d="M229.43 52.091H231.458C231.964 52.091 232.379 52.5051 232.379 53.0116C232.379 53.5182 231.964 53.9323 231.458 53.9323H229.43C228.924 53.9323 228.51 53.5182 228.51 53.0116C228.51 52.5051 228.924 52.091 229.43 52.091Z" fill="#A6C7F9"/>
<path d="M186.655 68.8652H195.558C196.064 68.8652 196.479 69.2793 196.479 69.7859C196.479 70.2924 196.064 70.7065 195.558 70.7065H186.655C186.148 70.7065 185.734 70.2924 185.734 69.7859C185.734 69.2793 186.148 68.8652 186.655 68.8652Z" fill="#A6C7F9"/>
<path d="M193.53 72.2162H195.557C196.064 72.2162 196.479 72.6315 196.479 73.1381C196.479 73.6446 196.064 74.0587 195.557 74.0587H193.53C193.023 74.0587 192.609 73.6446 192.609 73.1381C192.609 72.6315 193.023 72.2162 193.53 72.2162Z" fill="#A6C7F9"/>
<path d="M149.99 81.1718H158.893C159.399 81.1718 159.813 81.5859 159.813 82.0925C159.813 82.599 159.399 83.0144 158.893 83.0144H149.99C149.484 83.0144 149.068 82.599 149.068 82.0925C149.068 81.5859 149.484 81.1718 149.99 81.1718Z" fill="#A6C7F9"/>
<path d="M156.861 84.5227H158.889C159.395 84.5227 159.809 84.938 159.809 85.4446C159.809 85.9511 159.395 86.3652 158.889 86.3652H156.861C156.355 86.3652 155.939 85.9511 155.939 85.4446C155.939 84.938 156.355 84.5227 156.861 84.5227Z" fill="#A6C7F9"/>
<path d="M154.44 73.276C153.335 73.276 152.434 74.1751 152.434 75.2806C152.434 76.3862 153.335 77.2853 154.44 77.2853C155.546 77.2853 156.445 76.3862 156.445 75.2806C156.445 74.1751 155.546 73.276 154.44 73.276ZM154.44 78.5516C152.636 78.5516 151.168 77.0839 151.168 75.2806C151.168 73.476 152.636 72.0096 154.44 72.0096C156.244 72.0096 157.711 73.476 157.711 75.2806C157.711 77.0839 156.244 78.5516 154.44 78.5516Z" fill="#2B478B"/>
<path d="M153.048 73.2761C152.886 73.2761 152.724 73.2141 152.6 73.09L142.769 63.2592H62.8988C62.549 63.2592 62.2656 62.9755 62.2656 62.626C62.2656 62.2765 62.549 61.9928 62.8988 61.9928H143.293L153.495 72.1947C153.743 72.4416 153.743 72.843 153.495 73.09C153.372 73.2141 153.21 73.2761 153.048 73.2761Z" fill="#2B478B"/>
<path d="M173.253 142.257C172.147 142.257 171.247 143.157 171.247 144.262C171.247 145.368 172.147 146.268 173.253 146.268C174.358 146.268 175.257 145.368 175.257 144.262C175.257 143.157 174.358 142.257 173.253 142.257ZM173.253 147.534C171.448 147.534 169.98 146.067 169.98 144.262C169.98 142.459 171.448 140.991 173.253 140.991C175.056 140.991 176.524 142.459 176.524 144.262C176.524 146.067 175.056 147.534 173.253 147.534Z" fill="#2B478B"/>
<path d="M263.529 157.55H184.401L174.199 147.348C173.952 147.101 173.952 146.701 174.199 146.453C174.446 146.206 174.847 146.206 175.094 146.453L184.925 156.284H263.529C263.879 156.284 264.163 156.567 264.163 156.917C264.163 157.268 263.879 157.55 263.529 157.55Z" fill="#2B478B"/>
<path d="M209.442 17.7586C208.337 17.7586 207.436 18.659 207.436 19.7645C207.436 20.87 208.337 21.7692 209.442 21.7692C210.548 21.7692 211.447 20.87 211.447 19.7645C211.447 18.659 210.548 17.7586 209.442 17.7586ZM209.442 23.0355C207.638 23.0355 206.17 21.5678 206.17 19.7645C206.17 17.9599 207.638 16.4922 209.442 16.4922C211.245 16.4922 212.713 17.9599 212.713 19.7645C212.713 21.5678 211.245 23.0355 209.442 23.0355Z" fill="#2B478B"/>
<path d="M208.047 17.7585C207.885 17.7585 207.723 17.6978 207.599 17.5737L197.768 7.74286H117.899C117.548 7.74286 117.266 7.4592 117.266 7.10968C117.266 6.76017 117.548 6.4765 117.899 6.4765H198.293L208.494 16.6784C208.741 16.9253 208.741 17.3267 208.494 17.5737C208.37 17.6978 208.21 17.7585 208.047 17.7585Z" fill="#2B478B"/>
<path d="M116.279 60.5275H63.8072C62.9213 60.5275 62.2031 59.8094 62.2031 58.923C62.2031 58.0378 62.9213 57.3198 63.8072 57.3198H116.279C117.164 57.3198 117.882 58.0378 117.882 58.923C117.882 59.8094 117.164 60.5275 116.279 60.5275Z" fill="#739AF0"/>
<path d="M116.278 55.462H84.069C83.183 55.462 82.4648 54.744 82.4648 53.8576C82.4648 52.9724 83.183 52.2543 84.069 52.2543H116.278C117.164 52.2543 117.882 52.9724 117.882 53.8576C117.882 54.744 117.164 55.462 116.278 55.462Z" fill="#739AF0"/>
<path d="M116.278 50.3967H84.069C83.183 50.3967 82.4648 49.6787 82.4648 48.7922C82.4648 47.9071 83.183 47.189 84.069 47.189H116.278C117.164 47.189 117.882 47.9071 117.882 48.7922C117.882 49.6787 117.164 50.3967 116.278 50.3967Z" fill="#739AF0"/>
<path d="M221.168 173.401C221.168 167.095 216.056 161.982 209.75 161.982C203.444 161.982 198.332 167.095 198.332 173.401C198.332 179.706 203.444 184.819 209.75 184.819C216.056 184.819 221.168 179.706 221.168 173.401Z" fill="#82B378"/>
<path d="M209.751 163.748C215.082 163.748 219.403 168.07 219.403 173.401C219.403 176.039 218.345 178.429 216.629 180.171L209.751 173.401L200.732 176.843C200.324 175.774 200.1 174.614 200.1 173.401C200.1 168.07 204.42 163.748 209.751 163.748Z" fill="white"/>
<path d="M211.161 168.5H215.27C215.431 168.5 215.563 168.632 215.563 168.794C215.563 168.955 215.431 169.088 215.27 169.088H211.161C211 169.088 210.867 168.955 210.867 168.794C210.867 168.632 211 168.5 211.161 168.5Z" fill="#82B378"/>
<path d="M211.161 169.43H215.27C215.431 169.43 215.563 169.561 215.563 169.724C215.563 169.884 215.431 170.017 215.27 170.017H211.161C211 170.017 210.867 169.884 210.867 169.724C210.867 169.561 211 169.43 211.161 169.43Z" fill="#82B378"/>
<path d="M213.573 170.359H215.27C215.431 170.359 215.563 170.491 215.563 170.653C215.563 170.814 215.431 170.946 215.27 170.946H213.573C213.411 170.946 213.279 170.814 213.279 170.653C213.279 170.491 213.411 170.359 213.573 170.359Z" fill="#82B378"/>
<path d="M199.75 168.042L204.267 163.525H199.75V168.042Z" fill="#82B378"/>
<path d="M259.73 173.401C259.73 167.095 254.618 161.982 248.311 161.982C242.005 161.982 236.893 167.095 236.893 173.401C236.893 179.706 242.005 184.819 248.311 184.819C254.618 184.819 259.73 179.706 259.73 173.401Z" fill="#82B378"/>
<path d="M238.658 173.401C238.658 168.07 242.979 163.748 248.31 163.748C253.642 163.748 257.963 168.07 257.963 173.401C257.963 178.731 253.642 183.053 248.31 183.053C246.108 183.053 244.08 182.316 242.456 181.075L248.31 173.401L239.29 176.843C238.882 175.774 238.658 174.614 238.658 173.401Z" fill="white"/>
<path d="M249.8 168.5H253.909C254.07 168.5 254.202 168.632 254.202 168.794C254.202 168.955 254.07 169.088 253.909 169.088H249.8C249.639 169.088 249.506 168.955 249.506 168.794C249.506 168.632 249.639 168.5 249.8 168.5Z" fill="#82B378"/>
<path d="M249.8 169.43H253.909C254.07 169.43 254.202 169.561 254.202 169.724C254.202 169.884 254.07 170.017 253.909 170.017H249.8C249.639 170.017 249.506 169.884 249.506 169.724C249.506 169.561 249.639 169.43 249.8 169.43Z" fill="#82B378"/>
<path d="M252.212 170.359H253.909C254.07 170.359 254.201 170.491 254.201 170.653C254.201 170.814 254.07 170.946 253.909 170.946H252.212C252.05 170.946 251.918 170.814 251.918 170.653C251.918 170.491 252.05 170.359 252.212 170.359Z" fill="#82B378"/>
<path d="M238.373 168.042L242.89 163.525H238.373V168.042Z" fill="#82B378"/>
<path d="M290.111 200.477H26.1228C25.9146 200.477 25.7441 200.307 25.7441 200.1C25.7441 199.891 25.9146 199.72 26.1228 199.72H290.111C290.32 199.72 290.49 199.891 290.49 200.1C290.49 200.307 290.32 200.477 290.111 200.477Z" fill="#202F4E"/>
</svg>
