<svg width="259" height="204" viewBox="0 0 259 204" fill="none" xmlns="http://www.w3.org/2000/svg">
<mask id="mask0_72_636" style="mask-type:luminance" maskUnits="userSpaceOnUse" x="65" y="161" width="101" height="9">
<path d="M162.168 169.298H137.399C144.4 168.362 150.875 165.764 156.414 161.912H165.628V165.838C165.628 167.749 164.079 169.298 162.168 169.298ZM125.74 169.298H69.358C67.4472 169.298 65.8984 167.749 65.8984 165.838V161.912H106.725C112.264 165.764 118.739 168.362 125.74 169.298Z" fill="white"/>
</mask>
<g mask="url(#mask0_72_636)">
<path d="M162.168 169.298H137.399C144.4 168.362 150.875 165.764 156.414 161.912H165.628V165.838C165.628 167.749 164.079 169.298 162.168 169.298ZM125.74 169.298H69.358C67.4472 169.298 65.8984 167.749 65.8984 165.838V161.912H106.725C112.264 165.764 118.739 168.362 125.74 169.298Z" fill="url(#paint0_linear_72_636)"/>
</g>
<path d="M195.442 119.797C189.873 116.379 185.199 118.501 183.872 119.25C183.629 119.386 183.498 119.479 183.498 119.479C183.569 119.212 183.689 118.897 183.855 118.545C185.922 114.161 194.991 104.013 203.151 105.026C211.96 106.121 209.459 97.8564 218.162 94.3746C229.986 89.6441 234.594 101.866 234.594 101.866C231.263 98.5226 219.493 101.894 215.027 109.381C210.56 116.869 202.044 123.846 195.442 119.797Z" fill="#609A3E"/>
<mask id="mask1_72_636" style="mask-type:luminance" maskUnits="userSpaceOnUse" x="213" y="99" width="7" height="6">
<path d="M213.621 104.067V103.294C216.984 100.459 219.584 99.2855 219.62 99.2683L219.861 99.8074C219.823 99.8226 217.094 101.057 213.621 104.067Z" fill="white"/>
</mask>
<g mask="url(#mask1_72_636)">
<path d="M213.621 104.067V103.294C216.984 100.459 219.584 99.2855 219.62 99.2683L219.861 99.8074C219.823 99.8226 217.094 101.057 213.621 104.067Z" fill="url(#paint1_linear_72_636)"/>
</g>
<mask id="mask2_72_636" style="mask-type:luminance" maskUnits="userSpaceOnUse" x="25" y="0" width="27" height="32">
<path d="M36.9741 25.588C41.9446 31.8546 50.5593 31.3931 51.7964 31.2887C51.9174 31.4905 51.9835 31.5949 51.9835 31.5949C51.9835 31.5949 51.8191 31.729 51.5024 31.9509C49.3888 32.0659 41.3026 32.0755 36.4692 25.9864C33.5745 22.3387 31.9314 16.4967 30.4815 11.34C29.1551 6.62769 27.9049 2.18012 25.9805 0.47957L26.4081 -2.28882e-05C28.4698 1.82459 29.6877 6.15162 31.0983 11.1635C32.5315 16.2642 34.159 22.0416 36.9741 25.588Z" fill="white"/>
</mask>
<g mask="url(#mask2_72_636)">
<path d="M36.9741 25.588C41.9446 31.8546 50.5593 31.3931 51.7964 31.2887C51.9174 31.4905 51.9835 31.5949 51.9835 31.5949C51.9835 31.5949 51.8191 31.729 51.5024 31.9509C49.3888 32.0659 41.3026 32.0755 36.4692 25.9864C33.5745 22.3387 31.9314 16.4967 30.4815 11.34C29.1551 6.62769 27.9049 2.18012 25.9805 0.47957L26.4081 -2.28882e-05C28.4698 1.82459 29.6877 6.15162 31.0983 11.1635C32.5315 16.2642 34.159 22.0416 36.9741 25.588Z" fill="url(#paint2_linear_72_636)"/>
</g>
<path d="M31.5449 25.705C36.3697 27.5523 40.3448 29.8792 40.6004 32.4043C40.6156 32.5536 40.6181 32.7013 40.6075 32.8486C40.4885 34.4715 38.791 36.169 34.7761 37.8635C24.0901 42.3721 18.5765 37.4792 11.992 33.8784C5.49183 30.3205 0.96579 36.4353 0.851562 36.5927C9.08331 19.9835 23.3639 22.5752 31.5449 25.705Z" fill="#609A3E"/>
<mask id="mask3_72_636" style="mask-type:luminance" maskUnits="userSpaceOnUse" x="15" y="29" width="26" height="5">
<path d="M40.5966 32.4044C40.6117 32.5536 40.6142 32.7014 40.6036 32.8487C38.3019 33.3958 33.7197 34.2638 30.3796 33.47C28.8037 33.0948 27.2065 32.5012 25.5155 31.8753C22.3192 30.6882 19.0124 29.4632 15.4262 29.5524L15.4141 29.1228C19.084 29.0325 22.4286 30.2731 25.6643 31.4739C27.3432 32.0967 28.9272 32.6852 30.4785 33.0519C33.7364 33.827 38.3544 32.9384 40.5966 32.4044Z" fill="white"/>
</mask>
<g mask="url(#mask3_72_636)">
<path d="M40.5966 32.4044C40.6117 32.5536 40.6142 32.7014 40.6036 32.8487C38.3019 33.3958 33.7197 34.2638 30.3796 33.47C28.8037 33.0948 27.2065 32.5012 25.5155 31.8753C22.3192 30.6882 19.0124 29.4632 15.4262 29.5524L15.4141 29.1228C19.084 29.0325 22.4286 30.2731 25.6643 31.4739C27.3432 32.0967 28.9272 32.6852 30.4785 33.0519C33.7364 33.827 38.3544 32.9384 40.5966 32.4044Z" fill="url(#paint3_linear_72_636)"/>
</g>
<path d="M227.934 83.1767C221.764 88.4347 214.081 85.6932 212.217 100.411C210.606 113.117 195.245 109.424 191.073 108.178C190.411 107.98 190.031 107.843 190.031 107.843C190.031 107.843 190.207 107.793 190.505 107.692C192.436 107.03 199.548 104.172 198.099 98.3293C196.424 91.5831 196.788 80.8104 204.669 78.8345C212.549 76.8601 210.966 70.9848 213.598 64.2497C216.229 57.515 228.069 59.8642 228.069 59.8642C228.069 59.8642 234.103 77.9212 227.934 83.1767Z" fill="#609A3E"/>
<mask id="mask4_72_636" style="mask-type:luminance" maskUnits="userSpaceOnUse" x="213" y="75" width="7" height="7">
<path d="M213.621 81.0436V80.5377C215.653 79.5094 217.524 78.3778 218.703 75.7427L219.115 75.9268C217.832 78.7933 215.804 79.9487 213.621 81.0436Z" fill="white"/>
</mask>
<g mask="url(#mask4_72_636)">
<path d="M213.621 81.0436V80.5377C215.653 79.5094 217.524 78.3778 218.703 75.7427L219.115 75.9268C217.832 78.7933 215.804 79.9487 213.621 81.0436Z" fill="url(#paint4_linear_72_636)"/>
</g>
<mask id="mask5_72_636" style="mask-type:luminance" maskUnits="userSpaceOnUse" x="27" y="3" width="177" height="159">
<path d="M196.712 161.912H156.411C160.644 158.97 164.331 155.294 167.288 151.071C168.181 151.878 169.364 152.369 170.662 152.369H203.797V154.827C203.797 158.74 200.625 161.912 196.712 161.912ZM106.723 161.912H65.8963H34.8102C30.8968 161.912 27.7246 158.74 27.7246 154.827V10.2509C27.7246 6.33691 30.8968 3.16527 34.8102 3.16527H196.712C200.625 3.16527 203.797 6.33691 203.797 10.2509V12.7084H170.662C167.881 12.7084 165.626 14.9632 165.626 17.7445V36.9902C159.213 31.0726 152.525 28.5253 145.895 28.5253C143.291 28.5253 140.695 28.9187 138.128 29.6555C131.571 31.5376 124.942 35.6185 118.106 40.5341C110.853 37.4124 103.067 35.0244 93.9337 35.0244C92.1606 35.0244 90.3354 35.1147 88.4549 35.3068C81.6637 36.0008 76.5459 38.0075 72.226 40.3455C69.0437 37.8551 65.6719 35.6251 61.8688 34.3017C57.9175 32.9275 54.4453 32.4161 51.4653 32.4161C47.6839 32.4161 44.6958 33.2397 42.5288 34.1681C38.2739 35.9917 36.8028 37.9015 36.7161 38.011V41.2073C36.7741 41.1347 41.8697 34.6401 51.8607 34.6401C54.5925 34.6401 57.6921 35.1258 61.1527 36.3614C64.3758 37.5122 67.3371 39.3852 70.1573 41.52C68.5929 42.448 67.1238 43.4011 65.7026 44.323C60.7654 47.5264 56.5009 50.2936 50.7234 50.3223C50.6538 50.3229 50.5858 50.3234 50.5172 50.3234C38.9658 50.3234 36.7287 45.4204 36.7161 45.3715V48.2077C36.7735 48.466 40.0703 52.5282 49.4455 52.5277C49.8626 52.5277 50.2933 52.5197 50.7345 52.503C57.1469 52.2589 61.8819 49.402 66.8893 46.1527C68.5076 45.1027 70.1885 44.0118 72.0076 42.9684C73.161 43.8984 74.2952 44.8561 75.4183 45.8082C81.2341 50.7394 87.1744 55.7765 94.664 55.776C98.9421 55.7755 103.727 54.1319 109.28 49.8856C112.403 47.4972 115.435 45.1849 118.399 43.0456C121.47 44.4072 124.452 45.8899 127.409 47.3605C136.604 51.9331 145.425 56.3202 155.572 56.3197C158.942 56.3197 161.993 56.0166 165.626 54.9298V98.9313C157.642 88.9398 145.352 82.5386 131.567 82.5386C120.967 82.5386 111.252 86.3229 103.698 92.6158C103.189 92.0384 102.632 91.4972 102.03 91.0005C100.866 90.0377 99.5326 89.2394 98.0515 88.6529C96.2642 87.9453 94.4214 87.61 92.6094 87.61C89.8725 87.61 87.2052 88.3745 84.9029 89.7765C82.2513 91.3913 80.0837 93.8509 78.8527 96.96C78.7301 97.2696 78.6187 97.5813 78.5183 97.8935C78.0634 99.3096 77.8335 100.749 77.8118 102.173C77.7185 108.146 81.2764 113.829 87.1598 116.159C87.7685 116.4 88.3837 116.598 89.0015 116.754C88.3419 119.768 87.9944 122.899 87.9944 126.111C87.9944 127.109 88.0282 128.099 88.0943 129.079H77.8097V131.361H88.3076C88.6646 134.336 89.3228 137.222 90.2482 139.981H36.945V142.19H91.0566C91.454 143.189 91.8877 144.173 92.3552 145.134H36.945V147.342H93.5076C94.0704 148.349 94.6721 149.331 95.3105 150.287H36.945V152.495H96.887C99.6517 156.123 102.974 159.306 106.723 161.912ZM89.9476 113.174C89.4695 113.055 88.9935 112.903 88.5229 112.717C84.1117 110.97 81.4444 106.71 81.5139 102.232C81.5306 101.164 81.7026 100.084 82.044 99.0226C82.1191 98.7881 82.2028 98.5551 82.2946 98.3226C83.2175 95.9917 84.8429 94.1479 86.8304 92.9376C88.5567 91.8861 90.5568 91.3126 92.6089 91.3126C93.9675 91.3126 95.3483 91.5638 96.6883 92.0943C97.7988 92.5341 98.7984 93.1332 99.6718 93.8539C100.136 94.2377 100.565 94.6558 100.955 95.1031C95.9243 100.071 92.0965 106.252 89.9476 113.174ZM155.691 54.0825C145.932 54.0825 137.305 49.8463 128.38 45.4078C125.774 44.1122 123.148 42.8065 120.459 41.579C129.326 35.3699 137.615 30.943 145.978 30.943C152.387 30.943 158.842 33.5463 165.626 39.9435V52.5978C162.161 53.6342 158.866 54.0825 155.691 54.0825ZM94.6327 53.6196C88.004 53.6196 82.6663 49.0948 76.8284 44.145C75.9206 43.3754 75.0068 42.6008 74.0803 41.8377C78.0372 39.7953 82.6885 38.0882 88.6762 37.4759C90.4625 37.2934 92.1964 37.2081 93.8863 37.2081C102.163 37.2081 109.344 39.2622 116.044 42.0354C113.384 43.9967 110.69 46.0624 107.955 48.1533C102.831 52.0713 98.5114 53.6196 94.6327 53.6196Z" fill="white"/>
</mask>
<g mask="url(#mask5_72_636)">
<path d="M196.712 161.912H156.411C160.644 158.97 164.331 155.294 167.288 151.071C168.181 151.878 169.364 152.369 170.662 152.369H203.797V154.827C203.797 158.74 200.625 161.912 196.712 161.912ZM106.723 161.912H65.8963H34.8102C30.8968 161.912 27.7246 158.74 27.7246 154.827V10.2509C27.7246 6.33691 30.8968 3.16527 34.8102 3.16527H196.712C200.625 3.16527 203.797 6.33691 203.797 10.2509V12.7084H170.662C167.881 12.7084 165.626 14.9632 165.626 17.7445V36.9902C159.213 31.0726 152.525 28.5253 145.895 28.5253C143.291 28.5253 140.695 28.9187 138.128 29.6555C131.571 31.5376 124.942 35.6185 118.106 40.5341C110.853 37.4124 103.067 35.0244 93.9337 35.0244C92.1606 35.0244 90.3354 35.1147 88.4549 35.3068C81.6637 36.0008 76.5459 38.0075 72.226 40.3455C69.0437 37.8551 65.6719 35.6251 61.8688 34.3017C57.9175 32.9275 54.4453 32.4161 51.4653 32.4161C47.6839 32.4161 44.6958 33.2397 42.5288 34.1681C38.2739 35.9917 36.8028 37.9015 36.7161 38.011V41.2073C36.7741 41.1347 41.8697 34.6401 51.8607 34.6401C54.5925 34.6401 57.6921 35.1258 61.1527 36.3614C64.3758 37.5122 67.3371 39.3852 70.1573 41.52C68.5929 42.448 67.1238 43.4011 65.7026 44.323C60.7654 47.5264 56.5009 50.2936 50.7234 50.3223C50.6538 50.3229 50.5858 50.3234 50.5172 50.3234C38.9658 50.3234 36.7287 45.4204 36.7161 45.3715V48.2077C36.7735 48.466 40.0703 52.5282 49.4455 52.5277C49.8626 52.5277 50.2933 52.5197 50.7345 52.503C57.1469 52.2589 61.8819 49.402 66.8893 46.1527C68.5076 45.1027 70.1885 44.0118 72.0076 42.9684C73.161 43.8984 74.2952 44.8561 75.4183 45.8082C81.2341 50.7394 87.1744 55.7765 94.664 55.776C98.9421 55.7755 103.727 54.1319 109.28 49.8856C112.403 47.4972 115.435 45.1849 118.399 43.0456C121.47 44.4072 124.452 45.8899 127.409 47.3605C136.604 51.9331 145.425 56.3202 155.572 56.3197C158.942 56.3197 161.993 56.0166 165.626 54.9298V98.9313C157.642 88.9398 145.352 82.5386 131.567 82.5386C120.967 82.5386 111.252 86.3229 103.698 92.6158C103.189 92.0384 102.632 91.4972 102.03 91.0005C100.866 90.0377 99.5326 89.2394 98.0515 88.6529C96.2642 87.9453 94.4214 87.61 92.6094 87.61C89.8725 87.61 87.2052 88.3745 84.9029 89.7765C82.2513 91.3913 80.0837 93.8509 78.8527 96.96C78.7301 97.2696 78.6187 97.5813 78.5183 97.8935C78.0634 99.3096 77.8335 100.749 77.8118 102.173C77.7185 108.146 81.2764 113.829 87.1598 116.159C87.7685 116.4 88.3837 116.598 89.0015 116.754C88.3419 119.768 87.9944 122.899 87.9944 126.111C87.9944 127.109 88.0282 128.099 88.0943 129.079H77.8097V131.361H88.3076C88.6646 134.336 89.3228 137.222 90.2482 139.981H36.945V142.19H91.0566C91.454 143.189 91.8877 144.173 92.3552 145.134H36.945V147.342H93.5076C94.0704 148.349 94.6721 149.331 95.3105 150.287H36.945V152.495H96.887C99.6517 156.123 102.974 159.306 106.723 161.912ZM89.9476 113.174C89.4695 113.055 88.9935 112.903 88.5229 112.717C84.1117 110.97 81.4444 106.71 81.5139 102.232C81.5306 101.164 81.7026 100.084 82.044 99.0226C82.1191 98.7881 82.2028 98.5551 82.2946 98.3226C83.2175 95.9917 84.8429 94.1479 86.8304 92.9376C88.5567 91.8861 90.5568 91.3126 92.6089 91.3126C93.9675 91.3126 95.3483 91.5638 96.6883 92.0943C97.7988 92.5341 98.7984 93.1332 99.6718 93.8539C100.136 94.2377 100.565 94.6558 100.955 95.1031C95.9243 100.071 92.0965 106.252 89.9476 113.174ZM155.691 54.0825C145.932 54.0825 137.305 49.8463 128.38 45.4078C125.774 44.1122 123.148 42.8065 120.459 41.579C129.326 35.3699 137.615 30.943 145.978 30.943C152.387 30.943 158.842 33.5463 165.626 39.9435V52.5978C162.161 53.6342 158.866 54.0825 155.691 54.0825ZM94.6327 53.6196C88.004 53.6196 82.6663 49.0948 76.8284 44.145C75.9206 43.3754 75.0068 42.6008 74.0803 41.8377C78.0372 39.7953 82.6885 38.0882 88.6762 37.4759C90.4625 37.2934 92.1964 37.2081 93.8863 37.2081C102.163 37.2081 109.344 39.2622 116.044 42.0354C113.384 43.9967 110.69 46.0624 107.955 48.1533C102.831 52.0713 98.5114 53.6196 94.6327 53.6196Z" fill="url(#paint5_linear_72_636)"/>
</g>
<path d="M36.9457 70.5825H36.4883V22.5792H36.9457V70.5825Z" fill="#E0E0E0"/>
<path d="M69.4794 70.5825H69.0215V22.5792H69.4794V70.5825Z" fill="#E0E0E0"/>
<path d="M102.012 70.5825H101.555V22.5792H102.012V70.5825Z" fill="#E0E0E0"/>
<path d="M134.544 70.5825H134.086V22.5792H134.544V70.5825Z" fill="#E0E0E0"/>
<path d="M166.619 70.5825H167.077V22.5791H166.619V70.5825Z" fill="#E0E0E0"/>
<path d="M41.8926 75.095H36.7168V73.4262H41.8926V75.095Z" fill="#B8B8B8"/>
<path d="M44.509 17.9153H36.7168V16.6641H44.509V17.9153Z" fill="#D9D9D9"/>
<path d="M47.7699 20.2285H36.7168V18.9773H47.7699V20.2285Z" fill="#D9D9D9"/>
<path d="M78.0487 17.9153H68.9004V16.6641H78.0487V17.9153Z" fill="#D9D9D9"/>
<path d="M74.75 20.2285H68.9004V18.9773H74.75V20.2285Z" fill="#D9D9D9"/>
<path d="M107.681 17.9153H102.012V16.6641H107.681V17.9153Z" fill="#D9D9D9"/>
<path d="M108.619 20.2285H102.012V18.9773H108.619V20.2285Z" fill="#D9D9D9"/>
<path d="M142.802 17.9153H134.545V16.6641H142.802V17.9153Z" fill="#D9D9D9"/>
<path d="M141.152 20.2285H134.545V18.9773H141.152V20.2285Z" fill="#D9D9D9"/>
<path d="M166.848 17.9153H171.78V16.6641H166.848V17.9153Z" fill="#D9D9D9"/>
<path d="M166.848 20.2285H170.795V18.9774H166.848V20.2285Z" fill="#D9D9D9"/>
<path d="M74.4258 75.095H69.25V73.4262H74.4258V75.095Z" fill="#B8B8B8"/>
<path d="M107.188 75.095H102.012V73.4262H107.188V75.095Z" fill="#B8B8B8"/>
<path d="M139.72 75.095H134.545V73.4262H139.72V75.095Z" fill="#B8B8B8"/>
<path d="M167.076 75.095H172.252V73.4262H167.076V75.095Z" fill="#B8B8B8"/>
<mask id="mask6_72_636" style="mask-type:luminance" maskUnits="userSpaceOnUse" x="36" y="35" width="130" height="22">
<path d="M155.575 56.3201C145.428 56.3206 136.607 51.9335 127.411 47.3609C124.455 45.8903 121.473 44.4076 118.401 43.046C119.092 42.5472 119.779 42.0585 120.462 41.5794C123.151 42.8069 125.776 44.1126 128.382 45.4082C137.308 49.8467 145.935 54.0829 155.693 54.0829C158.869 54.0829 162.164 53.6346 165.628 52.5982V54.9302C161.996 56.017 158.945 56.3201 155.575 56.3201ZM49.4482 52.5281C40.073 52.5286 36.7762 48.4664 36.7188 48.2081V45.3719C36.7314 45.4208 38.9685 50.3238 50.5199 50.3238C50.5884 50.3238 50.6565 50.3233 50.7261 50.3227C56.5036 50.294 60.7681 47.5268 65.7053 44.3234C67.1265 43.4015 68.5956 42.4484 70.1599 41.5204C70.7833 41.9925 71.3996 42.4766 72.0103 42.9688C70.1912 44.0122 68.5103 45.1031 66.892 46.1531C61.8846 49.4024 57.1496 52.2593 50.7372 52.5034C50.2959 52.5201 49.8653 52.5281 49.4482 52.5281ZM116.047 42.0358C109.346 39.2626 102.165 37.2085 93.889 37.2085C92.1991 37.2085 90.4652 37.2937 88.6789 37.4763C82.6912 38.0885 78.0399 39.7957 74.083 41.8381C73.4708 41.3338 72.8535 40.835 72.2287 40.3459C76.5486 38.0078 81.6664 36.0012 88.4575 35.3072C90.3381 35.1151 92.1632 35.0248 93.9364 35.0248C103.07 35.0248 110.855 37.4128 118.108 40.5345C117.423 41.0272 116.737 41.528 116.047 42.0358Z" fill="white"/>
</mask>
<g mask="url(#mask6_72_636)">
<path d="M155.575 56.3201C145.428 56.3206 136.607 51.9335 127.411 47.3609C124.455 45.8903 121.473 44.4076 118.401 43.046C119.092 42.5472 119.779 42.0585 120.462 41.5794C123.151 42.8069 125.776 44.1126 128.382 45.4082C137.308 49.8467 145.935 54.0829 155.693 54.0829C158.869 54.0829 162.164 53.6346 165.628 52.5982V54.9302C161.996 56.017 158.945 56.3201 155.575 56.3201ZM49.4482 52.5281C40.073 52.5286 36.7762 48.4664 36.7188 48.2081V45.3719C36.7314 45.4208 38.9685 50.3238 50.5199 50.3238C50.5884 50.3238 50.6565 50.3233 50.7261 50.3227C56.5036 50.294 60.7681 47.5268 65.7053 44.3234C67.1265 43.4015 68.5956 42.4484 70.1599 41.5204C70.7833 41.9925 71.3996 42.4766 72.0103 42.9688C70.1912 44.0122 68.5103 45.1031 66.892 46.1531C61.8846 49.4024 57.1496 52.2593 50.7372 52.5034C50.2959 52.5201 49.8653 52.5281 49.4482 52.5281ZM116.047 42.0358C109.346 39.2626 102.165 37.2085 93.889 37.2085C92.1991 37.2085 90.4652 37.2937 88.6789 37.4763C82.6912 38.0885 78.0399 39.7957 74.083 41.8381C73.4708 41.3338 72.8535 40.835 72.2287 40.3459C76.5486 38.0078 81.6664 36.0012 88.4575 35.3072C90.3381 35.1151 92.1632 35.0248 93.9364 35.0248C103.07 35.0248 110.855 37.4128 118.108 40.5345C117.423 41.0272 116.737 41.528 116.047 42.0358Z" fill="url(#paint6_linear_72_636)"/>
</g>
<mask id="mask7_72_636" style="mask-type:luminance" maskUnits="userSpaceOnUse" x="36" y="28" width="130" height="28">
<path d="M94.6667 55.7762C87.1771 55.7767 81.2367 50.7396 75.421 45.8084C74.2979 44.8563 73.1637 43.8986 72.0103 42.9686C71.3996 42.4764 70.7833 41.9923 70.1599 41.5202C67.3398 39.3855 64.3785 37.5124 61.1554 36.3616C57.6948 35.126 54.5952 34.6404 51.8634 34.6404C41.8724 34.6404 36.7767 41.1349 36.7188 41.2076V38.0112C36.8055 37.9018 38.2766 35.9919 42.5315 34.1683C44.6985 33.2399 47.6866 32.4163 51.468 32.4163C54.448 32.4163 57.9202 32.9277 61.8715 34.302C65.6746 35.6253 69.0464 37.8554 72.2287 40.3457C72.8535 40.8349 73.4708 41.3336 74.083 41.838C75.0095 42.601 75.9233 43.3756 76.831 44.1452C82.669 49.0951 88.0067 53.6198 94.6354 53.6198C98.5141 53.6198 102.834 52.0715 107.957 48.1535C110.692 46.0626 113.386 43.9969 116.047 42.0357C116.737 41.5278 117.423 41.027 118.108 40.5343C124.944 35.6187 131.574 31.5378 138.131 29.6557C140.698 28.9189 143.293 28.5255 145.898 28.5255C152.527 28.5255 159.216 31.0728 165.628 36.9905V39.9438C158.845 33.5465 152.39 30.9432 145.981 30.9432C137.618 30.9432 129.329 35.3701 120.462 41.5792C119.779 42.0583 119.092 42.547 118.401 43.0458C115.438 45.1851 112.405 47.4974 109.282 49.8858C103.729 54.1322 98.9448 55.7757 94.6667 55.7762Z" fill="white"/>
</mask>
<g mask="url(#mask7_72_636)">
<path d="M94.6667 55.7762C87.1771 55.7767 81.2367 50.7396 75.421 45.8084C74.2979 44.8563 73.1637 43.8986 72.0103 42.9686C71.3996 42.4764 70.7833 41.9923 70.1599 41.5202C67.3398 39.3855 64.3785 37.5124 61.1554 36.3616C57.6948 35.126 54.5952 34.6404 51.8634 34.6404C41.8724 34.6404 36.7767 41.1349 36.7188 41.2076V38.0112C36.8055 37.9018 38.2766 35.9919 42.5315 34.1683C44.6985 33.2399 47.6866 32.4163 51.468 32.4163C54.448 32.4163 57.9202 32.9277 61.8715 34.302C65.6746 35.6253 69.0464 37.8554 72.2287 40.3457C72.8535 40.8349 73.4708 41.3336 74.083 41.838C75.0095 42.601 75.9233 43.3756 76.831 44.1452C82.669 49.0951 88.0067 53.6198 94.6354 53.6198C98.5141 53.6198 102.834 52.0715 107.957 48.1535C110.692 46.0626 113.386 43.9969 116.047 42.0357C116.737 41.5278 117.423 41.027 118.108 40.5343C124.944 35.6187 131.574 31.5378 138.131 29.6557C140.698 28.9189 143.293 28.5255 145.898 28.5255C152.527 28.5255 159.216 31.0728 165.628 36.9905V39.9438C158.845 33.5465 152.39 30.9432 145.981 30.9432C137.618 30.9432 129.329 35.3701 120.462 41.5792C119.779 42.0583 119.092 42.547 118.401 43.0458C115.438 45.1851 112.405 47.4974 109.282 49.8858C103.729 54.1322 98.9448 55.7757 94.6667 55.7762Z" fill="url(#paint7_linear_72_636)"/>
</g>
<path d="M55.4757 112.848C51.0084 114.446 46.1932 113.004 43.2909 109.592C42.5995 108.779 42.016 107.854 41.5727 106.832C41.4743 106.606 41.3831 106.375 41.2988 106.14C40.4546 103.78 40.4597 101.322 41.1546 99.1006C42.1582 95.8951 44.6001 93.1814 48.0068 91.9635C49.1309 91.5615 50.2772 91.3523 51.4094 91.3175C56.0849 91.1768 60.5229 94.0282 62.1836 98.6714C64.2462 104.439 61.2425 110.786 55.4757 112.848ZM65.6689 97.4247C63.4545 91.2327 57.5363 87.4297 51.2989 87.6168C49.789 87.6622 48.2604 87.9416 46.7601 88.4782C42.2172 90.1031 38.9588 93.722 37.6209 97.9971C36.6929 100.96 36.6874 104.238 37.8135 107.387C37.9255 107.7 38.047 108.008 38.1776 108.309C38.7702 109.673 39.5474 110.907 40.4708 111.991C44.3414 116.542 50.7644 118.465 56.7223 116.334C64.4147 113.583 68.4194 105.117 65.6689 97.4247Z" fill="white"/>
<path d="M41.1548 99.1005L37.6211 97.997C38.959 93.7219 42.2174 90.103 46.7603 88.478C48.2606 87.9415 49.7892 87.6621 51.2992 87.6167L51.4096 91.3174C50.2774 91.3521 49.1311 91.5614 48.007 91.9634C44.6003 93.1813 42.1584 95.895 41.1548 99.1005Z" fill="#FF4F58"/>
<path d="M41.5727 106.832L38.1776 108.309C38.047 108.008 37.9255 107.7 37.8135 107.387C36.6874 104.238 36.6929 100.96 37.6209 97.997L41.1546 99.1004C40.4597 101.321 40.4546 103.779 41.2988 106.14C41.3831 106.375 41.4743 106.606 41.5727 106.832Z" fill="#FF6F59"/>
<path d="M40.4728 111.991C39.5494 110.907 38.7723 109.672 38.1797 108.309L41.5747 106.832C42.018 107.854 42.6015 108.779 43.2929 109.592L40.4728 111.991Z" fill="#FFAD5B"/>
<path d="M88.5255 112.717C84.1142 110.971 81.4469 106.71 81.5165 102.232C81.5331 101.164 81.7051 100.084 82.0465 99.0229C82.1216 98.7884 82.2054 98.5554 82.2972 98.3229C83.22 95.9919 84.8455 94.1482 86.833 92.9378C89.702 91.1904 93.3275 90.7627 96.6908 92.0946C97.8013 92.5344 98.8009 93.1335 99.6744 93.8542C103.281 96.8332 104.734 101.904 102.919 106.488C100.664 112.183 94.2202 114.971 88.5255 112.717ZM106.361 107.851C108.782 101.737 106.844 94.9742 102.033 91.0007C100.868 90.038 99.5352 89.2397 98.054 88.6531C93.5676 86.8769 88.7317 87.4468 84.9055 89.7768C82.2538 91.3916 80.0862 93.8511 78.8552 96.9602C78.7326 97.2699 78.6212 97.5816 78.5208 97.8937C78.0659 99.3099 77.836 100.749 77.8143 102.173C77.721 108.146 81.2789 113.83 87.1623 116.16C94.7578 119.167 103.353 115.447 106.361 107.851Z" fill="white"/>
<path d="M86.8318 92.9377L84.9043 89.7766C88.7305 87.4467 93.5664 86.8768 98.0528 88.653C99.534 89.2395 100.867 90.0378 102.031 91.0006L99.6732 93.854C98.7997 93.1333 97.8002 92.5342 96.6897 92.0949C93.3264 90.7625 89.7008 91.1902 86.8318 92.9377Z" fill="#4B59C7"/>
<path d="M82.0452 99.0228L78.5195 97.8937C78.6199 97.5815 78.7313 97.2698 78.8539 96.9602C80.0849 93.8511 82.2525 91.3915 84.9042 89.7767L86.8317 92.9378C84.8441 94.1481 83.2187 95.9919 82.2958 98.3228C82.2041 98.5553 82.1203 98.7883 82.0452 99.0228Z" fill="#6F5BE0"/>
<path d="M77.8125 102.173C77.8342 100.749 78.0642 99.3098 78.519 97.8937L82.0447 99.0229C81.7033 100.084 81.5313 101.164 81.5147 102.232L77.8125 102.173Z" fill="#B487FE"/>
<path d="M144.431 104.102C143.706 108.79 140.143 112.335 135.761 113.261C134.716 113.481 133.624 113.553 132.514 113.455C132.269 113.433 132.023 113.404 131.776 113.366C129.298 112.982 127.14 111.807 125.519 110.136C123.18 107.726 121.959 104.286 122.512 100.711C122.694 99.5307 123.057 98.4237 123.566 97.4116C125.671 93.2343 130.294 90.6926 135.167 91.4465C141.219 92.383 145.367 98.049 144.431 104.102ZM135.733 87.7882C129.234 86.7831 123.069 90.1721 120.261 95.7443C119.581 97.0933 119.097 98.5705 118.854 100.144C118.116 104.913 119.744 109.502 122.864 112.717C125.027 114.945 127.906 116.513 131.21 117.024C131.539 117.075 131.868 117.115 132.195 117.143C133.676 117.273 135.131 117.178 136.524 116.883C142.37 115.65 147.122 110.921 148.09 104.668C149.338 96.5941 143.806 89.0374 135.733 87.7882Z" fill="white"/>
<path d="M125.519 110.136L122.864 112.717C119.744 109.502 118.116 104.913 118.854 100.144C119.097 98.5705 119.581 97.0933 120.261 95.7443L123.566 97.4116C123.057 98.4237 122.694 99.5307 122.512 100.711C121.959 104.286 123.18 107.726 125.519 110.136Z" fill="#1A598C"/>
<path d="M132.515 113.455L132.196 117.143C131.869 117.115 131.54 117.075 131.211 117.024C127.906 116.513 125.028 114.945 122.865 112.717L125.52 110.136C127.141 111.807 129.299 112.982 131.777 113.366C132.024 113.404 132.27 113.433 132.515 113.455Z" fill="#2273B5"/>
<path d="M136.525 116.883C135.132 117.178 133.676 117.273 132.195 117.143L132.515 113.455C133.625 113.553 134.716 113.481 135.761 113.261L136.525 116.883Z" fill="#3788CC"/>
<path d="M66.5366 126.511H36.9453V124.23H66.5366V126.511Z" fill="#BDC1C9"/>
<path d="M59.0893 131.361H36.9453V129.08H59.0893V131.361Z" fill="#BDC1C9"/>
<path d="M94.1296 126.511H77.8125V124.23H94.1296V126.511Z" fill="#BDC1C9"/>
<path d="M77.8125 131.361H102.033V129.08H77.8125V131.361Z" fill="#BDC1C9"/>
<path d="M121.361 126.511H139.496V124.229H121.361V126.511Z" fill="#BDC1C9"/>
<path d="M121.361 131.361H142.367V129.08H121.361V131.361Z" fill="#BDC1C9"/>
<path d="M208.584 152.369H203.799V120.08C207.447 118.543 210.981 115.235 213.62 111.532V147.333C213.62 150.115 211.366 152.369 208.584 152.369ZM212.455 98.7964C212.754 97.0464 213.148 95.5774 213.62 94.3317V97.4055C213.187 97.8604 212.804 98.3274 212.455 98.7964ZM203.799 79.0983V12.7086H208.584C211.366 12.7086 213.62 14.9634 213.62 17.7448V64.1902C213.612 64.2099 213.604 64.2301 213.597 64.2497C210.965 70.9849 212.548 76.8602 204.668 78.8346C204.367 78.9097 204.078 78.998 203.799 79.0983Z" fill="#FDFDFD"/>
<path d="M203.799 120.08V111.562C205.857 111.15 207.786 110.27 209.386 108.369C210.833 106.65 212.282 105.227 213.62 104.067V111.532C210.981 115.235 207.447 118.543 203.799 120.08ZM203.799 110.954V109.35C207.887 108.589 211.481 106.205 212.215 100.411C212.287 99.8479 212.367 99.3103 212.455 98.7964C212.804 98.3274 213.187 97.8604 213.62 97.4055V103.294C212.155 104.53 210.545 106.081 208.938 107.99C207.481 109.719 205.706 110.551 203.799 110.954Z" fill="#D4E4CB"/>
<mask id="mask8_72_636" style="mask-type:luminance" maskUnits="userSpaceOnUse" x="203" y="103" width="11" height="9">
<path d="M203.797 111.562V110.954C205.704 110.55 207.479 109.719 208.936 107.99C210.543 106.081 212.153 104.53 213.618 103.294V104.067C212.28 105.227 210.831 106.65 209.384 108.369C207.784 110.269 205.855 111.149 203.797 111.562Z" fill="white"/>
</mask>
<g mask="url(#mask8_72_636)">
<path d="M203.797 111.562V110.954C205.704 110.55 207.479 109.719 208.936 107.99C210.543 106.081 212.153 104.53 213.618 103.294V104.067C212.28 105.227 210.831 106.65 209.384 108.369C207.784 110.269 205.855 111.149 203.797 111.562Z" fill="url(#paint8_linear_72_636)"/>
</g>
<path d="M203.799 109.35V102.662C205.468 99.8362 205.409 97.0004 205.35 94.2484C205.275 90.7575 205.207 87.4577 208.507 84.2735C209.976 82.8518 211.587 82.0535 213.145 81.2804C213.304 81.2012 213.463 81.1225 213.62 81.0433V94.3316C213.148 95.5772 212.754 97.0463 212.455 98.7963C212.367 99.3102 212.287 99.8478 212.215 100.411C211.481 106.205 207.887 108.589 203.799 109.35ZM203.799 101.708V79.0982C204.078 78.9978 204.367 78.9096 204.668 78.8344C212.548 76.86 210.965 70.9848 213.597 64.2496C213.604 64.2299 213.612 64.2098 213.62 64.1901V80.5375C213.396 80.651 213.17 80.7629 212.943 80.8754C211.355 81.6647 209.712 82.4806 208.193 83.9482C204.751 87.2711 204.828 90.8225 204.9 94.2584C204.952 96.7049 205.005 99.2209 203.799 101.708Z" fill="#D4E4CB"/>
<mask id="mask9_72_636" style="mask-type:luminance" maskUnits="userSpaceOnUse" x="203" y="80" width="11" height="23">
<path d="M203.797 102.662V101.708C205.003 99.2209 204.95 96.7049 204.898 94.2585C204.826 90.8225 204.75 87.2712 208.191 83.9482C209.71 82.4807 211.353 81.6647 212.941 80.8754C213.168 80.763 213.394 80.651 213.618 80.5375V81.0434C213.461 81.1225 213.302 81.2012 213.143 81.2804C211.585 82.0535 209.974 82.8518 208.505 84.2735C205.205 87.4578 205.274 90.7575 205.348 94.2484C205.407 97.0004 205.466 99.8362 203.797 102.662Z" fill="white"/>
</mask>
<g mask="url(#mask9_72_636)">
<path d="M203.797 102.662V101.708C205.003 99.2209 204.95 96.7049 204.898 94.2585C204.826 90.8225 204.75 87.2712 208.191 83.9482C209.71 82.4807 211.353 81.6647 212.941 80.8754C213.168 80.763 213.394 80.651 213.618 80.5375V81.0434C213.461 81.1225 213.302 81.2012 213.143 81.2804C211.585 82.0535 209.974 82.8518 208.505 84.2735C205.205 87.4578 205.274 90.7575 205.348 94.2484C205.407 97.0004 205.466 99.8362 203.797 102.662Z" fill="url(#paint9_linear_72_636)"/>
</g>
<mask id="mask10_72_636" style="mask-type:luminance" maskUnits="userSpaceOnUse" x="165" y="12" width="39" height="141">
<path d="M203.803 152.37H170.667C169.369 152.37 168.186 151.878 167.293 151.071C172.241 144.002 175.145 135.396 175.145 126.112C175.145 115.832 171.585 106.383 165.631 98.9317V54.9301C165.957 54.8328 166.287 54.7294 166.622 54.6189V70.5826H167.08V22.5793H166.622V37.9342C166.293 37.6104 165.963 37.2962 165.631 36.9906V17.7449C165.631 14.9636 167.886 12.7088 170.667 12.7088H203.803V79.0984V101.708V102.662V109.35V110.955V111.562V120.08V152.37ZM167.08 73.4264V75.0952H172.256V73.4264H167.08ZM166.851 18.9774V20.2286H170.798V18.9774H166.851ZM166.851 16.6641V17.9153H171.784V16.6641H166.851ZM165.631 52.5982V39.9439C165.961 40.255 166.291 40.5743 166.622 40.9036V52.287C166.291 52.3964 165.96 52.4998 165.631 52.5982Z" fill="white"/>
</mask>
<g mask="url(#mask10_72_636)">
<path d="M203.803 152.37H170.667C169.369 152.37 168.186 151.878 167.293 151.071C172.241 144.002 175.145 135.396 175.145 126.112C175.145 115.832 171.585 106.383 165.631 98.9317V54.9301C165.957 54.8328 166.287 54.7294 166.622 54.6189V70.5826H167.08V22.5793H166.622V37.9342C166.293 37.6104 165.963 37.2962 165.631 36.9906V17.7449C165.631 14.9636 167.886 12.7088 170.667 12.7088H203.803V79.0984V101.708V102.662V109.35V110.955V111.562V120.08V152.37ZM167.08 73.4264V75.0952H172.256V73.4264H167.08ZM166.851 18.9774V20.2286H170.798V18.9774H166.851ZM166.851 16.6641V17.9153H171.784V16.6641H166.851ZM165.631 52.5982V39.9439C165.961 40.255 166.291 40.5743 166.622 40.9036V52.287C166.291 52.3964 165.96 52.4998 165.631 52.5982Z" fill="url(#paint10_linear_72_636)"/>
</g>
<path d="M167.077 70.5825H166.619V54.6189C166.695 54.5942 166.771 54.5685 166.848 54.5433V52.2113C166.771 52.237 166.695 52.2622 166.619 52.2869V40.9035C166.695 40.9787 166.772 41.0553 166.848 41.1315L166.917 38.2291C166.818 38.1303 166.718 38.0314 166.619 37.9341V22.5792H167.077V70.5825Z" fill="#F7F7F7"/>
<path d="M166.848 17.9153H171.78V16.6641H166.848V17.9153Z" fill="#F5F5F5"/>
<path d="M166.848 20.2285H170.795V18.9774H166.848V20.2285Z" fill="#F5F5F5"/>
<path d="M167.076 75.095H172.252V73.4262H167.076V75.095Z" fill="#ECECEC"/>
<mask id="mask11_72_636" style="mask-type:luminance" maskUnits="userSpaceOnUse" x="165" y="52" width="2" height="3">
<path d="M165.631 54.9301V52.5981C165.96 52.4998 166.291 52.3964 166.622 52.2869C166.698 52.2622 166.775 52.237 166.851 52.2113V54.5432C166.775 54.5685 166.698 54.5942 166.622 54.6189C166.287 54.7293 165.957 54.8327 165.631 54.9301Z" fill="white"/>
</mask>
<g mask="url(#mask11_72_636)">
<path d="M165.631 54.9301V52.5981C165.96 52.4998 166.291 52.3964 166.622 52.2869C166.698 52.2622 166.775 52.237 166.851 52.2113V54.5432C166.775 54.5685 166.698 54.5942 166.622 54.6189C166.287 54.7293 165.957 54.8327 165.631 54.9301Z" fill="url(#paint11_linear_72_636)"/>
</g>
<mask id="mask12_72_636" style="mask-type:luminance" maskUnits="userSpaceOnUse" x="165" y="36" width="2" height="6">
<path d="M166.851 41.1317C166.775 41.0556 166.698 40.9789 166.622 40.9038C166.291 40.5744 165.961 40.2552 165.631 39.944V36.9908C165.963 37.2964 166.293 37.6106 166.622 37.9343C166.721 38.0317 166.821 38.1305 166.92 38.2294L166.851 41.1317Z" fill="white"/>
</mask>
<g mask="url(#mask12_72_636)">
<path d="M166.851 41.1317C166.775 41.0556 166.698 40.9789 166.622 40.9038C166.291 40.5744 165.961 40.2552 165.631 39.944V36.9908C165.963 37.2964 166.293 37.6106 166.622 37.9343C166.721 38.0317 166.821 38.1305 166.92 38.2294L166.851 41.1317Z" fill="url(#paint12_linear_72_636)"/>
</g>
<path d="M36.9453 142.19H131.104V139.981H36.9453V142.19Z" fill="white"/>
<path d="M36.9453 147.342H138.685V145.135H36.9453V147.342Z" fill="white"/>
<path d="M36.9453 152.495H102.96V150.287H36.9453V152.495Z" fill="white"/>
<path d="M202.796 35.7498C202.796 41.0839 199.625 45.6757 195.067 47.747C193.409 48.5019 191.565 48.921 189.624 48.921C187.683 48.921 185.839 48.5019 184.18 47.747C179.622 45.6757 176.453 41.0839 176.453 35.7498C176.453 28.4755 182.35 22.5791 189.624 22.5791C196.899 22.5791 202.796 28.4755 202.796 35.7498Z" fill="#F5F5F5"/>
<path d="M192.652 32.2469C192.652 33.9051 191.308 35.2496 189.649 35.2496C187.991 35.2496 186.646 33.9051 186.646 32.2469C186.646 30.5882 187.991 29.2437 189.649 29.2437C191.308 29.2437 192.652 30.5882 192.652 32.2469Z" fill="#FFB95C"/>
<path d="M195.066 42.0361V47.747C193.408 48.5019 191.564 48.921 189.623 48.921C187.683 48.921 185.839 48.5019 184.18 47.747V42.0361C184.18 39.0314 186.617 36.593 189.623 36.593C192.631 36.593 195.066 39.0314 195.066 42.0361Z" fill="#FFB95C"/>
<path d="M200.736 55.7334H178.51V54.3006H200.736V55.7334Z" fill="#D6D6D6"/>
<path d="M198.262 53.1815H180.988V51.7493H198.262V53.1815Z" fill="#D6D6D6"/>
<path d="M195.44 97.7368H183.809V96.3041H195.44V97.7368Z" fill="#D6D6D6"/>
<path d="M198.262 95.1851H180.988V93.7523H198.262V95.1851Z" fill="#D6D6D6"/>
<path d="M197.622 139.981H181.625V138.549H197.622V139.981Z" fill="#D6D6D6"/>
<path d="M199.832 137.43H179.418V135.997H199.832V137.43Z" fill="#D6D6D6"/>
<path d="M202.796 77.5868C202.796 82.921 199.625 87.5128 195.067 89.584C193.409 90.339 191.565 90.7581 189.624 90.7581C187.683 90.7581 185.839 90.339 184.18 89.584C179.622 87.5128 176.453 82.921 176.453 77.5868C176.453 70.3126 182.35 64.4161 189.624 64.4161C196.899 64.4161 202.796 70.3126 202.796 77.5868Z" fill="#F5F5F5"/>
<path d="M192.652 74.0838C192.652 75.742 191.308 77.0865 189.649 77.0865C187.991 77.0865 186.646 75.742 186.646 74.0838C186.646 72.4252 187.991 71.0806 189.649 71.0806C191.308 71.0806 192.652 72.4252 192.652 74.0838Z" fill="#FF6F59"/>
<path d="M195.066 83.8731V89.584C193.408 90.339 191.564 90.7581 189.623 90.7581C187.683 90.7581 185.839 90.339 184.18 89.584V83.8731C184.18 80.8684 186.617 78.4301 189.623 78.4301C192.631 78.4301 195.066 80.8684 195.066 83.8731Z" fill="#FF6F59"/>
<path d="M202.796 119.424C202.796 124.758 199.625 129.35 195.067 131.421C193.409 132.176 191.565 132.595 189.624 132.595C187.683 132.595 185.839 132.176 184.18 131.421C179.622 129.35 176.453 124.758 176.453 119.424C176.453 112.15 182.35 106.253 189.624 106.253C196.899 106.253 202.796 112.15 202.796 119.424Z" fill="#F5F5F5"/>
<path d="M192.652 115.921C192.652 117.579 191.308 118.924 189.649 118.924C187.991 118.924 186.646 117.579 186.646 115.921C186.646 114.262 187.991 112.918 189.649 112.918C191.308 112.918 192.652 114.262 192.652 115.921Z" fill="#3788CC"/>
<path d="M195.066 125.711V131.421C193.408 132.176 191.564 132.595 189.623 132.595C187.683 132.595 185.839 132.176 184.18 131.421V125.711C184.18 122.705 186.617 120.267 189.623 120.267C192.631 120.267 195.066 122.705 195.066 125.711Z" fill="#3788CC"/>
<path d="M193.65 158.158H185.653C184.665 158.158 183.863 157.357 183.863 156.368V148.371C183.863 147.382 184.665 146.581 185.653 146.581H193.65C194.639 146.581 195.441 147.382 195.441 148.371V156.368C195.441 157.357 194.639 158.158 193.65 158.158Z" fill="white"/>
<path d="M189.674 154.887L186.521 151.734L187.354 150.901L189.674 153.222L191.945 150.951L192.778 151.784L189.674 154.887Z" fill="#D6D6D6"/>
<path d="M185.653 6.91962H193.65C194.639 6.91962 195.441 7.72148 195.441 8.70994V16.7074C195.441 17.6958 194.639 18.4972 193.65 18.4972H185.653C184.665 18.4972 183.863 17.6958 183.863 16.7074V8.70994C183.863 7.72148 184.665 6.91962 185.653 6.91962Z" fill="white"/>
<path d="M191.945 14.1772L189.625 11.8564L187.354 14.1268L186.521 13.2942L189.625 10.1911L192.778 13.3441L191.945 14.1772Z" fill="#D6D6D6"/>
<path d="M243.099 133.976C234.786 133.976 228.047 127.237 228.047 118.924C228.047 110.611 234.786 103.872 243.099 103.872C251.412 103.872 258.152 110.611 258.152 118.924C258.152 127.237 251.412 133.976 243.099 133.976Z" fill="#F1F1F1"/>
<mask id="mask13_72_636" style="mask-type:luminance" maskUnits="userSpaceOnUse" x="124" y="161" width="15" height="2">
<path d="M131.572 162.53C129.279 162.53 127.036 162.318 124.861 161.913H138.283C136.107 162.318 133.865 162.53 131.572 162.53Z" fill="white"/>
</mask>
<g mask="url(#mask13_72_636)">
<path d="M131.572 162.53C129.279 162.53 127.036 162.318 124.861 161.913H138.283C136.107 162.318 133.865 162.53 131.572 162.53Z" fill="url(#paint13_linear_72_636)"/>
</g>
<mask id="mask14_72_636" style="mask-type:luminance" maskUnits="userSpaceOnUse" x="99" y="98" width="67" height="64">
<path d="M138.283 161.912H124.862C115.471 160.163 107.347 154.81 101.98 147.342H138.69V145.134H100.512C100.123 144.5 99.7528 143.854 99.4023 143.195C99.4664 142.857 99.5319 142.523 99.599 142.19H131.108V139.981H100.079C103.758 124.174 111.427 114.399 119.943 108.384C120.655 109.991 121.647 111.459 122.868 112.717C125.03 114.945 127.909 116.512 131.214 117.024C131.542 117.075 131.871 117.115 132.198 117.143C132.205 117.144 132.212 117.144 132.219 117.145C132.646 117.182 133.07 117.2 133.492 117.2C133.492 117.2 133.493 117.2 133.494 117.2C133.495 117.2 133.496 117.2 133.498 117.2C134.517 117.2 135.518 117.094 136.49 116.891C136.503 116.889 136.515 116.886 136.528 116.883C142.373 115.65 147.126 110.921 148.094 104.668C148.39 102.748 148.304 100.858 147.891 99.0752C149.245 98.9925 150.47 98.9627 151.537 98.9627C154.37 98.9627 156.08 99.1746 156.08 99.1746C160.278 102.997 163.579 107.786 165.631 113.19V139.033C161.185 150.743 150.872 159.567 138.283 161.912ZM121.365 129.079V131.361H142.37V129.079H121.365ZM121.365 124.229V126.511H139.499V124.229H121.365ZM133.491 113.498C133.491 113.498 133.49 113.498 133.49 113.498C133.168 113.498 132.844 113.484 132.518 113.455C132.273 113.433 132.026 113.404 131.779 113.365C129.302 112.982 127.143 111.807 125.522 110.136C124.47 109.052 123.643 107.759 123.104 106.338C130.423 102.011 138.072 100.159 144.157 99.4166C144.572 100.895 144.685 102.485 144.435 104.102C143.71 108.79 140.146 112.335 135.764 113.261C135.756 113.262 135.749 113.264 135.742 113.265C135.73 113.268 135.717 113.27 135.705 113.273C135.699 113.274 135.693 113.275 135.688 113.276C135.677 113.278 135.666 113.281 135.654 113.283C135.649 113.284 135.644 113.285 135.638 113.286C135.62 113.29 135.602 113.293 135.583 113.297C135.579 113.298 135.574 113.298 135.57 113.299C134.895 113.43 134.2 113.497 133.495 113.498C133.494 113.498 133.493 113.498 133.491 113.498Z" fill="white"/>
</mask>
<g mask="url(#mask14_72_636)">
<path d="M138.283 161.912H124.862C115.471 160.163 107.347 154.81 101.98 147.342H138.69V145.134H100.512C100.123 144.5 99.7528 143.854 99.4023 143.195C99.4664 142.857 99.5319 142.523 99.599 142.19H131.108V139.981H100.079C103.758 124.174 111.427 114.399 119.943 108.384C120.655 109.991 121.647 111.459 122.868 112.717C125.03 114.945 127.909 116.512 131.214 117.024C131.542 117.075 131.871 117.115 132.198 117.143C132.205 117.144 132.212 117.144 132.219 117.145C132.646 117.182 133.07 117.2 133.492 117.2C133.492 117.2 133.493 117.2 133.494 117.2C133.495 117.2 133.496 117.2 133.498 117.2C134.517 117.2 135.518 117.094 136.49 116.891C136.503 116.889 136.515 116.886 136.528 116.883C142.373 115.65 147.126 110.921 148.094 104.668C148.39 102.748 148.304 100.858 147.891 99.0752C149.245 98.9925 150.47 98.9627 151.537 98.9627C154.37 98.9627 156.08 99.1746 156.08 99.1746C160.278 102.997 163.579 107.786 165.631 113.19V139.033C161.185 150.743 150.872 159.567 138.283 161.912ZM121.365 129.079V131.361H142.37V129.079H121.365ZM121.365 124.229V126.511H139.499V124.229H121.365ZM133.491 113.498C133.491 113.498 133.49 113.498 133.49 113.498C133.168 113.498 132.844 113.484 132.518 113.455C132.273 113.433 132.026 113.404 131.779 113.365C129.302 112.982 127.143 111.807 125.522 110.136C124.47 109.052 123.643 107.759 123.104 106.338C130.423 102.011 138.072 100.159 144.157 99.4166C144.572 100.895 144.685 102.485 144.435 104.102C143.71 108.79 140.146 112.335 135.764 113.261C135.756 113.262 135.749 113.264 135.742 113.265C135.73 113.268 135.717 113.27 135.705 113.273C135.699 113.274 135.693 113.275 135.688 113.276C135.677 113.278 135.666 113.281 135.654 113.283C135.649 113.284 135.644 113.285 135.638 113.286C135.62 113.29 135.602 113.293 135.583 113.297C135.579 113.298 135.574 113.298 135.57 113.299C134.895 113.43 134.2 113.497 133.495 113.498C133.494 113.498 133.493 113.498 133.491 113.498Z" fill="url(#paint14_linear_72_636)"/>
</g>
<path d="M136.525 116.883L135.761 113.261C140.143 112.335 143.707 108.79 144.432 104.102C144.682 102.485 144.569 100.895 144.154 99.4168C145.48 99.2549 146.731 99.1459 147.888 99.0753C148.301 100.859 148.387 102.748 148.091 104.668C147.123 110.921 142.37 115.65 136.525 116.883Z" fill="#F3F3F3"/>
<path d="M122.864 112.717C121.643 111.459 120.651 109.991 119.939 108.384C120.981 107.648 122.038 106.966 123.1 106.338C123.64 107.759 124.466 109.052 125.519 110.136L122.864 112.717Z" fill="#356993"/>
<path d="M132.196 117.143C131.869 117.115 131.54 117.075 131.211 117.024C127.906 116.513 125.028 114.945 122.865 112.717L125.52 110.136C127.141 111.807 129.299 112.982 131.777 113.366C132.024 113.404 132.27 113.433 132.515 113.455L132.196 117.143Z" fill="#3B7FB6"/>
<path d="M133.491 117.2C133.49 117.2 133.489 117.2 133.489 117.2C133.067 117.2 132.643 117.182 132.217 117.145C132.209 117.144 132.202 117.144 132.195 117.143L132.515 113.455C132.841 113.484 133.165 113.498 133.487 113.498C133.487 113.498 133.488 113.498 133.488 113.498C133.49 113.498 133.491 113.498 133.492 113.498C134.197 113.497 134.892 113.43 135.568 113.3C135.572 113.299 135.576 113.298 135.581 113.297C135.599 113.294 135.617 113.29 135.636 113.286C135.641 113.285 135.646 113.284 135.651 113.283C135.663 113.281 135.674 113.278 135.685 113.276C135.691 113.275 135.697 113.274 135.702 113.273C135.714 113.27 135.727 113.268 135.74 113.265C135.747 113.264 135.754 113.262 135.761 113.261L136.525 116.883C136.513 116.886 136.5 116.889 136.488 116.891C135.516 117.094 134.514 117.2 133.495 117.2C133.493 117.2 133.492 117.2 133.491 117.2Z" fill="#4D90C9"/>
<path d="M121.361 126.511H139.496V124.229H121.361V126.511Z" fill="#BCBFC6"/>
<path d="M121.361 131.361H142.367V129.08H121.361V131.361Z" fill="#BCBFC6"/>
<mask id="mask15_72_636" style="mask-type:luminance" maskUnits="userSpaceOnUse" x="165" y="113" width="3" height="27">
<path d="M165.631 139.033V113.19C167.155 117.206 167.99 121.562 167.99 126.111C167.99 130.662 167.155 135.018 165.631 139.033Z" fill="white"/>
</mask>
<g mask="url(#mask15_72_636)">
<path d="M165.631 139.033V113.19C167.155 117.206 167.99 121.562 167.99 126.111C167.99 130.662 167.155 135.018 165.631 139.033Z" fill="url(#paint15_linear_72_636)"/>
</g>
<path d="M131.105 142.19H99.5957C99.747 141.44 99.9069 140.706 100.075 139.981H131.105V142.19Z" fill="#F3F3F3"/>
<path d="M138.688 147.342H101.978C101.462 146.625 100.973 145.889 100.51 145.135H138.688V147.342Z" fill="#F3F3F3"/>
<path d="M245.412 153.829L175.992 142.009L178.002 130.207L247.421 142.028L245.412 153.829Z" fill="#3F65A1"/>
<path d="M228.584 195.423C228.584 195.423 228.883 197.611 228.92 197.939C228.958 198.268 232.24 197.746 232.24 197.746L232.507 195.141C232.507 195.141 228.995 195.114 228.584 195.423Z" fill="#5C544D"/>
<path d="M228.885 197.661C228.885 197.661 227.845 198.979 226.839 199.554C225.832 200.13 224.251 200.357 223.656 200.952C223.227 201.381 222.093 203.23 226.271 203.193C230.45 203.156 232.464 203.454 232.911 202.745C233.359 202.036 232.264 197.513 232.264 197.513C232.264 197.513 231.274 197.889 228.885 197.661Z" fill="#3C4145"/>
<path d="M205.061 195.423C205.061 195.423 205.359 197.611 205.396 197.939C205.434 198.268 208.717 197.746 208.717 197.746L208.982 195.141C208.982 195.141 205.471 195.114 205.061 195.423Z" fill="#5C544D"/>
<path d="M205.361 197.661C205.361 197.661 204.322 198.979 203.315 199.554C202.309 200.13 198.607 200.601 198.012 201.196C197.583 201.626 196.869 203.354 202.748 203.193C206.925 203.077 208.941 203.454 209.388 202.745C209.836 202.036 208.741 197.513 208.741 197.513C208.741 197.513 207.808 197.915 205.361 197.661Z" fill="#3C4145"/>
<path d="M227.418 138.932C227.418 138.932 229.166 144.362 228.936 149.041C228.706 153.72 229.839 158.841 230.303 163.729C230.819 169.178 232.933 182.079 233.01 184.994C233.087 187.908 232.682 197.216 232.682 197.216L228.45 197.319C228.45 197.319 224.896 174.765 223.975 172.463C223.054 170.163 218.489 153.757 218.336 151.915C218.182 150.074 227.418 138.932 227.418 138.932Z" fill="#33373B"/>
<path d="M209.626 139.898C209.626 139.898 207.301 152.723 206.994 155.587C206.687 158.451 206.483 169.447 206.329 171.236C206.176 173.027 205.306 194.659 204.488 197.319H209.207C209.207 197.319 214.052 181.592 214.052 174.151C214.052 166.711 217.26 157.975 219.332 153.066C221.403 148.157 226.143 148.041 227.416 138.932C227.416 138.932 211.349 137.009 209.626 139.898Z" fill="#3C4145"/>
<path d="M218.11 97.1317C218.11 97.1317 213.78 96.2456 212.382 99.6548C210.985 103.065 212.144 109.27 214.326 109.713C216.508 110.156 219.543 109.27 220.293 107.156C221.042 105.042 221.554 102.075 221.213 100.2C220.872 98.3254 219.27 97.5069 218.11 97.1317Z" fill="#EEA886"/>
<path d="M194.35 143.195C194.35 143.195 193.042 144.6 192.607 144.753C192.173 144.907 191.295 144.191 188.161 144.081C187.886 144.072 187.413 144.338 187.541 144.696C187.669 145.054 188.789 146.509 189.377 146.637C189.965 146.765 193.033 147.225 194.35 146.637C195.668 146.049 196.512 144.31 196.512 144.31L194.35 143.195Z" fill="#EEA886"/>
<path d="M176.234 140.588L172.525 139.956L174.051 130.998L177.759 131.629L176.234 140.588Z" fill="#446291"/>
<path d="M131.569 162.53C117.63 162.53 105.52 154.698 99.3992 143.195L99.3987 143.195C96.688 138.1 95.1513 132.286 95.1513 126.111C95.1513 105.999 111.456 89.6941 131.569 89.6941C141.008 89.6941 149.608 93.2848 156.077 99.1747C163.394 105.836 167.987 115.438 167.987 126.111C167.987 146.224 151.682 162.53 131.569 162.53ZM131.569 82.5389C107.505 82.5389 87.9961 102.047 87.9961 126.112C87.9961 150.177 107.505 169.685 131.569 169.685C155.634 169.685 175.142 150.177 175.142 126.112C175.142 102.047 155.634 82.5389 131.569 82.5389Z" fill="#3F444F"/>
<path d="M214.791 109.786C214.791 109.786 215.134 110.864 214.938 111.452C214.742 112.04 220.325 111.179 220.325 111.179C220.325 111.179 220.314 108.149 220.781 105.513C221.248 102.879 214.791 109.786 214.791 109.786Z" fill="#EEA886"/>
<path d="M220.781 105.513C220.781 105.513 220.495 106.209 218.884 106.209C217.274 106.209 215.027 104.419 214.335 104.292C213.642 104.165 213.576 103.781 213.576 103.781L213.259 104.445L212.568 104.599C212.568 104.599 212.911 102.628 211.832 102.015C210.753 101.403 211.878 95.8023 217.197 96.7741C217.197 96.7741 221.237 97.234 221.442 99.4596C221.646 101.684 221.476 104.281 220.781 105.513Z" fill="#3A3F47"/>
<path d="M214.939 111.452C214.939 111.452 211.997 112.242 209.088 114.377C209.088 114.377 205.528 116.037 205.149 119.898C204.947 121.948 203.142 129.761 202.733 130.681C202.324 131.602 193.92 143.194 193.749 143.501C193.579 143.808 195.914 145.427 196.187 145.29C196.46 145.154 205.836 135.045 206.279 134.056C206.279 134.056 209.172 128.201 209.24 127.007C209.24 127.007 209.313 130.408 209.45 131.363C209.586 132.318 208.205 144.551 208.273 145.062C208.342 145.574 217.61 147.407 221.94 146.929C226.27 146.452 229.369 144.822 229.369 144.822C229.369 144.822 227.349 136.511 227.622 134.909C227.894 133.307 228.406 124.135 228.406 124.135L231.373 128.465L226.633 135.591L227.759 140.227C227.759 140.227 235.975 129.693 236.248 128.533C236.521 127.374 236.077 126.249 235.634 125.294C235.191 124.339 232.668 119.873 231.986 118.851C231.305 117.827 229.395 114.657 226.463 113.668C223.53 112.679 220.326 111.179 220.326 111.179L214.939 111.452Z" fill="#FAB46C"/>
<path d="M214.463 111.657C214.463 111.657 214.481 110.605 214.958 110.504C215.435 110.403 220.222 109.943 220.808 110.174V111.399C220.808 111.399 219.68 112.093 214.463 111.657Z" fill="#D4985B"/>
<path d="M213.555 102.963C213.585 102.58 214.359 101.377 214.896 102.451C215.433 103.525 214.768 105.187 214.244 105.136C213.72 105.085 213.478 103.935 213.555 102.963Z" fill="#EEA886"/>
<mask id="mask16_72_636" style="mask-type:luminance" maskUnits="userSpaceOnUse" x="95" y="90" width="62" height="54">
<path d="M99.4002 143.195L99.3997 143.195C99.2232 142.863 99.0512 142.528 98.8848 142.19H99.5969C99.5298 142.523 99.4642 142.858 99.4002 143.195ZM100.076 139.981H97.8867C96.7641 137.258 95.9623 134.369 95.5281 131.361H102.033V129.08H95.2719C95.1927 128.101 95.1523 127.111 95.1523 126.111C95.1523 122.861 95.5785 119.709 96.3773 116.711C100.764 115.55 104.562 112.394 106.361 107.851C107.494 104.988 107.672 101.983 107.047 99.1883C111.98 94.6918 118.152 91.5343 124.993 90.2866C123.014 91.6715 121.375 93.5364 120.262 95.7443C119.582 97.0934 119.098 98.5705 118.855 100.144C118.737 100.908 118.679 101.667 118.679 102.417C118.678 104.516 119.125 106.541 119.941 108.384C111.425 114.399 103.755 124.174 100.076 139.981ZM97.9311 112.135C99.3684 108.68 101.323 105.492 103.698 102.672C103.668 103.945 103.416 105.235 102.919 106.488C101.927 108.994 100.124 110.936 97.9311 112.135ZM123.102 106.339C122.634 105.108 122.38 103.783 122.381 102.414C122.381 101.853 122.424 101.283 122.513 100.711C122.696 99.5307 123.058 98.4238 123.568 97.4116C125.424 93.7266 129.241 91.3144 133.459 91.3144C134.023 91.3144 134.593 91.3578 135.168 91.4466C139.604 92.1329 143.016 95.359 144.155 99.4168C138.07 100.159 130.421 102.011 123.102 106.339ZM156.078 99.1747C156.078 99.1747 154.368 98.9629 151.534 98.9629C150.468 98.9629 149.243 98.9926 147.889 99.0753C147.243 96.285 145.799 93.7568 143.773 91.789C148.371 93.4235 152.542 95.9557 156.078 99.1747Z" fill="white"/>
</mask>
<g mask="url(#mask16_72_636)">
<path d="M99.4002 143.195L99.3997 143.195C99.2232 142.863 99.0512 142.528 98.8848 142.19H99.5969C99.5298 142.523 99.4642 142.858 99.4002 143.195ZM100.076 139.981H97.8867C96.7641 137.258 95.9623 134.369 95.5281 131.361H102.033V129.08H95.2719C95.1927 128.101 95.1523 127.111 95.1523 126.111C95.1523 122.861 95.5785 119.709 96.3773 116.711C100.764 115.55 104.562 112.394 106.361 107.851C107.494 104.988 107.672 101.983 107.047 99.1883C111.98 94.6918 118.152 91.5343 124.993 90.2866C123.014 91.6715 121.375 93.5364 120.262 95.7443C119.582 97.0934 119.098 98.5705 118.855 100.144C118.737 100.908 118.679 101.667 118.679 102.417C118.678 104.516 119.125 106.541 119.941 108.384C111.425 114.399 103.755 124.174 100.076 139.981ZM97.9311 112.135C99.3684 108.68 101.323 105.492 103.698 102.672C103.668 103.945 103.416 105.235 102.919 106.488C101.927 108.994 100.124 110.936 97.9311 112.135ZM123.102 106.339C122.634 105.108 122.38 103.783 122.381 102.414C122.381 101.853 122.424 101.283 122.513 100.711C122.696 99.5307 123.058 98.4238 123.568 97.4116C125.424 93.7266 129.241 91.3144 133.459 91.3144C134.023 91.3144 134.593 91.3578 135.168 91.4466C139.604 92.1329 143.016 95.359 144.155 99.4168C138.07 100.159 130.421 102.011 123.102 106.339ZM156.078 99.1747C156.078 99.1747 154.368 98.9629 151.534 98.9629C150.468 98.9629 149.243 98.9926 147.889 99.0753C147.243 96.285 145.799 93.7568 143.773 91.789C148.371 93.4235 152.542 95.9557 156.078 99.1747Z" fill="url(#paint16_linear_72_636)"/>
</g>
<path d="M96.377 116.711C96.7955 115.141 97.3155 113.614 97.9308 112.135C100.124 110.936 101.927 108.994 102.919 106.488C103.415 105.235 103.667 103.945 103.698 102.672C104.736 101.438 105.856 100.274 107.047 99.1884C107.672 101.983 107.494 104.988 106.36 107.851C104.562 112.394 100.764 115.55 96.377 116.711Z" fill="#E4E4E4"/>
<path d="M118.854 100.144C119.097 98.5704 119.581 97.0933 120.261 95.7443C121.374 93.5364 123.013 91.6714 124.992 90.2866C127.125 89.8977 129.324 89.694 131.569 89.694C135.85 89.694 139.957 90.4323 143.772 91.7889C145.798 93.7568 147.242 96.2849 147.888 99.0753C146.73 99.1459 145.48 99.2548 144.154 99.4167C143.016 95.359 139.603 92.1329 135.167 91.4465C134.592 91.3577 134.022 91.3143 133.458 91.3143C129.24 91.3143 125.423 93.7265 123.567 97.4115L120.261 95.7443C119.581 97.0933 119.097 98.5704 118.854 100.144Z" fill="#E4E4E4"/>
<path d="M119.94 108.384C119.124 106.541 118.677 104.516 118.678 102.417C118.678 101.667 118.736 100.908 118.854 100.144C119.097 98.5704 119.581 97.0933 120.261 95.7442L123.567 97.4115C123.057 98.4237 122.695 99.5306 122.512 100.711C122.423 101.283 122.38 101.853 122.38 102.414C122.379 103.783 122.633 105.108 123.101 106.338C122.038 106.966 120.982 107.648 119.94 108.384Z" fill="#6084A1"/>
<path d="M102.032 131.361H95.5277C95.4187 130.608 95.333 129.847 95.2715 129.08H102.032V131.361Z" fill="#BEC0C5"/>
<path d="M99.5968 142.19H98.8847C98.5287 141.467 98.1954 140.73 97.8867 139.981H100.076C99.908 140.706 99.7481 141.44 99.5968 142.19Z" fill="#E4E4E4"/>
<path d="M99.3997 143.195C96.689 138.1 95.1523 132.286 95.1523 126.111C95.1523 127.111 95.1927 128.101 95.2719 129.08C95.3334 129.847 95.4191 130.608 95.5281 131.361C95.9623 134.369 96.7641 137.258 97.8867 139.981C98.1954 140.73 98.5287 141.467 98.8848 142.19C99.0512 142.528 99.2232 142.863 99.3997 143.195Z" fill="#676A72"/>
<path d="M228.143 139.213C228.143 139.213 227.3 135.222 227.741 133.927L228.453 132.855C228.453 132.855 228.038 135.122 228.143 139.213Z" fill="#DA9B5E"/>
<path d="M13.5857 147.492C13.5857 147.492 13.7977 148.643 14.4438 148.813C14.9935 148.958 15.5997 149.542 15.7863 149.721C16.0359 149.961 17.0778 150.412 16.7783 150.73C16.4787 151.048 15.0253 150.07 14.6798 149.925C14.3338 149.781 14.8291 151.382 14.6894 151.746C14.5497 152.11 11.8518 152.779 11.639 151.642C11.4265 150.503 11.9502 149.148 11.873 148.955C11.796 148.762 11.6857 148.133 11.6857 148.133L13.5857 147.492Z" fill="#EEA886"/>
<path d="M14.7011 151.468C14.7011 151.468 15.1207 154.995 14.9523 155.254C14.7833 155.512 14.5912 155.523 14.5382 155.195C14.4853 154.867 14.0339 151.8 14.0339 151.8C14.0339 151.8 13.8294 156.057 13.7372 156.3C13.6833 156.441 13.3124 156.485 13.2676 156.312C13.2231 156.139 13.1843 151.908 13.1843 151.908C13.1843 151.908 12.9863 155.882 12.849 156.062C12.7288 156.219 12.378 156.174 12.3723 155.878C12.3669 155.583 12.3419 151.883 12.3419 151.883C12.3419 151.883 12.0159 154.767 11.8104 154.851C11.6845 154.901 11.3654 154.955 11.473 154.213C11.5803 153.471 11.6501 151.696 11.6501 151.696L14.7011 151.468Z" fill="#EEA886"/>
<path d="M32.6185 203.062H33.4158C33.4158 203.062 33.1501 200.051 33.8879 200.022C34.6252 199.992 36.4553 202.471 37.5477 202.856C38.6395 203.239 44.247 203.563 44.2768 202.53C44.3065 201.498 42.1229 201.084 41.444 200.789C40.7652 200.494 37.4589 197.277 36.8689 196.894C36.2783 196.509 35.2712 193.842 35.2712 193.842L32.1404 193.703C32.1404 193.703 31.9639 196.197 31.7738 197.516C31.7037 198.005 31.6522 198.45 31.6452 198.753C31.6154 199.875 32.6185 203.062 32.6185 203.062Z" fill="#EEA886"/>
<path d="M18.7673 202.467H19.4315V199.664C19.9847 199.711 21.8447 201.471 22.4206 201.98C22.9955 202.489 23.7853 202.467 26.2095 202.621C28.6333 202.775 28.8617 201.324 28.4784 200.83C28.0946 200.336 26.8545 200.12 26.2095 199.811C25.564 199.503 23.0182 196.631 22.3389 195.953C21.6606 195.273 21.2465 193.327 21.2465 193.327L18.4133 193.575C18.4133 193.575 18.4314 195.355 18.1087 196.847V196.848L18.1057 196.859C18.0784 196.986 18.0482 197.111 18.0149 197.233C17.5943 198.785 18.7673 202.467 18.7673 202.467Z" fill="#EEA886"/>
<path d="M25.2788 109.113C25.2788 109.113 23.8955 112.031 24.6343 114.417C24.6343 114.417 20.3794 113.836 20.2528 113.339C20.1262 112.841 20.7854 108.368 20.2942 106.995C19.8025 105.623 25.2788 109.113 25.2788 109.113Z" fill="#EEA886"/>
<path d="M25.4963 113.143C25.4963 113.143 27.9589 114.2 29.0825 114.526C30.2067 114.851 32.5149 116.125 32.0207 120.256C31.5259 124.387 30.5531 127.93 30.1648 129.692C29.777 131.454 29.61 135.999 29.8718 138.231C29.8718 138.231 23.7085 139.282 16.692 137.277C16.692 137.277 18.2271 133.612 18.2655 132.639C18.3033 131.664 14.7055 123.364 14.6026 122.087C14.4997 120.81 14.0615 115.179 16.0611 114.086C18.0607 112.994 19.6034 113.269 20.4532 112.778C21.3024 112.285 24.3435 112.662 25.4963 113.143Z" fill="#EB4747"/>
<path d="M10.3723 134.898C10.2279 136.646 11.1793 148.71 11.1793 148.71L14.6 149.104C14.6 149.104 14.3564 137.189 14.1653 134.441C14.1088 133.63 14.2964 132.389 14.5879 131.044V131.043C14.773 130.189 15.001 129.292 15.236 128.437C15.883 126.073 16.5805 124.02 16.5805 124.02C16.5805 124.02 20.4108 114.056 15.6051 114.459C15.6051 114.459 13.8192 116.3 13.0633 119.322C12.3075 122.343 11.4422 126.87 11.4089 128.674C11.376 130.479 10.4781 133.613 10.3723 134.898Z" fill="#EB4747"/>
<path d="M29.2436 138.951C29.2436 138.951 30.3147 141.484 30.409 142.123C30.5038 142.763 33.8611 151.121 34.0946 153.567C34.3306 156.04 35.0397 162.639 35.2913 163.583C35.5435 164.529 34.7245 168.75 34.5984 169.694C34.4723 170.639 34.5353 186.074 35.6695 193.697C35.6695 193.697 33.0234 194.831 31.0076 193.697C31.0076 193.697 27.6686 181.79 27.8577 174.923C28.0468 168.057 28.9178 165.159 27.8521 162.387C26.7865 159.615 20.5502 151.299 19.9198 150.417C19.2899 149.535 15.3431 144.661 19.0806 139.381C22.8181 134.1 29.2436 138.951 29.2436 138.951Z" fill="#323657"/>
<path d="M15.7519 161.38C16.0938 163.654 15.7348 166.64 15.0207 174.952C14.3055 183.263 16.2703 193.327 16.2703 193.327C18.7375 194.172 21.5788 193.327 21.5788 193.327C21.5132 192.743 21.5788 173.069 21.5788 171.315C21.5788 169.562 22.0821 167.572 22.2117 165.559C22.3005 164.188 22.9384 161.659 23.6561 159.078C23.8714 158.305 24.0933 157.528 24.3097 156.775V156.774C24.4317 156.352 24.5502 155.937 24.6662 155.536C25.6768 152.03 27.037 138.489 27.037 138.489C27.037 138.489 19.501 132.419 15.8321 138.134C12.1627 143.848 14.0463 148.004 14.1759 148.718C14.3055 149.432 15.41 159.108 15.7519 161.38Z" fill="#323657"/>
<path d="M30.3554 127.92C30.3554 127.92 29.6856 138.678 31.6883 144.732C31.6883 144.732 23.7307 146.059 13.5781 142.638C13.5781 142.638 16.3707 135.407 16.2743 134.277C16.178 133.146 13.2393 119.978 14.6499 117.033C16.0605 114.086 29.8546 118.268 30.3554 127.92Z" fill="#EB4747"/>
<path d="M20.7068 97.2315C22.3791 96.5119 26.9694 95.5078 28.6659 102.355C30.3629 109.202 27.7854 109.541 25.114 109.568C22.4427 109.595 17.9437 105.257 17.5205 103.858C17.0979 102.46 15.9345 99.2846 20.7068 97.2315Z" fill="#EEA886"/>
<path d="M28.2885 101.053C28.2885 101.053 26.5294 103.604 24.5454 104.41C24.5454 104.41 23.2322 107.363 20.5573 108.329C20.5573 108.329 14.2009 103.277 18.7297 98.6229C23.2589 93.9691 28.1241 98.9048 28.2885 101.053Z" fill="#FCCCA2"/>
<path d="M18.8789 149.168C18.9374 149.299 22.692 157.632 23.6583 159.078C23.8737 158.305 24.0956 157.527 24.3119 156.775V156.774C24.3119 156.774 19.0045 149.352 18.8789 149.168Z" fill="#262942"/>
<path d="M14.4185 122.5C14.4185 122.5 14.1527 127.796 14.5864 131.043C14.7715 130.189 14.9995 129.292 15.2345 128.437C15.2158 128.314 14.4881 123.336 14.4185 122.5Z" fill="#B53737"/>
<path d="M21.9257 96.7424C21.9257 96.7424 14.6918 96.809 17.6218 107.328C19.512 114.115 15.8532 120.546 16.2859 121.765C16.7191 122.983 20.4984 124.244 22.5611 121.787C24.6585 119.288 21.0128 111.184 22.7981 107.455C24.5839 103.726 28.4777 101.215 28.4777 101.215C28.4777 101.215 27.1907 95.8533 21.9257 96.7424Z" fill="#FCCCA2"/>
<path d="M30.9964 118.387C30.9964 118.387 32.6239 124.198 32.9678 125.417C33.4141 127.003 31.1593 129.337 29.3226 128.42C27.4864 127.504 30.9964 118.387 30.9964 118.387Z" fill="#EB4747"/>
<path d="M18.7673 202.467H19.4315V199.664C19.9847 199.711 21.8447 201.471 22.4206 201.98C22.9955 202.489 23.7853 202.467 26.2095 202.621C28.6333 202.775 28.8617 201.324 28.4784 200.83C28.0946 200.336 26.8545 200.12 26.2095 199.811C23.6163 199.95 20.4517 196.304 18.9327 196.311C18.1258 196.316 18.1334 196.763 18.1087 196.847V196.848L18.1057 196.859C18.0784 196.986 18.0482 197.111 18.0149 197.233C17.5943 198.785 18.7673 202.467 18.7673 202.467Z" fill="#3F446E"/>
<path d="M32.6185 203.062H33.4158C33.4158 203.062 33.1501 200.051 33.8879 200.022C34.6252 199.992 36.4553 202.471 37.5477 202.856C38.6395 203.239 44.247 203.563 44.2768 202.53C44.3065 201.498 42.1229 201.084 41.444 200.789C39.1307 200.784 35.3696 198.238 34.2026 197.722C33.0371 197.206 31.7738 197.516 31.7738 197.516C31.7037 198.005 31.6522 198.45 31.6452 198.753C31.6154 199.875 32.6185 203.062 32.6185 203.062Z" fill="#3F446E"/>
<path d="M24.4096 103.629C24.1852 103.308 23.0797 102.959 22.8523 104.032C22.6253 105.104 24.5775 106.452 24.9896 106.26C25.4021 106.068 25.2619 104.844 24.4096 103.629Z" fill="#EEA886"/>
<path d="M32.2787 151.444C32.0986 151.444 31.9519 151.591 31.9519 151.772V155.174C31.9519 155.354 32.0986 155.501 32.2787 155.501H37.6743C37.8544 155.501 38.0011 155.354 38.0011 155.174V151.772C38.0011 151.591 37.8544 151.444 37.6743 151.444H32.2787ZM31.2852 155.174V151.772C31.2852 151.224 31.7305 150.778 32.2787 150.778H37.6743C38.222 150.778 38.6678 151.224 38.6678 151.772V155.174C38.6678 155.722 38.222 156.168 37.6743 156.168H32.2787C31.7305 156.168 31.2852 155.722 31.2852 155.174Z" fill="#877C78"/>
<path d="M24.8555 169.21H45.0982V154.707H24.8555V169.21Z" fill="#5C64A1"/>
<path d="M33.3453 154.099C33.3453 154.099 33.0507 153.745 32.9973 153.527C32.9973 153.527 32.9307 153.124 32.8662 152.84C32.845 152.75 32.8248 152.672 32.8066 152.623C32.73 152.418 32.5015 151.992 32.4567 151.448C32.4113 150.906 32.8187 148.514 32.8187 148.514L34.1738 148.368L35.4225 148.049C35.4225 148.049 37.3752 150.754 37.4761 151.255C37.4852 151.304 37.4933 151.353 37.4968 151.4C37.5407 151.831 37.3919 152.172 37.3894 152.402C37.3879 152.486 37.3162 153.323 37.11 153.465C36.824 153.665 36.5446 153.686 36.3232 153.597C36.3232 153.597 35.7458 153.962 35.2899 153.906C35.2899 153.906 34.7679 154.259 34.2208 154.027C34.2208 154.027 33.6509 154.326 33.3453 154.099Z" fill="#EEA886"/>
<path d="M28.4406 114.71C28.4406 114.71 33.6164 114.856 32.5493 119.67C31.6108 123.902 31.5331 128.077 31.758 128.83C31.9829 129.583 32.108 133.349 32.9235 135.459C33.6426 137.323 36.1309 148.194 36.1309 148.194L32.5286 149.133C32.5286 149.133 29.1043 137.318 28.5576 135.884C28.0114 134.45 24.975 121.66 25.0829 120.284C25.1908 118.909 24.9961 114.936 28.4406 114.71Z" fill="#EB4747"/>
<path d="M17.6036 99.5342C17.6036 99.5342 15.8783 102.715 17.4962 108.644C18.059 110.706 12.7284 119.771 16.7437 122.335C20.7596 124.9 23.7885 103.023 17.6036 99.5342Z" fill="#FCCCA2"/>
<defs>
<linearGradient id="paint0_linear_72_636" x1="115.763" y1="185.198" x2="115.763" y2="142.205" gradientUnits="userSpaceOnUse">
<stop stop-color="#D5E4FF"/>
<stop offset="1" stop-color="#EDFFFE"/>
</linearGradient>
<linearGradient id="paint1_linear_72_636" x1="183.179" y1="119.937" x2="207.954" y2="106.762" gradientUnits="userSpaceOnUse">
<stop stop-color="#3C6127"/>
<stop offset="0.00518135" stop-color="#3C6127"/>
<stop offset="1" stop-color="#639C38"/>
</linearGradient>
<linearGradient id="paint2_linear_72_636" x1="33.2784" y1="24.7765" x2="42.566" y2="10.5452" gradientUnits="userSpaceOnUse">
<stop stop-color="#3C6127"/>
<stop offset="0.00518135" stop-color="#3C6127"/>
<stop offset="1" stop-color="#639C38"/>
</linearGradient>
<linearGradient id="paint3_linear_72_636" x1="44.1934" y1="32.8638" x2="20.9074" y2="31.1875" gradientUnits="userSpaceOnUse">
<stop stop-color="#3C6127"/>
<stop offset="0.00518135" stop-color="#3C6127"/>
<stop offset="1" stop-color="#639C38"/>
</linearGradient>
<linearGradient id="paint4_linear_72_636" x1="195.594" y1="111.216" x2="212.175" y2="75.5223" gradientUnits="userSpaceOnUse">
<stop stop-color="#3C6127"/>
<stop offset="0.00518135" stop-color="#3C6127"/>
<stop offset="1" stop-color="#639C38"/>
</linearGradient>
<linearGradient id="paint5_linear_72_636" x1="177.777" y1="201.022" x2="68.3835" y2="-7.97708" gradientUnits="userSpaceOnUse">
<stop stop-color="#D5E4FF"/>
<stop offset="1" stop-color="#EDFFFE"/>
</linearGradient>
<linearGradient id="paint6_linear_72_636" x1="36.7188" y1="45.6724" x2="166.848" y2="45.6724" gradientUnits="userSpaceOnUse">
<stop stop-color="#FFC05C"/>
<stop offset="1" stop-color="#FF3857"/>
</linearGradient>
<linearGradient id="paint7_linear_72_636" x1="36.7188" y1="42.1511" x2="166.918" y2="42.1511" gradientUnits="userSpaceOnUse">
<stop stop-color="#9A5CFF"/>
<stop offset="0.994819" stop-color="#4059BF"/>
<stop offset="1" stop-color="#4059BF"/>
</linearGradient>
<linearGradient id="paint8_linear_72_636" x1="183.176" y1="119.937" x2="207.951" y2="106.762" gradientUnits="userSpaceOnUse">
<stop stop-color="#CAD4C5"/>
<stop offset="0.00518135" stop-color="#CAD4C5"/>
<stop offset="1" stop-color="#D5E4C9"/>
</linearGradient>
<linearGradient id="paint9_linear_72_636" x1="195.591" y1="111.216" x2="212.172" y2="75.522" gradientUnits="userSpaceOnUse">
<stop stop-color="#CAD4C5"/>
<stop offset="0.00518135" stop-color="#CAD4C5"/>
<stop offset="1" stop-color="#D5E4C9"/>
</linearGradient>
<linearGradient id="paint10_linear_72_636" x1="177.782" y1="201.022" x2="68.3886" y2="-7.97675" gradientUnits="userSpaceOnUse">
<stop stop-color="#F4F8FF"/>
<stop offset="1" stop-color="#FAFFFF"/>
</linearGradient>
<linearGradient id="paint11_linear_72_636" x1="36.7214" y1="45.6723" x2="166.851" y2="45.6723" gradientUnits="userSpaceOnUse">
<stop stop-color="#FFEED3"/>
<stop offset="1" stop-color="#FFC9D2"/>
</linearGradient>
<linearGradient id="paint12_linear_72_636" x1="36.7221" y1="42.1514" x2="166.92" y2="42.1514" gradientUnits="userSpaceOnUse">
<stop stop-color="#E4D3FF"/>
<stop offset="0.994819" stop-color="#CBD2EE"/>
<stop offset="1" stop-color="#CBD2EE"/>
</linearGradient>
<linearGradient id="paint13_linear_72_636" x1="115.765" y1="185.198" x2="115.765" y2="142.206" gradientUnits="userSpaceOnUse">
<stop stop-color="#D0DDF3"/>
<stop offset="1" stop-color="#E4F3F2"/>
</linearGradient>
<linearGradient id="paint14_linear_72_636" x1="177.782" y1="201.022" x2="68.3884" y2="-7.97695" gradientUnits="userSpaceOnUse">
<stop stop-color="#D0DDF3"/>
<stop offset="1" stop-color="#E4F3F2"/>
</linearGradient>
<linearGradient id="paint15_linear_72_636" x1="177.782" y1="201.022" x2="68.3887" y2="-7.97674" gradientUnits="userSpaceOnUse">
<stop stop-color="#EAEDF3"/>
<stop offset="1" stop-color="#EFF3F3"/>
</linearGradient>
<linearGradient id="paint16_linear_72_636" x1="177.779" y1="201.022" x2="68.3862" y2="-7.97681" gradientUnits="userSpaceOnUse">
<stop stop-color="#CCD5E4"/>
<stop offset="1" stop-color="#DAE4E4"/>
</linearGradient>
</defs>
</svg>
