<svg width="55" height="55" viewBox="0 0 55 55" fill="none" xmlns="http://www.w3.org/2000/svg">
<rect x="1" y="1" width="53" height="53" rx="9" stroke="black" stroke-width="2"/>
<path d="M27.3617 22.4558C28.4875 22.6545 29.5122 23.1481 30.3531 23.8538L25.8436 28.3633C25.6251 28.5818 25.6251 28.9377 25.8436 29.1562C26.0621 29.3747 26.418 29.3747 26.6365 29.1562L44.4476 11.3458C44.6661 11.1273 44.6661 10.7714 44.4476 10.5529C44.2291 10.3344 43.8732 10.3344 43.6547 10.5529L36.1275 18.0801C33.7884 15.9134 30.736 14.5062 27.3621 14.2489V17.4343C29.8605 17.6781 32.1226 18.7309 33.8824 20.3261L33.0882 21.1202C31.5337 19.7263 29.5513 18.8002 27.3625 18.5619L27.3619 22.4563L27.3617 22.4558ZM26.8011 44.2023C26.8011 44.5113 26.55 44.7629 26.2405 44.7629C25.9315 44.7629 25.6799 44.5113 25.6799 44.2023V34.3423C25.6799 34.0323 25.931 33.7817 26.2405 33.7817C26.5505 33.7817 26.8011 34.0326 26.8011 34.3423V35.137C28.3449 35.0033 29.7331 34.3211 30.7674 33.2868C31.675 32.3792 32.3117 31.1991 32.5448 29.8809L36.4386 29.8814C36.179 32.2663 35.1026 34.4056 33.4947 36.0136C31.7619 37.7464 29.4111 38.8624 26.8006 39.0037V40.1264C29.7197 39.9846 32.3513 38.7427 34.287 36.8065C36.0981 34.996 37.3019 32.5761 37.5655 29.8814H40.7509C40.479 33.4535 38.9169 36.6637 36.5306 39.0499C34.0203 41.5605 30.5966 43.1583 26.8001 43.3022V44.2025L26.8011 44.2023ZM26.8011 23.1754C26.8011 23.4854 26.55 23.7365 26.2405 23.7359C25.9315 23.7365 25.6799 23.4851 25.6799 23.1754V22.3817C24.1361 22.5162 22.748 23.1982 21.7136 24.2328C20.8063 25.1397 20.1698 26.3198 19.9367 27.6381L16.0429 27.6375C16.3029 25.2526 17.3792 23.1128 18.9868 21.5053C20.7197 19.7725 23.0705 18.6565 25.6803 18.5155V17.3928C22.7612 17.5341 20.1301 18.7765 18.1939 20.7122C16.3828 22.5232 15.1795 24.9429 14.9159 27.6379H11.7305C12.0019 24.0664 13.564 20.855 15.9503 18.4688C18.4606 15.9582 21.8843 14.3606 25.6801 14.2167V13.3156C25.6801 13.0061 25.9317 12.7545 26.2407 12.755C26.5502 12.7545 26.8013 13.0061 26.8013 13.3156V23.175L26.8011 23.1754ZM10.7969 29.3201C10.4879 29.3201 10.2363 29.0685 10.2363 28.7595C10.2363 28.45 10.4879 28.199 10.7969 28.199H20.6569C20.9669 28.199 21.2175 28.4498 21.2175 28.7595C21.2175 29.069 20.9667 29.3201 20.6569 29.3201H19.8628C19.9965 30.8626 20.6791 32.2502 21.7158 33.2864C22.6232 34.1941 23.802 34.8302 25.1189 35.0633V38.9571C22.7345 38.698 20.5941 37.6216 18.9862 36.0137C17.2533 34.2808 16.1368 31.9295 15.9963 29.3195H14.8736C15.0154 32.2387 16.2573 34.8703 18.193 36.806C20.0041 38.6171 22.4242 39.8209 25.1188 40.0844V43.2699C21.5472 42.9974 18.3358 41.4358 15.9496 39.0496C13.4393 36.5393 11.8414 33.115 11.6975 29.319H10.797L10.7969 29.3201ZM31.8239 29.3201C31.5149 29.3206 31.2633 29.0693 31.2633 28.7595C31.2633 28.4506 31.5144 28.199 31.8239 28.199H32.6176C32.5177 27.052 32.1152 25.9916 31.4891 25.0967L34.2446 22.3418C35.5456 23.9631 36.3654 25.9877 36.4843 28.199H37.607C37.4842 25.6784 36.5427 23.3725 35.0416 21.5445L37.2941 19.2926C39.3625 21.7054 40.6552 24.8032 40.7832 28.1988H41.6843C41.9933 28.1993 42.2446 28.4504 42.2449 28.7593C42.2449 29.0693 41.9933 29.3204 41.6843 29.3199L31.8239 29.3201ZM43.4334 13.342L46.1998 14.0832L42.4167 17.8662L39.6504 17.125L43.4334 13.342ZM41.6577 11.5663L40.9165 8.79996L37.1335 12.583L37.8747 15.3493L41.6577 11.5663Z" fill="#006C71"/>
<path d="M9.67569 46.1243C9.66786 46.128 9.66004 46.1306 9.6517 46.1327C9.64336 46.1348 9.63449 46.1358 9.62563 46.1358C9.59903 46.1358 9.57791 46.1285 9.56201 46.1139C9.54662 46.0988 9.53906 46.0782 9.53906 46.0524C9.53906 46.0268 9.54662 46.0065 9.56201 45.9919C9.57791 45.9768 9.59903 45.9689 9.62563 45.9689C9.63449 45.9689 9.64336 45.97 9.6517 45.9721C9.66004 45.9736 9.66786 45.9762 9.67569 45.9804V46.0138C9.66786 46.0091 9.6603 46.0054 9.65274 46.0034C9.64492 46.0007 9.63736 45.9992 9.6298 45.9992C9.61441 45.9992 9.60268 46.0041 9.59434 46.0138C9.58599 46.0229 9.58182 46.0357 9.58182 46.0524C9.58182 46.0691 9.58599 46.0824 9.59434 46.092C9.60268 46.1011 9.61441 46.1056 9.6298 46.1056C9.63736 46.1056 9.64492 46.1045 9.65274 46.1024C9.6603 46.0998 9.66786 46.0959 9.67569 46.091V46.1243Z" fill="#006C71"/>
<path d="M9.80063 46.0457C9.79698 46.0436 9.79359 46.0423 9.7902 46.0415C9.78655 46.041 9.78342 46.0405 9.78081 46.0405C9.77039 46.0405 9.7623 46.0442 9.75683 46.0509C9.75187 46.0572 9.74953 46.0663 9.74953 46.0781V46.1333H9.71094V46.0123H9.74953V46.0322C9.75422 46.0246 9.75996 46.0191 9.76621 46.0155C9.77299 46.0113 9.78081 46.0092 9.78916 46.0092C9.79046 46.0092 9.79176 46.0097 9.79333 46.0103H9.80063V46.0457Z" fill="#006C71"/>
<path d="M9.93896 46.0728V46.0833H9.84823C9.84875 46.0924 9.85188 46.0994 9.85761 46.1041C9.86309 46.1083 9.87117 46.1104 9.8816 46.1104C9.88994 46.1104 9.89829 46.1093 9.90663 46.1073C9.91497 46.1046 9.92358 46.1007 9.9327 46.0958V46.126C9.92358 46.1297 9.91445 46.132 9.90559 46.1333C9.89646 46.1354 9.88707 46.1365 9.87743 46.1365C9.85579 46.1365 9.83884 46.131 9.82632 46.1198C9.81433 46.1088 9.80859 46.0932 9.80859 46.0728C9.80859 46.0535 9.81433 46.0382 9.82632 46.0269C9.83806 46.0152 9.85448 46.0092 9.87534 46.0092C9.89464 46.0092 9.91002 46.0152 9.92123 46.0269C9.93296 46.0382 9.93896 46.0535 9.93896 46.0728ZM9.89829 46.0593C9.89829 46.0525 9.8962 46.0468 9.89203 46.0426C9.88786 46.0379 9.88212 46.0353 9.87534 46.0353C9.86752 46.0353 9.86126 46.0374 9.85657 46.0415C9.8524 46.0457 9.84953 46.0517 9.84823 46.0593L9.89829 46.0593Z" fill="#006C71"/>
<path d="M10.0226 46.0791C10.0143 46.0791 10.008 46.0807 10.0038 46.0833C9.99966 46.0861 9.99757 46.09 9.99757 46.0947C9.99757 46.0997 9.99914 46.1036 10.0028 46.1062C10.0062 46.1091 10.0106 46.1104 10.0163 46.1104C10.0239 46.1104 10.0302 46.108 10.0351 46.1031C10.0398 46.0976 10.0424 46.0911 10.0424 46.0833V46.0791H10.0226ZM10.081 46.0645V46.1333H10.0424V46.1156C10.0375 46.1226 10.0315 46.1278 10.0247 46.1312C10.0184 46.1346 10.0106 46.1365 10.0017 46.1365C9.98923 46.1365 9.9788 46.1331 9.97046 46.126C9.96263 46.1185 9.95898 46.1088 9.95898 46.0968C9.95898 46.083 9.96368 46.0728 9.97359 46.0666C9.98323 46.0598 9.99862 46.0561 10.0195 46.0561H10.0424V46.053C10.0424 46.0468 10.0398 46.0423 10.0351 46.0395C10.0302 46.0369 10.0226 46.0353 10.0122 46.0353C10.0044 46.0353 9.99679 46.0363 9.98923 46.0384C9.98219 46.04 9.97567 46.0421 9.96941 46.0447V46.0155C9.97776 46.0134 9.9861 46.0121 9.99444 46.0113C10.0028 46.01 10.0111 46.0092 10.0195 46.0092C10.0416 46.0092 10.0573 46.0139 10.0664 46.0228C10.0761 46.0311 10.081 46.0452 10.081 46.0645Z" fill="#006C71"/>
<path d="M10.1589 45.9772V46.0116H10.1986V46.0398H10.1589V46.0909C10.1589 46.0966 10.16 46.1003 10.1621 46.1024C10.1647 46.1039 10.1694 46.1045 10.1756 46.1045H10.1954V46.1326H10.1621C10.1475 46.1326 10.1365 46.1295 10.1297 46.1232C10.1235 46.117 10.1203 46.1063 10.1203 46.0909V46.0398H10.1016V46.0116H10.1203V45.9772L10.1589 45.9772Z" fill="#006C71"/>
<path d="M10.3452 46.0725V46.0829H10.2545C10.255 46.092 10.2581 46.0991 10.2639 46.1038C10.2693 46.1079 10.2774 46.11 10.2878 46.11C10.2962 46.11 10.3045 46.109 10.3129 46.1069C10.3212 46.1043 10.3298 46.1004 10.339 46.0954V46.1257C10.3298 46.1293 10.3207 46.1317 10.3118 46.133C10.3027 46.1351 10.2933 46.1361 10.2837 46.1361C10.262 46.1361 10.2451 46.1306 10.2326 46.1194C10.2206 46.1085 10.2148 46.0928 10.2148 46.0725C10.2148 46.0532 10.2206 46.0378 10.2326 46.0266C10.2443 46.0149 10.2607 46.0089 10.2816 46.0089C10.3009 46.0089 10.3163 46.0149 10.3275 46.0266C10.3392 46.0378 10.3452 46.0532 10.3452 46.0725ZM10.3045 46.0589C10.3045 46.0521 10.3025 46.0464 10.2983 46.0422C10.2941 46.0375 10.2884 46.0349 10.2816 46.0349C10.2738 46.0349 10.2675 46.037 10.2628 46.0412C10.2586 46.0454 10.2558 46.0514 10.2545 46.0589L10.3045 46.0589Z" fill="#006C71"/>
<path d="M10.456 46.0293V45.9646H10.4946V46.1325H10.456V46.1148C10.4502 46.1218 10.4445 46.127 10.4382 46.1304C10.432 46.1338 10.4242 46.1356 10.4153 46.1356C10.4007 46.1356 10.3884 46.1299 10.3788 46.1179C10.3697 46.1062 10.3652 46.0908 10.3652 46.072C10.3652 46.0532 10.3697 46.0381 10.3788 46.0261C10.3884 46.0144 10.4007 46.0084 10.4153 46.0084C10.4236 46.0084 10.4309 46.0102 10.4372 46.0136C10.444 46.0173 10.4502 46.0225 10.456 46.0293ZM10.4299 46.1075C10.4382 46.1075 10.4445 46.1049 10.4487 46.0991C10.4534 46.0929 10.456 46.084 10.456 46.072C10.456 46.0611 10.4534 46.0522 10.4487 46.046C10.4445 46.0397 10.4382 46.0366 10.4299 46.0366C10.4216 46.0366 10.4153 46.0397 10.4111 46.046C10.407 46.0522 10.4049 46.0611 10.4049 46.072C10.4049 46.084 10.407 46.0929 10.4111 46.0991C10.4153 46.1049 10.4216 46.1075 10.4299 46.1075Z" fill="#006C71"/>
<path d="M10.6721 46.1079C10.6796 46.1079 10.6856 46.1053 10.6898 46.0996C10.6945 46.0933 10.6971 46.0845 10.6971 46.0725C10.6971 46.0615 10.6945 46.0527 10.6898 46.0464C10.6856 46.0402 10.6796 46.037 10.6721 46.037C10.6637 46.037 10.657 46.0402 10.6523 46.0464C10.6481 46.0527 10.646 46.0615 10.646 46.0725C10.646 46.0845 10.6481 46.0933 10.6523 46.0996C10.657 46.1053 10.6637 46.1079 10.6721 46.1079ZM10.646 46.0297C10.6515 46.0229 10.6575 46.0177 10.6637 46.0141C10.67 46.0107 10.6773 46.0089 10.6856 46.0089C10.7008 46.0089 10.713 46.0149 10.7221 46.0266C10.7318 46.0386 10.7367 46.0537 10.7367 46.0725C10.7367 46.0913 10.7318 46.1066 10.7221 46.1184C10.713 46.1304 10.7008 46.1361 10.6856 46.1361C10.6773 46.1361 10.67 46.1343 10.6637 46.1309C10.6575 46.1275 10.6515 46.1223 10.646 46.1152V46.133H10.6074V45.9651H10.646V46.0297Z" fill="#006C71"/>
<path d="M10.752 46.0119H10.7905L10.8229 46.0943L10.85 46.0119H10.8886L10.8385 46.1444C10.8328 46.1574 10.8265 46.1668 10.8197 46.1725C10.8135 46.178 10.8046 46.1809 10.7937 46.1809H10.7707V46.1548H10.7832C10.7895 46.1548 10.7939 46.1537 10.7968 46.1517C10.8002 46.1496 10.8025 46.1459 10.8041 46.1412L10.8051 46.1371L10.752 46.0119Z" fill="#006C71"/>
<path d="M10.9883 45.9711H11.03V46.1015H11.103V46.1328H10.9883V45.9711Z" fill="#006C71"/>
<path d="M11.1289 46.0114H11.1675V46.1324H11.1289V46.0114ZM11.1289 45.9645H11.1675V45.9958H11.1289V45.9645Z" fill="#006C71"/>
<path d="M11.2678 46.108C11.2753 46.108 11.2813 46.1053 11.2855 46.0996C11.2902 46.0934 11.2928 46.0845 11.2928 46.0725C11.2928 46.0615 11.2902 46.0527 11.2855 46.0464C11.2813 46.0402 11.2753 46.037 11.2678 46.037C11.2594 46.037 11.2527 46.0402 11.248 46.0464C11.2438 46.0527 11.2417 46.0615 11.2417 46.0725C11.2417 46.0845 11.2438 46.0934 11.248 46.0996C11.2527 46.1053 11.2594 46.108 11.2678 46.108ZM11.2417 46.0297C11.2472 46.023 11.2532 46.0177 11.2594 46.0141C11.2657 46.0107 11.273 46.0089 11.2813 46.0089C11.2965 46.0089 11.3087 46.0149 11.3178 46.0266C11.3275 46.0386 11.3324 46.0537 11.3324 46.0725C11.3324 46.0913 11.3275 46.1067 11.3178 46.1184C11.3087 46.1304 11.2965 46.1361 11.2813 46.1361C11.273 46.1361 11.2657 46.1343 11.2594 46.1309C11.2532 46.1275 11.2472 46.1223 11.2417 46.1153V46.133H11.2031V45.9651H11.2417V46.0297Z" fill="#006C71"/>
<path d="M11.4839 46.0725V46.0829H11.3931C11.3937 46.092 11.3968 46.0991 11.4025 46.1038C11.408 46.1079 11.4161 46.11 11.4265 46.11C11.4349 46.11 11.4432 46.109 11.4516 46.1069C11.4599 46.1043 11.4685 46.1004 11.4776 46.0954V46.1257C11.4685 46.1293 11.4594 46.1317 11.4505 46.133C11.4414 46.1351 11.432 46.1361 11.4223 46.1361C11.4007 46.1361 11.3838 46.1306 11.3712 46.1194C11.3593 46.1085 11.3535 46.0928 11.3535 46.0725C11.3535 46.0532 11.3593 46.0378 11.3712 46.0266C11.383 46.0149 11.3994 46.0089 11.4203 46.0089C11.4396 46.0089 11.4549 46.0149 11.4662 46.0266C11.4779 46.0378 11.4839 46.0532 11.4839 46.0725ZM11.4432 46.0589C11.4432 46.0521 11.4411 46.0464 11.437 46.0422C11.4328 46.0375 11.427 46.0349 11.4203 46.0349C11.4124 46.0349 11.4062 46.037 11.4015 46.0412C11.3973 46.0454 11.3945 46.0514 11.3931 46.0589L11.4432 46.0589Z" fill="#006C71"/>
<path d="M11.5995 46.0454C11.5958 46.0433 11.5924 46.042 11.589 46.0413C11.5854 46.0407 11.5823 46.0402 11.5796 46.0402C11.5692 46.0402 11.5611 46.0439 11.5557 46.0506C11.5507 46.0569 11.5484 46.066 11.5484 46.0778V46.133H11.5098V46.0121H11.5484V46.0319C11.553 46.0243 11.5588 46.0188 11.565 46.0152C11.5718 46.011 11.5796 46.0089 11.588 46.0089C11.5893 46.0089 11.5906 46.0094 11.5922 46.01H11.5995V46.0454Z" fill="#006C71"/>
<path d="M11.6172 46.0858V46.0118H11.6558V46.0243V46.0493V46.0681V46.09C11.6563 46.0942 11.6573 46.097 11.6589 46.0984C11.6602 46.1012 11.662 46.1033 11.6641 46.1046C11.6667 46.1062 11.6699 46.1067 11.6735 46.1067C11.6818 46.1067 11.6881 46.1036 11.6923 46.0973C11.697 46.0911 11.6996 46.0824 11.6996 46.0712V46.0118H11.7382V46.1328H11.6996V46.115C11.6938 46.1221 11.6876 46.1273 11.6808 46.1307C11.6745 46.1341 11.6675 46.1359 11.6599 46.1359C11.6459 46.1359 11.6352 46.1317 11.6276 46.1234C11.6206 46.1145 11.6172 46.102 11.6172 46.0858Z" fill="#006C71"/>
<path d="M11.8707 46.0162V46.0454C11.8624 46.042 11.8543 46.0396 11.8467 46.0381C11.8389 46.036 11.8316 46.0349 11.8248 46.0349C11.8178 46.0349 11.8126 46.036 11.8092 46.0381C11.8055 46.0396 11.8039 46.0422 11.8039 46.0464C11.8039 46.0493 11.805 46.0516 11.8071 46.0537C11.8097 46.0553 11.8146 46.0563 11.8217 46.0568L11.829 46.0579C11.8483 46.0607 11.8616 46.0649 11.8686 46.0704C11.8754 46.0761 11.879 46.085 11.879 46.0975C11.879 46.11 11.8741 46.1199 11.8644 46.1267C11.8553 46.133 11.8415 46.1361 11.8227 46.1361C11.8144 46.1361 11.806 46.1353 11.7977 46.134C11.7893 46.1327 11.7805 46.1309 11.7716 46.1288V46.0996C11.7792 46.1032 11.7867 46.1059 11.7946 46.1079C11.8029 46.1095 11.8112 46.11 11.8196 46.11C11.8272 46.11 11.8326 46.109 11.8363 46.1069C11.8405 46.1048 11.8425 46.1017 11.8425 46.0975C11.8425 46.0941 11.841 46.0918 11.8384 46.0902C11.8355 46.0889 11.8303 46.0876 11.8227 46.086L11.8165 46.085C11.799 46.0829 11.7867 46.0793 11.78 46.0735C11.7729 46.068 11.7695 46.0589 11.7695 46.0464C11.7695 46.0339 11.7737 46.0245 11.782 46.0182C11.7909 46.012 11.8045 46.0089 11.8227 46.0089C11.8303 46.0089 11.8378 46.0096 11.8457 46.0109C11.8532 46.0117 11.8616 46.0136 11.8707 46.0162Z" fill="#006C71"/>
<path d="M9.62707 46.1856V46.2107H9.60621C9.60047 46.2107 9.59682 46.2117 9.59474 46.2138C9.59265 46.2159 9.59161 46.2195 9.59161 46.2242V46.2326H9.62394V46.2607H9.59161V46.3535H9.55198V46.2607H9.5332V46.2326H9.55198V46.2242C9.55198 46.2112 9.55563 46.2013 9.56345 46.195C9.57101 46.1888 9.58248 46.1856 9.59787 46.1856L9.62707 46.1856Z" fill="#006C71"/>
<path d="M9.73618 46.2659C9.73253 46.2638 9.72914 46.2625 9.72575 46.2618C9.7221 46.2612 9.71897 46.2607 9.71636 46.2607C9.70593 46.2607 9.69785 46.2644 9.69237 46.2711C9.68742 46.2774 9.68507 46.2865 9.68507 46.2983V46.3535H9.64648V46.2326H9.68507V46.2524C9.68977 46.2448 9.6955 46.2393 9.70176 46.2357C9.70854 46.2315 9.71636 46.2294 9.7247 46.2294C9.72601 46.2294 9.72731 46.23 9.72888 46.2305H9.73618V46.2659Z" fill="#006C71"/>
<path d="M9.81089 46.2576C9.80255 46.2576 9.79577 46.2607 9.79107 46.267C9.7869 46.2727 9.78481 46.2813 9.78481 46.2931C9.78481 46.305 9.7869 46.3139 9.79107 46.3202C9.79577 46.3264 9.80255 46.3296 9.81089 46.3296C9.81923 46.3296 9.82549 46.3264 9.82966 46.3202C9.83435 46.3139 9.83696 46.305 9.83696 46.2931C9.83696 46.2813 9.83436 46.2727 9.82966 46.267C9.82549 46.2607 9.81923 46.2576 9.81089 46.2576ZM9.81089 46.2294C9.83175 46.2294 9.84791 46.2354 9.85991 46.2472C9.87164 46.2584 9.87764 46.2738 9.87764 46.2931C9.87764 46.3134 9.87164 46.329 9.85991 46.34C9.84791 46.3512 9.83175 46.3567 9.81089 46.3567C9.79003 46.3567 9.7736 46.3512 9.76187 46.34C9.74988 46.329 9.74414 46.3134 9.74414 46.2931C9.74414 46.2738 9.74988 46.2584 9.76187 46.2472C9.7736 46.2354 9.79003 46.2294 9.81089 46.2294Z" fill="#006C71"/>
<path d="M10.0159 46.2523C10.0206 46.2455 10.0266 46.2397 10.0336 46.2356C10.0404 46.2314 10.0477 46.2293 10.0555 46.2293C10.0693 46.2293 10.0798 46.234 10.0868 46.2429C10.0944 46.2512 10.0983 46.2635 10.0983 46.2794V46.3534H10.0597V46.2909V46.2877V46.2836C10.0597 46.2747 10.0581 46.2684 10.0555 46.2648C10.0534 46.2606 10.0495 46.2585 10.044 46.2585C10.0362 46.2585 10.0305 46.2617 10.0263 46.2679C10.0227 46.2742 10.0206 46.283 10.0201 46.294V46.3534H9.98147V46.2909C9.98147 46.277 9.98043 46.2684 9.97834 46.2648C9.97626 46.2606 9.97209 46.2585 9.96583 46.2585C9.95801 46.2585 9.95227 46.2616 9.9481 46.2679C9.94445 46.2742 9.94289 46.283 9.94289 46.294V46.3534H9.9043V46.2324H9.94289V46.2502C9.94758 46.2434 9.95279 46.2382 9.95853 46.2345C9.96479 46.2311 9.97157 46.2293 9.97939 46.2293C9.98773 46.2293 9.99503 46.2314 10.0013 46.2356C10.0075 46.2397 10.0122 46.2455 10.0159 46.2523Z" fill="#006C71"/>
<path d="M10.2527 46.1981V46.2325H10.2923V46.2607H10.2527V46.3118C10.2527 46.3175 10.2537 46.3212 10.2558 46.3233C10.2584 46.3248 10.2631 46.3254 10.2694 46.3254H10.2892V46.3535H10.2558C10.2412 46.3535 10.2303 46.3504 10.2235 46.3441C10.2172 46.3379 10.2141 46.3272 10.2141 46.3118V46.2607H10.1953V46.2325H10.2141V46.1981L10.2527 46.1981Z" fill="#006C71"/>
<path d="M10.4374 46.2794V46.3534H10.3988V46.2971C10.3988 46.2867 10.3983 46.2799 10.3978 46.2763C10.3978 46.2721 10.397 46.269 10.3957 46.2669C10.3941 46.2643 10.392 46.2622 10.3894 46.2606C10.3865 46.2593 10.3837 46.2585 10.3811 46.2585C10.3727 46.2585 10.3659 46.2617 10.3613 46.2679C10.3571 46.2742 10.355 46.283 10.355 46.294V46.3534H10.3164V46.1855H10.355V46.2502C10.3605 46.2434 10.3665 46.2382 10.3727 46.2345C10.3795 46.2311 10.3868 46.2293 10.3946 46.2293C10.4092 46.2293 10.4199 46.234 10.427 46.2429C10.4337 46.2512 10.4374 46.2635 10.4374 46.2794Z" fill="#006C71"/>
<path d="M10.5933 46.2931V46.3035H10.5025C10.503 46.3126 10.5062 46.3196 10.5119 46.3243C10.5174 46.3285 10.5255 46.3306 10.5359 46.3306C10.5442 46.3306 10.5526 46.3296 10.5609 46.3275C10.5693 46.3249 10.5779 46.3209 10.587 46.316V46.3462C10.5779 46.3499 10.5687 46.3522 10.5599 46.3535C10.5508 46.3556 10.5414 46.3567 10.5317 46.3567C10.5101 46.3567 10.4931 46.3512 10.4806 46.34C10.4686 46.329 10.4629 46.3134 10.4629 46.2931C10.4629 46.2738 10.4686 46.2584 10.4806 46.2472C10.4924 46.2354 10.5088 46.2294 10.5296 46.2294C10.5489 46.2294 10.5643 46.2354 10.5755 46.2472C10.5873 46.2584 10.5933 46.2738 10.5933 46.2931ZM10.5526 46.2795C10.5526 46.2727 10.5505 46.267 10.5463 46.2628C10.5422 46.2581 10.5364 46.2555 10.5296 46.2555C10.5218 46.2555 10.5156 46.2576 10.5109 46.2618C10.5067 46.2659 10.5038 46.2719 10.5025 46.2795L10.5526 46.2795Z" fill="#006C71"/>
<path d="M10.7031 46.1919H10.7501L10.8085 46.3025V46.1919H10.8481V46.3536H10.8012L10.7428 46.2431V46.3536H10.7031V46.1919Z" fill="#006C71"/>
<path d="M10.9417 46.2576C10.9334 46.2576 10.9266 46.2607 10.9219 46.267C10.9178 46.2727 10.9157 46.2813 10.9157 46.2931C10.9157 46.305 10.9178 46.3139 10.9219 46.3202C10.9266 46.3264 10.9334 46.3296 10.9417 46.3296C10.9501 46.3296 10.9563 46.3264 10.9605 46.3202C10.9652 46.3139 10.9678 46.305 10.9678 46.2931C10.9678 46.2813 10.9652 46.2727 10.9605 46.267C10.9563 46.2607 10.9501 46.2576 10.9417 46.2576ZM10.9417 46.2294C10.9626 46.2294 10.9788 46.2354 10.9908 46.2472C11.0025 46.2584 11.0085 46.2738 11.0085 46.2931C11.0085 46.3134 11.0025 46.329 10.9908 46.34C10.9788 46.3512 10.9626 46.3567 10.9417 46.3567C10.9209 46.3567 10.9045 46.3512 10.8927 46.34C10.8807 46.329 10.875 46.3134 10.875 46.2931C10.875 46.2738 10.8807 46.2584 10.8927 46.2472C10.9045 46.2354 10.9209 46.2294 10.9417 46.2294Z" fill="#006C71"/>
<path d="M11.0371 46.3065V46.2325H11.0757V46.245V46.27V46.2888V46.3107C11.0762 46.3149 11.0773 46.3177 11.0788 46.319C11.0801 46.3219 11.082 46.324 11.084 46.3253C11.0866 46.3268 11.0898 46.3274 11.0934 46.3274C11.1018 46.3274 11.108 46.3242 11.1122 46.318C11.1169 46.3117 11.1195 46.3031 11.1195 46.2919V46.2325H11.1581V46.3534H11.1195V46.3357C11.1138 46.3428 11.1075 46.348 11.1007 46.3514C11.0945 46.3547 11.0874 46.3566 11.0799 46.3566C11.0658 46.3566 11.0551 46.3524 11.0475 46.3441C11.0405 46.3352 11.0371 46.3227 11.0371 46.3065Z" fill="#006C71"/>
<path d="M11.3143 46.2795V46.3535H11.2758V46.2972C11.2758 46.2868 11.2752 46.28 11.2747 46.2764C11.2747 46.2722 11.2739 46.2691 11.2726 46.267C11.2711 46.2644 11.269 46.2623 11.2664 46.2607C11.2635 46.2594 11.2606 46.2586 11.258 46.2586C11.2497 46.2586 11.2429 46.2618 11.2382 46.268C11.234 46.2743 11.2319 46.2831 11.2319 46.2941V46.3535H11.1934V46.2326H11.2319V46.2503C11.2374 46.2435 11.2434 46.2383 11.2497 46.2346C11.2565 46.2313 11.2638 46.2294 11.2716 46.2294C11.2862 46.2294 11.2969 46.2341 11.3039 46.243C11.3107 46.2513 11.3143 46.2636 11.3143 46.2795Z" fill="#006C71"/>
<path d="M11.4297 46.1919H11.4996C11.5196 46.1919 11.5353 46.1968 11.5465 46.2065C11.5574 46.2156 11.5632 46.2284 11.5632 46.2451C11.5632 46.2618 11.5574 46.2748 11.5465 46.2837C11.5353 46.2928 11.5196 46.2972 11.4996 46.2972H11.4714V46.3535H11.4297L11.4297 46.1919ZM11.4714 46.2221V46.267H11.4943C11.5027 46.267 11.509 46.2654 11.5131 46.2618C11.5178 46.2576 11.5204 46.2521 11.5204 46.2451C11.5204 46.2383 11.5178 46.2326 11.5131 46.2284C11.509 46.2242 11.5027 46.2221 11.4943 46.2221L11.4714 46.2221Z" fill="#006C71"/>
<path d="M11.6795 46.2659C11.6759 46.2638 11.6725 46.2625 11.6691 46.2618C11.6655 46.2612 11.6623 46.2607 11.6597 46.2607C11.6493 46.2607 11.6412 46.2644 11.6357 46.2711C11.6308 46.2774 11.6284 46.2865 11.6284 46.2983V46.3535H11.5898V46.2326H11.6284V46.2524C11.6331 46.2448 11.6389 46.2393 11.6451 46.2357C11.6519 46.2315 11.6597 46.2294 11.6681 46.2294C11.6694 46.2294 11.6707 46.23 11.6722 46.2305H11.6795V46.2659Z" fill="#006C71"/>
<path d="M11.7542 46.2576C11.7459 46.2576 11.7391 46.2607 11.7344 46.267C11.7303 46.2727 11.7282 46.2813 11.7282 46.2931C11.7282 46.305 11.7303 46.3139 11.7344 46.3202C11.7391 46.3264 11.7459 46.3296 11.7542 46.3296C11.7626 46.3296 11.7688 46.3264 11.773 46.3202C11.7777 46.3139 11.7803 46.305 11.7803 46.2931C11.7803 46.2813 11.7777 46.2727 11.773 46.267C11.7688 46.2607 11.7626 46.2576 11.7542 46.2576ZM11.7542 46.2294C11.7751 46.2294 11.7913 46.2354 11.8033 46.2472C11.815 46.2584 11.821 46.2738 11.821 46.2931C11.821 46.3134 11.815 46.329 11.8033 46.34C11.7913 46.3512 11.7751 46.3567 11.7542 46.3567C11.7334 46.3567 11.717 46.3512 11.7052 46.34C11.6932 46.329 11.6875 46.3134 11.6875 46.2931C11.6875 46.2738 11.6932 46.2584 11.7052 46.2472C11.717 46.2354 11.7334 46.2294 11.7542 46.2294Z" fill="#006C71"/>
<path d="M11.8522 46.2324H11.8908V46.3513C11.8908 46.3672 11.8869 46.3795 11.8794 46.3878C11.8715 46.3967 11.8601 46.4014 11.8449 46.4014H11.8262V46.3753H11.8324C11.84 46.3753 11.8452 46.3735 11.8481 46.3701C11.8507 46.3672 11.8522 46.361 11.8522 46.3513V46.2324ZM11.8522 46.1855H11.8908V46.2168H11.8522V46.1855Z" fill="#006C71"/>
<path d="M12.0483 46.2931V46.3035H11.9576C11.9581 46.3126 11.9613 46.3196 11.967 46.3243C11.9725 46.3285 11.9805 46.3306 11.991 46.3306C11.9993 46.3306 12.0077 46.3296 12.016 46.3275C12.0243 46.3249 12.033 46.3209 12.0421 46.316V46.3462C12.033 46.3499 12.0238 46.3522 12.015 46.3535C12.0058 46.3556 11.9964 46.3567 11.9868 46.3567C11.9652 46.3567 11.9482 46.3512 11.9357 46.34C11.9237 46.329 11.918 46.3134 11.918 46.2931C11.918 46.2738 11.9237 46.2584 11.9357 46.2472C11.9474 46.2354 11.9639 46.2294 11.9847 46.2294C12.004 46.2294 12.0194 46.2354 12.0306 46.2472C12.0423 46.2584 12.0483 46.2738 12.0483 46.2931ZM12.0077 46.2795C12.0077 46.2727 12.0056 46.267 12.0014 46.2628C11.9972 46.2581 11.9915 46.2555 11.9847 46.2555C11.9769 46.2555 11.9706 46.2576 11.9659 46.2618C11.9618 46.2659 11.9589 46.2719 11.9576 46.2795L12.0077 46.2795Z" fill="#006C71"/>
<path d="M12.1708 46.2367V46.268C12.1659 46.2646 12.1607 46.2623 12.1552 46.2607C12.1502 46.2586 12.145 46.2576 12.1395 46.2576C12.1283 46.2576 12.1197 46.2607 12.1135 46.267C12.1077 46.2732 12.1051 46.2821 12.1051 46.293C12.1051 46.3043 12.1077 46.3134 12.1135 46.3202C12.1197 46.3264 12.1283 46.3296 12.1395 46.3296C12.145 46.3296 12.1505 46.3285 12.1562 46.3264C12.1617 46.3243 12.1667 46.3217 12.1708 46.3181V46.3504C12.1651 46.3525 12.1594 46.3538 12.1531 46.3546C12.1468 46.3559 12.1406 46.3567 12.1343 46.3567C12.1127 46.3567 12.0957 46.3512 12.0832 46.34C12.0707 46.329 12.0645 46.3134 12.0645 46.2931C12.0645 46.273 12.0707 46.2573 12.0832 46.2461C12.0957 46.2352 12.1127 46.2294 12.1343 46.2294C12.1406 46.2294 12.1468 46.2302 12.1531 46.2315C12.1594 46.2323 12.1651 46.2341 12.1708 46.2367Z" fill="#006C71"/>
<path d="M12.2488 46.198V46.2324H12.2884V46.2606H12.2488V46.3117C12.2488 46.3174 12.2498 46.3211 12.2519 46.3232C12.2545 46.3247 12.2592 46.3253 12.2655 46.3253H12.2853V46.3534H12.2519C12.2373 46.3534 12.2263 46.3503 12.2196 46.344C12.2133 46.3378 12.2102 46.3271 12.2102 46.3117V46.2606H12.1914V46.2324H12.2102V46.198L12.2488 46.198Z" fill="#006C71"/>
</svg>
