<svg width="916" height="879" viewBox="0 0 916 879" fill="none" xmlns="http://www.w3.org/2000/svg">
<circle cx="449" cy="445" r="271.5" stroke="#808080" stroke-dasharray="4 4"/>
<g filter="url(#filter0_d_8_5336)">
<rect x="98" y="345" width="150" height="150" rx="5" fill="white"/>
</g>
<path d="M173.265 365.655C163.466 365.655 153.988 369.142 146.525 375.491C139.062 381.841 134.103 390.639 132.533 400.311C130.963 409.982 132.887 419.897 137.958 428.281C143.03 436.665 150.92 442.97 160.215 446.069C162.278 446.43 163.052 445.192 163.052 444.109C163.052 443.129 163 439.879 163 436.423C152.632 438.332 149.95 433.896 149.125 431.575C148.209 429.318 146.757 427.317 144.895 425.746C143.451 424.973 141.388 423.064 144.844 423.013C146.163 423.156 147.429 423.615 148.533 424.351C149.638 425.087 150.548 426.079 151.188 427.242C151.753 428.256 152.511 429.148 153.421 429.869C154.331 430.589 155.374 431.122 156.491 431.438C157.607 431.755 158.775 431.847 159.928 431.711C161.08 431.576 162.194 431.214 163.206 430.646C163.385 428.549 164.32 426.587 165.837 425.127C156.656 424.096 147.062 420.537 147.062 404.753C147.004 400.652 148.517 396.684 151.291 393.663C150.03 390.099 150.177 386.187 151.704 382.728C151.704 382.728 155.16 381.645 163.052 386.958C169.804 385.101 176.932 385.101 183.684 386.958C191.576 381.593 195.032 382.728 195.032 382.728C196.559 386.187 196.706 390.099 195.445 393.663C198.227 396.679 199.742 400.65 199.674 404.753C199.674 420.588 190.028 424.096 180.847 425.127C181.832 426.126 182.59 427.324 183.071 428.641C183.552 429.958 183.743 431.364 183.633 432.761C183.633 438.281 183.581 442.716 183.581 444.109C183.581 445.192 184.355 446.482 186.418 446.069C195.697 442.945 203.564 436.625 208.614 428.237C213.664 419.849 215.569 409.939 213.988 400.277C212.408 390.614 207.445 381.828 199.986 375.486C192.526 369.144 183.056 365.66 173.265 365.655Z" fill="black"/>
<path d="M155.297 479C154.271 479 153.333 478.747 152.484 478.242C151.635 477.737 150.958 477.06 150.453 476.211C149.948 475.362 149.695 474.422 149.695 473.391C149.695 472.359 149.948 471.422 150.453 470.578C150.958 469.729 151.635 469.052 152.484 468.547C153.333 468.042 154.271 467.789 155.297 467.789C156.026 467.789 156.721 467.924 157.383 468.195C158.049 468.461 158.648 468.844 159.18 469.344L159.547 469.695L158.477 471.172L157.992 470.695C157.221 469.951 156.323 469.578 155.297 469.578C154.599 469.578 153.961 469.75 153.383 470.094C152.805 470.438 152.344 470.898 152 471.477C151.656 472.049 151.484 472.688 151.484 473.391C151.484 474.094 151.656 474.734 152 475.312C152.344 475.891 152.805 476.352 153.383 476.695C153.961 477.039 154.599 477.211 155.297 477.211C156.109 477.211 156.794 476.982 157.352 476.523C157.914 476.06 158.305 475.404 158.523 474.555H154.852V472.805H160.453V473.641C160.453 473.771 160.445 473.906 160.43 474.047C160.237 475.573 159.68 476.781 158.758 477.672C157.841 478.557 156.688 479 155.297 479ZM163.609 479H161.859V470.82H163.609V479ZM162.734 470.164C162.448 470.164 162.203 470.062 162 469.859C161.797 469.656 161.695 469.411 161.695 469.125C161.695 468.844 161.797 468.602 162 468.398C162.203 468.195 162.448 468.094 162.734 468.094C163.021 468.094 163.263 468.195 163.461 468.398C163.664 468.602 163.766 468.844 163.766 469.125C163.766 469.411 163.664 469.656 163.461 469.859C163.263 470.062 163.021 470.164 162.734 470.164ZM168.539 479C167.82 479 167.211 478.768 166.711 478.305C166.138 477.753 165.852 476.904 165.852 475.758V472.859H165.008V471.109H165.852V467.789H167.586V471.109H169.5V472.859H167.586V475.797C167.586 476.74 167.82 477.247 168.289 477.32C168.414 477.336 168.531 477.344 168.641 477.344C168.786 477.344 168.922 477.331 169.047 477.305L169.672 477.164L169.859 478.758L169.57 478.844C169.404 478.896 169.25 478.935 169.109 478.961C168.969 478.987 168.779 479 168.539 479ZM178.477 479H176.719V474.391C176.719 473.177 176.185 472.57 175.117 472.57C174.487 472.57 173.971 472.81 173.57 473.289C173.393 473.508 173.258 473.732 173.164 473.961C173.076 474.19 173.023 474.393 173.008 474.57V479H171.258V467.789H173.008V471.453C173.622 471.031 174.341 470.82 175.164 470.82C176.164 470.82 176.966 471.138 177.57 471.773C178.174 472.409 178.477 473.258 178.477 474.32V479ZM183.602 479H183.352C182.711 479 182.128 478.844 181.602 478.531C181.076 478.219 180.654 477.799 180.336 477.273C180.023 476.742 179.867 476.159 179.867 475.523V470.82H181.617V475.477C181.617 475.966 181.789 476.385 182.133 476.734C182.477 477.078 182.891 477.25 183.375 477.25H183.578C184.062 477.25 184.477 477.078 184.82 476.734C185.164 476.385 185.336 475.966 185.336 475.477V470.82H187.086V475.523C187.086 476.159 186.93 476.742 186.617 477.273C186.305 477.799 185.883 478.219 185.352 478.531C184.826 478.844 184.242 479 183.602 479ZM192.57 479C191.732 479 190.951 478.755 190.227 478.266V479H188.477V467.789H190.227V471.555C190.951 471.065 191.732 470.82 192.57 470.82C193.326 470.82 194.01 471.005 194.625 471.375C195.245 471.74 195.74 472.232 196.109 472.852C196.479 473.471 196.664 474.159 196.664 474.914C196.664 475.664 196.479 476.349 196.109 476.969C195.74 477.589 195.245 478.083 194.625 478.453C194.01 478.818 193.326 479 192.57 479ZM192.57 477.211C193.206 477.211 193.747 476.987 194.195 476.539C194.643 476.086 194.867 475.544 194.867 474.914C194.867 474.279 194.643 473.737 194.195 473.289C193.747 472.836 193.206 472.609 192.57 472.609C191.935 472.609 191.393 472.836 190.945 473.289C190.497 473.737 190.273 474.279 190.273 474.914C190.273 475.544 190.497 476.086 190.945 476.539C191.393 476.987 191.935 477.211 192.57 477.211Z" fill="#182232"/>
<g filter="url(#filter1_d_8_5336)">
<rect x="381" y="98" width="150" height="150" rx="5" fill="white"/>
</g>
<path d="M456.075 174.479C460.32 174.479 463.762 171.037 463.762 166.792C463.762 162.546 460.32 159.105 456.075 159.105C451.829 159.105 448.388 162.546 448.388 166.792C448.388 171.037 451.829 174.479 456.075 174.479Z" fill="#00D8FF"/>
<path fill-rule="evenodd" clip-rule="evenodd" d="M456.076 152.615C445.597 152.615 435.788 154.144 428.626 156.643C428.626 156.643 428.626 156.643 428.626 156.643C424.393 158.121 421.123 159.939 418.951 161.801C416.736 163.699 415.902 165.42 415.902 166.712C415.902 168.059 416.81 169.909 419.181 171.944C421.5 173.932 424.971 175.87 429.427 177.396C436.456 179.803 445.934 180.968 456.076 180.968C465.944 180.968 475.228 179.729 482.197 177.417L482.197 177.417C486.819 175.883 490.428 173.953 492.842 171.962C495.311 169.926 496.247 168.075 496.247 166.712C496.247 165.429 495.382 163.693 493.077 161.767C490.825 159.885 487.458 158.053 483.159 156.57C483.159 156.57 483.159 156.57 483.159 156.57C476.021 154.109 466.449 152.615 456.076 152.615ZM427.392 153.093C435.04 150.423 445.283 148.856 456.076 148.856C466.766 148.856 476.766 150.39 484.38 153.015L484.38 153.015C488.969 154.598 492.779 156.622 495.482 158.881C498.132 161.096 500 163.788 500 166.712C500 169.735 498.04 172.545 495.227 174.865C492.358 177.231 488.299 179.353 483.377 180.986C475.914 183.463 466.204 184.728 456.076 184.728C445.714 184.728 435.782 183.545 428.214 180.954L428.214 180.954C423.437 179.319 419.511 177.176 416.74 174.799C414.023 172.468 412.149 169.667 412.149 166.712C412.149 163.831 413.926 161.159 416.511 158.944C419.139 156.692 422.861 154.674 427.391 153.093L427.392 153.093Z" fill="#00D8FF"/>
<path fill-rule="evenodd" clip-rule="evenodd" d="M470.058 132.16C467.306 133.175 464.042 135.183 460.613 138.176L460.613 138.176C454.921 143.144 448.85 150.71 443.671 159.721L443.671 159.721L443.671 159.721C438.437 168.822 434.86 178.104 433.446 185.58L431.605 185.23L433.446 185.58C432.611 189.998 432.551 193.746 433.075 196.564C433.61 199.437 434.681 201.021 435.798 201.668C436.961 202.341 439.013 202.478 441.956 201.435C444.832 200.416 448.241 198.37 451.784 195.262C457.371 190.36 463.112 182.71 468.175 173.902L468.175 173.902C473.103 165.329 476.667 156.648 478.149 149.437C479.131 144.654 479.265 140.553 478.75 137.462C478.222 134.298 477.09 132.56 475.913 131.879L476.85 130.249L475.913 131.879C474.805 131.238 472.873 131.122 470.058 132.16ZM468.763 128.628C472.001 127.434 475.26 127.158 477.787 128.62C480.399 130.13 481.848 133.238 482.449 136.841C483.062 140.517 482.868 145.104 481.822 150.197L481.822 150.197C480.236 157.919 476.482 166.983 471.424 175.782C466.251 184.781 460.269 192.817 454.253 198.095L454.253 198.095C450.455 201.427 446.642 203.765 443.205 204.983C439.833 206.178 436.477 206.405 433.924 204.927L433.924 204.927C431.434 203.486 430.012 200.608 429.388 197.255C428.754 193.847 428.868 189.605 429.761 184.879C431.271 176.894 435.032 167.214 440.422 157.841C445.759 148.555 452.079 140.637 458.151 135.337C461.81 132.143 465.462 129.846 468.763 128.628Z" fill="#00D8FF"/>
<path fill-rule="evenodd" clip-rule="evenodd" d="M442.012 132.576C439.004 131.459 436.929 131.575 435.747 132.255L435.747 132.256C434.635 132.896 433.565 134.51 433.053 137.464C432.554 140.351 432.658 144.176 433.534 148.633C433.534 148.633 433.534 148.633 433.534 148.633C434.99 156.032 438.507 165.05 443.723 174.018C448.992 183.074 455.25 190.789 461.018 195.73C461.018 195.73 461.019 195.73 461.019 195.73C464.431 198.651 467.651 200.568 470.358 201.515C473.117 202.481 475.029 202.342 476.15 201.696L476.15 201.696C477.317 201.024 478.466 199.316 479.037 196.251C479.596 193.254 479.532 189.285 478.614 184.671L478.614 184.67C477.168 177.397 473.41 168.623 468.309 159.857L468.309 159.856C463.347 151.325 457.607 143.921 452.096 139.052L452.096 139.052C448.44 135.823 444.951 133.668 442.012 132.576ZM443.329 129.065C446.824 130.363 450.705 132.811 454.597 136.25C460.5 141.464 466.476 149.223 471.57 157.979C476.78 166.934 480.752 176.11 482.309 183.943C482.309 183.943 482.309 183.943 482.309 183.943C483.293 188.889 483.409 193.353 482.741 196.934C482.086 200.448 480.599 203.465 478.037 204.94C475.538 206.379 472.329 206.179 469.108 205.051C465.834 203.905 462.212 201.696 458.561 198.571L458.561 198.571L458.561 198.57C452.4 193.294 445.89 185.223 440.463 175.895L440.463 175.895C435.087 166.654 431.39 157.246 429.837 149.353L429.837 149.352C428.902 144.596 428.741 140.292 429.341 136.828C429.929 133.431 431.324 130.472 433.86 129.012C433.86 129.012 433.86 129.012 433.861 129.012C436.481 127.502 439.903 127.793 443.329 129.065Z" fill="#00D8FF"/>
<path d="M434.109 234H431.828L428.945 231.062H426.445V234H424.695V223.344L424.719 222.789H429.336C430.096 222.789 430.789 222.977 431.414 223.352C432.039 223.721 432.539 224.219 432.914 224.844C433.289 225.469 433.477 226.161 433.477 226.922C433.477 227.505 433.367 228.047 433.148 228.547C432.93 229.047 432.63 229.484 432.25 229.859C431.875 230.234 431.448 230.526 430.969 230.734L434.109 234ZM429.023 229.312C429.768 229.312 430.404 229.081 430.93 228.617C431.456 228.148 431.719 227.583 431.719 226.922C431.719 226.266 431.456 225.706 430.93 225.242C430.404 224.773 429.768 224.539 429.023 224.539H426.445V229.312H429.023ZM438.82 234C438.065 234 437.378 233.818 436.758 233.453C436.138 233.083 435.643 232.589 435.273 231.969C434.909 231.349 434.727 230.664 434.727 229.914C434.727 229.159 434.909 228.471 435.273 227.852C435.643 227.232 436.138 226.74 436.758 226.375C437.378 226.005 438.065 225.82 438.82 225.82C439.826 225.82 440.669 226.146 441.352 226.797C442.034 227.443 442.445 228.323 442.586 229.438C442.596 229.536 442.604 229.659 442.609 229.805C442.615 229.951 442.617 230.279 442.617 230.789H436.688C436.87 231.227 437.151 231.576 437.531 231.836C437.917 232.091 438.346 232.219 438.82 232.219C439.435 232.219 439.977 231.995 440.445 231.547L441.008 230.977L442.078 232.453L441.648 232.867C440.82 233.622 439.878 234 438.82 234ZM440.68 229.031C440.362 228.083 439.742 227.609 438.82 227.609C438.346 227.609 437.917 227.737 437.531 227.992C437.151 228.247 436.87 228.594 436.688 229.031H440.68ZM452.188 234H450.438V233.266C449.714 233.755 448.932 234 448.094 234C447.344 234 446.659 233.818 446.039 233.453C445.419 233.083 444.924 232.589 444.555 231.969C444.19 231.349 444.008 230.664 444.008 229.914C444.008 229.159 444.19 228.471 444.555 227.852C444.924 227.232 445.419 226.74 446.039 226.375C446.659 226.005 447.344 225.82 448.094 225.82C448.932 225.82 449.714 226.065 450.438 226.555V225.82H452.188V234ZM448.094 232.211C448.729 232.211 449.271 231.987 449.719 231.539C450.172 231.086 450.398 230.544 450.398 229.914C450.398 229.279 450.172 228.737 449.719 228.289C449.271 227.836 448.729 227.609 448.094 227.609C447.464 227.609 446.922 227.836 446.469 228.289C446.021 228.737 445.797 229.279 445.797 229.914C445.797 230.544 446.021 231.086 446.469 231.539C446.922 231.987 447.464 232.211 448.094 232.211ZM457.672 234C456.922 234 456.237 233.818 455.617 233.453C454.997 233.083 454.503 232.589 454.133 231.969C453.768 231.349 453.586 230.664 453.586 229.914C453.586 229.159 453.768 228.471 454.133 227.852C454.503 227.232 454.997 226.74 455.617 226.375C456.237 226.005 456.922 225.82 457.672 225.82C458.786 225.82 459.763 226.229 460.602 227.047L461.016 227.477L459.898 228.914L459.352 228.336C458.878 227.852 458.318 227.609 457.672 227.609C457.036 227.609 456.492 227.836 456.039 228.289C455.591 228.737 455.367 229.279 455.367 229.914C455.367 230.549 455.591 231.094 456.039 231.547C456.492 231.995 457.036 232.219 457.672 232.219C458.328 232.219 458.901 231.964 459.391 231.453L459.945 230.836L461.047 232.305L460.648 232.719C459.805 233.573 458.812 234 457.672 234ZM465.695 234C464.977 234 464.367 233.768 463.867 233.305C463.294 232.753 463.008 231.904 463.008 230.758V227.859H462.164V226.109H463.008V222.789H464.742V226.109H466.656V227.859H464.742V230.797C464.742 231.74 464.977 232.247 465.445 232.32C465.57 232.336 465.688 232.344 465.797 232.344C465.943 232.344 466.078 232.331 466.203 232.305L466.828 232.164L467.016 233.758L466.727 233.844C466.56 233.896 466.406 233.935 466.266 233.961C466.125 233.987 465.935 234 465.695 234ZM471.039 234H470.422C469.891 234 469.375 233.909 468.875 233.727L468.211 233.477L469.156 231.93L469.414 232.031C469.586 232.099 469.745 232.154 469.891 232.195C470.036 232.232 470.229 232.25 470.469 232.25H470.992C471.497 232.25 471.956 232.112 472.367 231.836C472.784 231.56 473.115 231.193 473.359 230.734C473.609 230.271 473.734 229.758 473.734 229.195V222.789H475.484V229.555C475.484 230.372 475.284 231.117 474.883 231.789C474.482 232.461 473.945 232.997 473.273 233.398C472.602 233.799 471.857 234 471.039 234ZM480.859 234C480.271 234 479.727 233.935 479.227 233.805C478.727 233.674 478.305 233.534 477.961 233.383C477.622 233.227 477.388 233.104 477.258 233.016C477.133 232.922 477.008 232.831 476.883 232.742L477.227 231.898L477.555 231.102L478.141 231.469C478.266 231.552 478.456 231.654 478.711 231.773C478.966 231.893 479.276 232.003 479.641 232.102C480.01 232.201 480.417 232.25 480.859 232.25C481.672 232.25 482.318 232.109 482.797 231.828C483.276 231.547 483.516 231.172 483.516 230.703C483.516 230.453 483.417 230.253 483.219 230.102C483.021 229.945 482.74 229.812 482.375 229.703C482.01 229.589 481.57 229.477 481.055 229.367C480.596 229.273 480.143 229.161 479.695 229.031C477.909 228.531 477.016 227.552 477.016 226.094C477.016 225.078 477.372 224.273 478.086 223.68C478.805 223.086 479.844 222.789 481.203 222.789C481.797 222.789 482.344 222.854 482.844 222.984C483.344 223.115 483.763 223.258 484.102 223.414C484.445 223.565 484.682 223.688 484.812 223.781L485.141 224.008L484.719 225.688L484.062 225.328C483.88 225.224 483.643 225.112 483.352 224.992C483.065 224.872 482.737 224.768 482.367 224.68C482.003 224.586 481.615 224.539 481.203 224.539C480.401 224.539 479.799 224.674 479.398 224.945C478.997 225.216 478.797 225.596 478.797 226.086C478.797 226.404 478.904 226.659 479.117 226.852C479.336 227.044 479.646 227.206 480.047 227.336C480.453 227.461 480.938 227.583 481.5 227.703C481.932 227.797 482.359 227.904 482.781 228.023C483.203 228.138 483.594 228.289 483.953 228.477C484.854 228.982 485.305 229.719 485.305 230.688C485.305 231.26 485.177 231.755 484.922 232.172C484.672 232.589 484.333 232.932 483.906 233.203C483.484 233.474 483.008 233.674 482.477 233.805C481.951 233.935 481.411 234 480.859 234Z" fill="#182232"/>
<g filter="url(#filter2_d_8_5336)">
<rect x="539" y="623" width="150" height="150" rx="5" fill="white"/>
</g>
<path d="M602.695 743H600.938V736.805L598.219 742.531H597.164L594.445 736.805V743H592.695V731.789H593.969L597.695 739.688L601.422 731.789H602.695V743ZM607.453 746.031H605.594L607.172 742.109L604.086 734.82H605.977L608.094 739.836L610.117 734.82H611.992L607.453 746.031ZM617.203 743C616.615 743 616.07 742.935 615.57 742.805C615.07 742.674 614.648 742.534 614.305 742.383C613.966 742.227 613.732 742.104 613.602 742.016C613.477 741.922 613.352 741.831 613.227 741.742L613.57 740.898L613.898 740.102L614.484 740.469C614.609 740.552 614.799 740.654 615.055 740.773C615.31 740.893 615.62 741.003 615.984 741.102C616.354 741.201 616.76 741.25 617.203 741.25C618.016 741.25 618.661 741.109 619.141 740.828C619.62 740.547 619.859 740.172 619.859 739.703C619.859 739.453 619.76 739.253 619.562 739.102C619.365 738.945 619.083 738.812 618.719 738.703C618.354 738.589 617.914 738.477 617.398 738.367C616.94 738.273 616.487 738.161 616.039 738.031C614.253 737.531 613.359 736.552 613.359 735.094C613.359 734.078 613.716 733.273 614.43 732.68C615.148 732.086 616.188 731.789 617.547 731.789C618.141 731.789 618.688 731.854 619.188 731.984C619.688 732.115 620.107 732.258 620.445 732.414C620.789 732.565 621.026 732.688 621.156 732.781L621.484 733.008L621.062 734.688L620.406 734.328C620.224 734.224 619.987 734.112 619.695 733.992C619.409 733.872 619.081 733.768 618.711 733.68C618.346 733.586 617.958 733.539 617.547 733.539C616.745 733.539 616.143 733.674 615.742 733.945C615.341 734.216 615.141 734.596 615.141 735.086C615.141 735.404 615.247 735.659 615.461 735.852C615.68 736.044 615.99 736.206 616.391 736.336C616.797 736.461 617.281 736.583 617.844 736.703C618.276 736.797 618.703 736.904 619.125 737.023C619.547 737.138 619.938 737.289 620.297 737.477C621.198 737.982 621.648 738.719 621.648 739.688C621.648 740.26 621.521 740.755 621.266 741.172C621.016 741.589 620.677 741.932 620.25 742.203C619.828 742.474 619.352 742.674 618.82 742.805C618.294 742.935 617.755 743 617.203 743ZM631.102 745.422H629.352V742.266C628.628 742.755 627.846 743 627.008 743C626.258 743 625.573 742.818 624.953 742.453C624.333 742.083 623.839 741.589 623.469 740.969C623.099 740.349 622.914 739.664 622.914 738.914C622.914 738.159 623.099 737.471 623.469 736.852C623.839 736.232 624.333 735.74 624.953 735.375C625.573 735.005 626.258 734.82 627.008 734.82C627.846 734.82 628.628 735.065 629.352 735.555V734.82H631.102V745.422ZM627.008 741.211C627.643 741.211 628.185 740.987 628.633 740.539C629.081 740.086 629.305 739.544 629.305 738.914C629.305 738.279 629.081 737.737 628.633 737.289C628.185 736.836 627.643 736.609 627.008 736.609C626.372 736.609 625.831 736.836 625.383 737.289C624.935 737.737 624.711 738.279 624.711 738.914C624.711 739.544 624.935 740.086 625.383 740.539C625.831 740.987 626.372 741.211 627.008 741.211ZM634.242 743H632.492V731.789H634.242V743Z" fill="#182232"/>
<path d="M588.479 721.893C587.798 721.893 587.191 721.851 586.678 721.771V724.034C587.732 724.454 588.605 724.664 589.319 724.664C591.992 724.664 594.456 723.031 596.705 719.751C599.579 715.505 601.903 708.688 603.667 699.318H599.561C598.904 704.772 597.596 710.128 595.665 715.271C595.795 714.296 595.473 712.584 594.708 710.129L591.316 699.318H587.07L591.801 713.778C592.515 715.948 592.874 717.395 592.874 718.104C592.874 719.126 592.417 720.05 591.498 720.875C590.733 721.547 589.729 721.893 588.479 721.893Z" fill="#105E86"/>
<path d="M648.905 692.678V718.01H661.177V714.893H653.035V692.678H648.905Z" fill="#DE8A03"/>
<path d="M562.853 697.806H562.899L569.432 718.01H572.722L579.301 697.806H579.338C580.056 704.519 580.476 711.26 580.598 718.01H584.937C584.67 709.54 584.004 701.086 582.94 692.678H577.831L571.546 711.296H571.508L565.279 692.678H559.913C558.855 701.085 558.216 709.54 558 718.01H561.943C562.069 710.601 562.372 703.867 562.853 697.806Z" fill="#105E86"/>
<path d="M645.158 704.871C645.158 696.49 641.808 692.291 635.103 692.291C631.818 692.291 629.251 693.355 627.404 695.483C625.397 697.811 624.389 701.236 624.389 705.767C624.389 710.218 625.276 713.489 627.068 715.57C628.701 717.451 631.16 718.388 634.454 718.388C635.686 718.388 636.815 718.239 637.837 717.941L644.019 721.477L645.699 718.631H645.685L640.945 716.34C641.364 715.99 641.77 715.617 642.134 715.197C644.155 712.873 645.158 709.43 645.158 704.871ZM634.879 715.253C632.802 715.253 631.286 714.488 630.315 712.962L630.325 712.938C629.275 711.291 628.752 708.632 628.752 704.987C628.752 698.604 630.73 695.413 634.678 695.413C636.745 695.413 638.271 696.178 639.237 697.704C640.282 699.36 640.805 701.992 640.805 705.599C640.805 712.029 638.826 715.253 634.879 715.253ZM619.593 705.655C619.593 705.655 615.888 703.569 614.054 702.584C612.038 701.483 610.946 700.191 610.946 698.693C610.95 698.232 611.056 697.777 611.256 697.362C611.456 696.946 611.745 696.58 612.103 696.29C612.813 695.655 613.835 695.347 615.155 695.347C616.784 695.347 618.44 695.702 620.12 696.402L621.114 694.223C619.166 692.974 616.895 692.322 614.581 692.347C612.248 692.347 610.358 692.972 608.888 694.246C607.428 695.506 606.695 697.153 606.695 699.215C606.695 701.693 607.675 703.2 609.644 704.609C609.644 704.609 613.261 706.644 615.071 707.619C617.021 708.697 618.095 709.98 618.095 711.492C618.102 712.039 617.98 712.58 617.736 713.071C617.493 713.561 617.136 713.986 616.695 714.31C615.808 714.982 614.59 715.318 613.041 715.318C611.376 715.318 609.532 714.824 607.489 713.816L606.383 715.995C608.758 717.567 611.189 718.356 613.723 718.356C616.434 718.356 618.575 717.67 620.18 716.293C621.786 714.922 622.588 713.153 622.588 710.997L622.616 711.011C622.616 708.543 621.613 707.055 619.593 705.655Z" fill="#DE8A03"/>
<path d="M668.563 692.244C667.643 691.056 666.55 690.014 665.32 689.151C664.322 688.483 662.138 687.545 661.727 686.426L661.667 686.36C662.348 686.3 663.16 686.057 663.813 685.875C664.872 685.6 665.843 685.66 666.939 685.39C667.434 685.268 667.933 685.114 668.433 684.96V684.685C667.873 684.135 667.453 683.388 666.874 682.875C665.257 681.487 663.534 680.227 661.723 679.104C660.743 678.489 659.502 678.097 658.47 677.574C658.097 677.392 657.472 677.299 657.257 676.991C656.697 676.324 656.371 675.432 655.974 674.634C655.078 672.95 654.201 671.083 653.422 669.306C652.862 668.107 652.521 666.912 651.835 665.811C648.616 660.603 645.13 657.445 639.769 654.36C638.616 653.721 637.235 653.446 635.775 653.105C634.995 653.068 634.216 653.012 633.442 652.979C632.928 652.764 632.434 652.181 631.995 651.901C630.222 650.8 625.631 648.42 624.324 651.57C623.484 653.558 625.57 655.517 626.293 656.525C626.83 657.225 627.506 658.028 627.88 658.816C628.099 659.348 628.16 659.894 628.379 660.449C628.873 661.798 629.345 663.296 629.998 664.56C630.339 665.2 630.712 665.876 631.151 666.45C631.402 666.786 631.832 666.94 631.93 667.491C631.491 668.116 631.463 669.021 631.211 669.782C630.091 673.249 630.53 677.537 632.116 680.089C632.616 680.85 633.806 682.534 635.397 681.89C636.796 681.34 636.489 679.599 636.89 678.064C636.983 677.695 636.922 677.453 637.114 677.205V677.275C637.552 678.139 637.991 678.955 638.392 679.818C639.353 681.321 641.033 682.879 642.438 683.92C643.184 684.47 643.777 685.422 644.71 685.763V685.67H644.64C644.44 685.404 644.174 685.278 643.922 685.058C643.33 684.49 642.784 683.877 642.288 683.225C640.975 681.463 639.81 679.597 638.803 677.644C638.29 676.683 637.86 675.647 637.45 674.7C637.263 674.336 637.263 673.785 636.95 673.599C636.484 674.266 635.798 674.849 635.457 675.675C634.865 676.995 634.804 678.615 634.58 680.304C634.454 680.336 634.515 680.304 634.454 680.369C633.456 680.131 633.115 679.114 632.742 678.26C631.808 676.086 631.654 672.591 632.462 670.08C632.681 669.441 633.614 667.416 633.241 666.8C633.045 666.217 632.429 665.885 632.088 665.414C631.651 664.801 631.276 664.146 630.969 663.459C630.222 661.747 629.849 659.848 629.037 658.135C628.663 657.342 628.01 656.511 627.478 655.783C626.886 654.957 626.232 654.379 625.761 653.399C625.607 653.063 625.388 652.508 625.635 652.144C625.701 651.897 625.831 651.799 626.074 651.733C626.484 651.402 627.637 651.836 628.043 652.018C629.195 652.475 630.166 652.904 631.132 653.548C631.57 653.852 632.042 654.43 632.602 654.584H633.255C634.253 654.799 635.378 654.65 636.311 654.92C637.968 655.443 639.461 656.203 640.8 657.029C644.91 659.6 648.267 663.212 650.529 667.5C650.902 668.205 651.065 668.853 651.406 669.586C652.059 671.097 652.866 672.623 653.529 674.084C654.182 675.526 654.812 677 655.75 678.195C656.217 678.834 658.092 679.17 658.932 679.506C659.553 679.781 660.519 680.033 661.079 680.369C662.152 681.008 663.197 681.745 664.205 682.45C664.718 682.8 666.272 683.565 666.365 684.181C663.869 684.116 661.933 684.363 660.314 685.044C659.847 685.226 659.1 685.226 659.035 685.81C659.292 686.052 659.329 686.449 659.548 686.79C659.922 687.401 660.566 688.222 661.163 688.656C661.816 689.16 662.469 689.645 663.155 690.074C664.368 690.807 665.745 691.241 666.935 691.978C667.611 692.408 668.302 692.953 668.988 693.411C669.328 693.639 669.548 694.055 669.986 694.199V694.111C669.772 693.835 669.706 693.439 669.496 693.131C669.184 692.823 668.871 692.547 668.563 692.244Z" fill="#105E86"/>
<g filter="url(#filter3_d_8_5336)">
<rect x="660" y="334" width="150" height="150" rx="5" fill="white"/>
</g>
<path d="M717.117 466H715.211L713.844 462.703H709.961L708.602 466H706.695L711.359 454.789H712.453L717.117 466ZM713.117 460.953L711.906 458.016L710.688 460.953H713.117ZM725.719 466H723.969V461.391C723.969 460.177 723.435 459.57 722.367 459.57C721.732 459.57 721.216 459.81 720.82 460.289C720.643 460.508 720.508 460.732 720.414 460.961C720.326 461.19 720.273 461.393 720.258 461.57V466H718.508V457.82H720.258V458.453C720.872 458.031 721.591 457.82 722.414 457.82C723.414 457.82 724.214 458.138 724.812 458.773C725.417 459.409 725.719 460.258 725.719 461.32V466ZM731.398 469.031C730.701 469.031 730.112 468.927 729.633 468.719C728.773 468.344 728.128 467.771 727.695 467L727.562 466.758L727.352 466.406L728.992 465.789L729.242 466.203C729.68 466.948 730.398 467.32 731.398 467.32C732.023 467.32 732.526 467.135 732.906 466.766C733.292 466.401 733.505 465.904 733.547 465.273C732.823 465.758 732.044 466 731.211 466C730.461 466 729.776 465.818 729.156 465.453C728.536 465.083 728.042 464.589 727.672 463.969C727.302 463.349 727.117 462.664 727.117 461.914C727.117 461.159 727.302 460.471 727.672 459.852C728.042 459.232 728.536 458.74 729.156 458.375C729.776 458.005 730.461 457.82 731.211 457.82C732.049 457.82 732.831 458.065 733.555 458.555V457.82H735.305V465.164C735.305 466.242 734.932 467.167 734.188 467.938C733.411 468.667 732.482 469.031 731.398 469.031ZM731.211 464.211C731.846 464.211 732.388 463.987 732.836 463.539C733.284 463.086 733.508 462.544 733.508 461.914C733.508 461.279 733.284 460.737 732.836 460.289C732.388 459.836 731.846 459.609 731.211 459.609C730.576 459.609 730.034 459.836 729.586 460.289C729.138 460.737 728.914 461.279 728.914 461.914C728.914 462.544 729.138 463.086 729.586 463.539C730.034 463.987 730.576 464.211 731.211 464.211ZM740.43 466H740.18C739.539 466 738.956 465.844 738.43 465.531C737.904 465.219 737.482 464.799 737.164 464.273C736.852 463.742 736.695 463.159 736.695 462.523V457.82H738.445V462.477C738.445 462.966 738.617 463.385 738.961 463.734C739.305 464.078 739.719 464.25 740.203 464.25H740.406C740.891 464.25 741.305 464.078 741.648 463.734C741.992 463.385 742.164 462.966 742.164 462.477V457.82H743.914V462.523C743.914 463.159 743.758 463.742 743.445 464.273C743.133 464.799 742.711 465.219 742.18 465.531C741.654 465.844 741.07 466 740.43 466ZM747.055 466H745.305V454.789H747.055V466ZM756.625 466H754.875V465.266C754.151 465.755 753.37 466 752.531 466C751.781 466 751.096 465.818 750.477 465.453C749.857 465.083 749.362 464.589 748.992 463.969C748.628 463.349 748.445 462.664 748.445 461.914C748.445 461.159 748.628 460.471 748.992 459.852C749.362 459.232 749.857 458.74 750.477 458.375C751.096 458.005 751.781 457.82 752.531 457.82C753.37 457.82 754.151 458.065 754.875 458.555V457.82H756.625V466ZM752.531 464.211C753.167 464.211 753.708 463.987 754.156 463.539C754.609 463.086 754.836 462.544 754.836 461.914C754.836 461.279 754.609 460.737 754.156 460.289C753.708 459.836 753.167 459.609 752.531 459.609C751.901 459.609 751.359 459.836 750.906 460.289C750.458 460.737 750.234 461.279 750.234 461.914C750.234 462.544 750.458 463.086 750.906 463.539C751.359 463.987 751.901 464.211 752.531 464.211ZM759.773 466H758.023V457.82H759.773V458.453C760.388 458.031 761.109 457.82 761.938 457.82C762.104 457.82 762.237 457.823 762.336 457.828L762.672 457.844V459.617C762.536 459.607 762.427 459.599 762.344 459.594C762.26 459.583 762.107 459.576 761.883 459.57C761.253 459.57 760.737 459.81 760.336 460.289C760.159 460.508 760.026 460.732 759.938 460.961C759.849 461.19 759.794 461.393 759.773 461.57V466Z" fill="#182232"/>
<path d="M696.38 372.174L734.674 358.543L774 371.932L767.632 422.549L734.674 440.785L702.232 422.791L696.38 372.174Z" fill="#E23237"/>
<path d="M774 371.932L734.675 358.543V440.785L767.633 422.579L774 371.932Z" fill="#B52E31"/>
<path d="M734.735 368.145L710.873 421.186L719.787 421.035L724.578 409.069H745.984L751.229 421.186L759.749 421.338L734.735 368.145ZM734.796 385.139L742.861 401.981H727.7L734.796 385.139Z" fill="white"/>
<g filter="url(#filter4_d_8_5336)">
<rect x="236" y="623" width="150" height="150" rx="5" fill="white"/>
</g>
<path d="M274.391 744.155H272.484L271.117 740.858H267.234L265.875 744.155H263.969L268.633 732.944H269.727L274.391 744.155ZM270.391 739.108L269.18 736.171L267.961 739.108H270.391ZM287.289 744.155H285.539V739.812C285.539 739.473 285.492 739.145 285.398 738.827C285.305 738.509 285.151 738.246 284.938 738.038C284.724 737.83 284.44 737.726 284.086 737.726C283.799 737.726 283.557 737.788 283.359 737.913C283.01 738.132 282.755 738.47 282.594 738.929C282.484 739.246 282.424 739.515 282.414 739.733C282.409 739.78 282.406 741.254 282.406 744.155H280.656V739.812C280.656 739.473 280.609 739.145 280.516 738.827C280.422 738.509 280.268 738.246 280.055 738.038C279.846 737.83 279.562 737.726 279.203 737.726C278.594 737.726 278.146 738.015 277.859 738.593C277.667 738.983 277.557 739.361 277.531 739.726V744.155H275.781V735.976H277.531V736.46C278.047 736.137 278.62 735.976 279.25 735.976C280.255 735.976 281.06 736.361 281.664 737.132C281.815 736.944 282.003 736.762 282.227 736.585C282.456 736.408 282.727 736.262 283.039 736.147C283.357 736.033 283.721 735.976 284.133 735.976C285.081 735.976 285.844 736.312 286.422 736.983C287 737.65 287.289 738.543 287.289 739.663V744.155ZM296.867 744.155H295.117V743.421C294.393 743.91 293.612 744.155 292.773 744.155C292.023 744.155 291.339 743.973 290.719 743.608C290.099 743.239 289.604 742.744 289.234 742.124C288.87 741.504 288.688 740.819 288.688 740.069C288.688 739.314 288.87 738.627 289.234 738.007C289.604 737.387 290.099 736.895 290.719 736.53C291.339 736.16 292.023 735.976 292.773 735.976C293.612 735.976 294.393 736.22 295.117 736.71V735.976H296.867V744.155ZM292.773 742.366C293.409 742.366 293.951 742.142 294.398 741.694C294.852 741.241 295.078 740.7 295.078 740.069C295.078 739.434 294.852 738.892 294.398 738.444C293.951 737.991 293.409 737.765 292.773 737.765C292.143 737.765 291.602 737.991 291.148 738.444C290.701 738.892 290.477 739.434 290.477 740.069C290.477 740.7 290.701 741.241 291.148 741.694C291.602 742.142 292.143 742.366 292.773 742.366ZM304.094 744.155H298.266V743.101L301.664 737.679H298.266V735.976H304.094V737.03L300.695 742.452H304.094V744.155ZM308.406 744.155C307.651 744.155 306.964 743.973 306.344 743.608C305.729 743.239 305.237 742.744 304.867 742.124C304.497 741.504 304.312 740.819 304.312 740.069C304.312 739.314 304.497 738.627 304.867 738.007C305.237 737.387 305.729 736.895 306.344 736.53C306.964 736.16 307.651 735.976 308.406 735.976C309.156 735.976 309.841 736.16 310.461 736.53C311.081 736.895 311.573 737.387 311.938 738.007C312.307 738.627 312.492 739.314 312.492 740.069C312.492 740.819 312.307 741.504 311.938 742.124C311.573 742.744 311.081 743.239 310.461 743.608C309.841 743.973 309.156 744.155 308.406 744.155ZM308.406 742.366C309.036 742.366 309.576 742.142 310.023 741.694C310.477 741.241 310.703 740.7 310.703 740.069C310.703 739.434 310.477 738.892 310.023 738.444C309.576 737.991 309.036 737.765 308.406 737.765C307.771 737.765 307.227 737.991 306.773 738.444C306.326 738.892 306.102 739.434 306.102 740.069C306.102 740.7 306.326 741.241 306.773 741.694C307.227 742.142 307.771 742.366 308.406 742.366ZM321.102 744.155H319.352V739.546C319.352 738.332 318.818 737.726 317.75 737.726C317.115 737.726 316.599 737.965 316.203 738.444C316.026 738.663 315.891 738.887 315.797 739.116C315.708 739.345 315.656 739.549 315.641 739.726V744.155H313.891V735.976H315.641V736.608C316.255 736.187 316.974 735.976 317.797 735.976C318.797 735.976 319.596 736.293 320.195 736.929C320.799 737.564 321.102 738.413 321.102 739.476V744.155ZM336.664 744.155H335.484L333.375 737.14L331.258 744.155H330.086L326.469 732.944H328.336L330.633 740.171L332.773 732.944H333.969L336.109 740.171L338.406 732.944H340.273L336.664 744.155ZM343.656 744.155C342.901 744.155 342.214 743.973 341.594 743.608C340.974 743.239 340.479 742.744 340.109 742.124C339.745 741.504 339.562 740.819 339.562 740.069C339.562 739.314 339.745 738.627 340.109 738.007C340.479 737.387 340.974 736.895 341.594 736.53C342.214 736.16 342.901 735.976 343.656 735.976C344.661 735.976 345.505 736.301 346.188 736.952C346.87 737.598 347.281 738.478 347.422 739.593C347.432 739.692 347.44 739.814 347.445 739.96C347.451 740.106 347.453 740.434 347.453 740.944H341.523C341.706 741.382 341.987 741.731 342.367 741.991C342.753 742.246 343.182 742.374 343.656 742.374C344.271 742.374 344.812 742.15 345.281 741.702L345.844 741.132L346.914 742.608L346.484 743.022C345.656 743.778 344.714 744.155 343.656 744.155ZM345.516 739.187C345.198 738.239 344.578 737.765 343.656 737.765C343.182 737.765 342.753 737.892 342.367 738.147C341.987 738.403 341.706 738.749 341.523 739.187H345.516ZM352.938 744.155C352.099 744.155 351.318 743.91 350.594 743.421V744.155H348.844V732.944H350.594V736.71C351.318 736.22 352.099 735.976 352.938 735.976C353.693 735.976 354.378 736.16 354.992 736.53C355.612 736.895 356.107 737.387 356.477 738.007C356.846 738.627 357.031 739.314 357.031 740.069C357.031 740.819 356.846 741.504 356.477 742.124C356.107 742.744 355.612 743.239 354.992 743.608C354.378 743.973 353.693 744.155 352.938 744.155ZM352.938 742.366C353.573 742.366 354.115 742.142 354.562 741.694C355.01 741.241 355.234 740.7 355.234 740.069C355.234 739.434 355.01 738.892 354.562 738.444C354.115 737.991 353.573 737.765 352.938 737.765C352.302 737.765 351.76 737.991 351.312 738.444C350.865 738.892 350.641 739.434 350.641 740.069C350.641 740.7 350.865 741.241 351.312 741.694C351.76 742.142 352.302 742.366 352.938 742.366ZM284.195 762.155C283.607 762.155 283.062 762.09 282.562 761.96C282.062 761.83 281.641 761.689 281.297 761.538C280.958 761.382 280.724 761.259 280.594 761.171C280.469 761.077 280.344 760.986 280.219 760.897L280.562 760.054L280.891 759.257L281.477 759.624C281.602 759.707 281.792 759.809 282.047 759.929C282.302 760.049 282.612 760.158 282.977 760.257C283.346 760.356 283.753 760.405 284.195 760.405C285.008 760.405 285.654 760.265 286.133 759.983C286.612 759.702 286.852 759.327 286.852 758.858C286.852 758.608 286.753 758.408 286.555 758.257C286.357 758.101 286.076 757.968 285.711 757.858C285.346 757.744 284.906 757.632 284.391 757.522C283.932 757.429 283.479 757.317 283.031 757.187C281.245 756.687 280.352 755.707 280.352 754.249C280.352 753.233 280.708 752.429 281.422 751.835C282.141 751.241 283.18 750.944 284.539 750.944C285.133 750.944 285.68 751.009 286.18 751.14C286.68 751.27 287.099 751.413 287.438 751.569C287.781 751.72 288.018 751.843 288.148 751.937L288.477 752.163L288.055 753.843L287.398 753.483C287.216 753.379 286.979 753.267 286.688 753.147C286.401 753.028 286.073 752.924 285.703 752.835C285.339 752.741 284.951 752.694 284.539 752.694C283.737 752.694 283.135 752.83 282.734 753.101C282.333 753.371 282.133 753.752 282.133 754.241C282.133 754.559 282.24 754.814 282.453 755.007C282.672 755.2 282.982 755.361 283.383 755.491C283.789 755.616 284.273 755.739 284.836 755.858C285.268 755.952 285.695 756.059 286.117 756.179C286.539 756.293 286.93 756.444 287.289 756.632C288.19 757.137 288.641 757.874 288.641 758.843C288.641 759.416 288.513 759.91 288.258 760.327C288.008 760.744 287.669 761.088 287.242 761.358C286.82 761.629 286.344 761.83 285.812 761.96C285.286 762.09 284.747 762.155 284.195 762.155ZM294 762.155C293.245 762.155 292.557 761.973 291.938 761.608C291.318 761.239 290.823 760.744 290.453 760.124C290.089 759.504 289.906 758.819 289.906 758.069C289.906 757.314 290.089 756.627 290.453 756.007C290.823 755.387 291.318 754.895 291.938 754.53C292.557 754.16 293.245 753.976 294 753.976C295.005 753.976 295.849 754.301 296.531 754.952C297.214 755.598 297.625 756.478 297.766 757.593C297.776 757.692 297.784 757.814 297.789 757.96C297.794 758.106 297.797 758.434 297.797 758.944H291.867C292.049 759.382 292.331 759.731 292.711 759.991C293.096 760.246 293.526 760.374 294 760.374C294.615 760.374 295.156 760.15 295.625 759.702L296.188 759.132L297.258 760.608L296.828 761.022C296 761.778 295.057 762.155 294 762.155ZM295.859 757.187C295.542 756.239 294.922 755.765 294 755.765C293.526 755.765 293.096 755.892 292.711 756.147C292.331 756.403 292.049 756.749 291.867 757.187H295.859ZM300.938 762.155H299.188V753.976H300.938V754.608C301.552 754.187 302.273 753.976 303.102 753.976C303.268 753.976 303.401 753.978 303.5 753.983L303.836 753.999V755.772C303.701 755.762 303.591 755.754 303.508 755.749C303.424 755.739 303.271 755.731 303.047 755.726C302.417 755.726 301.901 755.965 301.5 756.444C301.323 756.663 301.19 756.887 301.102 757.116C301.013 757.345 300.958 757.549 300.938 757.726V762.155ZM309.625 762.155H308.516L305.109 753.976H306.992L309.07 758.983L311.141 753.976H313.023L309.625 762.155ZM316.18 762.155H314.43V753.976H316.18V762.155ZM315.305 753.319C315.018 753.319 314.773 753.218 314.57 753.015C314.367 752.812 314.266 752.567 314.266 752.28C314.266 751.999 314.367 751.757 314.57 751.554C314.773 751.351 315.018 751.249 315.305 751.249C315.591 751.249 315.833 751.351 316.031 751.554C316.234 751.757 316.336 751.999 316.336 752.28C316.336 752.567 316.234 752.812 316.031 753.015C315.833 753.218 315.591 753.319 315.305 753.319ZM321.664 762.155C320.914 762.155 320.229 761.973 319.609 761.608C318.99 761.239 318.495 760.744 318.125 760.124C317.76 759.504 317.578 758.819 317.578 758.069C317.578 757.314 317.76 756.627 318.125 756.007C318.495 755.387 318.99 754.895 319.609 754.53C320.229 754.16 320.914 753.976 321.664 753.976C322.779 753.976 323.755 754.384 324.594 755.202L325.008 755.632L323.891 757.069L323.344 756.491C322.87 756.007 322.31 755.765 321.664 755.765C321.029 755.765 320.484 755.991 320.031 756.444C319.583 756.892 319.359 757.434 319.359 758.069C319.359 758.705 319.583 759.249 320.031 759.702C320.484 760.15 321.029 760.374 321.664 760.374C322.32 760.374 322.893 760.119 323.383 759.608L323.938 758.991L325.039 760.46L324.641 760.874C323.797 761.728 322.805 762.155 321.664 762.155ZM329.594 762.155C328.839 762.155 328.151 761.973 327.531 761.608C326.911 761.239 326.417 760.744 326.047 760.124C325.682 759.504 325.5 758.819 325.5 758.069C325.5 757.314 325.682 756.627 326.047 756.007C326.417 755.387 326.911 754.895 327.531 754.53C328.151 754.16 328.839 753.976 329.594 753.976C330.599 753.976 331.443 754.301 332.125 754.952C332.807 755.598 333.219 756.478 333.359 757.593C333.37 757.692 333.378 757.814 333.383 757.96C333.388 758.106 333.391 758.434 333.391 758.944H327.461C327.643 759.382 327.924 759.731 328.305 759.991C328.69 760.246 329.12 760.374 329.594 760.374C330.208 760.374 330.75 760.15 331.219 759.702L331.781 759.132L332.852 760.608L332.422 761.022C331.594 761.778 330.651 762.155 329.594 762.155ZM331.453 757.187C331.135 756.239 330.516 755.765 329.594 755.765C329.12 755.765 328.69 755.892 328.305 756.147C327.924 756.403 327.643 756.749 327.461 757.187H331.453ZM337.469 762.155C337.042 762.155 336.648 762.111 336.289 762.022C335.93 761.929 335.625 761.825 335.375 761.71C335.13 761.595 334.958 761.502 334.859 761.429L334.422 761.124L335.078 759.507L335.75 759.929C335.833 759.981 335.956 760.046 336.117 760.124C336.279 760.202 336.474 760.272 336.703 760.335C336.932 760.392 337.188 760.421 337.469 760.421C337.661 760.421 337.878 760.4 338.117 760.358C338.357 760.312 338.565 760.231 338.742 760.116C338.919 760.002 339.008 759.843 339.008 759.64C339.008 759.499 338.891 759.384 338.656 759.296C338.422 759.202 338.052 759.101 337.547 758.991C337.234 758.929 336.917 758.851 336.594 758.757C335.245 758.377 334.57 757.624 334.57 756.499C334.57 755.702 334.849 755.082 335.406 754.64C335.969 754.197 336.734 753.976 337.703 753.976C338.13 753.976 338.523 754.022 338.883 754.116C339.247 754.205 339.552 754.306 339.797 754.421C340.047 754.535 340.221 754.629 340.32 754.702L340.695 754.96L340.281 756.632L339.523 756.21C338.945 755.877 338.339 755.71 337.703 755.71C336.786 755.71 336.328 755.97 336.328 756.491C336.328 756.694 336.451 756.856 336.695 756.976C336.945 757.09 337.367 757.21 337.961 757.335C338.268 757.397 338.57 757.47 338.867 757.554C340.138 757.908 340.773 758.601 340.773 759.632C340.773 760.137 340.63 760.58 340.344 760.96C340.062 761.34 339.672 761.634 339.172 761.843C338.677 762.051 338.109 762.155 337.469 762.155Z" fill="#182232"/>
<path d="M291.361 684.245C291.339 685.126 291.447 686.005 291.684 686.853C291.944 687.579 292.258 688.284 292.622 688.964C292.752 689.165 292.823 689.398 292.827 689.638C292.827 689.931 292.651 690.224 292.27 690.517L290.424 691.747C290.201 691.908 289.937 691.999 289.662 692.011C289.329 691.988 289.015 691.842 288.783 691.601C288.388 691.177 288.035 690.715 287.728 690.224C287.435 689.726 287.142 689.168 286.82 688.495C284.534 691.19 281.663 692.538 278.205 692.538C275.743 692.538 273.781 691.834 272.345 690.427C270.909 689.02 270.177 687.146 270.177 684.802C270.177 682.312 271.056 680.29 272.843 678.766C274.631 677.242 277.004 676.481 280.022 676.481C281.061 676.489 282.099 676.567 283.128 676.715C284.212 676.862 285.325 677.096 286.497 677.36V675.221C286.497 672.993 286.028 671.441 285.12 670.532C284.182 669.624 282.6 669.185 280.344 669.185C279.278 669.185 278.215 669.313 277.18 669.566C276.102 669.822 275.045 670.155 274.015 670.562C273.682 670.711 273.339 670.838 272.989 670.943C272.838 670.993 272.68 671.022 272.52 671.031C272.11 671.031 271.905 670.738 271.905 670.122V668.687C271.905 668.218 271.964 667.866 272.11 667.661C272.331 667.394 272.613 667.183 272.931 667.046C274.106 666.464 275.345 666.022 276.623 665.727C278.116 665.344 279.653 665.157 281.194 665.17C284.681 665.17 287.23 665.962 288.871 667.544C290.482 669.126 291.303 671.529 291.303 674.752V684.245H291.361ZM279.465 688.699C280.493 688.688 281.512 688.51 282.483 688.172C283.559 687.8 284.518 687.153 285.267 686.296C285.739 685.756 286.08 685.114 286.263 684.42C286.464 683.585 286.563 682.729 286.556 681.871V680.641C285.668 680.425 284.768 680.259 283.861 680.143C282.947 680.028 282.027 679.969 281.106 679.968C279.143 679.968 277.707 680.349 276.74 681.141C275.773 681.932 275.304 683.045 275.304 684.51C275.304 685.887 275.656 686.913 276.389 687.616C277.092 688.349 278.117 688.7 279.465 688.7V688.699ZM302.994 691.864C302.467 691.864 302.115 691.776 301.881 691.571C301.646 691.395 301.441 690.985 301.265 690.428L294.379 667.778C294.246 667.399 294.157 667.006 294.115 666.606C294.115 666.137 294.35 665.873 294.819 665.873H297.69C298.247 665.873 298.628 665.961 298.833 666.166C299.068 666.342 299.243 666.752 299.419 667.309L304.342 686.706L308.913 667.309C309.059 666.723 309.235 666.343 309.47 666.167C309.704 665.991 310.114 665.874 310.642 665.874H312.987C313.544 665.874 313.925 665.962 314.159 666.167C314.394 666.343 314.599 666.753 314.716 667.309L319.346 686.941L324.413 667.309C324.589 666.723 324.794 666.343 324.999 666.167C325.234 665.991 325.615 665.874 326.142 665.874H328.867C329.336 665.874 329.6 666.108 329.6 666.606C329.593 666.764 329.573 666.921 329.541 667.075C329.495 667.325 329.426 667.57 329.336 667.808L322.274 690.458C322.099 691.044 321.893 691.425 321.659 691.6C321.328 691.812 320.938 691.915 320.545 691.893H318.025C317.469 691.893 317.087 691.805 316.853 691.6C316.618 691.395 316.413 691.014 316.296 690.428L311.755 671.529L307.242 690.399C307.096 690.985 306.92 691.366 306.686 691.571C306.451 691.777 306.041 691.864 305.513 691.864L302.994 691.864ZM340.646 692.655C339.126 692.656 337.612 692.479 336.133 692.127C334.668 691.776 333.526 691.395 332.764 690.955C332.295 690.691 331.973 690.398 331.856 690.134C331.742 689.876 331.682 689.596 331.68 689.314V687.82C331.68 687.205 331.914 686.912 332.354 686.912C332.533 686.912 332.711 686.942 332.881 687C333.057 687.058 333.321 687.176 333.614 687.293C334.649 687.748 335.729 688.092 336.837 688.318C337.985 688.551 339.153 688.669 340.324 688.67C342.17 688.67 343.606 688.348 344.602 687.703C345.079 687.415 345.472 687.006 345.739 686.517C346.007 686.028 346.14 685.477 346.126 684.92C346.136 684.542 346.072 684.167 345.936 683.815C345.8 683.463 345.596 683.141 345.335 682.868C344.807 682.312 343.811 681.813 342.376 681.344L338.126 680.026C335.987 679.352 334.405 678.356 333.438 677.037C332.495 675.821 331.98 674.327 331.973 672.788C331.949 671.654 332.222 670.533 332.764 669.536C333.287 668.593 334.007 667.774 334.874 667.133C335.788 666.442 336.821 665.925 337.922 665.609C339.121 665.264 340.365 665.096 341.613 665.112C342.269 665.107 342.925 665.146 343.576 665.229C344.25 665.317 344.866 665.434 345.48 665.551C346.067 665.698 346.623 665.844 347.151 666.02C347.578 666.153 347.991 666.329 348.381 666.548C348.726 666.722 349.027 666.972 349.26 667.28C349.451 667.565 349.543 667.905 349.524 668.247V669.624C349.524 670.24 349.29 670.562 348.85 670.562C348.616 670.562 348.235 670.445 347.737 670.211C346.066 669.449 344.191 669.068 342.111 669.068C340.44 669.068 339.122 669.331 338.214 669.888C337.305 670.446 336.837 671.295 336.837 672.496C336.829 672.885 336.903 673.272 337.054 673.63C337.206 673.989 337.431 674.311 337.716 674.577C338.302 675.133 339.386 675.69 340.939 676.188L345.1 677.506C347.21 678.18 348.733 679.118 349.641 680.319C350.536 681.498 351.01 682.942 350.989 684.421C351.004 685.598 350.743 686.762 350.227 687.82C349.707 688.823 348.978 689.702 348.088 690.399C347.121 691.152 346.016 691.709 344.836 692.04C343.479 692.457 342.066 692.665 340.646 692.655L340.646 692.655Z" fill="#252F3E"/>
<path d="M346.184 706.895C336.544 714.015 322.538 717.795 310.495 717.795C293.617 717.795 278.41 711.554 266.924 701.181C266.016 700.361 266.837 699.248 267.921 699.892C280.344 707.1 295.669 711.465 311.521 711.465C322.216 711.465 333.965 709.238 344.777 704.667C346.389 703.935 347.766 705.723 346.184 706.895L346.184 706.895Z" fill="#FF9900"/>
<path d="M350.198 702.324C348.968 700.742 342.052 701.562 338.917 701.943C337.979 702.06 337.833 701.24 338.683 700.625C344.191 696.757 353.245 697.87 354.3 699.16C355.355 700.478 354.007 709.532 348.85 713.869C348.059 714.543 347.297 714.191 347.649 713.312C348.821 710.411 351.429 703.877 350.198 702.324Z" fill="#FF9900"/>
<path d="M255 545.068H613.667V544.888H255V545.068Z" fill="#E7E8E5"/>
<path d="M373.068 556.133H349.309V555.954H373.068V556.133Z" fill="#E7E8E5"/>
<path d="M434.442 554.186H440.679V554.007H434.442V554.186Z" fill="#E7E8E5"/>
<path d="M306.398 551.158H292.631V550.978H306.398V551.158Z" fill="#E7E8E5"/>
<path d="M553.251 549.952H534.542V549.773H553.251V549.952Z" fill="#E7E8E5"/>
<path d="M528.155 549.952H511.338V549.773H528.155V549.952Z" fill="#E7E8E5"/>
<path d="M577.729 558.56H510.532V558.38H577.729V558.56Z" fill="#E7E8E5"/>
<path d="M286.502 310.179C284.343 310.179 282.587 311.936 282.587 314.094V508.801C282.587 510.96 284.343 512.716 286.502 512.716H425.018C427.177 512.716 428.933 510.96 428.933 508.801V314.094C428.933 311.936 427.177 310.179 425.018 310.179H286.502ZM425.018 512.896H286.502C284.244 512.896 282.407 511.059 282.407 508.801V314.094C282.407 311.837 284.244 310 286.502 310H425.018C427.275 310 429.112 311.837 429.112 314.094V508.801C429.112 511.059 427.275 512.896 425.018 512.896Z" fill="#E7E8E5"/>
<path d="M441.658 310.179C439.5 310.179 437.744 311.936 437.744 314.094V508.801C437.744 510.96 439.5 512.716 441.658 512.716H580.174C582.333 512.716 584.09 510.96 584.09 508.801V314.094C584.09 311.936 582.333 310.179 580.174 310.179H441.658ZM580.174 512.896H441.658C439.401 512.896 437.564 511.059 437.564 508.801V314.094C437.564 311.837 439.401 310 441.658 310H580.174C582.432 310 584.269 311.837 584.269 314.094V508.801C584.269 511.059 582.432 512.896 580.174 512.896Z" fill="#E7E8E5"/>
<path d="M483.546 542.753H500.442V468.84H483.546V542.753Z" fill="#EDEDEB"/>
<path d="M422.815 544.888H497.197V542.753H422.815V544.888Z" fill="#EDEDEB"/>
<path d="M419.572 542.753H483.546V468.84H419.572V542.753Z" fill="#F3F2F1"/>
<path d="M426.215 504.146H476.904V472.987H426.215V504.146Z" fill="#EDEDEB"/>
<path d="M426.215 538.604H476.904V507.445H426.215V538.604Z" fill="#EDEDEB"/>
<path d="M464.698 478.415H438.419C434.977 478.415 432.188 475.624 432.188 472.183H470.929C470.929 475.624 468.14 478.415 464.698 478.415Z" fill="#F3F2F1"/>
<path d="M464.698 512.873H438.419C434.977 512.873 432.188 510.083 432.188 506.641H470.929C470.929 510.083 468.14 512.873 464.698 512.873Z" fill="#F3F2F1"/>
<path d="M552.535 542.753H569.431V468.839H552.535V542.753Z" fill="#EDEDEB"/>
<path d="M491.806 542.753H566.187V544.888H491.806V542.753Z" fill="#EDEDEB"/>
<path d="M488.562 542.753H552.536V468.84H488.562V542.753Z" fill="#F3F2F1"/>
<path d="M495.204 504.146H545.893V472.987H495.204V504.146Z" fill="#EDEDEB"/>
<path d="M545.893 538.604H495.204V507.445H545.893V538.604Z" fill="#EDEDEB"/>
<path d="M533.688 478.415H507.409C503.967 478.415 501.178 475.624 501.178 472.183H539.919C539.919 475.624 537.13 478.415 533.688 478.415Z" fill="#F3F2F1"/>
<path d="M533.688 512.873H507.409C503.967 512.873 501.178 510.083 501.178 506.641H539.919C539.919 510.083 537.13 512.873 533.688 512.873Z" fill="#F3F2F1"/>
<path d="M334.926 369.532H363.86V336.087H334.926V369.532Z" fill="#E2E2E0"/>
<path d="M331.626 369.532H363.088V336.087H331.626V369.532Z" fill="#F3F2F1"/>
<path d="M360.453 366.897V338.722H334.263V366.897H360.453Z" fill="white"/>
<path d="M354.105 360.068V359.046C354.105 351.593 348.063 345.552 340.61 345.552V346.574C340.61 354.026 346.652 360.068 354.105 360.068Z" fill="#F3F2F1"/>
<path d="M460.612 432.666H569.431V330.879H460.612V432.666Z" fill="#E2E2E0"/>
<path d="M457.239 432.666H567.855V330.879H457.239V432.666Z" fill="#EDEDEB"/>
<path d="M460.612 432.666H569.431V436.292H460.612V432.666Z" fill="#E2E2E0"/>
<path d="M451.619 432.666H562.235V436.292H451.619V432.666Z" fill="#EDEDEB"/>
<path d="M461.961 427.202H563.132V336.343H461.961V427.202Z" fill="#FAFAF9"/>
<path d="M534.444 427.2L517.596 336.341H489.833L506.682 427.2H534.444Z" fill="white"/>
<path d="M560.947 396.375C561.133 396.375 561.284 396.201 561.284 395.985V339.898C561.284 339.683 561.133 339.508 560.947 339.508C560.76 339.508 560.609 339.683 560.609 339.898V395.985C560.609 396.201 560.76 396.375 560.947 396.375Z" fill="#EDEDEB"/>
<path d="M500.717 427.2L483.869 336.341H473.045L489.894 427.2H500.717Z" fill="white"/>
<path d="M461.961 427.202H462.561V336.343H461.961V427.202Z" fill="#E2E2E0"/>
<path d="M564.941 343.333H563.133V338.467H565.376L564.941 343.333Z" fill="#E8E9E6"/>
<path d="M460.922 338.481C460.912 338.476 460.904 338.471 460.895 338.467H460.969L460.922 338.481Z" fill="#E8E9E6"/>
<path d="M563.133 343.333H561.284V339.898C561.284 339.683 561.133 339.508 560.946 339.508C560.76 339.508 560.609 339.683 560.609 339.898V343.333H537.423L536.732 342.033H518.651L517.989 338.467H563.133V343.333ZM491.129 343.333H485.165L484.263 338.467H490.227L491.129 343.333ZM474.341 343.333H471.913L467.046 338.467H473.439L474.341 343.333Z" fill="#EFEFED"/>
<path d="M517.281 343.333H491.129L490.227 338.467H517.99L518.651 342.033H517.972L517.281 343.333Z" fill="#F3F2F1"/>
<path d="M561.284 343.333H560.609V339.898C560.609 339.683 560.76 339.508 560.947 339.508C561.133 339.508 561.284 339.683 561.284 339.898V343.333Z" fill="#E8E9E6"/>
<path d="M485.165 343.333H474.341L473.438 338.467H484.262L485.165 343.333Z" fill="#F3F2F1"/>
<path d="M564.941 348.932H563.133V344.066H565.376L564.941 348.932Z" fill="#E8E9E6"/>
<path d="M563.133 348.932H561.284V344.066H563.133V348.932ZM560.609 348.932H542.157C541.456 348.68 540.746 348.446 540.027 348.23L540.026 348.229L537.812 344.066H560.609V348.932ZM492.168 348.932H486.203L485.301 344.066H491.265L492.168 348.932ZM475.38 348.932H474.107L474.899 346.342L475.38 348.932ZM474.894 346.314L472.646 344.066H474.478L474.894 346.314Z" fill="#EFEFED"/>
<path d="M512.544 348.932H492.168L491.265 344.066H516.891L514.677 348.231C513.958 348.446 513.247 348.68 512.544 348.932Z" fill="#F3F2F1"/>
<path d="M560.609 348.932H561.284V344.065H560.609V348.932Z" fill="#E8E9E6"/>
<path d="M486.203 348.932H475.38L474.899 346.342L474.904 346.325L474.894 346.314L474.478 344.066H485.301L486.203 348.932Z" fill="#F3F2F1"/>
<path d="M564.941 354.531H563.133V349.664H565.376L564.941 354.531Z" fill="#E8E9E6"/>
<path d="M457.239 354.531H456.122L456.548 349.758C456.782 349.909 457.012 350.064 457.239 350.225V354.531Z" fill="#F3F2F1"/>
<path d="M461.596 354.531H457.239V350.225C458.917 351.411 460.391 352.867 461.596 354.531Z" fill="#E8E9E6"/>
<path d="M563.133 354.531H561.284V349.664H563.133V354.531ZM560.609 354.531H559.756L554.889 349.664H560.609V354.531ZM493.206 354.531H487.242L486.339 349.664H492.303L493.206 354.531ZM476.418 354.531H475.068C474.607 353.324 474.072 352.154 473.467 351.026L473.883 349.664H475.516L476.418 354.531ZM547.983 351.529L547.983 351.529C546.71 350.842 545.4 350.22 544.055 349.664H554.08L547.983 351.529Z" fill="#EFEFED"/>
<path d="M494.948 354.531H493.205L492.303 349.664H499.815L494.948 354.531ZM506.72 351.529H506.719L500.624 349.664H510.646C509.304 350.22 507.993 350.843 506.72 351.529Z" fill="#F3F2F1"/>
<path d="M560.609 354.531H561.284V349.665H560.609V354.531Z" fill="#E8E9E6"/>
<path d="M487.242 354.531H476.418L475.516 349.664H486.339L487.242 354.531Z" fill="#F3F2F1"/>
<path d="M564.975 359.751L563.133 357.908V355.263H565.376L564.975 359.751Z" fill="#E8E9E6"/>
<path d="M457.239 360.13H456.122L456.557 355.263H457.239V360.13Z" fill="#F3F2F1"/>
<path d="M457.239 360.13H461.961V355.263H457.239V360.13Z" fill="#E8E9E6"/>
<path d="M543.462 360.13H522.007L521.353 356.606C523.3 356.26 525.305 356.079 527.35 356.079C533.179 356.079 538.666 357.546 543.462 360.13ZM489.35 360.13H488.28L487.378 355.263H493.342L493.479 356.001L489.35 360.13ZM464.361 360.13H462.562V356.003C463.318 357.288 463.927 358.672 464.361 360.13ZM563.133 357.908L561.285 356.059V355.263H563.133V357.908ZM476.912 357.196L475.773 356.589C475.637 356.143 475.492 355.701 475.338 355.263H476.554L476.912 357.196ZM560.61 355.385L560.488 355.263H560.61V355.385Z" fill="#EFEFED"/>
<path d="M522.006 360.13H511.24C514.352 358.452 517.755 357.247 521.353 356.606L522.006 360.13ZM493.478 356.001L493.341 355.263H494.216L493.478 356.001Z" fill="#F3F2F1"/>
<path d="M561.284 356.059L560.609 355.385V355.263H561.284V356.059Z" fill="#E8E9E6"/>
<path d="M488.28 360.13H480.112V358.896L476.912 357.196L476.554 355.263H487.378L488.28 360.13Z" fill="#F3F2F1"/>
<path d="M462.561 360.13H461.961V355.263H462.1C462.259 355.506 462.412 355.753 462.561 356.003V360.13Z" fill="#E2E2E0"/>
<path d="M457.239 365.729H456.122L456.557 360.862H457.239V365.729Z" fill="#F3F2F1"/>
<path d="M457.239 365.729H461.961V360.862H457.239V365.729Z" fill="#E8E9E6"/>
<path d="M551.084 365.729H543.525C539.189 362.84 534.044 361.078 528.505 360.862H544.752C547.053 362.234 549.177 363.871 551.084 365.729ZM534.387 365.729H523.045L522.932 365.122C524.368 364.868 525.845 364.736 527.352 364.736C529.792 364.736 532.153 365.083 534.387 365.729ZM465.132 365.729H462.562V360.862H464.562C464.936 362.333 465.134 363.873 465.134 365.46C465.134 365.55 465.133 365.639 465.132 365.729ZM522.222 361.29L522.143 360.862H526.199C524.847 360.914 523.521 361.059 522.222 361.29ZM488.447 361.032L488.416 360.862H488.618L488.447 361.032Z" fill="#EFEFED"/>
<path d="M523.045 365.729H520.317C521.171 365.482 522.044 365.279 522.932 365.122L523.045 365.729ZM511.179 365.729H503.621C505.528 363.871 507.652 362.234 509.952 360.862H522.143L522.222 361.29C518.199 362.005 514.457 363.545 511.179 365.729Z" fill="#F3F2F1"/>
<path d="M487.654 365.729H480.112V360.862H488.415L488.447 361.032L486.74 362.74L487.654 365.729Z" fill="#F3F2F1"/>
<path d="M461.961 365.729H462.561V360.862H461.961V365.729Z" fill="#E2E2E0"/>
<path d="M457.239 371.328H456.122L456.557 366.461H457.239V371.328Z" fill="#F3F2F1"/>
<path d="M457.239 371.328H461.961V366.461H457.239V371.328Z" fill="#E8E9E6"/>
<path d="M555.723 371.328H549.775C548.246 369.504 546.498 367.867 544.574 366.461H551.814C553.26 367.958 554.569 369.586 555.723 371.328ZM544.387 371.328H524.084L523.181 366.461H536.546C539.459 367.598 542.111 369.259 544.387 371.328ZM464.191 371.328H462.562V366.461H465.107C465.018 368.153 464.703 369.785 464.191 371.328Z" fill="#EFEFED"/>
<path d="M524.083 371.328H510.317C512.593 369.259 515.245 367.598 518.158 366.461H523.18L524.083 371.328ZM504.929 371.328H498.983C500.137 369.586 501.446 367.958 502.891 366.461H510.129C508.205 367.867 506.458 369.504 504.929 371.328Z" fill="#F3F2F1"/>
<path d="M487.846 371.328H480.112V366.461H487.877L488.792 369.45L488.791 369.452C488.461 370.069 488.146 370.694 487.846 371.328Z" fill="#F3F2F1"/>
<path d="M461.961 371.328H462.561V366.461H461.961V371.328Z" fill="#E2E2E0"/>
<path d="M457.239 376.927H456.122L456.557 372.06H457.239V376.927Z" fill="#F3F2F1"/>
<path d="M461.192 376.927H457.239V372.06H461.961V375.866C461.717 376.229 461.46 376.583 461.192 376.927Z" fill="#E8E9E6"/>
<path d="M558.721 376.927H553.468C552.595 375.199 551.554 373.57 550.369 372.06H556.195C557.162 373.603 558.008 375.229 558.721 376.927ZM549.013 376.927H525.122L524.219 372.06H545.16C546.633 373.516 547.929 375.148 549.013 376.927ZM497.359 376.927H495.987C496.29 376.206 496.616 375.499 496.966 374.805L497.359 376.927ZM480.572 376.927H474.857C475.199 376.079 475.505 375.213 475.773 374.33L479.702 372.241L480.572 376.927ZM462.562 374.916V372.06H463.932C463.555 373.055 463.095 374.011 462.562 374.916Z" fill="#EFEFED"/>
<path d="M525.121 376.927H505.691C506.775 375.148 508.071 373.516 509.545 372.06H524.218L525.121 376.927ZM501.236 376.927H497.358L496.965 374.805C497.439 373.864 497.955 372.948 498.512 372.06H504.335C503.15 373.57 502.11 375.199 501.236 376.927Z" fill="#F3F2F1"/>
<path d="M485.648 376.927H480.572L479.702 372.241L480.044 372.06H487.507C486.795 373.636 486.173 375.259 485.648 376.927Z" fill="#F3F2F1"/>
<path d="M461.961 375.866V372.06H462.561V374.916C462.37 375.239 462.17 375.557 461.961 375.866Z" fill="#E2E2E0"/>
<path d="M456.227 381.363L456.557 377.658H457.239V380.696C456.909 380.929 456.571 381.152 456.227 381.363Z" fill="#F3F2F1"/>
<path d="M457.239 380.696V377.658H460.59C459.601 378.801 458.476 379.821 457.239 380.696Z" fill="#E8E9E6"/>
<path d="M560.518 382.526H555.609C555.157 380.839 554.558 379.211 553.825 377.658H559.018C559.635 379.227 560.138 380.853 560.518 382.526ZM551.552 382.526H526.159L525.257 377.658H549.442C550.307 379.189 551.018 380.82 551.552 382.526ZM498.397 382.526H494.191C494.571 380.853 495.074 379.227 495.69 377.658H497.495L498.397 382.526ZM479.297 382.526H474.272L473.467 379.894C473.857 379.166 474.219 378.42 474.55 377.658H480.707L481.095 379.752L479.297 380.708V382.526Z" fill="#EFEFED"/>
<path d="M526.159 382.526H503.152C503.686 380.82 504.397 379.189 505.261 377.658H525.256L526.159 382.526ZM499.095 382.526H498.397L497.494 377.658H500.878C500.146 379.211 499.546 380.839 499.095 382.526Z" fill="#F3F2F1"/>
<path d="M481.095 379.752L480.707 377.658H485.034L481.095 379.752Z" fill="#F3F2F1"/>
<path d="M561.306 388.124H561.284V387.766C561.292 387.884 561.299 388.005 561.306 388.124ZM560.609 388.124H556.534C556.424 386.461 556.173 384.834 555.794 383.257H560.609V388.124Z" fill="#EFEFED"/>
<path d="M561.284 388.124H560.609V383.257H560.675C560.976 384.728 561.18 386.233 561.284 387.766V388.124Z" fill="#E8E9E6"/>
<path d="M552.628 388.124H527.197L526.295 383.257H551.768C552.207 384.824 552.499 386.452 552.628 388.124Z" fill="#EFEFED"/>
<path d="M527.198 388.124H502.076C502.205 386.452 502.497 384.824 502.936 383.257H526.295L527.198 388.124Z" fill="#F3F2F1"/>
<path d="M498.169 388.124H493.471L493.419 387.847C493.521 386.286 493.727 384.754 494.032 383.257H498.532L498.704 384.18C498.438 385.467 498.258 386.783 498.169 388.124Z" fill="#EFEFED"/>
<path d="M498.704 384.18L498.532 383.257H498.909C498.836 383.563 498.767 383.871 498.704 384.18Z" fill="#F3F2F1"/>
<path d="M493.47 388.124H493.402C493.407 388.032 493.413 387.938 493.419 387.847L493.47 388.124Z" fill="#F3F2F1"/>
<path d="M479.297 388.124H471.375L474.904 384.595L474.495 383.257H479.297V388.124Z" fill="#EFEFED"/>
<path d="M314.41 424.097H336.985V398.192H314.41V424.097Z" fill="#E2E2E0"/>
<path d="M311.854 424.097H336.223V398.192H311.854V424.097Z" fill="#F3F2F1"/>
<path d="M334.182 422.056V400.234H313.896V422.056H334.182Z" fill="white"/>
<path d="M329.265 411.541V410.749C329.265 407.862 326.926 405.523 324.039 405.523C321.153 405.523 318.813 407.862 318.813 410.749V411.541C318.813 414.427 321.153 416.767 324.039 416.767C326.926 416.767 329.265 414.427 329.265 411.541Z" fill="#F3F2F1"/>
<path d="M370.72 414.819H401.712V379.112H370.72V414.819Z" fill="#E2E2E0"/>
<path d="M367.198 414.819H400.787V379.112H367.198V414.819Z" fill="#F3F2F1"/>
<path d="M397.972 412.005V381.926H370.012V412.005H397.972Z" fill="white"/>
<path d="M385.162 391.388L390.469 400.581C390.989 401.482 390.339 402.607 389.3 402.607H378.685C377.645 402.607 376.995 401.482 377.515 400.581L382.822 391.388C383.342 390.488 384.642 390.488 385.162 391.388Z" fill="#F3F2F1"/>
<path d="M319.577 544.888H336.611V491.173H319.577V544.888Z" fill="#E2E2E0"/>
<path d="M322.812 544.888H319.577V535.685H326.205L322.812 544.888Z" fill="#EDEDEB"/>
<path d="M383.238 544.888H400.272V491.173H383.238V544.888Z" fill="#E2E2E0"/>
<path d="M319.577 539.241H386.062V491.173H319.577V539.241Z" fill="#EDEDEB"/>
<path d="M322.087 494.186V527.736H351.734V494.186H322.087Z" fill="#E2E2E0"/>
<path d="M353.905 494.186V527.736H383.552V494.186H353.905Z" fill="#E2E2E0"/>
<path d="M365.796 496.76H371.661C374.209 496.76 376.645 495.713 378.397 493.863H359.061C360.812 495.713 363.248 496.76 365.796 496.76Z" fill="#EDEDEB"/>
<path d="M333.678 496.76H339.543C342.091 496.76 344.526 495.713 346.279 493.863H326.942C328.695 495.713 331.13 496.76 333.678 496.76Z" fill="#EDEDEB"/>
<path d="M382.827 544.888H386.062V535.685H379.435L382.827 544.888Z" fill="#EDEDEB"/>
<path d="M365.293 483.976C365.293 486.013 366.944 487.664 368.981 487.664C371.019 487.664 372.671 486.013 372.671 483.976C372.671 481.939 371.019 480.287 368.981 480.287C366.944 480.287 365.293 481.939 365.293 483.976Z" fill="#DADBD8"/>
<path d="M366.967 481.579C366.967 483.616 368.619 485.268 370.656 485.268C372.693 485.268 374.345 483.616 374.345 481.579C374.345 479.542 372.693 477.89 370.656 477.89C368.619 477.89 366.967 479.542 366.967 481.579Z" fill="#DADBD8"/>
<path d="M346.78 484.568C346.78 486.606 348.432 488.257 350.469 488.257C352.506 488.257 354.158 486.606 354.158 484.568C354.158 482.53 352.506 480.879 350.469 480.879C348.432 480.879 346.78 482.53 346.78 484.568Z" fill="#DADBD8"/>
<path d="M371.07 482.181C371.07 484.679 373.095 486.704 375.593 486.704C378.091 486.704 380.117 484.679 380.117 482.181C380.117 479.682 378.091 477.657 375.593 477.657C373.095 477.657 371.07 479.682 371.07 482.181Z" fill="#DADBD8"/>
<path d="M362.101 478.013C362.101 480.512 364.126 482.537 366.623 482.537C369.122 482.537 371.147 480.512 371.147 478.013C371.147 475.515 369.122 473.49 366.623 473.49C364.126 473.49 362.101 475.515 362.101 478.013Z" fill="#DADBD8"/>
<path d="M354.928 479.169C354.928 481.667 356.953 483.692 359.451 483.692C361.949 483.692 363.974 481.667 363.974 479.169C363.974 476.671 361.949 474.646 359.451 474.646C356.953 474.646 354.928 476.671 354.928 479.169Z" fill="#DADBD8"/>
<path d="M357.961 482.819C357.961 485.212 359.9 487.151 362.292 487.151C364.685 487.151 366.623 485.212 366.623 482.819C366.623 480.427 364.685 478.488 362.292 478.488C359.9 478.488 357.961 480.427 357.961 482.819Z" fill="#DADBD8"/>
<path d="M350.47 482.537C350.47 485.103 352.55 487.183 355.117 487.183C357.683 487.183 359.763 485.103 359.763 482.537C359.763 479.97 357.683 477.89 355.117 477.89C352.55 477.89 350.47 479.97 350.47 482.537Z" fill="#DADBD8"/>
<path d="M382.81 483.976C382.81 483.976 382.303 491.173 362.886 491.173C343.468 491.173 342.962 483.976 342.962 483.976H382.81Z" fill="#EDEDEB"/>
<path d="M573.416 569.162C573.416 573.648 511.147 577.285 434.333 577.285C357.52 577.285 295.25 573.648 295.25 569.162C295.25 564.676 357.52 561.04 434.333 561.04C511.147 561.04 573.416 564.676 573.416 569.162Z" fill="#F3F2F1"/>
<path d="M446.488 384.106C436.19 384.106 427.842 375.757 427.842 365.46C427.842 355.162 436.19 346.814 446.488 346.814C456.785 346.814 465.133 355.162 465.133 365.46C465.133 375.757 456.785 384.106 446.488 384.106ZM475.772 356.59C475.184 354.646 474.409 352.785 473.466 351.026L474.904 346.325L465.622 337.043L460.922 338.481C459.163 337.538 457.301 336.763 455.357 336.176L453.05 331.836H439.924L437.618 336.176C435.674 336.763 433.812 337.538 432.053 338.481L427.353 337.043L418.07 346.325L419.509 351.026C418.565 352.785 417.791 354.646 417.203 356.59L412.863 358.896V372.023L417.203 374.33C417.791 376.273 418.566 378.135 419.509 379.894L418.07 384.595L427.353 393.877L432.053 392.439C433.812 393.382 435.674 394.156 437.618 394.744L439.924 399.084H453.05L455.357 394.744C457.301 394.156 459.163 393.382 460.922 392.439L465.622 393.877L474.904 384.595L473.466 379.894C474.409 378.135 475.184 376.273 475.772 374.33L480.112 372.023V358.896L475.772 356.59Z" fill="#006C71"/>
<path d="M453.05 399.084H439.924L437.744 394.982L437.618 394.744C437.6 394.739 437.583 394.734 437.565 394.728C435.64 394.142 433.797 393.373 432.053 392.439L429.112 393.339L428.932 393.394L427.353 393.877L418.07 384.595L419.509 379.894C418.566 378.135 417.791 376.273 417.203 374.33L412.863 372.023V358.896L417.203 356.59C417.791 354.646 418.565 352.785 419.509 351.026L418.07 346.325L427.353 337.043L432.053 338.481C433.812 337.538 435.674 336.763 437.618 336.176L439.924 331.836H453.05L455.357 336.176C457.301 336.763 459.163 337.538 460.922 338.481L465.622 337.043L474.904 346.325L474.899 346.342L474.107 348.932L473.466 351.026C474.409 352.785 475.184 354.646 475.772 356.59L480.112 358.896V360.13V360.862V365.729V366.461V371.328V372.023L480.043 372.06L479.702 372.241L475.772 374.33C475.504 375.213 475.199 376.079 474.857 376.927C474.445 377.944 473.981 378.934 473.466 379.894L474.904 384.595L471.375 388.124L465.622 393.877L462.561 392.94L461.961 392.757L460.922 392.439C459.738 393.073 458.509 393.631 457.239 394.107C456.621 394.339 455.994 394.552 455.357 394.744L453.05 399.084ZM427.842 365.46C427.842 375.757 436.19 384.106 446.488 384.106C456.785 384.106 465.133 375.757 465.133 365.46C465.133 362.009 464.195 358.776 462.561 356.003C462.412 355.753 462.26 355.506 462.1 355.263C458.77 350.176 453.022 346.814 446.488 346.814C443.328 346.814 440.351 347.601 437.744 348.987C437.684 349.02 437.624 349.051 437.565 349.084C433.732 351.177 430.714 354.576 429.112 358.684C429.049 358.843 428.99 359.003 428.932 359.163C428.226 361.13 427.842 363.25 427.842 365.46Z" fill="#006C71"/>
<path d="M446.488 359.282C443.077 359.282 440.311 362.048 440.311 365.46C440.311 368.872 443.077 371.637 446.488 371.637C449.9 371.637 452.666 368.872 452.666 365.46C452.666 362.048 449.9 359.282 446.488 359.282Z" fill="#006C71"/>
<path d="M527.35 424.094C508.571 424.094 493.347 408.87 493.347 390.09C493.347 371.303 508.571 356.079 527.35 356.079C546.129 356.079 561.362 371.303 561.362 390.09C561.362 408.87 546.129 424.094 527.35 424.094ZM569.203 377.41C568.365 374.632 567.256 371.97 565.912 369.452L565.911 369.451L567.964 362.74L554.699 349.475L547.983 351.529L547.982 351.529C545.469 350.172 542.807 349.067 540.027 348.23L540.026 348.229L536.732 342.033H517.971L514.676 348.231C511.899 349.062 509.238 350.172 506.72 351.529H506.719L500.004 349.475L486.739 362.74L488.791 369.45L488.79 369.452C487.446 371.97 486.336 374.633 485.498 377.411L479.297 380.708V399.467L485.497 402.763L485.497 402.766C486.335 405.545 487.446 408.208 488.79 410.721L488.791 410.724L486.739 417.435L500.004 430.7L506.722 428.645C509.239 430.001 511.899 431.11 514.676 431.941L517.971 438.142H536.732L540.026 431.943H540.027C542.806 431.105 545.467 430.002 547.98 428.645L554.699 430.7L567.964 417.435L565.911 410.722L565.912 410.721C567.256 408.208 568.367 405.545 569.204 402.766L569.205 402.764L575.407 399.467V380.708L569.203 377.41Z" fill="#006C71"/>
<path d="M527.352 415.44C513.374 415.44 502.001 404.066 502.001 390.088C502.001 376.109 513.374 364.736 527.352 364.736C541.331 364.736 552.704 376.109 552.704 390.088C552.704 404.066 541.331 415.44 527.352 415.44ZM527.352 360.84C511.225 360.84 498.104 373.961 498.104 390.088C498.104 406.215 511.225 419.335 527.352 419.335C543.479 419.335 556.6 406.215 556.6 390.088C556.6 373.961 543.479 360.84 527.352 360.84Z" fill="#006C71"/>
<path d="M527.352 419.335C511.225 419.335 498.104 406.215 498.104 390.088C498.104 373.961 511.225 360.84 527.352 360.84C543.479 360.84 556.6 373.961 556.6 390.088C556.6 406.215 543.479 419.335 527.352 419.335ZM502.001 390.088C502.001 404.066 513.374 415.44 527.352 415.44C541.331 415.44 552.704 404.066 552.704 390.088C552.704 376.109 541.331 364.736 527.352 364.736C525.844 364.736 524.368 364.868 522.932 365.122C522.044 365.279 521.171 365.482 520.317 365.729C519.584 365.941 518.863 366.185 518.158 366.461C515.246 367.598 512.593 369.259 510.318 371.328C510.055 371.566 509.797 371.811 509.545 372.06C508.071 373.516 506.776 375.148 505.692 376.927C505.545 377.168 505.401 377.412 505.262 377.658C504.398 379.189 503.687 380.82 503.152 382.525C503.076 382.769 503.005 383.011 502.936 383.257C502.497 384.824 502.205 386.452 502.076 388.124C502.026 388.772 502.001 389.427 502.001 390.088Z" fill="#006C71"/>
<path d="M460.158 439.988C459.761 439.988 459.44 439.668 459.44 439.271V437.836C459.44 437.44 459.761 437.119 460.158 437.119C460.554 437.119 460.875 437.44 460.875 437.836V439.271C460.875 439.668 460.554 439.988 460.158 439.988Z" fill="#006C71"/>
<path d="M448.987 421.452C448.329 421.023 447.819 420.416 447.512 419.696C447.357 419.331 446.934 419.162 446.572 419.318C446.207 419.472 446.037 419.894 446.192 420.259C446.611 421.241 447.307 422.07 448.204 422.654C448.325 422.733 448.46 422.771 448.595 422.771C448.829 422.771 449.059 422.655 449.197 422.444C449.413 422.112 449.319 421.668 448.987 421.452Z" fill="#006C71"/>
<path d="M446.487 412.492C446.884 412.492 447.204 412.171 447.204 411.775V409.024C447.204 408.629 446.884 408.307 446.487 408.307C446.091 408.307 445.77 408.629 445.77 409.024V411.775C445.77 412.171 446.091 412.492 446.487 412.492Z" fill="#006C71"/>
<path d="M453.953 422.084H451.202C450.805 422.084 450.484 422.405 450.484 422.801C450.484 423.197 450.805 423.518 451.202 423.518H453.953C454.349 423.518 454.67 423.197 454.67 422.801C454.67 422.405 454.349 422.084 453.953 422.084Z" fill="#006C71"/>
<path d="M447.204 417.276V414.526C447.204 414.13 446.884 413.808 446.487 413.808C446.091 413.808 445.77 414.13 445.77 414.526V417.276C445.77 417.673 446.091 417.993 446.487 417.993C446.884 417.993 447.204 417.673 447.204 417.276Z" fill="#006C71"/>
<path d="M460.83 426.745C460.78 426.352 460.423 426.073 460.028 426.124C459.635 426.175 459.357 426.535 459.407 426.927C459.429 427.093 459.44 427.263 459.44 427.436V429.585C459.44 429.981 459.761 430.302 460.158 430.302C460.554 430.302 460.875 429.981 460.875 429.585V427.436C460.875 427.201 460.86 426.971 460.83 426.745Z" fill="#006C71"/>
<path d="M460.158 431.618C459.761 431.618 459.44 431.939 459.44 432.336V435.086C459.44 435.482 459.761 435.803 460.158 435.803C460.554 435.803 460.875 435.482 460.875 435.086V432.336C460.875 431.939 460.554 431.618 460.158 431.618Z" fill="#006C71"/>
<path d="M459.536 423.894C458.826 423.09 457.903 422.522 456.87 422.255C456.486 422.155 456.095 422.385 455.996 422.769C455.897 423.152 456.126 423.544 456.51 423.643C457.265 423.839 457.94 424.254 458.46 424.844C458.602 425.004 458.799 425.086 458.998 425.086C459.166 425.086 459.336 425.027 459.473 424.907C459.77 424.644 459.798 424.191 459.536 423.894Z" fill="#006C71"/>
<path d="M446.487 406.964C446.091 406.964 445.77 406.642 445.77 406.246V404.812C445.77 404.416 446.091 404.094 446.487 404.094C446.884 404.094 447.204 404.416 447.204 404.812V406.246C447.204 406.642 446.884 406.964 446.487 406.964Z" fill="#006C71"/>
<path d="M328.048 478.764H494.136V476.104H328.048V478.764Z" fill="#006C71"/>
<path d="M494.135 478.764H530.176V476.104H494.135V478.764Z" fill="#006C71"/>
<path d="M530.176 478.764H494.135V476.104H530.176V478.415V478.764Z" fill="#006C71"/>
<path d="M518.143 481.614H340.08L334.126 478.764H524.097L518.143 481.614Z" fill="#006C71"/>
<path d="M518.143 481.614H424.893C425.006 480.642 425.113 479.692 425.212 478.764H524.097L518.143 481.614ZM394.478 481.614H380.08H371.105H359.67H350.561H340.08L334.126 478.764H394.63C394.579 479.776 394.528 480.729 394.478 481.614Z" fill="#A4C3E9"/>
<path d="M345.465 481.614V566.5H347.745L350.615 481.614H345.465Z" fill="#006C71"/>
<path d="M372.39 481.614V566.5H374.669L377.54 481.614H372.39Z" fill="#006C71"/>
<path d="M518.143 481.614V566.5H515.863L512.992 481.614H518.143Z" fill="#006C71"/>
<path d="M491.218 481.614V566.5H488.938L486.067 481.614H491.218Z" fill="#006C71"/>
<path d="M437.017 443.883L429.523 474.416H429.52L429.312 476.104H481.021L481.23 474.416L488.724 443.883H437.017Z" fill="#006C71"/>
<path d="M481.021 476.104H453.268H453.268H465.957L466.165 474.416H458.71H479.638L487.132 443.883H488.724L481.23 474.416L481.021 476.104Z" fill="#006C71"/>
<path d="M487.132 443.883H435.426L427.932 474.417H479.638L487.132 443.883Z" fill="#006C71"/>
<path d="M478.545 473.021L485.354 445.278H436.52L429.71 473.021H478.545Z" fill="white"/>
<path d="M466.166 474.416L465.957 476.104H409.018L409.226 474.416H466.166Z" fill="#006C71"/>
<path d="M465.957 476.104H453.269C453.459 476.062 453.647 476.018 453.836 475.973C454.82 475.734 455.784 475.458 456.73 475.133C457.403 474.907 458.05 474.68 458.71 474.416H466.165L465.957 476.104Z" fill="#A4C3E9"/>
<path d="M442.832 476.104H425.484C425.54 475.533 425.593 474.97 425.644 474.416H439.837L440.203 474.718C441.075 475.391 441.969 475.814 442.832 476.104Z" fill="#A4C3E9"/>
<path d="M354.576 473.54V467.567C356.044 467.874 357.147 469.093 357.147 470.553C357.147 472.012 356.044 473.232 354.576 473.54ZM358.612 470.553C358.612 468.339 356.857 466.504 354.576 466.179V465.352C354.576 465.159 354.407 465.001 354.199 465.001H346.45C346.242 465.001 346.073 465.159 346.073 465.352V476.104H354.576V474.927C356.857 474.602 358.612 472.767 358.612 470.553Z" fill="#006C71"/>
<path d="M503.602 476.104H510.8L508.667 460.329H503.602V476.104Z" fill="#17282F"/>
<path d="M493.039 476.104H506.68L509.219 457.641H495.578L493.039 476.104Z" fill="#006C71"/>
<path d="M506.68 476.104H505.412L507.951 457.641H495.578H509.219L508.758 460.995L506.68 476.104Z" fill="#006C71"/>
<path d="M491.218 476.104H505.412L507.952 457.641H493.757L491.218 476.104Z" fill="#006C71"/>
<path d="M504.157 474.65H492.873L495.012 459.096H506.296L504.157 474.65Z" fill="#7DA6DD"/>
<path d="M396.7 448.844L396.115 449.48L395.481 450.197C395.056 450.681 394.64 451.179 394.236 451.687C393.433 452.707 392.654 453.747 391.932 454.813C390.485 456.942 389.245 459.17 388.36 461.442C387.925 462.581 387.567 463.725 387.344 464.868C387.227 465.53 387.152 465.815 387.12 466.094C387.083 466.37 387.078 466.56 387.119 466.77C387.16 467.179 387.662 467.842 388.58 468.388C389.022 468.676 389.548 468.918 390.103 469.154C390.382 469.265 390.669 469.374 390.961 469.478C391.239 469.575 391.583 469.68 391.794 469.762L391.802 473.718C391.303 473.79 390.938 473.846 390.509 473.871C390.095 473.902 389.68 473.91 389.259 473.899C388.417 473.885 387.561 473.777 386.671 473.572C385.789 473.354 384.871 473.029 383.96 472.485C383.061 471.942 382.15 471.177 381.462 470.161C380.775 469.151 380.338 467.955 380.16 466.82C380.102 466.529 380.086 466.256 380.067 465.976C380.043 465.693 380.043 465.425 380.05 465.16L380.059 464.759C380.064 464.626 380.077 464.543 380.087 464.432L380.148 463.805C380.332 462.137 380.688 460.52 381.181 458.975C382.153 455.875 383.578 453.036 385.247 450.423C386.08 449.111 386.982 447.86 387.95 446.659C388.432 446.058 388.927 445.467 389.441 444.885C389.697 444.593 389.958 444.304 390.233 444.021C390.518 443.724 390.759 443.477 391.125 443.123L396.7 448.844Z" fill="#CD4B4F"/>
<path d="M390.323 469.673L393.664 467.224L395.569 474.095C395.569 474.095 392.609 475.193 390.343 473.718L390.323 469.673Z" fill="#CD4B4F"/>
<path d="M398.306 465.575L399.614 471.328L395.569 474.095L393.664 467.224L398.306 465.575Z" fill="#CD4B4F"/>
<path d="M419.45 422.474C419.302 422.9 419.407 423.322 419.685 423.419C419.963 423.516 420.308 423.25 420.456 422.825C420.605 422.399 420.499 421.976 420.221 421.879C419.942 421.783 419.597 422.049 419.45 422.474Z" fill="#17282F"/>
<path d="M419.367 423.309C419.367 423.309 419.481 426.099 420.134 427.653C419.137 428.093 417.97 427.327 417.97 427.327L419.367 423.309Z" fill="#BB2329"/>
<path d="M418.762 419.594L418.924 419.597C420.043 419.264 420.782 419.863 420.813 419.889C420.926 419.982 421.092 419.967 421.185 419.856C421.279 419.744 421.265 419.579 421.154 419.485C421.115 419.452 420.175 418.673 418.773 419.09C418.633 419.132 418.553 419.279 418.595 419.419C418.62 419.504 418.684 419.566 418.762 419.594Z" fill="#17282F"/>
<path d="M403.72 424.037C404.521 428.121 405.32 435.604 402.463 438.329C402.463 438.329 403.58 442.472 411.168 442.472C419.512 442.472 415.155 438.329 415.155 438.329C410.602 437.241 410.719 433.863 411.512 430.69L403.72 424.037Z" fill="#CD4B4F"/>
<path d="M401.369 439.751C400.771 438.439 400.113 436.939 401.475 436.469C402.974 435.952 411.177 435.424 414.005 436.395C416.834 437.366 416.032 440.026 416.032 440.026L401.369 439.751Z" fill="#17282F"/>
<path d="M430.017 446.75C431.77 449.917 433.658 453.169 435.571 456.3C437.488 459.442 439.478 462.536 441.617 465.38C442.149 466.103 442.695 466.778 443.243 467.456C443.513 467.81 443.801 468.101 444.08 468.423L444.501 468.898L444.606 469.016L444.659 469.076L444.676 469.093L444.731 469.163C444.883 469.364 445.322 469.643 445.903 469.867C446.488 470.095 447.218 470.25 447.994 470.379C451.146 470.828 454.928 470.603 458.474 470.255L459.563 474.059C458.593 474.487 457.688 474.812 456.731 475.133C455.785 475.458 454.821 475.734 453.836 475.973C451.865 476.444 449.828 476.784 447.613 476.805C446.502 476.82 445.346 476.726 444.106 476.458C442.873 476.176 441.515 475.73 440.203 474.719L439.723 474.323L439.607 474.223L439.537 474.154L439.396 474.016L438.837 473.466C438.47 473.098 438.074 472.734 437.742 472.356C437.05 471.605 436.35 470.856 435.726 470.08C433.149 467.006 430.907 463.81 428.804 460.545C427.752 458.912 426.741 457.263 425.774 455.587C424.799 453.904 423.861 452.255 422.95 450.473L430.017 446.75Z" fill="#CD4B4F"/>
<path d="M392.467 439.591C387.236 440.79 381.234 455.055 381.234 455.055L391.743 462.257C391.743 462.257 395.725 456.688 398.684 450.458C401.785 443.928 397.817 438.365 392.467 439.591Z" fill="#006C71"/>
<path d="M391.741 462.258L391.427 462.04L391.742 462.256C391.742 462.257 391.741 462.258 391.741 462.258Z" fill="#C3C5C2"/>
<path d="M391.742 462.256L391.426 462.04L391.247 461.916L394.413 453.487C394.532 454.915 394.628 456.329 394.704 457.722C393.064 460.396 391.784 462.198 391.742 462.256Z" fill="#00979D"/>
<path d="M423.742 439.878C423.742 439.878 429.684 446.59 424.073 488.129C415.076 488.129 398.592 488.129 394.214 488.129C394.009 483.546 396.889 461.187 392.468 439.591C392.468 439.591 397.586 438.564 402.463 438.329C406.279 438.145 411.802 438.023 415.156 438.33C419.577 438.733 423.742 439.878 423.742 439.878Z" fill="#006C71"/>
<path d="M426.324 464.669C426.323 464.669 426.324 464.669 426.323 464.668C426.444 461.99 426.493 459.59 426.482 457.442L426.483 457.442C426.491 459.593 426.446 461.994 426.324 464.669Z" fill="#C3C5C2"/>
<path d="M426.323 464.668C421.179 458.749 420.525 452.009 420.427 451.888L426.482 457.442C426.492 459.59 426.444 461.99 426.323 464.668Z" fill="#00979D"/>
<path d="M417.853 444.404C417.117 449.69 427.531 463.193 427.531 463.193L437.997 455.99C437.997 455.99 435.096 448.548 430.207 443.672C424.626 438.105 418.653 438.652 417.853 444.404Z" fill="#006C71"/>
<path d="M457.266 470.277L461.529 468.532L465.914 471.841C465.914 471.841 461.727 475.543 457.925 474.105L457.266 470.277Z" fill="#CD4B4F"/>
<path d="M464.362 468.358L467.575 470.653L465.913 471.841L461.528 468.532L464.362 468.358Z" fill="#CD4B4F"/>
<path d="M405.578 416.639C404.082 421.973 402.935 425.019 404.641 428.618C407.206 434.031 414.485 433.881 417.545 429.101C420.299 424.799 422.283 416.797 417.893 412.941C413.568 409.141 407.074 411.304 405.578 416.639Z" fill="#CD4B4F"/>
<path d="M416.936 416.692C414.759 422.822 412.256 429.55 406.073 428.274C402.083 427.451 401.775 421.03 400.336 418.111C399.07 415.544 399.145 410.395 401.742 410.332C400.57 408.623 406.516 402.375 410.575 405.678C411.613 404.243 419.113 400.018 424.665 406.723C429.915 413.063 427.351 418.368 416.936 416.692Z" fill="#17282F"/>
<path d="M412.099 420.609C411.923 422.049 412.338 423.512 412.973 424.534C413.928 426.073 415.327 425.481 415.835 423.914C416.291 422.503 416.344 420.003 415.014 419.007C413.703 418.026 412.301 418.962 412.099 420.609Z" fill="#CD4B4F"/>
<path d="M458.806 561.363C458.899 561.363 458.984 561.373 459.061 561.394C459.183 561.427 459.268 561.487 459.32 561.579C459.414 561.743 459.38 561.824 459.346 561.871C459.086 562.232 457.674 562.24 456.637 562.093C457.155 561.828 458.153 561.363 458.806 561.363ZM457.921 562.446C458.637 562.446 459.329 562.347 459.56 562.026C459.642 561.912 459.706 561.721 459.55 561.448C459.462 561.294 459.321 561.19 459.131 561.139C458.202 560.885 456.251 561.997 456.168 562.045L456.104 562.181L456.208 562.289C456.564 562.36 457.253 562.446 457.921 562.446Z" fill="#006C71"/>
<path d="M457.597 560.029L457.676 560.033C457.914 560.058 457.929 560.151 457.934 560.182C457.995 560.561 457.088 561.509 456.4 561.922C456.472 561.483 456.671 560.583 457.137 560.201C457.278 560.086 457.429 560.029 457.597 560.029ZM456.235 562.292L456.288 562.28C456.962 561.978 458.297 560.771 458.195 560.139C458.171 559.992 458.066 559.807 457.703 559.77C457.433 559.745 457.186 559.819 456.969 559.997C456.259 560.58 456.109 562.083 456.103 562.147L456.157 562.267L456.235 562.292Z" fill="#006C71"/>
<path d="M449.74 562.16H455.323L456.59 549.232H451.008L449.74 562.16Z" fill="#CD4B4F"/>
<path d="M455.641 561.513H449.545C449.317 561.513 449.119 561.672 449.07 561.895L447.967 566.856C447.853 567.371 448.243 567.859 448.771 567.849C450.969 567.812 454.147 567.683 456.911 567.683C460.143 567.683 462.934 567.859 466.724 567.859C469.016 567.859 469.652 565.543 468.693 565.333C464.326 564.377 460.76 564.276 456.986 561.948C456.576 561.695 456.123 561.513 455.641 561.513Z" fill="#182232"/>
<path d="M450.354 555.899H450.352L451.004 549.236H451.007L450.354 555.899Z" fill="#C3C5C2"/>
<path d="M455.936 555.899H450.354L451.007 549.236H456.589L455.936 555.899Z" fill="#9E3A3E"/>
<path d="M436.246 561.382L436.408 561.399C436.521 561.425 436.601 561.484 436.653 561.577C436.772 561.794 436.702 561.886 436.679 561.917C436.44 562.229 435.301 562.235 434.466 562.094C434.946 561.798 435.738 561.382 436.246 561.382ZM435.547 562.445C436.12 562.445 436.674 562.358 436.889 562.077C436.979 561.959 437.052 561.754 436.884 561.449C436.796 561.289 436.656 561.186 436.469 561.141C435.656 560.95 434.113 562.006 434.047 562.051L433.992 562.184L434.091 562.288C434.377 562.357 434.971 562.445 435.547 562.445Z" fill="#006C71"/>
<path d="M435.248 560.029L435.308 560.033C435.48 560.054 435.495 560.133 435.502 560.166C435.571 560.534 434.86 561.458 434.286 561.894C434.351 561.423 434.529 560.484 434.945 560.145C435.04 560.068 435.139 560.029 435.248 560.029ZM434.122 562.292L434.185 562.276C434.763 561.962 435.88 560.739 435.761 560.116C435.74 560.005 435.657 559.809 435.34 559.77C435.136 559.745 434.946 559.802 434.777 559.94C434.129 560.47 433.995 562.081 433.99 562.149L434.05 562.271L434.122 562.292Z" fill="#006C71"/>
<path d="M427.727 562.16H433.309L436.114 549.232H430.532L427.727 562.16Z" fill="#CD4B4F"/>
<path d="M433.706 561.513H427.434C427.206 561.513 427.008 561.672 426.959 561.895L425.856 566.856C425.742 567.372 426.147 567.859 426.673 567.849C428.863 567.812 429.927 567.683 432.685 567.683C434.382 567.683 436.56 567.859 438.902 567.859C441.194 567.859 441.552 565.543 440.592 565.333C436.291 564.392 435.989 563.095 434.612 561.857C434.364 561.633 434.04 561.513 433.706 561.513Z" fill="#182232"/>
<path d="M429.085 555.899H429.081L429.327 554.768H429.331L429.085 555.899Z" fill="#C3C5C2"/>
<path d="M434.666 555.899H429.085L429.33 554.768H434.912L434.666 555.899Z" fill="#9E3A3E"/>
<path d="M424.073 488.129C424.073 488.129 465.897 492.554 465.439 513.887C464.962 536.078 457.822 553.064 457.822 553.064H449.528C449.528 553.064 449.95 539.534 449.671 517.687C449.588 511.142 436.362 508.979 423.447 508.216C412.289 507.556 402.503 500.54 398.169 490.238L397.281 488.129H424.073Z" fill="#182232"/>
<path d="M459.847 550.842L459.313 554.768H447.81L447.499 551.264L459.847 550.842Z" fill="#006C71"/>
<path d="M415.123 488.129C415.123 488.129 445.439 498.185 446.203 510.625C447.611 533.535 436.372 553.064 436.372 553.064H427.999C427.999 553.064 431.179 543.382 432.319 522.627C433.753 496.546 385.098 522.581 394.214 488.129H415.123Z" fill="#182232"/>
<path d="M438.901 550.842L437.845 554.768H426.342L426.553 551.264L438.901 550.842Z" fill="#006C71"/>
<path d="M436.984 510.088H390.363C390.363 507.15 392.745 504.769 395.682 504.769H431.665C434.603 504.769 436.984 507.15 436.984 510.088Z" fill="#006C71"/>
<path d="M392.517 510.088L385.493 569.021H386.995L395.91 510.088H392.517Z" fill="#006C71"/>
<path d="M386.995 569.021H385.493L392.517 510.088H395.91L390.645 544.888L390.618 545.067L386.995 569.021Z" fill="#006C71"/>
<path d="M401.923 510.088L401.789 569.021H403.29L405.315 510.088H401.923Z" fill="#006C71"/>
<path d="M403.29 569.021H401.789L401.923 510.088H405.315L405.224 512.716L405.219 512.896L404.12 544.888L404.113 545.067L403.29 569.021Z" fill="#006C71"/>
<path d="M434.83 510.088L441.854 569.021H440.353L431.438 510.088H434.83Z" fill="#006C71"/>
<path d="M441.854 569.021H440.353L440.134 567.573L439.765 565.135L438.07 553.928L437.61 550.886L437.587 550.734L431.438 510.088H434.83L441.854 569.021Z" fill="#006C71"/>
<path d="M425.425 510.088L425.559 569.021H424.058L422.033 510.088H425.425Z" fill="#006C71"/>
<path d="M425.559 569.021H424.058L422.033 510.088H425.425L425.559 569.021Z" fill="#006C71"/>
<defs>
<filter id="filter0_d_8_5336" x="0" y="247" width="354" height="354" filterUnits="userSpaceOnUse" color-interpolation-filters="sRGB">
<feFlood flood-opacity="0" result="BackgroundImageFix"/>
<feColorMatrix in="SourceAlpha" type="matrix" values="0 0 0 0 0 0 0 0 0 0 0 0 0 0 0 0 0 0 127 0" result="hardAlpha"/>
<feMorphology radius="2" operator="dilate" in="SourceAlpha" result="effect1_dropShadow_8_5336"/>
<feOffset dx="4" dy="4"/>
<feGaussianBlur stdDeviation="50"/>
<feComposite in2="hardAlpha" operator="out"/>
<feColorMatrix type="matrix" values="0 0 0 0 0 0 0 0 0 0 0 0 0 0 0 0 0 0 0.25 0"/>
<feBlend mode="normal" in2="BackgroundImageFix" result="effect1_dropShadow_8_5336"/>
<feBlend mode="normal" in="SourceGraphic" in2="effect1_dropShadow_8_5336" result="shape"/>
</filter>
<filter id="filter1_d_8_5336" x="283" y="0" width="354" height="354" filterUnits="userSpaceOnUse" color-interpolation-filters="sRGB">
<feFlood flood-opacity="0" result="BackgroundImageFix"/>
<feColorMatrix in="SourceAlpha" type="matrix" values="0 0 0 0 0 0 0 0 0 0 0 0 0 0 0 0 0 0 127 0" result="hardAlpha"/>
<feMorphology radius="2" operator="dilate" in="SourceAlpha" result="effect1_dropShadow_8_5336"/>
<feOffset dx="4" dy="4"/>
<feGaussianBlur stdDeviation="50"/>
<feComposite in2="hardAlpha" operator="out"/>
<feColorMatrix type="matrix" values="0 0 0 0 0 0 0 0 0 0 0 0 0 0 0 0 0 0 0.25 0"/>
<feBlend mode="normal" in2="BackgroundImageFix" result="effect1_dropShadow_8_5336"/>
<feBlend mode="normal" in="SourceGraphic" in2="effect1_dropShadow_8_5336" result="shape"/>
</filter>
<filter id="filter2_d_8_5336" x="441" y="525" width="354" height="354" filterUnits="userSpaceOnUse" color-interpolation-filters="sRGB">
<feFlood flood-opacity="0" result="BackgroundImageFix"/>
<feColorMatrix in="SourceAlpha" type="matrix" values="0 0 0 0 0 0 0 0 0 0 0 0 0 0 0 0 0 0 127 0" result="hardAlpha"/>
<feMorphology radius="2" operator="dilate" in="SourceAlpha" result="effect1_dropShadow_8_5336"/>
<feOffset dx="4" dy="4"/>
<feGaussianBlur stdDeviation="50"/>
<feComposite in2="hardAlpha" operator="out"/>
<feColorMatrix type="matrix" values="0 0 0 0 0 0 0 0 0 0 0 0 0 0 0 0 0 0 0.25 0"/>
<feBlend mode="normal" in2="BackgroundImageFix" result="effect1_dropShadow_8_5336"/>
<feBlend mode="normal" in="SourceGraphic" in2="effect1_dropShadow_8_5336" result="shape"/>
</filter>
<filter id="filter3_d_8_5336" x="562" y="236" width="354" height="354" filterUnits="userSpaceOnUse" color-interpolation-filters="sRGB">
<feFlood flood-opacity="0" result="BackgroundImageFix"/>
<feColorMatrix in="SourceAlpha" type="matrix" values="0 0 0 0 0 0 0 0 0 0 0 0 0 0 0 0 0 0 127 0" result="hardAlpha"/>
<feMorphology radius="2" operator="dilate" in="SourceAlpha" result="effect1_dropShadow_8_5336"/>
<feOffset dx="4" dy="4"/>
<feGaussianBlur stdDeviation="50"/>
<feComposite in2="hardAlpha" operator="out"/>
<feColorMatrix type="matrix" values="0 0 0 0 0 0 0 0 0 0 0 0 0 0 0 0 0 0 0.25 0"/>
<feBlend mode="normal" in2="BackgroundImageFix" result="effect1_dropShadow_8_5336"/>
<feBlend mode="normal" in="SourceGraphic" in2="effect1_dropShadow_8_5336" result="shape"/>
</filter>
<filter id="filter4_d_8_5336" x="138" y="525" width="354" height="354" filterUnits="userSpaceOnUse" color-interpolation-filters="sRGB">
<feFlood flood-opacity="0" result="BackgroundImageFix"/>
<feColorMatrix in="SourceAlpha" type="matrix" values="0 0 0 0 0 0 0 0 0 0 0 0 0 0 0 0 0 0 127 0" result="hardAlpha"/>
<feMorphology radius="2" operator="dilate" in="SourceAlpha" result="effect1_dropShadow_8_5336"/>
<feOffset dx="4" dy="4"/>
<feGaussianBlur stdDeviation="50"/>
<feComposite in2="hardAlpha" operator="out"/>
<feColorMatrix type="matrix" values="0 0 0 0 0 0 0 0 0 0 0 0 0 0 0 0 0 0 0.25 0"/>
<feBlend mode="normal" in2="BackgroundImageFix" result="effect1_dropShadow_8_5336"/>
<feBlend mode="normal" in="SourceGraphic" in2="effect1_dropShadow_8_5336" result="shape"/>
</filter>
</defs>
</svg>
