<svg width="55" height="55" viewBox="0 0 55 55" fill="none" xmlns="http://www.w3.org/2000/svg">
<rect x="1" y="1" width="53" height="53" rx="9" stroke="black" stroke-width="2"/>
<path fill-rule="evenodd" clip-rule="evenodd" d="M17.7515 32.1186L12.6586 27.0257C12.5355 26.9027 12.4668 26.7363 12.4668 26.5627C12.4668 26.3885 12.5355 26.2222 12.6586 26.0997C12.7948 25.9629 12.9532 25.8051 13.1216 25.6361C13.6126 25.145 14.2791 24.8694 14.9733 24.8694C15.6681 24.8694 16.3346 25.145 16.8257 25.6361L20.5298 29.3402L31.6414 18.2286C31.8975 17.9725 32.312 17.9725 32.5672 18.2286C32.6981 18.359 32.8481 18.5089 33.0086 18.6694C34.0436 19.7045 34.0436 21.3829 33.0086 22.418L28.4009 27.0256L29.5979 28.2226C29.7204 28.3457 29.7897 28.512 29.7897 28.6856V31.1927C29.7897 31.1927 30.6055 32.0086 30.9867 32.3897C31.1097 32.5128 31.1784 32.6791 31.1784 32.8528V35.3599C31.1784 35.3599 31.9948 36.1757 32.376 36.5569C32.4985 36.6799 32.5672 36.8463 32.5672 37.0199V39.2552C32.5672 39.4294 32.4985 39.5957 32.376 39.7188C31.4529 40.6413 27.4562 44.638 26.0856 46.0084C25.9625 46.1311 25.7962 46.1998 25.6226 46.1998C25.4489 46.1998 25.282 46.1311 25.1596 46.0081C23.5791 44.4273 18.4064 39.2546 16.8256 37.6742C16.7026 37.5517 16.6339 37.3848 16.6339 37.2112C16.6339 37.0375 16.7026 36.8712 16.8256 36.7481L17.9177 35.6561C17.809 35.3646 17.7514 35.0542 17.7514 34.7374L17.7515 32.1186ZM26.1377 43.9322L27.9895 42.0798C28.245 41.8243 28.245 41.4093 27.9895 41.1541C27.734 40.8986 27.319 40.8986 27.0638 41.1541L25.2114 43.0058C24.9559 43.2619 24.9559 43.6764 25.2114 43.9325C25.4675 44.188 25.882 44.188 26.138 43.9325L26.1377 43.9322ZM29.0278 39.1898C29.2833 38.9337 29.6983 38.9337 29.9535 39.1898C30.2096 39.4453 30.2096 39.8603 29.9535 40.1155C29.698 40.371 29.283 40.371 29.0278 40.1155C28.7723 39.86 28.7723 39.445 29.0278 39.1898Z" fill="#006C71"/>
<path fill-rule="evenodd" clip-rule="evenodd" d="M27.0149 19.518C27.5247 17.542 29.3198 16.0804 31.4539 16.0804C33.9832 16.0804 36.0372 18.1344 36.0372 20.6638C36.0372 22.5857 34.8516 24.2331 33.1727 24.9136C32.8374 25.0493 32.6757 25.4316 32.8119 25.7663C32.9476 26.1016 33.3293 26.2633 33.6646 26.127C35.8234 25.2522 37.3471 23.1344 37.3471 20.6635C37.3471 17.4113 34.7064 14.7706 31.4542 14.7706C28.7106 14.7706 26.4022 16.6498 25.7475 19.1902C25.6571 19.5401 25.8679 19.8973 26.2178 19.9876C26.5677 20.0779 26.9249 19.8672 27.0152 19.5173L27.0149 19.518Z" fill="#006C71"/>
<path fill-rule="evenodd" clip-rule="evenodd" d="M24.2529 20.6635C24.2529 16.6887 27.4805 13.4611 31.4553 13.4611C35.4301 13.4611 38.6578 16.6887 38.6578 20.6635C38.6578 24.23 36.0606 27.1937 32.6567 27.7663C32.2995 27.8257 32.0595 28.1636 32.1189 28.5205C32.1791 28.8768 32.517 29.1176 32.873 29.0574C36.8969 28.3807 39.9674 24.8783 39.9674 20.6629C39.9674 15.9653 36.153 12.1509 31.4554 12.1509C26.7577 12.1509 22.9434 15.9653 22.9434 20.6629C22.9434 21.0242 23.2368 21.3177 23.5981 21.3177C23.9594 21.3177 24.2529 21.0242 24.2529 20.6629L24.2529 20.6635Z" fill="#006C71"/>
<path fill-rule="evenodd" clip-rule="evenodd" d="M21.6324 20.6643C21.6324 15.2435 26.0331 10.8428 31.454 10.8428C36.8748 10.8428 41.2755 15.2435 41.2755 20.6643C41.2755 25.6696 37.5243 29.8049 32.6819 30.4096C32.323 30.454 32.0684 30.7814 32.1137 31.1403C32.1581 31.4993 32.4855 31.7539 32.8444 31.7086C38.3319 31.0231 42.5844 26.3363 42.5844 20.6643C42.5844 14.5205 37.5971 9.53322 31.4533 9.53322C25.3096 9.53322 20.3223 14.5205 20.3223 20.6643C20.3223 21.0256 20.6157 21.3191 20.977 21.3191C21.3383 21.3191 21.6318 21.0256 21.6318 20.6643L21.6324 20.6643Z" fill="#006C71"/>
</svg>
