<svg width="50" height="55" viewBox="0 0 50 55" fill="none" xmlns="http://www.w3.org/2000/svg">
<path d="M39.8209 16.5195H34.3726C33.9349 16.5224 33.581 16.8777 33.5777 17.3176V22.7817C33.5777 23.2225 33.934 23.5798 34.3726 23.5798H36.307V27.6448H32.7298C32.2911 27.6448 31.9348 28.002 31.9348 28.4429V37.3866H28.3367C28.1744 36.3976 27.7088 35.4845 27.0047 34.7739C26.3006 34.0633 25.3935 33.591 24.4092 33.4229V28.4111H27.3349C27.774 28.4111 28.1299 28.0534 28.1299 27.613V16.1842H30.0643C30.5034 16.1842 30.8592 15.827 30.8592 15.3862V9.90606C30.8592 9.46521 30.5034 9.10797 30.0643 9.10797H24.6057C24.1665 9.10797 23.8107 9.46521 23.8107 9.90606V15.3862C23.8135 15.8256 24.168 16.1814 24.6057 16.1842H26.5401V26.8254H20.7104V24.8302H22.6448C23.084 24.8302 23.4398 24.4729 23.4398 24.0321V18.5571C23.4398 18.1162 23.084 17.759 22.6448 17.759H17.1597C16.7206 17.759 16.3647 18.1162 16.3647 18.5571V24.0321C16.3647 24.4729 16.7206 24.8302 17.1597 24.8302H19.0941V27.613C19.0941 28.0534 19.4499 28.4111 19.8891 28.4111H22.8199L22.8195 33.4229C21.8371 33.5863 20.93 34.0542 20.2255 34.7611C19.5214 35.4685 19.0553 36.3792 18.8925 37.3653H15.2887V28.4587C15.2887 28.0183 14.9329 27.6606 14.4937 27.6606H10.9165V23.5961H12.7558C13.1945 23.5961 13.5508 23.2383 13.5508 22.798V17.3179C13.5508 16.877 13.1945 16.5198 12.7558 16.5198H7.30227C6.86315 16.5198 6.50732 16.877 6.50732 17.3179V22.7819C6.50732 23.2228 6.86315 23.58 7.30227 23.58H9.32657V28.443C9.32657 28.8839 9.68241 29.2411 10.1215 29.2411H13.6988V38.2115C13.6988 38.6524 14.0546 39.0096 14.4937 39.0096H18.8924C19.1106 40.5445 20.0551 41.8784 21.4273 42.5896C22.7995 43.3003 24.4297 43.3003 25.8019 42.5896C27.1741 41.8785 28.1186 40.5446 28.3368 39.0096H32.7304H32.7299C33.169 39.0096 33.5249 38.6524 33.5249 38.2115V29.2568H37.1021C37.5412 29.2568 37.8971 28.8996 37.8971 28.4587V23.5962H39.8211C40.2602 23.5962 40.616 23.2385 40.616 22.7981V17.318C40.616 16.8771 40.2602 16.5199 39.8211 16.5199L39.8209 16.5195ZM25.4009 10.704H29.2698V14.5881H25.4009V10.704ZM17.9548 19.3552H21.8023V23.234H17.9335L17.9548 19.3552ZM8.09739 18.1153H11.961V21.9994L8.09739 21.9999V18.1153ZM23.6149 41.4042C22.7717 41.4042 21.963 41.0678 21.3667 40.4693C20.77 39.8707 20.435 39.0583 20.435 38.2119C20.435 37.3655 20.77 36.553 21.3667 35.9545C21.963 35.3559 22.7717 35.0196 23.6149 35.0196C24.4586 35.0196 25.2673 35.3559 25.8634 35.9545C26.4596 36.5531 26.7947 37.3655 26.7947 38.2119C26.7947 39.0583 26.4596 39.8708 25.8634 40.4693C25.2672 41.0678 24.4585 41.4042 23.6149 41.4042ZM39.0367 22.0057H35.1679V18.1217H39.0367V22.0057ZM46.1809 28.3476C45.2644 27.3823 44.8167 26.0611 44.9568 24.7348C45.0576 23.5976 45.0789 22.4546 45.0203 21.314C44.7401 16.439 42.8957 11.7864 39.7632 8.05092C36.6312 4.31558 32.3786 1.6986 27.6424 0.590225C22.9057 -0.518067 17.9388 -0.0572651 13.484 1.90279C9.02983 3.86331 5.32671 7.21811 2.92858 11.466C0.530941 15.7145 -0.43342 20.6274 0.17989 25.471C0.793613 30.315 2.95233 34.8294 6.33274 38.34C7.15704 39.2877 7.67565 40.4645 7.82041 41.7143C7.9652 42.9646 7.72909 44.2292 7.14376 45.3417L3.35451 52.9501C3.22816 53.1971 3.24 53.4921 3.38527 53.7282C3.53053 53.9648 3.78795 54.1073 4.06477 54.1044H27.3834C27.691 54.1025 27.9706 53.9253 28.1041 53.647L30.3352 48.8585C33.0484 49.6247 36.6948 50.6461 38.7513 51.2314C40.0152 51.5848 41.3714 51.3121 42.4025 50.4974C42.9622 50.0575 43.3952 49.477 43.6578 48.8138C43.9204 48.1511 44.0032 47.4305 43.8972 46.725L43.5527 44.5968L44.5914 44.0647C45.0314 43.8462 45.3319 43.4191 45.3896 42.9294C45.4474 42.4401 45.2548 41.9541 44.8777 41.6387L45.8898 40.681C46.2977 40.2986 46.4505 39.7147 46.2821 39.1803L45.5614 36.8659L47.8668 36.2436C48.8567 35.9775 49.6307 35.2027 49.8995 34.2098C50.1678 33.217 49.8901 32.1552 49.1704 31.4232L46.1809 28.3476ZM48.3487 33.7693C48.2318 34.2173 47.883 34.5669 47.4368 34.6843L44.787 35.3973C44.6919 35.4234 44.602 35.4667 44.522 35.5251C44.028 35.8918 43.816 36.5303 43.992 37.1213L44.7444 39.5316L43.6844 40.5425H43.6849C43.3584 40.848 43.1904 41.2879 43.2292 41.734C43.2638 42.1016 43.4337 42.4432 43.7062 42.6917L42.7949 43.1491L42.7944 43.1496C42.227 43.4327 41.9091 44.0536 42.0103 44.6817L42.3652 46.9268V46.9272C42.4343 47.3643 42.3827 47.8118 42.2162 48.2218C42.0501 48.6313 41.7751 48.9881 41.4217 49.2522C40.7975 49.7453 39.9756 49.9073 39.2119 49.6883C36.9965 49.0551 32.9265 47.9112 30.1707 47.1344L27.844 46.4798L27.3141 46.3363C26.891 46.2176 26.4524 46.4651 26.3336 46.8898C26.2148 47.3145 26.4619 47.7553 26.8849 47.8741H26.9379L27.3036 47.9753L28.8193 48.4009L26.9166 52.4659H5.37383L8.55364 46.0437C9.28472 44.6427 9.57525 43.0514 9.38598 41.4808C9.1967 39.9103 8.53661 38.4348 7.49372 37.249C4.34225 33.9907 2.32654 29.796 1.74824 25.2916C1.16954 20.7872 2.06007 16.2163 4.28543 12.262C6.51082 8.30815 9.9518 5.1838 14.0937 3.35717C18.2354 1.53055 22.8547 1.0998 27.2611 2.12913C31.667 3.15808 35.6223 5.59229 38.5353 9.06676C41.4482 12.5417 43.162 16.8699 43.4204 21.4044C43.4786 22.4685 43.4588 23.5354 43.3622 24.5967C43.1786 26.3895 43.7914 28.1724 45.0368 29.4702L48.0098 32.5295C48.3321 32.8544 48.4575 33.3271 48.3382 33.7693L48.3487 33.7693Z" fill="#6364CF"/>
</svg>
