<svg width="50" height="39" viewBox="0 0 50 39" fill="none" xmlns="http://www.w3.org/2000/svg">
<path d="M2.74524 0C1.24105 0 0 1.22263 0 2.73171V23.043C0 24.5525 1.24112 25.7971 2.74524 25.7971H22.8572V37.9794C22.8572 38.3747 23.177 38.6957 23.5716 38.6957H49.2855C49.6801 38.6957 50 38.3748 50 37.9794V17.9151C50 17.5192 49.6801 17.1983 49.2855 17.1983H35.7143V2.73228C35.7143 1.22323 34.4732 0.000562329 32.9691 0.000562329L2.74524 0ZM2.74524 1.43304H32.968C33.7054 1.43304 34.2848 1.99187 34.2848 2.73159V6.44898H1.42817V2.73159C1.42817 1.99182 2.00788 1.43304 2.74524 1.43304ZM4.64253 2.86607C4.05112 2.86607 3.57132 3.34742 3.57132 3.94124C3.57132 4.53456 4.05112 5.01591 4.64253 5.01591C5.23443 5.01591 5.71424 4.53456 5.71424 3.94124C5.71424 3.34742 5.23443 2.86607 4.64253 2.86607ZM8.2139 2.86607C7.6225 2.86607 7.14269 3.34742 7.14269 3.94124C7.14269 4.53456 7.6225 5.01591 8.2139 5.01591C8.80581 5.01591 9.28561 4.53456 9.28561 3.94124C9.28561 3.34742 8.80581 2.86607 8.2139 2.86607ZM11.7853 2.86607C11.1939 2.86607 10.7141 3.34742 10.7141 3.94124C10.7141 4.53456 11.1939 5.01591 11.7853 5.01591C12.3772 5.01591 12.857 4.53456 12.857 3.94124C12.857 3.34742 12.3772 2.86607 11.7853 2.86607ZM1.42842 7.88202H34.285V17.1977H23.5709C23.5261 17.1937 23.4813 17.1937 23.4369 17.1977C23.0956 17.2632 22.8505 17.5656 22.8565 17.9145V24.3635H2.74452C2.00714 24.3635 1.42771 23.7827 1.42771 23.0424L1.42842 7.88202ZM24.2852 18.6308H48.5705V37.2619H24.2852V18.6308ZM38.5261 21.4749C38.243 21.4934 37.9979 21.6779 37.9008 21.9453L33.6154 33.4104C33.5461 33.5888 33.5511 33.7877 33.6283 33.9627C33.7056 34.1376 33.8491 34.2741 34.0269 34.3426C34.2053 34.4111 34.4031 34.4056 34.577 34.3276C34.7514 34.2491 34.8869 34.1047 34.9546 33.9257L39.24 22.4601C39.3337 22.2307 39.3018 21.9688 39.1563 21.7684C39.0108 21.5674 38.7727 21.4565 38.5261 21.4749ZM30.6912 23.6248C30.4785 23.6368 30.2817 23.7433 30.1556 23.9157L27.2983 27.4986C27.0895 27.7606 27.0895 28.1324 27.2983 28.3944L30.1556 31.9773C30.2737 32.1257 30.4461 32.2212 30.6344 32.2422C30.8233 32.2632 31.0121 32.2082 31.1601 32.0897C31.3081 31.9708 31.4032 31.7978 31.4241 31.6089C31.4451 31.4199 31.3903 31.23 31.2717 31.0815L28.7715 27.9465L31.2717 24.8115C31.461 24.594 31.5019 24.2836 31.3748 24.0247C31.2483 23.7653 30.9787 23.6078 30.6912 23.6248ZM42.075 23.6248C41.8039 23.6423 41.5663 23.8133 41.4621 24.0652C41.3575 24.3171 41.4048 24.6065 41.5837 24.8115L44.0839 27.9465L41.5837 31.0815C41.4656 31.23 41.4108 31.4199 41.4318 31.6089C41.4527 31.7978 41.5473 31.9708 41.6953 32.0897C41.8433 32.2082 42.0326 32.2632 42.221 32.2422C42.4093 32.2212 42.5817 32.1257 42.6998 31.9773L45.5571 28.3944C45.7659 28.1324 45.7659 27.7606 45.5571 27.4986L42.6998 23.9157C42.5553 23.7178 42.3191 23.6078 42.075 23.6248Z" fill="#6364CF"/>
</svg>
