<svg width="50" height="50" viewBox="0 0 50 50" fill="none" xmlns="http://www.w3.org/2000/svg">
<path d="M17.9687 28.125H0.781249C0.3125 28.125 0 28.4375 0 28.9062V30.4687C0 30.9375 0.3125 31.25 0.781249 31.25H17.9687C18.4375 31.25 18.75 30.9375 18.75 30.4687V28.9062C18.75 28.4375 18.4375 28.125 17.9687 28.125Z" fill="#61E7E2"/>
<path d="M17.9687 43.75H0.781249C0.3125 43.75 0 44.0625 0 44.5312V46.0937C0 46.5625 0.3125 46.875 0.781249 46.875H17.9687C18.4375 46.875 18.75 46.5625 18.75 46.0937V44.5312C18.75 44.0625 18.4375 43.75 17.9687 43.75Z" fill="#61E7E2"/>
<path d="M17.9687 35.9375H0.781249C0.3125 35.9375 0 36.25 0 36.7187V38.2812C0 38.75 0.3125 39.0625 0.781249 39.0625H17.9687C18.4375 39.0625 18.75 38.75 18.75 38.2812V36.7187C18.75 36.25 18.4375 35.9375 17.9687 35.9375Z" fill="#61E7E2"/>
<path d="M37.5 25C30.625 25 25 30.625 25 37.5C25 44.375 30.625 49.9999 37.5 49.9999C44.375 49.9999 50 44.375 50 37.5C50 30.625 44.375 25 37.5 25ZM37.5 47.3437C32.0312 47.3437 27.6562 42.8906 27.6562 37.5C27.6562 32.5781 31.3281 28.4375 36.1719 27.8125V37.8125V37.9687C36.0937 38.2812 36.25 38.6718 36.5625 38.9843L43.125 45.5468C41.4844 46.7187 39.5312 47.3437 37.5 47.3437ZM45.0781 43.75L40.4687 39.1406H47.1875C46.875 40.8593 46.1719 42.4218 45.0781 43.75ZM38.8281 36.4843V27.8125C43.2812 28.4375 46.7969 32.0312 47.2656 36.4843H38.8281Z" fill="#5B5DBE"/>
<path d="M28.125 13.2812C28.125 15.4687 29.8437 17.1875 32.0312 17.1875C34.2187 17.1875 35.9375 15.4687 35.9375 13.2812C35.9375 13.0469 35.9375 12.8125 35.8593 12.5781L43.3593 8.28124C44.0625 8.90624 45 9.37499 46.0156 9.37499C48.2031 9.37499 49.9218 7.65624 49.9218 5.46874C49.9218 3.28125 48.2031 1.5625 46.0156 1.5625C43.8281 1.5625 42.1093 3.28125 42.1093 5.46874C42.1093 5.78124 42.1875 6.09374 42.1875 6.40624L34.7656 10.625C34.0625 9.84374 33.0468 9.37499 31.875 9.37499C30.9375 9.37499 30.0781 9.68749 29.375 10.3125L21.5625 5.07812C21.7969 4.6875 21.875 4.29687 21.875 3.90625C21.875 1.71875 20.1562 0 17.9687 0C15.7812 0 14.0625 1.71875 14.0625 3.90625C14.0625 4.53125 14.2187 5.15624 14.5312 5.70312L5.85937 13.0469C5.31249 12.6562 4.60937 12.5 3.90625 12.5C1.71875 12.5 0 14.2187 0 16.4062C0 18.5937 1.71875 20.3125 3.90625 20.3125C6.09374 20.3125 7.81249 18.5937 7.81249 16.4062C7.81249 15.7812 7.65624 15.1562 7.34374 14.6094L16.0156 7.34374C16.5625 7.65624 17.2656 7.81249 17.9687 7.81249C18.9062 7.81249 19.7656 7.49999 20.4687 6.87499L28.2812 12.1094C28.2031 12.5 28.125 12.8906 28.125 13.2812ZM46.0937 3.75C47.0312 3.75 47.8125 4.53125 47.8125 5.46874C47.8125 6.40624 47.0312 7.18749 46.0937 7.18749C45.1562 7.18749 44.375 6.40624 44.375 5.46874C44.375 4.53125 45.1562 3.75 46.0937 3.75ZM32.0312 11.5625C32.9687 11.5625 33.75 12.3437 33.75 13.2812C33.75 14.2187 32.9687 15 32.0312 15C31.0937 15 30.3125 14.2187 30.3125 13.2812C30.3125 12.3437 31.0937 11.5625 32.0312 11.5625ZM3.90625 18.125C2.96875 18.125 2.1875 17.3437 2.1875 16.4062C2.1875 15.4687 2.96875 14.6875 3.90625 14.6875C4.84375 14.6875 5.62499 15.4687 5.62499 16.4062C5.62499 17.3437 4.84375 18.125 3.90625 18.125ZM17.9687 5.62499C17.0312 5.62499 16.25 4.84375 16.25 3.90625C16.25 2.96875 17.0312 2.1875 17.9687 2.1875C18.9062 2.1875 19.6875 2.96875 19.6875 3.90625C19.6875 4.84375 18.9062 5.62499 17.9687 5.62499Z" fill="#5DF7F1"/>
</svg>
