<svg width="50" height="45" viewBox="0 0 50 45" fill="none" xmlns="http://www.w3.org/2000/svg">
<path d="M6.79487 22.0741C7.15793 22.0741 7.521 21.9702 7.83234 21.711L18.4131 12.5308L25.1557 18.3917C25.778 18.9104 26.6597 18.9104 27.2302 18.3399L37.7074 8.74491L40.3529 11.3903C40.6642 11.7016 41.0272 11.8573 41.4421 11.8573C41.5977 11.8573 41.7534 11.8573 41.909 11.8055C42.4795 11.6499 42.8943 11.1833 42.9982 10.6124L44.7096 1.84699C44.8135 1.32827 44.6579 0.809519 44.2948 0.44645C43.9317 0.0833816 43.413 -0.072266 42.8943 0.031617L34.0767 1.69129C33.5062 1.79518 33.0392 2.21001 32.8835 2.7805C32.7279 3.35099 32.8835 3.92144 33.2466 4.3367L35.4768 6.56685L26.1405 15.1248L19.3978 9.264C18.8273 8.74528 17.9455 8.74528 17.3751 9.264L5.75687 19.3264C5.0825 19.8969 5.03073 20.8827 5.60122 21.5049C5.91253 21.8679 6.37912 22.0753 6.79436 22.0753L6.79487 22.0741Z" fill="#5759CE"/>
<path d="M48.4444 40.9537H45.2285V22.1258C45.2285 21.2441 44.5541 20.5696 43.6723 20.5696C42.7905 20.5696 42.1161 21.244 42.1161 22.1258V40.9537H39.0042L39.0045 16.4202C39.0045 15.5384 38.3301 14.864 37.4483 14.864C36.5665 14.864 35.8921 15.5384 35.8921 16.4202V40.9537H32.7801L32.7805 27.3123C32.7805 26.4305 32.1061 25.7561 31.2243 25.7561C30.3425 25.7561 29.6681 26.4304 29.6681 27.3123V40.9537H26.5561L26.5565 31.4622C26.5565 30.5804 25.8821 29.906 25.0003 29.906C24.1185 29.906 23.4441 30.5803 23.4441 31.4622V40.9537H20.3321V22.1258C20.3321 21.2441 19.6578 20.5696 18.7759 20.5696C17.8941 20.5696 17.2197 21.244 17.2197 22.1258V40.9537H14.1078L14.1081 35.6112C14.1081 34.7294 13.4338 34.055 12.5519 34.055C11.6701 34.055 10.9957 34.7294 10.9957 35.6112V40.9533H7.88377L7.88413 30.9426C7.88413 30.0608 7.20975 29.3864 6.32792 29.3864C5.44609 29.3864 4.77172 30.0608 4.77172 30.9426V40.9533H1.5562C0.674419 40.9533 0 41.6277 0 42.5095C0 43.3913 0.674373 44.0657 1.5562 44.0657H48.4438C49.3256 44.0657 50 43.3913 50 42.5095C50 41.6277 49.3256 40.9533 48.4438 40.9533L48.4444 40.9537Z" fill="#47BEC3"/>
</svg>
