<svg width="463" height="493" viewBox="0 0 463 493" fill="none" xmlns="http://www.w3.org/2000/svg">
<path d="M450.034 229.288C418.911 275.886 352.494 420.004 368.831 473.489L130.555 473.544C130.555 473.544 96.1248 447.909 62.6768 403.34C56.5981 395.242 50.5528 386.512 44.7568 377.202C38.6021 367.338 32.7301 356.817 27.3941 345.686C11.887 313.406 0.821428 275.996 0.373962 234.646C-1.18697 91.5103 122.698 -41.519 291.229 12.1623C459.758 65.8436 481.147 182.689 450.034 229.288Z" fill="#EEF9F8"/>
<path d="M300.95 475.177C300.472 475.177 299.997 474.968 299.673 474.566L172.604 316.574C172.037 315.869 172.149 314.84 172.853 314.272C173.558 313.706 174.589 313.817 175.154 314.522L302.225 472.513C302.792 473.217 302.68 474.247 301.976 474.814C301.673 475.058 301.312 475.177 300.95 475.177Z" fill="#006C71"/>
<path d="M103.84 475.177C103.48 475.177 103.117 475.058 102.816 474.814C102.112 474.247 102 473.217 102.565 472.513L229.636 314.522C230.204 313.817 231.233 313.706 231.937 314.272C232.643 314.84 232.755 315.869 232.187 316.574L105.117 474.566C104.793 474.968 104.319 475.177 103.84 475.177Z" fill="#4674B7"/>
<path d="M230.912 475.177C230.433 475.177 229.96 474.968 229.636 474.566L102.565 316.574C102 315.869 102.112 314.84 102.816 314.272C103.521 313.706 104.551 313.817 105.117 314.522L232.187 472.513C232.753 473.217 232.641 474.247 231.937 474.814C231.635 475.058 231.272 475.177 230.912 475.177Z" fill="#4674B7"/>
<path d="M126.358 319.742H67.3236C65.0076 319.742 63.1289 317.864 63.1289 315.548C63.1289 313.232 65.0076 311.354 67.3236 311.354H126.358C128.674 311.354 130.553 313.232 130.553 315.548C130.553 317.864 128.674 319.742 126.358 319.742Z" fill="#006C71"/>
<path d="M296.215 319.742H127.484C125.168 319.742 123.291 317.864 123.291 315.548C123.291 313.232 125.168 311.354 127.484 311.354H296.215V319.742Z" fill="#4674B7"/>
<path d="M171.958 394.544C171.958 397.074 169.907 399.125 167.376 399.125C164.846 399.125 162.795 397.074 162.795 394.544C162.795 392.014 164.846 389.962 167.376 389.962C169.907 389.962 171.958 392.014 171.958 394.544Z" fill="#006C71"/>
<path d="M241.997 394.544C241.997 397.074 239.945 399.125 237.415 399.125C234.885 399.125 232.834 397.074 232.834 394.544C232.834 392.014 234.885 389.962 237.415 389.962C239.945 389.962 241.997 392.014 241.997 394.544Z" fill="#FBC52F"/>
<path d="M181.034 186.13H121.56C118.622 186.13 116.242 183.749 116.242 180.813V136.581C116.242 133.645 118.622 131.264 121.56 131.264H181.034C183.972 131.264 186.352 133.645 186.352 136.581V180.813C186.352 183.749 183.972 186.13 181.034 186.13Z" fill="#50C4C0"/>
<path d="M153.104 167.513C147.1 168.649 141.941 163.49 143.077 157.486C143.71 154.133 146.416 151.428 149.77 150.793C155.774 149.658 160.933 154.816 159.797 160.82C159.163 164.174 156.457 166.88 153.104 167.513ZM166.512 155.492H164.31C163.973 154.289 163.474 153.149 162.825 152.105L164.524 150.408C165.17 149.76 165.17 148.709 164.524 148.062L162.133 145.672C161.485 145.025 160.436 145.025 159.788 145.672L157.983 147.477C156.985 146.916 155.916 146.476 154.786 146.189V143.482C154.786 142.566 154.045 141.825 153.129 141.825H149.749C148.833 141.825 148.09 142.566 148.09 143.482V146.22C146.994 146.502 145.956 146.918 144.988 147.453L143.006 145.47C142.36 144.824 141.309 144.824 140.662 145.47L138.272 147.861C137.624 148.509 137.624 149.558 138.272 150.206L140.106 152.041C139.493 153.017 139.011 154.082 138.664 155.208H136.083C135.167 155.208 134.424 155.949 134.424 156.865V160.245C134.424 161.161 135.167 161.904 136.083 161.904H138.344C138.598 163.153 139.028 164.342 139.616 165.444L138.07 166.988C137.422 167.636 137.422 168.685 138.07 169.332L140.461 171.722C141.109 172.37 142.158 172.37 142.806 171.722L144.148 170.381C145.267 171.109 146.498 171.672 147.806 172.036V173.912C147.806 174.828 148.549 175.57 149.465 175.57H152.845C153.761 175.57 154.504 174.828 154.504 173.912V172.161C155.858 171.842 157.134 171.326 158.296 170.632L159.588 171.924C160.234 172.572 161.284 172.572 161.932 171.924L164.322 169.533C164.97 168.886 164.97 167.836 164.322 167.189L162.996 165.862C163.654 164.732 164.149 163.498 164.453 162.188H166.512C167.426 162.188 168.171 161.445 168.171 160.529V157.149C168.171 156.233 167.426 155.492 166.512 155.492Z" fill="white"/>
<path d="M270.577 155.821H211.101C208.165 155.821 205.783 153.441 205.783 150.504V106.273C205.783 103.336 208.165 100.956 211.101 100.956H270.577C273.513 100.956 275.894 103.336 275.894 106.273V150.504C275.894 153.441 273.513 155.821 270.577 155.821Z" fill="#343573"/>
<path d="M228.999 137.609C228.581 137.609 228.162 137.438 227.842 137.097L220.453 129.188C219.813 128.504 219.813 127.394 220.453 126.712L227.967 118.67C228.606 117.986 229.643 117.986 230.282 118.67C230.922 119.354 230.922 120.464 230.282 121.146L223.925 127.949L230.157 134.62C230.797 135.304 230.797 136.413 230.157 137.097C229.837 137.438 229.419 137.609 228.999 137.609Z" fill="white"/>
<path d="M252.674 137.609C252.255 137.609 251.836 137.438 251.516 137.097C250.876 136.413 250.876 135.304 251.516 134.62L257.75 127.949L251.391 121.146C250.752 120.464 250.752 119.354 251.391 118.67C252.031 117.986 253.067 117.986 253.706 118.67L261.222 126.712C261.53 127.04 261.7 127.485 261.7 127.949C261.7 128.414 261.53 128.86 261.222 129.188L253.831 137.097C253.511 137.438 253.091 137.609 252.674 137.609Z" fill="white"/>
<path d="M237.17 139.782C236.966 139.782 236.757 139.741 236.554 139.653C235.715 139.289 235.314 138.266 235.654 137.37L242.989 118.086C243.33 117.193 244.281 116.757 245.123 117.125C245.961 117.489 246.363 118.512 246.023 119.408L238.687 138.692C238.427 139.37 237.817 139.782 237.17 139.782Z" fill="white"/>
<path d="M324.263 166.364H176.695V161.834C176.695 160.612 177.685 159.621 178.907 159.621H322.051C323.274 159.621 324.263 160.612 324.263 161.834V166.364Z" fill="white"/>
<path d="M320.145 245.038H180.815C178.539 245.038 176.695 243.193 176.695 240.917V166.364H324.263V240.917C324.263 243.193 322.421 245.038 320.145 245.038Z" fill="#343573"/>
<path d="M317.181 162.993C317.181 163.566 316.716 164.03 316.144 164.03C315.571 164.03 315.105 163.566 315.105 162.993C315.105 162.42 315.571 161.956 316.144 161.956C316.716 161.956 317.181 162.42 317.181 162.993Z" fill="#4674B7"/>
<path d="M310.049 162.993C310.049 163.566 309.585 164.03 309.012 164.03C308.439 164.03 307.975 163.566 307.975 162.993C307.975 162.42 308.439 161.956 309.012 161.956C309.585 161.956 310.049 162.42 310.049 162.993Z" fill="#4674B7"/>
<path d="M302.918 162.993C302.918 163.566 302.453 164.03 301.88 164.03C301.308 164.03 300.844 163.566 300.844 162.993C300.844 162.42 301.308 161.956 301.88 161.956C302.453 161.956 302.918 162.42 302.918 162.993Z" fill="#4674B7"/>
<path d="M266.29 176.997H184.345C183.557 176.997 182.918 176.358 182.918 175.57C182.918 174.782 183.557 174.144 184.345 174.144H266.29C267.078 174.144 267.715 174.782 267.715 175.57C267.715 176.358 267.078 176.997 266.29 176.997Z" fill="#50C4C0"/>
<path d="M266.29 186.073H184.345C183.557 186.073 182.918 185.434 182.918 184.646C182.918 183.858 183.557 183.22 184.345 183.22H266.29C267.078 183.22 267.715 183.858 267.715 184.646C267.715 185.434 267.078 186.073 266.29 186.073Z" fill="#50C4C0"/>
<path d="M227.198 195.149H184.345C183.557 195.149 182.918 194.51 182.918 193.722C182.918 192.934 183.557 192.296 184.345 192.296H227.198C227.985 192.296 228.623 192.934 228.623 193.722C228.623 194.51 227.985 195.149 227.198 195.149Z" fill="#50C4C0"/>
<path d="M266.29 213.301H184.345C183.557 213.301 182.918 212.662 182.918 211.874C182.918 211.086 183.557 210.448 184.345 210.448H266.29C267.078 210.448 267.715 211.086 267.715 211.874C267.715 212.662 267.078 213.301 266.29 213.301Z" fill="#4674B7"/>
<path d="M227.198 222.377H184.345C183.557 222.377 182.918 221.738 182.918 220.95C182.918 220.164 183.557 219.525 184.345 219.525H227.198C227.985 219.525 228.623 220.164 228.623 220.95C228.623 221.738 227.985 222.377 227.198 222.377Z" fill="#4674B7"/>
<path d="M227.198 231.453H184.345C183.557 231.453 182.918 230.814 182.918 230.026C182.918 229.24 183.557 228.601 184.345 228.601H227.198C227.985 228.601 228.623 229.24 228.623 230.026C228.623 230.814 227.985 231.453 227.198 231.453Z" fill="#50C4C0"/>
<path d="M266.29 195.149H235.495C234.707 195.149 234.068 194.51 234.068 193.722C234.068 192.934 234.707 192.296 235.495 192.296H266.29C267.078 192.296 267.715 192.934 267.715 193.722C267.715 194.51 267.078 195.149 266.29 195.149Z" fill="white"/>
<path d="M306.966 174.768L285.191 196.542C284.634 197.1 283.731 197.1 283.174 196.542C282.617 195.985 282.617 195.081 283.174 194.525L304.948 172.75C305.506 172.193 306.41 172.193 306.966 172.75C307.523 173.306 307.523 174.21 306.966 174.768Z" fill="#4674B7"/>
<path d="M307.91 215.96C307.91 223.05 302.159 228.8 295.069 228.8C287.978 228.8 282.229 223.05 282.229 215.96C282.229 208.868 287.978 203.118 295.069 203.118C302.159 203.118 307.91 208.868 307.91 215.96Z" fill="#4674B7"/>
<path d="M293.389 224.908C293.389 228.922 290.136 232.177 286.121 232.177C282.106 232.177 278.852 228.922 278.852 224.908C278.852 220.893 282.106 217.638 286.121 217.638C290.136 217.638 293.389 220.893 293.389 224.908Z" fill="#50C4C0"/>
<path d="M176.695 237.077V263.037L200.554 239.177" fill="#343573"/>
<path d="M151.297 270.056H203.646L222.577 306.49H170.228L151.297 270.056Z" fill="#87C5B8"/>
<path d="M171.287 303.796L155.612 273.628C155.284 272.994 155.743 272.24 156.456 272.24H201.744C202.099 272.24 202.423 272.436 202.587 272.75L218.261 302.918C218.591 303.552 218.132 304.306 217.419 304.306H172.131C171.776 304.306 171.451 304.11 171.287 303.796Z" fill="white"/>
<path d="M212.627 306.49H170.229V311.354H212.627V306.49Z" fill="#BBE8E0"/>
<path d="M249.053 306.49H207.214C205.871 306.49 204.783 307.58 204.783 308.921C204.783 310.265 205.871 311.354 207.214 311.354H249.053C250.397 311.354 251.485 310.265 251.485 308.921C251.485 307.58 250.397 306.49 249.053 306.49Z" fill="#9FD2C5"/>
<path d="M170.228 306.49L151.298 270.056L150.348 270.768C149.736 271.228 149.547 272.064 149.904 272.742L170.228 311.354V306.49Z" fill="#BBE8E0"/>
<path d="M189.287 309.57H184.619V308.76H189.287V309.57Z" fill="#9FD2C5"/>
<path d="M195.154 309.57H190.486V308.76H195.154V309.57Z" fill="#9FD2C5"/>
<path d="M201.022 309.57H196.355V308.76H201.022V309.57Z" fill="#9FD2C5"/>
<path d="M265.669 377.802C265.669 377.802 222.246 411.612 215.36 420.2C212.762 423.453 208.233 429.149 203.541 434.988C195.837 444.581 187.662 454.577 186.692 454.817C185.142 455.209 172.112 445.29 171.718 443.15C171.478 441.818 183.341 421.456 193.61 405.085C199.864 395.134 205.516 386.642 207.502 384.809C212.752 379.942 245.054 362.83 245.054 362.83L265.669 377.802Z" fill="#343573"/>
<mask id="mask0_84_5902" style="mask-type:luminance" maskUnits="userSpaceOnUse" x="182" y="382" width="59" height="67">
<path d="M182.805 448.148C182.697 448.148 182.587 448.116 182.491 448.049C182.245 447.876 182.186 447.536 182.359 447.289C182.365 447.281 192.502 432.85 205.198 417.188C205.315 417.624 205.433 418.056 205.55 418.488C196.266 429.978 188.413 440.718 185.031 445.421C183.883 447.017 183.254 447.913 183.251 447.916C183.146 448.068 182.977 448.148 182.805 448.148ZM231.665 389.689L231.522 388.344C233.978 386.126 236.346 384.182 238.582 382.605H240.519C237.801 384.386 234.806 386.814 231.665 389.689Z" fill="white"/>
</mask>
<g mask="url(#mask0_84_5902)">
<path d="M182.186 448.148H240.519V382.606H182.186V448.148Z" fill="#2C2E5F"/>
</g>
<path d="M310.926 229.538C310.468 230.586 309.943 231.677 309.355 232.79C306.179 238.858 308.526 244.937 304.902 246.486C304.684 246.574 304.443 246.661 304.171 246.716C299.5 247.753 288.74 241.532 288.27 238.422C287.802 235.312 291.587 229.986 288.27 229.342C284.954 228.698 283.163 234.274 283.163 234.274C280.435 234.558 279.464 229.986 274.988 229.986C274.356 229.986 273.735 230.074 273.135 230.226C271.028 230.75 269.184 232.049 268.004 233.053C267.132 233.784 266.63 234.362 266.63 234.362C266.63 234.362 262.647 231.841 262.832 226.876C263.148 219.008 266.051 213.268 273.047 212.1C273.822 203.348 281.024 198.677 290.648 198.382C299.086 198.12 300.351 205.705 300.547 207.593C300.472 206.185 300.079 201.557 298.071 198.382C302.294 198.196 306.015 201.209 305.043 211.03C306.015 208.106 309.42 206.261 312.039 208.4C309.616 208.4 307.28 212.481 307.28 212.481C307.28 212.481 310.13 214.304 312.072 217.676C313.687 220.46 313.076 224.573 310.926 229.538Z" fill="#322020"/>
<path d="M304.901 246.486L304.793 247.928L304.423 253.034C304.423 253.034 296.651 259.681 292.243 253.034L292.145 252.904C290.78 250.874 289.547 250.165 288.423 250.033C287.571 249.93 286.775 250.156 286.013 250.381C284.604 250.798 283.313 251.216 281.995 249.542C276.189 242.176 273.876 233.642 273.135 230.226C273.735 230.074 274.356 229.986 274.988 229.986C279.464 229.986 280.435 234.558 283.163 234.274C283.163 234.274 284.953 228.698 288.269 229.342C291.587 229.986 287.801 235.312 288.269 238.422C288.477 239.808 290.737 241.816 293.595 243.518C296.924 245.516 301.072 247.098 303.7 246.793C303.864 246.77 304.019 246.748 304.171 246.716C304.443 246.661 304.684 246.574 304.901 246.486Z" fill="#F89D8A"/>
<path d="M290.527 257.314C289.947 256.278 289.047 254.3 289.777 253.034C289.974 252.685 290.465 252.205 291.162 251.637C291.163 251.637 291.163 251.637 291.163 251.636C291.483 251.986 291.81 252.405 292.146 252.904L292.243 253.034C292.814 253.897 293.442 254.534 294.102 254.993C293.07 255.657 291.842 256.453 290.527 257.314Z" fill="#E9F8F5"/>
<path d="M294.101 254.993C293.441 254.534 292.813 253.897 292.242 253.034L292.145 252.904C291.809 252.405 291.482 251.986 291.162 251.636C292.571 250.48 294.841 248.997 297.186 247.774C297.186 247.774 297.187 247.774 297.187 247.773C296.602 248.645 296.309 249.256 296.214 249.466L296.203 249.542C296.039 250.252 295.875 250.994 295.723 251.769C295.557 252.572 295.39 253.405 295.226 254.27C294.886 254.488 294.509 254.73 294.101 254.993Z" fill="#5AB8EA"/>
<path d="M305.075 341.114C297.262 342.62 280.729 338.014 272.817 334.457C270.481 333.409 268.887 332.449 268.506 331.772C266.989 329.098 268.517 327.046 272.282 318.557C272.707 317.596 273.154 316.56 273.635 315.436C276.189 309.422 276.199 296.6 276.189 285.544C276.155 276.082 276.113 267.92 277.618 266.469C280.881 263.325 297.163 253.034 297.163 253.034L300.405 269.928C300.405 269.928 302.238 278.506 304.17 289.702C307.727 310.317 311.635 339.848 305.075 341.114Z" fill="#50C4C0"/>
<path d="M310.524 348.633C310.524 349.408 302.742 367.556 296.216 370.153C289.69 372.75 250.36 369.892 250.36 369.892L230.913 382.605L234.982 420.91L237.82 447.602L237.908 448.466C231.96 452.35 216.977 453.398 215.361 450.048L215.35 450.025C213.789 446.653 189.934 374.824 199.276 362.372C208.606 349.932 268.508 331.772 268.508 331.772C270.069 332.765 271.88 333.66 273.856 334.457C280.512 337.185 288.97 338.898 295.409 339.902C297.885 340.285 300.057 340.569 301.716 340.764C303.812 341.016 305.077 341.114 305.077 341.114C305.077 341.114 310.524 347.848 310.524 348.633Z" fill="#343573"/>
<path d="M240.373 473.489H189.802C189.552 472.594 189.89 471.689 190.654 470.772C192.705 468.305 197.845 465.828 202.8 463.689C207.504 461.658 212.022 459.914 213.538 458.713C217.108 455.886 215.46 450.386 215.361 450.048C215.906 451.172 217.969 451.804 220.698 451.99C226.056 452.372 233.969 451.041 237.908 448.466L237.82 447.602C239.326 450.484 240.036 464.727 240.276 470.772C240.341 472.441 240.373 473.489 240.373 473.489Z" fill="#202853"/>
<path d="M220.697 451.99C220.544 454.402 220.195 458.308 219.496 459.357C218.46 460.917 207.307 466.362 205.756 465.84C204.753 465.511 203.531 464.42 202.799 463.689C207.503 461.658 212.021 459.914 213.537 458.713C217.107 455.886 215.459 450.386 215.36 450.048C215.905 451.172 217.968 451.804 220.697 451.99Z" fill="#304383"/>
<path d="M240.373 473.489H189.802C189.552 472.594 189.89 471.689 190.654 470.772H240.276C240.341 472.441 240.373 473.489 240.373 473.489Z" fill="#304383"/>
<path d="M186.693 454.817C186.693 454.817 182.852 464.944 179.522 470.302C178.202 472.441 176.948 473.828 176.062 473.489C172.953 472.321 141.698 445.748 144.688 443.805C145.125 443.522 145.824 443.325 146.697 443.216C149.414 442.866 153.921 443.248 158.09 443.674C161.669 444.045 164.997 444.449 166.733 444.449C171.141 444.449 171.72 443.15 171.72 443.15C171.818 443.664 172.648 444.636 173.881 445.813C177.744 449.48 185.514 455.111 186.693 454.817Z" fill="#202853"/>
<path d="M173.88 445.813C167.256 450.2 160.348 447.56 158.983 446.556C157.979 445.824 157.979 444.461 158.089 443.674C161.668 444.045 164.996 444.449 166.732 444.449C171.14 444.449 171.719 443.15 171.719 443.15C171.817 443.664 172.647 444.636 173.88 445.813Z" fill="#304383"/>
<path d="M179.522 470.302C178.202 472.441 176.948 473.828 176.062 473.489C172.953 472.321 141.698 445.748 144.688 443.805C145.125 443.522 145.824 443.325 146.697 443.216L179.522 470.302Z" fill="#304383"/>
<path d="M272.838 308.014C270.394 311.418 266.018 316.614 262.417 316.089C262.286 316.069 262.145 316.046 261.97 316.014C255.093 314.802 214.661 304.664 212.751 304.282C210.809 303.901 197.201 303.769 197.975 302.34C198.75 300.91 206.531 296.381 208.605 296.49C210.678 296.6 218.851 298.968 227.014 298.705C235.189 298.454 256.578 298.705 256.578 298.705L257.615 296.916L259.142 294.274C258.717 302.197 268.266 308.658 272.838 308.014Z" fill="#F89D8A"/>
<path d="M278.235 351.314C278.159 351.314 278.082 351.3 278.009 351.266C275.47 350.113 273.965 348.166 273.126 346.132C272.283 344.094 272.079 341.962 272.078 340.322C272.078 338.637 272.298 337.466 272.302 337.444C272.351 337.181 272.581 336.998 272.838 336.998C272.871 336.998 272.905 337.001 272.938 337.008C273.235 337.064 273.43 337.349 273.374 337.645C273.374 337.645 273.363 337.704 273.345 337.829C273.325 337.956 273.299 338.141 273.273 338.378C273.222 338.852 273.169 339.528 273.169 340.322C273.169 341.872 273.37 343.872 274.134 345.714C274.902 347.56 276.202 349.241 278.461 350.273C278.735 350.397 278.857 350.721 278.731 350.996C278.641 351.196 278.442 351.314 278.235 351.314Z" fill="#2C2E5F"/>
<path d="M230.91 448.148C230.658 448.148 230.432 447.972 230.377 447.714C230.377 447.71 223.364 414.448 219.853 391.993C218.682 384.501 217.9 378.229 217.898 374.721C217.902 373.6 217.968 372.77 218.178 372.172C218.369 371.656 218.737 371.162 219.244 370.632C219.75 370.102 220.404 369.542 221.186 368.946C222.75 367.756 224.829 366.426 227.256 365.013C232.104 362.186 238.333 359.025 244.489 356.064C256.798 350.141 268.81 345.018 268.814 345.016C268.884 344.986 268.957 344.972 269.028 344.972C269.24 344.972 269.442 345.097 269.53 345.304C269.649 345.581 269.52 345.901 269.242 346.02C269.238 346.021 267.761 346.652 265.305 347.729C262.848 348.806 259.416 350.328 255.52 352.106C247.728 355.662 238.073 360.248 230.646 364.346C225.7 367.07 221.724 369.612 220.032 371.386C219.58 371.854 219.302 372.266 219.205 372.544C219.077 372.88 218.985 373.661 218.989 374.721C218.985 380.628 221.368 395.357 224.052 409.976C226.734 424.605 229.717 439.173 230.91 444.924C231.25 446.568 231.445 447.488 231.445 447.49C231.508 447.785 231.318 448.074 231.024 448.137C230.986 448.145 230.948 448.148 230.91 448.148Z" fill="#2C2E5F"/>
<path d="M234.981 420.91C234.981 420.91 226.764 377.16 226.764 374.3C226.764 371.857 281.089 356.24 295.408 339.902C297.884 340.292 300.057 340.574 301.713 340.768C301.744 340.978 301.773 341.189 301.802 341.398C302.224 344.488 302.469 347.341 302.469 349.81C302.469 355.145 301.324 358.694 298.332 359C290.812 359.786 285.88 360.037 284.069 367.556L250.358 369.892L233.562 380.717L230.912 382.605L234.981 420.91Z" fill="#2C2E5F"/>
<path d="M272.283 318.557C272.709 317.596 273.155 316.56 273.637 315.436C274.619 313.12 275.226 309.793 275.599 305.945C282.459 299.338 288.438 289.416 288.147 280.613C288.599 285.681 288.979 296.442 284.91 302.209C281.537 306.989 276.102 313.056 272.283 318.557Z" fill="#43BAB4"/>
<path d="M274.968 306.541C274.465 307 273.952 307.458 273.439 307.884C273.255 307.949 273.057 307.993 272.839 308.014C268.267 308.658 258.717 302.197 259.143 294.274C259.176 293.686 259.645 292.508 260.409 290.969C264.316 283.089 276.069 265.552 278.231 266.36C278.231 266.36 285.781 267.526 287.833 277.84C289.753 287.52 282.824 299.262 274.968 306.541Z" fill="#389A9A"/>
<path d="M301.713 340.764C300.054 340.568 297.883 340.285 295.409 339.902C288.97 338.898 280.511 337.185 273.855 334.457C279.726 334.249 292.287 330.386 293.805 301.63C294.491 307.01 295.529 312.586 296.969 318.294C298.895 325.874 300.719 333.876 301.713 340.764Z" fill="#43BAB4"/>
<path d="M291.162 251.637C290.922 251.374 290.687 251.149 290.455 250.958C290.687 251.149 290.923 251.373 291.163 251.636C291.163 251.637 291.163 251.637 291.162 251.637Z" fill="#E9F8F5"/>
<path d="M291.162 251.636C290.922 251.373 290.686 251.149 290.454 250.958C289.739 250.369 289.065 250.108 288.422 250.033L293.59 243.524C295.162 244.465 296.914 245.314 298.603 245.918C298.13 246.472 297.739 246.984 297.419 247.437C297.337 247.553 297.259 247.666 297.186 247.774C294.841 248.997 292.571 250.48 291.162 251.636Z" fill="#5AB8EA"/>
<path d="M262.932 316.126C262.759 316.126 262.586 316.114 262.416 316.089C262.286 316.069 262.144 316.046 261.97 316.014C257.516 309.576 257.352 301.138 257.615 296.916L259.142 294.274C259.14 294.306 259.139 294.34 259.138 294.372C258.834 301.338 266.219 307.153 271.08 307.962C271.084 307.962 271.088 307.964 271.091 307.964C271.1 307.965 271.11 307.966 271.119 307.969C271.138 307.972 271.158 307.974 271.176 307.977C271.188 307.98 271.202 307.981 271.214 307.984C271.252 307.989 271.29 307.994 271.328 308C271.364 308.004 271.399 308.009 271.434 308.013C271.579 308.03 271.72 308.042 271.86 308.05H271.862C271.903 308.052 271.943 308.054 271.984 308.056C272.048 308.057 272.111 308.058 272.174 308.058C272.404 308.058 272.627 308.044 272.838 308.014C270.51 311.257 266.427 316.126 262.932 316.126Z" fill="#5AB8EA"/>
<path d="M307.541 239.093C307.697 237.858 307.925 236.542 308.354 235.197C307.926 236.541 307.701 237.856 307.545 239.09C307.544 239.092 307.542 239.092 307.541 239.093Z" fill="#272952"/>
<path d="M298.616 245.909C297.713 245.588 296.791 245.2 295.889 244.761C295.101 244.378 294.328 243.958 293.595 243.518C292.321 242.76 291.165 241.94 290.259 241.141C289.132 240.149 288.387 239.19 288.269 238.422C288.241 238.234 288.228 238.037 288.229 237.834C288.232 235.725 289.645 232.905 289.645 231.09C289.645 230.193 289.3 229.542 288.269 229.342C288.088 229.306 287.912 229.29 287.74 229.29C287.739 229.29 287.736 229.29 287.735 229.29C286.189 229.294 285.016 230.64 284.244 231.932C283.532 233.126 283.163 234.274 283.163 234.274C283.081 234.284 283 234.288 282.921 234.288C282.92 234.288 282.917 234.288 282.916 234.288C281.493 234.285 280.539 232.94 279.216 231.754C278.172 230.821 276.9 229.986 274.988 229.986C274.356 229.986 273.735 230.074 273.135 230.226C271.028 230.75 269.184 232.049 268.004 233.053C268.004 233.053 272.165 227.209 278.856 227.209C279.532 227.209 280.233 227.269 280.959 227.4C280.959 227.4 279.928 225.436 275.335 225.436C275.061 225.436 274.776 225.442 274.477 225.457C278.909 224.013 282.707 223.369 285.888 223.369C290.712 223.369 294.121 224.849 296.193 227.269C298.041 229.434 301.532 231.936 305.228 231.937C307.139 231.937 309.103 231.269 310.925 229.538C310.468 230.586 309.943 231.677 309.355 232.79C308.932 233.597 308.608 234.402 308.355 235.197C307.925 236.542 307.697 237.858 307.541 239.093C306.9 239.425 306.295 239.762 305.72 240.102C302.348 242.11 300.079 244.194 298.616 245.909Z" fill="#261A19"/>
<path d="M295.889 244.761C295.101 244.38 294.328 243.961 293.595 243.518L293.591 243.524C292.319 242.762 291.165 241.941 290.259 241.141C291.165 241.94 292.321 242.76 293.595 243.518C294.328 243.958 295.101 244.378 295.889 244.761ZM288.269 229.342C288.089 229.306 287.912 229.29 287.74 229.29C287.912 229.29 288.088 229.306 288.269 229.342Z" fill="#5AB8EA"/>
<path d="M307.313 241.193C307.313 241.193 307.312 241.192 307.311 241.19C307.311 241.188 307.311 241.185 307.312 241.181C307.313 241.182 307.313 241.184 307.315 241.184C307.315 241.188 307.315 241.19 307.313 241.193Z" fill="#272952"/>
<path d="M307.312 241.19C306.932 240.898 306.546 240.624 306.158 240.373C306.546 240.622 306.93 240.89 307.313 241.181C307.312 241.185 307.312 241.188 307.312 241.19Z" fill="#261A19"/>
<path d="M298.609 245.914C297.707 245.593 296.789 245.2 295.889 244.761C296.79 245.2 297.713 245.588 298.615 245.909L298.609 245.914Z" fill="#1F1616"/>
<path d="M298.603 245.918C296.914 245.314 295.162 244.465 293.59 243.524L293.594 243.518C294.327 243.961 295.101 244.38 295.889 244.761C296.789 245.2 297.707 245.593 298.608 245.914L298.603 245.918Z" fill="#F3654F"/>
<path d="M333.603 382.605H294.699C294.699 382.605 325.561 373.525 325.561 312.325C325.561 311.538 325.561 310.764 325.55 309.989C325.234 269.088 316.491 246.53 305.721 240.102C309.093 238.106 313.578 236.196 319.503 234.876C322.091 234.286 324.938 233.817 328.093 233.489C354.731 230.772 376.011 241.216 378.543 253.034C381.065 264.854 365.491 382.605 333.603 382.605Z" fill="#BBE8E0"/>
<path d="M325.56 312.325C325.56 373.525 294.699 382.605 294.699 382.605H230.912L233.563 380.717L250.359 369.892L284.069 367.556C285.88 360.037 290.812 359.786 298.332 359C302.708 358.553 303.135 351.165 301.803 341.398C300.831 334.369 298.955 326.108 296.968 318.294C295.528 312.586 294.491 307.01 293.804 301.63C292.984 295.333 292.625 289.32 292.591 283.656C292.493 270.757 294.065 259.736 295.724 251.769C295.876 250.994 296.04 250.252 296.204 249.542L296.215 249.466C296.367 249.128 297.035 247.753 298.604 245.918L298.616 245.909C300.079 244.194 302.348 242.11 305.72 240.102C306.256 240.418 306.789 240.79 307.313 241.193C317.343 248.833 325.244 271.129 325.549 309.989C325.56 310.764 325.56 311.538 325.56 312.325Z" fill="#87C5B8"/>
<path d="M313.251 473.489H267.328C265.756 473.489 265.07 471.502 266.314 470.53L277.806 461.539C282.902 457.545 285.88 451.422 285.88 444.952V382.605H294.699V444.952C294.699 451.422 297.678 457.545 302.784 461.539L314.264 470.53C315.51 471.502 314.822 473.489 313.251 473.489Z" fill="#BBE8E0"/>
<path d="M349.158 238.958C348.927 238.958 348.713 238.81 348.638 238.578C348.366 237.725 348.146 237.088 347.997 236.664C347.846 236.24 347.766 236.037 347.766 236.037C347.657 235.756 347.795 235.44 348.075 235.33C348.141 235.305 348.207 235.293 348.274 235.293C348.493 235.293 348.698 235.424 348.782 235.64C348.786 235.65 349.125 236.517 349.678 238.246C349.77 238.533 349.611 238.841 349.325 238.932C349.27 238.95 349.213 238.958 349.158 238.958Z" fill="#AAE2D8"/>
<path d="M329.75 375.654C329.618 375.654 329.486 375.606 329.382 375.51C329.16 375.308 329.145 374.962 329.348 374.74C330.59 373.382 331.784 371.99 332.928 370.566C333.036 370.433 333.193 370.364 333.353 370.364C333.473 370.364 333.594 370.402 333.694 370.484C333.929 370.672 333.966 371.016 333.778 371.25C332.62 372.692 331.412 374.101 330.153 375.477C330.045 375.594 329.898 375.654 329.75 375.654ZM336.682 367.036C336.574 367.036 336.464 367.002 336.369 366.936C336.122 366.761 336.064 366.421 336.237 366.174C337.297 364.673 338.31 363.144 339.276 361.588C339.378 361.421 339.557 361.329 339.74 361.329C339.837 361.329 339.937 361.356 340.026 361.412C340.282 361.57 340.361 361.906 340.202 362.162C339.226 363.737 338.202 365.285 337.129 366.804C337.022 366.954 336.854 367.036 336.682 367.036ZM342.52 357.636C342.432 357.636 342.342 357.614 342.26 357.569C341.994 357.425 341.897 357.093 342.041 356.829C342.918 355.216 343.75 353.578 344.538 351.922C344.632 351.725 344.828 351.61 345.032 351.61C345.11 351.61 345.19 351.628 345.266 351.664C345.538 351.793 345.654 352.118 345.524 352.39C344.728 354.065 343.886 355.72 343 357.35C342.901 357.532 342.713 357.636 342.52 357.636ZM347.28 347.644C347.21 347.644 347.14 347.63 347.072 347.602C346.793 347.486 346.661 347.168 346.776 346.889C347.48 345.192 348.14 343.477 348.76 341.749C348.84 341.526 349.05 341.388 349.273 341.388C349.334 341.388 349.397 341.398 349.458 341.42C349.741 341.521 349.889 341.833 349.788 342.117C349.161 343.862 348.494 345.593 347.784 347.306C347.697 347.517 347.494 347.644 347.28 347.644ZM351.022 337.226C350.969 337.226 350.914 337.218 350.861 337.201C350.573 337.113 350.412 336.808 350.5 336.52C351.041 334.761 351.542 332.993 352.006 331.217C352.07 330.97 352.292 330.808 352.534 330.808C352.58 330.808 352.626 330.814 352.673 330.826C352.964 330.902 353.138 331.2 353.062 331.492C352.596 333.284 352.089 335.068 351.544 336.841C351.472 337.076 351.256 337.226 351.022 337.226ZM353.822 326.514C353.784 326.514 353.745 326.51 353.705 326.502C353.412 326.438 353.224 326.148 353.289 325.853C353.68 324.053 354.036 322.248 354.354 320.442C354.402 320.177 354.632 319.992 354.892 319.992C354.924 319.992 354.956 319.994 354.988 320C355.284 320.052 355.482 320.336 355.429 320.632C355.108 322.452 354.749 324.27 354.354 326.085C354.3 326.341 354.073 326.514 353.822 326.514ZM355.756 315.613C355.732 315.613 355.706 315.612 355.68 315.608C355.382 315.566 355.173 315.292 355.214 314.993C355.469 313.164 355.689 311.337 355.876 309.514H355.877C355.905 309.234 356.142 309.025 356.418 309.025C356.437 309.025 356.456 309.026 356.474 309.028C356.774 309.058 356.993 309.326 356.962 309.626C356.773 311.461 356.552 313.301 356.296 315.142C356.258 315.416 356.024 315.613 355.756 315.613ZM356.89 304.598C356.878 304.598 356.865 304.598 356.853 304.597C356.552 304.577 356.325 304.317 356.346 304.016C356.472 302.168 356.565 300.33 356.629 298.504C356.638 298.209 356.881 297.977 357.173 297.977C357.18 297.977 357.186 297.977 357.193 297.977C357.494 297.988 357.729 298.241 357.72 298.542C357.656 300.38 357.561 302.23 357.434 304.09C357.414 304.378 357.176 304.598 356.89 304.598ZM357.274 293.532C356.973 293.532 356.729 293.286 356.729 292.985L356.73 292.656C356.73 290.909 356.702 289.178 356.65 287.466C356.641 287.165 356.878 286.914 357.18 286.905C357.185 286.905 357.19 286.905 357.196 286.905C357.49 286.905 357.733 287.138 357.741 287.433C357.794 289.156 357.821 290.898 357.821 292.656V292.988C357.82 293.288 357.576 293.532 357.274 293.532ZM356.937 282.465C356.652 282.465 356.412 282.242 356.393 281.954C356.276 280.09 356.129 278.256 355.956 276.453C355.928 276.153 356.148 275.886 356.446 275.858C356.465 275.856 356.482 275.856 356.5 275.856C356.777 275.856 357.016 276.066 357.042 276.349C357.217 278.162 357.365 280.01 357.482 281.885C357.501 282.186 357.273 282.445 356.972 282.464C356.961 282.465 356.949 282.465 356.937 282.465ZM355.876 271.446C355.605 271.446 355.37 271.246 355.334 270.97C355.086 269.069 354.829 267.245 354.564 265.5C354.52 265.201 354.724 264.924 355.022 264.878C355.05 264.874 355.077 264.872 355.105 264.872C355.369 264.872 355.602 265.066 355.644 265.336C355.909 267.089 356.168 268.921 356.417 270.83C356.456 271.129 356.245 271.402 355.946 271.441C355.922 271.445 355.898 271.446 355.876 271.446ZM354.214 260.498C353.953 260.498 353.724 260.312 353.677 260.046C353.341 258.121 353 256.312 352.661 254.618C352.602 254.322 352.793 254.034 353.089 253.976C353.125 253.969 353.161 253.965 353.197 253.965C353.452 253.965 353.68 254.145 353.732 254.404C354.072 256.106 354.414 257.925 354.752 259.86C354.804 260.156 354.605 260.438 354.308 260.49C354.277 260.496 354.245 260.498 354.214 260.498ZM352.033 249.644C351.785 249.644 351.56 249.473 351.502 249.22C351.038 247.202 350.59 245.417 350.176 243.864C350.098 243.573 350.272 243.274 350.562 243.197C350.609 243.184 350.657 243.178 350.704 243.178C350.945 243.178 351.165 243.338 351.23 243.582C351.648 245.149 352.098 246.946 352.565 248.976C352.633 249.269 352.45 249.562 352.156 249.629C352.114 249.638 352.074 249.644 352.033 249.644Z" fill="#AAE2D8"/>
<path d="M285.881 403.34V382.605H294.7V399.63C291.644 401.222 288.544 402.445 285.881 403.34Z" fill="#B1E4DB"/>
<path d="M256.416 382.605H230.912L233.563 380.717L250.359 369.892L284.069 367.556C285.88 360.037 290.812 359.786 298.332 359C301.324 358.694 302.469 355.145 302.469 349.81C302.469 347.341 302.224 344.488 301.803 341.398C300.831 334.369 298.955 326.108 296.968 318.294C295.528 312.586 294.491 307.01 293.804 301.63C292.984 295.333 292.625 289.32 292.591 283.656C297.58 309.652 308.427 351.35 306.888 356.152C304.813 362.633 291.861 361.473 290.289 366.268C288.323 372.264 286.875 373.172 283.392 373.172C282.636 373.172 281.784 373.128 280.811 373.085C279.836 373.042 278.74 373 277.497 373C275.991 373 274.269 373.062 272.283 373.264C264.949 374.006 259.624 378.709 256.416 382.605Z" fill="#74BAAF"/>
<path d="M331.029 382.605H294.699C294.699 382.605 325.561 373.525 325.561 312.325C325.561 311.538 325.561 310.764 325.55 309.989C325.25 271.122 317.341 248.82 307.313 241.181C306.93 240.89 306.546 240.622 306.158 240.373C306.013 240.28 305.867 240.189 305.721 240.102C309.093 238.106 313.578 236.196 319.503 234.876C317.725 237.44 315.869 241.292 316.743 245.406C318.305 252.685 335.939 280.689 329.195 325.552C324.327 357.92 325.942 374.758 331.029 382.605ZM325.854 378.549C325.718 378.549 325.582 378.6 325.477 378.7C324.826 379.322 324.162 379.937 323.487 380.542C323.262 380.744 323.243 381.089 323.445 381.313C323.553 381.433 323.702 381.494 323.851 381.494C323.981 381.494 324.111 381.449 324.215 381.356C324.899 380.742 325.571 380.12 326.231 379.489C326.449 379.281 326.457 378.936 326.249 378.717C326.141 378.605 325.997 378.549 325.854 378.549Z" fill="#B1E4DB"/>
<path d="M323.851 381.494C323.702 381.494 323.552 381.433 323.444 381.313C323.243 381.089 323.262 380.744 323.487 380.542C324.162 379.937 324.826 379.322 325.476 378.7C325.582 378.6 325.718 378.549 325.854 378.549C325.996 378.549 326.14 378.605 326.248 378.717C326.456 378.936 326.448 379.281 326.231 379.489C325.571 380.12 324.899 380.742 324.215 381.356C324.111 381.449 323.98 381.494 323.851 381.494Z" fill="#9CDDD2"/>
<path d="M132.039 229.288C130.643 234.362 124.237 244.206 118.387 254.748C111.993 266.249 106.274 278.572 108.511 286.396C109.067 288.36 109.318 289.8 109.318 290.837C109.341 294.242 106.754 293.184 104.146 291.252C101.483 289.277 98.7875 286.396 98.7875 286.396L98.9835 271.226C98.9835 271.226 90.3848 263.325 97.4461 246.04C97.8928 244.948 98.4061 243.813 98.9835 242.634C108.707 222.992 123.287 202.376 109.482 196.537C128.547 195.37 134.965 218.669 132.039 229.288Z" fill="#50C4C0"/>
<path d="M109.487 196.54C109.486 196.54 109.483 196.54 109.48 196.538C109.483 196.54 109.484 196.54 109.487 196.54Z" fill="#E4F6F3"/>
<path d="M102.456 261.189C102.196 260.994 101.948 260.776 101.713 260.536C102.609 258.069 103.641 255.662 104.701 253.274C107.686 246.62 111.04 240.158 114.153 233.589C115.708 230.305 117.212 226.996 118.518 223.61C119.772 220.224 120.976 216.733 121.094 213.114L121.029 211.77L120.809 210.43C120.692 209.529 120.456 208.656 120.216 207.782C120.012 206.898 119.62 206.074 119.314 205.222C118.906 204.416 118.542 203.582 118.024 202.837C116.106 199.788 113.046 197.362 109.489 196.54C113.057 197.318 116.166 199.71 118.138 202.762C118.672 203.509 119.049 204.344 119.47 205.154C119.789 206.008 120.196 206.836 120.412 207.725C120.666 208.602 120.914 209.482 121.044 210.388L121.282 211.738L121.366 213.116C121.29 216.808 120.117 220.332 118.901 223.753C117.63 227.173 116.164 230.51 114.648 233.821C111.612 240.44 108.338 246.942 105.45 253.604C104.377 256.105 103.337 258.625 102.456 261.189Z" fill="#3DA7A6"/>
<path d="M123.287 259.942C117.459 275.308 123.287 286.964 114.535 288.622C110.53 289.386 108.762 286.417 108.031 282.969C107.158 278.888 107.737 274.14 107.737 274.14C107.737 274.14 109.221 270.342 112.341 266.654C114.885 263.653 118.497 260.729 123.287 259.942Z" fill="#389A9A"/>
<path d="M102.966 278.985C102.933 282.565 102.126 285.598 100.468 287.192C100.304 287.357 100.14 287.498 99.9863 287.618C95.8503 290.969 93.2103 284.836 93.2103 284.836C93.2103 284.836 82.2103 279.412 76.753 268.401C72.573 259.942 71.645 248.178 81.4783 233.053C82.9197 243.824 88.8223 251.158 94.6717 258.12V258.132C95.4037 259.004 96.1237 259.856 96.8437 260.717C100.893 265.574 103.021 273.038 102.966 278.985Z" fill="#BBE8E0"/>
<path d="M99.365 282.936H98.3023C98.2743 281.153 97.877 279.381 97.1383 277.736C96.2077 275.632 94.821 273.73 93.3423 271.912C90.3743 268.278 86.997 264.854 84.589 260.714C82.081 256.632 80.869 251.885 80.4624 247.176C80.1117 242.448 80.4343 237.673 81.4757 233.06C80.5237 237.69 80.2957 242.462 80.7344 247.15C81.2304 251.826 82.517 256.473 85.057 260.432C87.4997 264.457 90.8943 267.77 93.973 271.389C95.505 273.204 96.977 275.13 98.0077 277.342C98.8303 279.076 99.301 280.998 99.365 282.936Z" fill="#95DBCF"/>
<path d="M123.283 259.95C123.283 259.949 123.283 259.95 123.283 259.949C123.286 259.948 123.287 259.945 123.29 259.942C123.287 259.945 123.285 259.948 123.283 259.95Z" fill="#E9F8F5"/>
<path d="M109.793 282.936H108.789C109.965 279.076 111.861 275.496 113.958 272.116C115.312 269.936 116.808 267.852 118.36 265.817C119.921 263.794 121.548 261.821 123.284 259.949C123.284 259.95 123.284 259.949 123.284 259.95C121.614 261.881 120.062 263.909 118.578 265.98C117.104 268.061 115.692 270.188 114.425 272.397C112.509 275.737 110.809 279.262 109.793 282.936Z" fill="#2E7D80"/>
<path d="M119.75 286.778L116.018 309.694C115.833 310.656 114.993 311.354 114.01 311.354H90.7545C89.7731 311.354 88.9318 310.656 88.7465 309.694L85.7131 291.088L85.0145 286.778C84.7851 285.524 85.7451 284.365 87.0225 284.365H117.742C119.02 284.365 119.98 285.524 119.75 286.778Z" fill="#BBE8E0"/>
<path d="M123.287 291.449H81.4785L82.5812 285.206C82.8212 283.897 83.9558 282.936 85.2878 282.936H119.489C120.809 282.936 121.955 283.897 122.184 285.206L123.287 291.449Z" fill="#87C5B8"/>
<path d="M112.34 266.656C113.221 264.668 114.2 262.648 115.236 260.628C114.203 262.646 113.225 264.665 112.34 266.654C112.34 266.654 112.34 266.654 112.34 266.656Z" fill="#E9F8F5"/>
<path d="M108.02 282.936H102.556C102.819 281.742 102.953 280.406 102.967 278.985C102.968 278.916 102.968 278.846 102.968 278.776C102.969 275.237 102.209 271.182 100.739 267.469C100.965 266.224 101.268 264.985 101.635 263.761C101.887 262.898 102.163 262.041 102.455 261.189C103.092 261.666 103.809 261.998 104.615 262.146C104.955 262.209 105.301 262.238 105.656 262.238C109.671 262.238 114.576 258.438 118.387 254.748C117.304 256.693 116.243 258.661 115.236 260.628C114.2 262.648 113.221 264.668 112.34 266.656C109.22 270.342 107.736 274.14 107.736 274.14C107.733 274.158 107.159 278.873 108.02 282.936ZM100.057 265.882C99.1772 263.992 98.1039 262.228 96.8439 260.717C96.1239 259.856 95.4039 259.004 94.6719 258.132V258.12C94.7599 254.769 95.5239 250.753 97.4452 246.04C97.6959 250.413 98.5999 257.352 101.712 260.536C101.357 261.509 101.025 262.493 100.72 263.488C100.473 264.276 100.251 265.074 100.057 265.882Z" fill="#43BAB4"/>
<path d="M100.738 267.469C100.526 266.932 100.298 266.402 100.057 265.882C100.25 265.074 100.473 264.276 100.719 263.488C101.025 262.493 101.357 261.509 101.711 260.536C101.946 260.776 102.194 260.994 102.454 261.189C102.162 262.041 101.886 262.898 101.634 263.761C101.267 264.985 100.965 266.224 100.738 267.469Z" fill="#348E91"/>
<path d="M107.736 274.14C107.736 274.14 109.22 270.342 112.34 266.656C112.34 266.654 112.34 266.654 112.34 266.654C109.22 270.342 107.736 274.14 107.736 274.14Z" fill="#2E7D80"/>
<path d="M102.556 282.936H102.552C102.813 281.748 102.945 280.405 102.967 278.985C102.953 280.406 102.819 281.742 102.556 282.936ZM102.968 278.776C102.971 272.864 100.845 265.517 96.8439 260.717C98.1039 262.228 99.1772 263.992 100.057 265.882C100.299 266.402 100.527 266.932 100.739 267.469C102.209 271.182 102.969 275.237 102.968 278.776Z" fill="#AAE2D8"/>
<path d="M88.7463 309.694L85.7676 291.449H85.7716L88.7463 309.694Z" fill="#E9F8F5"/>
<path d="M104.635 311.354H90.7541C89.7728 311.354 88.9315 310.656 88.7462 309.694L85.7715 291.449H97.7608C97.4662 294.002 97.1062 298.772 98.0115 302.472C98.7208 305.406 101.297 309.182 104.635 311.354Z" fill="#AAE2D8"/>
<path d="M209.799 122.585H150.325C147.387 122.585 145.006 120.204 145.006 117.268V73.0357C145.006 70.0997 147.387 67.7184 150.325 67.7184H209.799C212.737 67.7184 215.117 70.0997 215.117 73.0357V117.268C215.117 120.204 212.737 122.585 209.799 122.585Z" fill="#343573"/>
<path d="M161.33 87.125V93.0304C161.33 93.5024 161.714 93.8863 162.187 93.8863H165.455C165.929 93.8863 166.311 93.5024 166.311 93.0304V87.125C166.311 86.6517 166.695 86.269 167.169 86.269H167.485C167.957 86.269 168.341 86.6517 168.341 87.125V103.178C168.341 103.65 167.957 104.034 167.485 104.034H167.169C166.695 104.034 166.311 103.65 166.311 103.178V96.5877C166.311 96.1144 165.929 95.7317 165.455 95.7317H162.187C161.714 95.7317 161.33 96.1144 161.33 96.5877V103.178C161.33 103.65 160.947 104.034 160.474 104.034H160.157C159.683 104.034 159.301 103.65 159.301 103.178V87.125C159.301 86.6517 159.683 86.269 160.157 86.269H160.474C160.947 86.269 161.33 86.6517 161.33 87.125Z" fill="white"/>
<path d="M172.727 88.0877H171.198C170.726 88.0877 170.342 87.7037 170.342 87.2317V87.125C170.342 86.6517 170.726 86.269 171.198 86.269H177.999C178.472 86.269 178.855 86.6517 178.855 87.125V87.2317C178.855 87.7037 178.472 88.0877 177.999 88.0877H176.47C175.996 88.0877 175.614 88.4703 175.614 88.9437V103.178C175.614 103.65 175.23 104.034 174.756 104.034H174.44C173.967 104.034 173.583 103.65 173.583 103.178V88.9437C173.583 88.4703 173.2 88.0877 172.727 88.0877Z" fill="white"/>
<path d="M191.478 96.3904C191.344 94.0437 191.212 91.4357 191.292 89.4317H191.187C190.791 91.409 190.316 93.517 189.763 95.5997L187.576 103.929H186.283L184.202 95.9423C183.622 93.6757 183.095 91.4877 182.752 89.4317H182.674C182.674 91.5144 182.567 93.9917 182.463 96.5224L182.158 103.217C182.136 103.674 181.759 104.034 181.302 104.034H181.21C180.716 104.034 180.326 103.62 180.355 103.128L181.307 87.0744C181.334 86.6224 181.708 86.269 182.162 86.269H182.878C183.27 86.269 183.611 86.533 183.707 86.9117L185.626 94.3863C186.231 96.733 186.68 98.4717 187.048 100.502H187.127C187.471 98.4717 187.866 96.785 188.446 94.3863L190.288 86.9197C190.383 86.537 190.727 86.269 191.12 86.269H191.907C192.362 86.269 192.736 86.6223 192.762 87.0757L193.691 103.129C193.719 103.62 193.328 104.034 192.836 104.034H192.662C192.204 104.034 191.828 103.676 191.806 103.22L191.478 96.3904Z" fill="white"/>
<path d="M197.363 86.269H197.679C198.152 86.269 198.537 86.6517 198.537 87.125V101.465C198.537 101.938 198.921 102.321 199.393 102.321H202.687C203.161 102.321 203.543 102.705 203.543 103.178C203.543 103.65 203.161 104.034 202.687 104.034H197.363C196.89 104.034 196.506 103.65 196.506 103.178V87.125C196.506 86.6517 196.89 86.269 197.363 86.269Z" fill="white"/>
<path d="M236.914 72.4184C239.139 72.4184 239.665 70.921 239.665 69.5864C239.665 68.4144 239.543 67.2797 239.423 66.1477C239.302 64.933 239.179 63.841 239.179 62.5864C239.179 58.945 241.406 57.4077 244.278 57.4077H244.763V59.5117H244.155C242.457 59.5117 241.769 60.725 241.769 62.5464C241.769 63.6384 241.891 64.6504 242.013 65.621C242.093 66.673 242.214 67.6437 242.214 68.6157C242.255 71.7717 241.162 72.8637 239.423 73.3504V73.4304C241.162 73.957 242.255 75.049 242.214 78.2464C242.214 79.257 242.093 80.269 242.013 81.2797C241.891 82.2917 241.769 83.3037 241.769 84.3957C241.769 86.217 242.375 87.4704 244.198 87.4704H244.763V89.5757H244.238C241.567 89.5757 239.179 88.2397 239.179 84.3957C239.179 83.1824 239.302 81.9677 239.423 80.7944C239.543 79.621 239.665 78.4477 239.665 77.3144C239.665 76.021 239.139 74.4423 236.914 74.4423V72.4184Z" fill="#343573"/>
<path d="M278.163 74.4423C275.938 74.4423 275.413 76.021 275.413 77.3144C275.413 78.4477 275.534 79.621 275.654 80.7944C275.775 81.9677 275.898 83.1824 275.898 84.3957C275.898 88.2397 273.51 89.5757 270.839 89.5757H270.312V87.4704H270.879C272.702 87.269 273.309 86.217 273.309 84.3957C273.309 83.3037 273.186 82.2917 273.105 81.2797C272.983 80.269 272.863 79.257 272.863 78.2464C272.822 75.049 273.914 73.957 275.654 73.4304V73.3504C273.914 72.8637 272.822 71.7717 272.863 68.6157C272.863 67.6437 272.983 66.673 273.105 65.621C273.186 64.6504 273.309 63.6384 273.309 62.5464C273.309 60.725 272.619 59.7144 270.921 59.5117H270.312V57.4077H270.799C273.671 57.4077 275.898 58.945 275.898 62.5864C275.898 63.841 275.775 64.933 275.654 66.1477C275.534 67.2797 275.413 68.4144 275.413 69.5864C275.413 70.921 275.938 72.4184 278.163 72.4184V74.4423Z" fill="#343573"/>
<path d="M264.278 77.3837V69.5997L257.537 65.7077L250.797 69.5997V77.3837L257.537 81.2757L264.278 77.3837Z" fill="#4674B7"/>
<path d="M314.992 116.165C308.657 113.01 301.036 114.256 296.029 119.264C289.848 125.445 289.642 135.353 295.376 141.805L292.905 141.512C292.606 141.476 292.334 141.69 292.3 141.989C292.264 142.288 292.478 142.56 292.776 142.596L296.54 143.042C296.69 143.061 296.832 143.016 296.942 142.93C297.052 142.844 297.129 142.716 297.146 142.565L297.58 138.924C297.616 138.625 297.402 138.354 297.102 138.318C296.804 138.282 296.532 138.496 296.496 138.796L296.22 141.114C290.837 135.09 291.018 125.818 296.801 120.036C301.477 115.36 308.592 114.197 314.506 117.141C314.776 117.277 315.104 117.165 315.238 116.896C315.372 116.626 315.262 116.3 314.992 116.165Z" fill="#4674B7"/>
<path d="M300.826 146.362C307.161 149.518 314.782 148.273 319.79 143.265C325.971 137.082 326.177 127.176 320.442 120.722L322.914 121.017C323.213 121.053 323.483 120.838 323.519 120.54C323.555 120.24 323.342 119.969 323.042 119.933L319.278 119.486C319.129 119.468 318.986 119.513 318.875 119.598C318.766 119.685 318.69 119.813 318.673 119.964L318.24 123.605C318.204 123.904 318.418 124.174 318.715 124.21C319.015 124.246 319.287 124.032 319.322 123.733L319.598 121.414C324.982 127.438 324.801 136.71 319.018 142.493C314.343 147.168 307.227 148.332 301.311 145.386C301.042 145.252 300.715 145.362 300.581 145.632C300.446 145.902 300.557 146.229 300.826 146.362Z" fill="#4674B7"/>
<path d="M446.773 176.997H348.009C346.209 176.997 344.75 175.537 344.75 173.737C344.75 171.937 346.209 170.477 348.009 170.477H446.773C448.574 170.477 450.034 171.937 450.034 173.737C450.034 175.537 448.574 176.997 446.773 176.997Z" fill="#4674B7"/>
<path d="M411.506 191.165H348.009C346.209 191.165 344.75 189.706 344.75 187.906C344.75 186.105 346.209 184.646 348.009 184.646H411.506C413.307 184.646 414.765 186.105 414.765 187.906C414.765 189.706 413.307 191.165 411.506 191.165Z" fill="#50C4C0"/>
<path d="M411.506 206.378H348.009C346.209 206.378 344.75 204.918 344.75 203.118C344.75 201.318 346.209 199.86 348.009 199.86H411.506C413.307 199.86 414.765 201.318 414.765 203.118C414.765 204.918 413.307 206.378 411.506 206.378Z" fill="#50C4C0"/>
<path d="M96.5822 122.836H45.2795C43.4795 122.836 42.0195 121.377 42.0195 119.577C42.0195 117.776 43.4795 116.317 45.2795 116.317H96.5822C98.3822 116.317 99.8409 117.776 99.8409 119.577C99.8409 121.377 98.3822 122.836 96.5822 122.836Z" fill="#50C4C0"/>
<path d="M77.2129 137.005H45.2795C43.4795 137.005 42.0195 135.546 42.0195 133.746C42.0195 131.945 43.4795 130.486 45.2795 130.486H77.2129C79.0129 130.486 80.4729 131.945 80.4729 133.746C80.4729 135.546 79.0129 137.005 77.2129 137.005Z" fill="#4674B7"/>
<path d="M77.2129 152.218H45.2795C43.4795 152.218 42.0195 150.758 42.0195 148.958C42.0195 147.158 43.4795 145.698 45.2795 145.698H77.2129C79.0129 145.698 80.4729 147.158 80.4729 148.958C80.4729 150.758 79.0129 152.218 77.2129 152.218Z" fill="#4674B7"/>
<path d="M402.279 359.132C399.081 368.408 395.261 376.505 391.267 383.816C377.463 409.036 361.431 425.08 360.831 448.596C360.831 448.596 355.855 426.442 359.849 401.201C362.087 387.025 367.149 371.877 377.507 359.132C406.327 323.686 402.06 291.449 402.06 291.449C402.06 291.449 416.509 317.89 402.279 359.132Z" fill="#389A9A"/>
<path d="M402.173 291.665C402.117 291.556 402.081 291.489 402.066 291.462C402.104 291.529 402.138 291.597 402.173 291.665Z" fill="#E9F8F5"/>
<path d="M372.551 395.426C373.559 392.841 374.701 390.309 375.951 387.836C377.193 385.254 378.677 382.805 380.128 380.341L384.768 373.176C387.725 368.358 390.22 363.249 392.32 357.981C394.437 352.72 396.22 347.32 397.716 341.842C399.228 336.366 400.464 330.813 401.436 325.214C402.415 319.618 403.128 313.969 403.481 308.297C403.651 305.461 403.729 302.616 403.607 299.776C403.536 298.357 403.448 296.936 403.216 295.533C402.981 294.138 402.723 292.717 402.06 291.449C402.063 291.453 402.065 291.457 402.067 291.462C402.081 291.489 402.117 291.556 402.173 291.665C402.776 292.868 403.044 294.208 403.285 295.522C403.54 296.924 403.652 298.348 403.748 299.768C403.917 302.613 403.884 305.466 403.761 308.31C403.515 314.005 402.841 319.674 401.925 325.298C401.012 330.922 399.833 336.506 398.376 342.02C396.933 347.536 395.203 352.981 393.128 358.301C391.072 363.629 388.612 368.81 385.668 373.728L381.069 380.918C379.641 383.36 378.179 385.789 376.959 388.342C375.925 390.4 374.968 392.498 374.103 394.632C373.584 394.901 373.065 395.166 372.551 395.426Z" fill="#2E7D80"/>
<path d="M358.652 431.913C358.437 428.8 358.296 425.352 358.297 421.664C358.297 415.393 358.706 408.424 359.849 401.201C363.6 399.669 367.989 397.732 372.55 395.426C371.477 398.18 370.554 400.994 369.817 403.862C369.081 406.637 368.566 409.473 368.282 412.337C368.13 413.952 368.028 415.564 368.041 417.188C364.424 421.945 361.22 426.854 358.652 431.913ZM369.192 415.698C369.234 414.613 369.32 413.528 369.432 412.456C369.742 409.66 370.241 406.88 370.953 404.15C371.777 400.91 372.842 397.733 374.102 394.632C379.95 391.592 385.992 387.962 391.266 383.816C387.013 391.586 382.549 398.485 378.389 405C375.157 408.474 372.06 412.038 369.192 415.698Z" fill="#2E7D80"/>
<path d="M368.042 417.188C368.029 415.564 368.131 413.952 368.283 412.337C368.567 409.473 369.082 406.637 369.818 403.862C370.555 400.994 371.478 398.18 372.551 395.426C373.066 395.166 373.585 394.901 374.104 394.632C372.844 397.733 371.778 400.91 370.954 404.15C370.242 406.88 369.744 409.66 369.433 412.456C369.321 413.528 369.235 414.613 369.193 415.698C368.806 416.192 368.421 416.692 368.042 417.188Z" fill="#235A5D"/>
<path d="M368.834 473.492C368.834 473.492 358.754 456.256 382.612 434.988C406.469 413.718 425.141 385.589 421.509 362.83C398.69 389.344 338.009 426.937 355.124 473.489L368.834 473.492Z" fill="#50C4C0"/>
<path d="M362.515 474.088C362.306 474.088 362.106 473.966 362.016 473.762L362.014 473.757C361.975 473.669 361.938 473.58 361.9 473.49H362.751H363.058C363.08 473.718 362.956 473.944 362.735 474.041C362.663 474.073 362.588 474.088 362.515 474.088Z" fill="white"/>
<path d="M363.057 473.49H361.9C359.77 468.38 359.141 462.796 359.345 457.352C359.545 451.786 360.678 446.308 362.296 441.017C365.605 430.438 371.021 420.58 377.902 411.94C381.346 407.621 385.201 403.618 389.444 400.08C393.701 396.574 397.96 393.092 401.841 389.177C405.753 385.305 409.432 381.194 412.785 376.825C416.102 372.438 419.189 367.833 421.508 362.83C419.23 367.853 416.178 372.489 412.893 376.908C409.573 381.309 405.921 385.458 402.032 389.369C398.181 393.322 393.924 396.86 389.708 400.394C385.516 403.946 381.717 407.958 378.329 412.28C371.561 420.921 366.266 430.761 363.078 441.256C361.521 446.504 360.45 451.922 360.3 457.384C360.14 462.821 360.836 468.356 363.013 473.322C363.037 473.377 363.052 473.434 363.057 473.49Z" fill="#43BAB4"/>
<path d="M26.4354 348.63C26.4354 348.63 13.9881 337.286 7.375 308.921C45.4954 341.24 54.8314 370.022 54.8314 370.022L26.4354 348.63Z" fill="#389A9A"/>
<path d="M34.0061 350.11C33.4447 349.74 32.8834 349.368 32.3207 348.994C31.4367 347.36 30.5194 345.741 29.5941 344.13C27.2821 340.129 24.8938 336.168 22.4506 332.238C17.5615 324.382 12.5277 316.613 7.375 308.921C12.6782 316.51 17.8641 324.181 22.9115 331.946C25.4329 335.829 27.9021 339.748 30.3007 343.716C31.5674 345.826 32.8194 347.948 34.0061 350.11Z" fill="#2E7D80"/>
<path d="M54.054 364.577C47.2007 358.4 37.0514 352.278 27.3927 345.686C14.5482 336.922 2.57684 327.298 0.361644 315.544C-4.67996 357.964 44.658 377.061 44.658 377.061L44.7554 377.202L62.6754 403.34C62.6754 403.34 69.998 378.97 54.054 364.577Z" fill="#50C4C0"/>
<path d="M62.6729 403.889C62.3742 403.889 62.1316 403.646 62.1289 403.348V403.34C62.1316 403.097 62.1316 402.854 62.1316 402.613C62.3129 402.856 62.4942 403.098 62.6756 403.34C62.7862 403.486 62.8942 403.632 63.0049 403.778C62.9142 403.848 62.8009 403.889 62.6782 403.889C62.6769 403.889 62.6756 403.889 62.6729 403.889Z" fill="white"/>
<path d="M63.0055 403.778C62.8949 403.632 62.7869 403.486 62.6762 403.34C62.6762 403.34 62.9002 402.596 63.1829 401.292C63.2095 401.974 63.2215 402.658 63.2215 403.341C63.2229 403.518 63.1375 403.678 63.0055 403.778ZM62.6762 403.34C62.4949 403.098 62.3135 402.856 62.1322 402.613C62.1322 402.59 62.1309 402.568 62.1309 402.545L62.6762 403.34Z" fill="#E9F8F5"/>
<path d="M62.6752 403.34L62.1299 402.545C62.0819 393.48 59.7765 384.352 54.7965 376.713C49.7472 368.792 42.4258 362.597 34.7205 357.253C30.8565 354.565 26.8712 352.045 22.9428 349.43C19.0141 346.828 15.1485 344.058 11.8073 340.701C8.46464 337.358 5.67185 333.465 3.63132 329.204C1.67505 324.921 0.346913 320.273 0.361446 315.544C0.39278 320.272 1.76519 324.898 3.75425 329.145C5.82865 333.372 8.64478 337.217 12 340.508C15.3516 343.812 19.2193 346.528 23.1688 349.089C27.1152 351.661 31.1272 354.144 35.0299 356.804C42.8099 362.09 50.2672 368.261 55.4845 376.27C60.3965 383.644 62.8539 392.473 63.1819 401.292C62.8992 402.596 62.6752 403.34 62.6752 403.34Z" fill="#43BAB4"/>
<path d="M405.301 492.42H73.8208C68.5928 492.42 64.3555 488.184 64.3555 482.956C64.3555 477.728 68.5928 473.489 73.8208 473.489H405.301C410.529 473.489 414.766 477.728 414.766 482.956C414.766 488.184 410.529 492.42 405.301 492.42Z" fill="#EEF9F8"/>
</svg>
